<svg xmlns="http://www.w3.org/2000/svg" xml:space="preserve" fill-rule="evenodd" stroke-linejoin="round" stroke-miterlimit="2" clip-rule="evenodd" viewBox="0 0 678 79">
  <g fill="#fff" opacity=".5">
    <path d="M425 57v6h14v-6h-5l1-18 17 24 7-1 1-34h3v-5h-14v5h4v21l-17-26h-12v5h4v29h-3Zm49-36c-3 0-5 2-5 5s2 5 5 5c1 1 3 0 4-1l1-4c0-3-2-5-5-5Zm-4 21v15l-4 1v5h17v-5l-4-1 1-22h-1l-13 2v5h4Zm15 9c0 8 6 12 13 12 4 0 8-1 11-3l-1-5-7 2-4-1-2-6 2-7 3-1 6 1 3-6-7-2c-10 0-17 7-17 16Zm26 0c0 8 6 12 14 12l12-3-1-5-9 2-4-1-2-4 13-1 3-3c0-4-1-7-3-10-1-2-4-3-8-3-9 0-15 7-15 16Zm14-11 3 2v5h-7l1-5 3-2Zm16 23h17v-5l-4-1v-8l4-4 1-1 4 1 3-9-5-1c-2 0-4 1-8 8v-8h-1l-11 2v5h3v16h-3v5Zm26-12c0 8 6 12 14 12 4 0 8-1 11-3l-1-5-8 2-5-1-1-4 13-1 3-3c0-4-1-7-3-10-2-2-4-3-8-3-9 0-15 7-15 16Zm14-11 2 2 1 4v1h-7l1-5 3-2Zm15 37h17v-5h-4l-1-10h1a13 13 0 0 0 11-1c2-1 4-3 5-6l2-8c0-6-4-12-9-12-3 0-3 0-9 4h-1v-4l-13 2v5h4v30h-3v5Zm21-28c0 4-1 6-2 7l-3 2-3-2V44l4-2 3 2 1 5Zm12 14h17v-5l-4-1 1-37h-1l-13 1v6h4v30l-3 1-1 5Zm48-22 1-5h-12v5h2l-2 7-1 7h-1l-2-8-2-6h3v-5h-16v5h3l4 10 5 13c-1 3-3 4-5 6l-4 3c0 2 5 5 7 5l5-5 8-19 5-13h2Zm-14-26c-1 0 1 6-3 5l-14-8s-3-2 0-4l14-8s2-1 3 2v3s8 2 11 6c5 6 4 14 4 14s-4-11-15-10Z"/>
    <path fill-rule="nonzero" d="M0 64v-1l2-1 1-2V29l-1-1H0v-2h15l7 1 4 3 2 5-4 7-4 2c3 1 5 2 6 4l2 5-2 6-4 4-8 1H0Zm13-21 7-2 2-6-1-3-1-2-3-1h-3a91 91 0 0 0-6 0v14h5ZM8 61l5 1 6-1 2-3 1-5-1-4-3-3H8v15Zm32-19 3-3 3-1 4-1h2v7h-3l-1-3h-4l-2 2-1 2-1 2v10l1 4 1 1 2 1v1H33v-1l1-1 1-1v-1l1-3V45a58 58 0 0 0-1-4l-1-1-2-1v-1l7-1h1v5Zm26 22c-4 0-7-1-9-3s-3-6-3-10l2-8 4-4 6-2c4 0 7 1 9 3 2 3 3 6 3 10l-1 8-4 5-7 1Zm-7-14 2 9c1 2 3 3 5 3l3-1 3-2 1-4a24 24 0 0 0-1-11l-2-3-4-2c-2 0-4 1-5 3l-2 8Zm23-12h8v19l1 2 1 2h5a9 9 0 0 0 4-4V41l-1-1v-1h-2v-1h8v23l1 1 2 1v1h-8v-4l-4 3-5 1-4-1c-1 0-2-1-2-3l-1-5V41l-1-1-2-1v-1Zm55 2h-5l1 3 1 3c0 3-1 5-3 7s-4 2-8 2h-4l-2 3v2h11l5 1 3 3 1 3-2 5-4 3-7 1h-5l-4-1-3-2v-3l1-4 3-2-2-2-1-2 1-3 3-3-3-3-1-5 1-4 2-3 3-1 5-1 4 1h9v2Zm-19 6 2 5c0 2 2 2 4 2h2l2-2 1-2v-3l-1-4-2-2-2-1-4 2-2 5Zm1 18-2 3-1 2 2 4 6 1h4l3-2 1-3v-2l-1-1-1-1h-7l-4-1Zm27-22 4-3 2-1 3-1h3l2 2 1 1 1 3v17l1 2 2 1v1h-11v-1l2-1 1-1V44l-1-3-3-1-2 1-2 1-2 2-1 2v14l1 1v1l2 1v1h-11v-1l2-1 1-1V34a81 81 0 0 0 0-6v-1h-1l-2-1v-1l7-1h1v18Zm21-3 2-1 2-1v-2l1-4h4v7h9v2h-9v17l1 2 1 2h4l2-2 2 2-4 3h-4c-2 0-4 0-5-2l-2-6V40h-4v-1Zm29 0 2-1 1-1 1-2 1-4h4v7h9v2h-9v17l1 2 1 2h4l2-2 1 2-3 3h-4c-2 0-4 0-5-2l-2-6V40h-4v-1Zm31 25c-4 0-7-1-9-3s-3-6-3-10l2-8 4-4 6-2c4 0 7 1 9 3 2 3 3 6 3 10l-1 8-4 5-7 1Zm-7-14 2 9c1 2 3 3 5 3l3-1 3-2 1-4a24 24 0 0 0-1-11l-2-3-4-2c-2 0-4 1-5 3l-2 8Zm46 16-3 6-3 3-4 1h-3v-6h2l1 2h3l1-1 2-2 2-5-8-20-1-3-1-1-1-1v-1h11v1h-2l-1 1v3l1 2 5 14 5-14 1-2v-3l-3-1v-1h11v1l-2 1-1 1-2 3-10 22Zm27-2c-4 0-7-1-9-3s-3-6-3-10l2-8 4-4 6-2c4 0 7 1 9 3 2 3 3 6 3 10l-1 8-5 5-6 1Zm-7-14 2 9c1 2 3 3 5 3l3-1 2-2 2-4a24 24 0 0 0-1-11l-2-3-4-2c-2 0-4 1-5 3l-2 8Zm23-12h8v19l1 2 1 2h5a9 9 0 0 0 4-4V41l-1-1-1-1h-1v-1h8v23l1 1 2 1v1h-8v-4l-5 3-4 1-4-1c-1 0-2-1-2-3l-1-5V41l-1-1-2-1v-1Zm49 4 3-3 2-1 4-1a8 8 0 0 1 8 6l1 8-1 7-4 5-7 1a19 19 0 0 1-7-1l-2 1h-2V34a82 82 0 0 0-1-6v-1h-1l-2-1v-1l7-1h2v18Zm0 12v6l4 2h2l5-2 2-9-2-8c-1-2-2-3-4-3a7 7 0 0 0-5 2l-2 2v10Zm33 12-3 6-3 3-4 1h-4v-6h3l1 2h3l1-1 2-2 2-5-8-20-1-3-1-1-2-1v-1h12v1h-2l-1 1v5l5 14 6-14 1-2v-1l-1-2-2-1v-1h10v1l-1 1-2 1-1 3-10 22Z"/>
  </g>
</svg>
