<svg width="183" height="20" fill="none" xmlns="http://www.w3.org/2000/svg"><g opacity=".5" fill="#fff"><path fill-rule="evenodd" clip-rule="evenodd" d="M121.639 14.098c-.015.411-.015.852-.015 1.263.397 0 .88-.015 1.348-.015H125c.014-.396.014-.851.014-1.262l-1.05-.03c.015-1.453.029-2.877.029-4.375l.099-.015c1.631 2.526 3.22 4.654 4.156 5.814a5.057 5.057 0 0 0 1.73-.278l.057-8.046a.059.059 0 0 1 .01-.052.058.058 0 0 1 .047-.022l.624-.044c.014-.41.014-.851.014-1.248-.426 0-1.007.015-1.504.015h-1.843a33.86 33.86 0 0 0-.029 1.248l1.036.03c.014 1.702.014 3.42.042 5.094h-.085c-1.205-1.953-2.978-4.772-4.056-6.372h-2.724c-.014.396-.014.837-.014 1.248l.823.03.014 6.914c0 .045-.014.059-.042.059l-.709.044Zm11.841-8.736c-.687-.034-1.271.512-1.305 1.219.007.702.552 1.273 1.234 1.292.349.013.688-.12.939-.37.251-.249.394-.592.394-.951.001-.618-.439-1.19-1.262-1.19Zm-1.021 5.066v3.612a.074.074 0 0 1-.057.073l-.752.03c-.014.381-.014.822-.014 1.218.582 0 1.333-.015 1.929-.015h1.958v-1.218l-.78-.03c0-1.468.028-3.729.042-5.314 0-.03 0-.045-.028-.045-.114 0-2.411.338-3.177.397a34.65 34.65 0 0 0-.029 1.248l.908.044Zm3.745 2.143c0 1.806 1.333 2.922 3.078 2.922a6.063 6.063 0 0 0 2.623-.72c-.056-.353-.17-.793-.269-1.175a4.694 4.694 0 0 1-1.645.397c-.284 0-.71-.059-.951-.353-.255-.308-.439-.704-.439-1.41 0-.66.071-1.1.283-1.482a.851.851 0 0 1 .795-.455c.567 0 1.29.367 1.475.44.283-.161.723-1.189.723-1.644-.34-.206-1.064-.353-1.574-.353-2.511 0-4.1 1.748-4.1 3.832l.001.001Zm6.211-.103c0 2.07 1.433 3.025 3.319 3.025a7.843 7.843 0 0 0 2.766-.69 13.38 13.38 0 0 0-.27-1.219 6.934 6.934 0 0 1-2 .412c-.368 0-.737-.03-1.063-.353a1.4 1.4 0 0 1-.383-.954c1.262 0 2.723 0 3.092-.044.113-.014.751-.646.766-.866a3.512 3.512 0 0 0-.724-2.26c-.383-.456-1.049-.78-1.929-.78-2.128 0-3.575 1.644-3.575 3.729h.001Zm3.304-2.496c.279.002.53.176.638.44.107.291.16.6.156.91a.133.133 0 0 1-.026.113.128.128 0 0 1-.102.05c-.411.014-1.106.029-1.602.029a1.939 1.939 0 0 1 .255-1.16.723.723 0 0 1 .681-.382Zm3.814 5.388c.596 0 1.391-.014 2.014-.014h2.142c.029-.397.029-.808.029-1.204l-1.164-.044v-.808c-.01-.421.062-.84.213-1.233a3.05 3.05 0 0 1 .738-1.012.575.575 0 0 1 .411-.132c.302.016.602.066.894.147.27-.25.667-1.44.667-2.13a3.168 3.168 0 0 0-1.021-.192c-.709 0-1.035.191-1.915 1.924l-.085-.015c-.042-.631-.099-1.248-.142-1.88 0-.029-.014-.029-.028-.029-.071 0-2.184.309-2.822.382-.014.382-.029.808-.029 1.204l.837.044v3.7a.06.06 0 0 1-.057.059l-.666.029c-.015.367-.015.808-.015 1.204h-.001Zm6.241-2.892c0 2.07 1.433 3.025 3.319 3.025a7.841 7.841 0 0 0 2.766-.69c-.057-.367-.17-.837-.27-1.219a6.934 6.934 0 0 1-1.999.411c-.369 0-.738-.03-1.064-.352a1.4 1.4 0 0 1-.383-.954c1.262 0 2.723 0 3.092-.044.113-.015.752-.646.766-.866a3.512 3.512 0 0 0-.724-2.261c-.383-.455-1.049-.779-1.929-.779-2.127 0-3.574 1.644-3.574 3.729Zm3.305-2.496c.279.002.53.175.638.44.107.291.16.6.156.91a.137.137 0 0 1-.026.113.128.128 0 0 1-.102.05c-.411.014-1.106.029-1.602.029a1.931 1.931 0 0 1 .255-1.16.72.72 0 0 1 .681-.382Zm3.658 8.853c.553-.014 1.305-.014 1.872-.014.752-.015 1.603-.015 2.284-.015.014-.382.028-.807.028-1.219l-1.163-.029c0-.749 0-1.497-.014-2.231l.099-.03c.399.152.823.222 1.248.206a2.889 2.889 0 0 0 1.518-.47 3.693 3.693 0 0 0 1.092-1.424c.275-.618.42-1.289.425-1.968.015-1.527-.978-2.907-2.155-2.892-.582 0-.752.044-2.185.837l-.085-.015c-.057-.264-.099-.543-.156-.807 0-.03 0-.03-.028-.03-.071 0-2.213.382-2.894.455-.014.382-.028.808-.028 1.204l.908.03-.015 7.076a.078.078 0 0 1-.056.074l-.681.058c-.014.382-.014.808-.014 1.204Zm4.964-6.636c0 .778-.127 1.291-.326 1.6a.83.83 0 0 1-.723.382c-.298 0-.865-.22-.865-.514 0-.822.014-1.982.028-2.805a2.28 2.28 0 0 1 1.106-.41c.24.02.453.163.568.381.127.206.212.676.212 1.366Zm3.077 3.17c.596 0 1.347-.014 1.943-.014h1.972c.014-.382.014-.807.014-1.204l-.823-.044c.014-2.73.057-6.533.057-8.97 0-.044-.014-.059-.043-.059-.141 0-2.453.308-3.233.397-.015.381-.029.822-.029 1.233l.965.044v7.297a.056.056 0 0 1-.015.043.052.052 0 0 1-.042.015l-.752.044c0 .382-.014.823-.014 1.219Zm11.502-5.24c.014-.397.029-.852.029-1.234h-2.823c-.014.382-.014.837-.028 1.248l.496.03c.018-.001.035.007.046.022a.056.056 0 0 1 .011.051c-.142.631-.241 1.116-.355 1.63a23.837 23.837 0 0 1-.425 1.541h-.099c-.199-.631-.383-1.16-.554-1.717a58.72 58.72 0 0 1-.454-1.527l.653-.03c.014-.396.014-.851.014-1.248h-3.702a35.43 35.43 0 0 0-.028 1.248l.539.03a.1.1 0 0 1 .07.058c.227.617.553 1.512.894 2.452.411 1.072.752 1.938 1.191 3.069-.212.543-.61.984-1.049 1.41a5.736 5.736 0 0 1-1.022.763c0 .382 1.234 1.233 1.703 1.233.34-.205.723-.778 1.092-1.38.751-1.219 1.716-3.568 2.099-4.493.425-1.086.993-2.598 1.191-3.127l.511-.03Zm-3.396-6.228c-.223.022.265 1.472-.734 1.17-.495-.285-3.373-1.932-3.373-1.932s-.673-.392 0-.797c.673-.404 3.4-1.961 3.4-1.961s.502-.262.648.37v.767s1.859.437 2.644 1.48c1.092 1.445.837 3.296.837 3.296s-.811-2.573-3.422-2.393Z"/><path d="M19.704 15.676v-.325c.275-.072.46-.149.552-.233a.642.642 0 0 0 .18-.373c.03-.16.046-.403.046-.731V8.262c0-.305-.01-.527-.033-.664a.776.776 0 0 0-.113-.326.505.505 0 0 0-.2-.186 2.066 2.066 0 0 0-.432-.16V6.6h3.637c.705 0 1.27.076 1.696.226.43.151.75.375.957.672.209.292.313.671.313 1.137a2.111 2.111 0 0 1-.805 1.709c-.239.186-.547.359-.924.518v.06c.603.182 1.06.463 1.37.845.31.376.465.826.465 1.35 0 .602-.135 1.094-.405 1.475-.266.382-.64.659-1.124.832-.483.168-1.068.252-1.755.252h-3.425Zm3.185-5.007c.674 0 1.188-.161 1.543-.485.359-.328.539-.802.539-1.423 0-.306-.052-.558-.153-.758a1.193 1.193 0 0 0-.413-.485 1.652 1.652 0 0 0-.618-.253 3.585 3.585 0 0 0-.778-.08c-.168 0-.39.005-.665.014-.275.008-.48.017-.618.026v3.444h1.163Zm-1.163 4.376c.323.03.685.046 1.084.046.58 0 1.03-.073 1.35-.22.323-.146.556-.36.698-.644.146-.288.219-.647.219-1.077 0-.43-.08-.785-.24-1.064a1.426 1.426 0 0 0-.724-.625c-.328-.138-.78-.206-1.357-.206h-1.03v3.79Zm7.598-4.622.093.02c.244-.297.47-.53.679-.698.208-.173.432-.306.671-.399.244-.093.519-.14.825-.14.257 0 .49.014.698.04v1.53h-.752c-.106-.24-.219-.412-.339-.519-.12-.11-.283-.166-.492-.166-.16 0-.319.046-.478.14a1.799 1.799 0 0 0-.453.405 1.782 1.782 0 0 0-.305.499c-.053.155-.08.339-.08.552v2.327c0 .403.024.683.073.838.049.15.129.261.24.332.115.071.285.127.511.167v.325h-2.68v-.325c.17-.054.289-.1.36-.14a.576.576 0 0 0 .193-.166.784.784 0 0 0 .12-.326c.026-.146.04-.375.04-.685v-2.9c0-.283-.005-.511-.014-.684a1.01 1.01 0 0 0-.093-.412.485.485 0 0 0-.246-.233 1.748 1.748 0 0 0-.459-.133v-.346l1.556-.066h.405l-.073 1.163Zm6.196 5.36c-.922 0-1.627-.27-2.114-.811-.483-.546-.725-1.35-.725-2.414 0-.732.126-1.35.379-1.855.257-.506.607-.88 1.05-1.124.444-.248.949-.372 1.516-.372.95 0 1.667.277 2.155.83.487.55.731 1.342.731 2.374 0 .736-.122 1.357-.365 1.862-.244.506-.59.885-1.038 1.137-.448.248-.977.373-1.589.373Zm-1.582-3.365c0 .913.144 1.616.432 2.108.292.488.709.731 1.25.731.297 0 .55-.07.758-.212.208-.147.377-.342.505-.585.133-.244.228-.526.286-.845.058-.324.087-.66.087-1.01 0-.652-.074-1.193-.22-1.623-.142-.43-.337-.745-.585-.944a1.303 1.303 0 0 0-.851-.306c-.537 0-.949.233-1.237.698-.284.466-.425 1.128-.425 1.988Zm5.424-3.098h1.895v3.384c0 .519.02.913.06 1.184.04.27.1.474.18.611.08.138.192.253.338.346.147.093.348.14.605.14.169 0 .33-.034.486-.1.155-.066.328-.182.518-.346a1.66 1.66 0 0 0 .406-.498c.084-.164.126-.355.126-.572v-2.494c0-.252-.006-.443-.02-.572a1.133 1.133 0 0 0-.066-.305.615.615 0 0 0-.113-.193.54.54 0 0 0-.18-.133 1.84 1.84 0 0 0-.372-.127V9.32h1.895v4.541c0 .341.007.587.02.738.013.15.042.27.087.36a.542.542 0 0 0 .206.219c.093.053.259.104.498.152v.346l-1.522.067h-.406l.04-1.09-.1-.027c-.368.399-.72.691-1.057.877-.333.187-.667.28-1.004.28-.403 0-.736-.08-.997-.24a1.441 1.441 0 0 1-.585-.711c-.13-.32-.193-.767-.193-1.343v-2.514c0-.372-.016-.627-.047-.764a.594.594 0 0 0-.166-.333c-.08-.084-.257-.162-.532-.232V9.32Zm13.31.671-1.23-.046-.06.073c.138.137.246.326.326.565.08.235.12.49.12.765 0 .722-.224 1.28-.672 1.675-.443.39-1.075.585-1.895.585a2.89 2.89 0 0 1-.95-.14c-.337.258-.506.51-.506.759 0 .164.031.288.093.372a.558.558 0 0 0 .32.18c.15.035.376.053.677.053h1.596c.47 0 .854.073 1.15.22.298.146.508.343.632.591.129.244.193.53.193.858 0 .416-.12.787-.359 1.11-.24.328-.585.583-1.037.765-.452.182-.98.272-1.583.272a8.73 8.73 0 0 1-1.23-.08 3.247 3.247 0 0 1-.95-.272 1.527 1.527 0 0 1-.612-.499c-.142-.204-.213-.46-.213-.771 0-.28.093-.534.28-.765.185-.226.449-.425.79-.598a1.106 1.106 0 0 1-.492-.372.955.955 0 0 1-.18-.579c0-.252.072-.483.214-.691.141-.213.392-.455.75-.725a1.88 1.88 0 0 1-.73-.758 2.352 2.352 0 0 1-.246-1.09c0-.382.061-.712.186-.991a1.9 1.9 0 0 1 .525-.698c.226-.187.492-.324.798-.413.306-.093.636-.14.99-.14.32 0 .637.038.951.114h2.354v.671Zm-4.614 1.35c0 .554.113.982.339 1.283.226.302.552.452.977.452.226 0 .42-.042.579-.126a1.07 1.07 0 0 0 .385-.359c.102-.15.175-.323.22-.519.048-.199.073-.407.073-.625 0-.39-.056-.715-.166-.977-.111-.261-.262-.452-.453-.572a1.18 1.18 0 0 0-.658-.186c-.42 0-.742.14-.964.419-.221.28-.332.682-.332 1.21Zm.166 4.442a1.98 1.98 0 0 0-.512.532 1.26 1.26 0 0 0-.166.645c0 .398.157.691.472.877.319.19.804.286 1.456.286.399 0 .74-.053 1.024-.16.288-.106.508-.259.658-.458.15-.2.226-.432.226-.698 0-.124-.015-.246-.046-.366a.721.721 0 0 0-.18-.313.891.891 0 0 0-.365-.226 2.022 2.022 0 0 0-.625-.08h-.991a9.99 9.99 0 0 1-.951-.04Zm6.561-5.42.027.007c.346-.35.618-.594.818-.731.204-.142.403-.248.598-.32.2-.07.412-.106.639-.106.243 0 .46.03.651.087.19.057.357.146.499.266.146.115.264.259.352.432.093.168.162.372.206.612.045.235.067.534.067.897v2.507c0 .386.015.65.046.791a.665.665 0 0 0 .18.326c.088.075.264.149.525.22v.325h-2.62v-.325c.173-.054.297-.1.373-.14a.516.516 0 0 0 .186-.166.784.784 0 0 0 .12-.326c.03-.15.046-.377.046-.678v-1.742c0-.59-.03-1.04-.093-1.35-.058-.315-.175-.55-.352-.705-.173-.155-.417-.233-.732-.233-.177 0-.337.031-.478.093a2.08 2.08 0 0 0-.493.333c-.186.16-.328.323-.425.492-.093.168-.14.348-.14.538v2.547c0 .301.007.516.02.645.018.128.049.237.093.326a.57.57 0 0 0 .2.213c.093.053.235.104.425.152v.326H52.89v-.325c.195-.054.335-.105.42-.154a.52.52 0 0 0 .192-.186.85.85 0 0 0 .106-.325c.023-.142.034-.366.034-.672V8.449c0-.426-.005-.723-.014-.891a1.845 1.845 0 0 0-.053-.426.682.682 0 0 0-.12-.28.506.506 0 0 0-.206-.159c-.084-.04-.239-.08-.465-.12v-.345l1.602-.067h.4v4.203Zm4.993-.71c.221-.036.4-.098.538-.187a.934.934 0 0 0 .32-.34c.079-.141.141-.316.185-.524.045-.213.091-.521.14-.925h.944V9.32h2.148v.671h-2.148v2.96c0 .43.018.773.053 1.03.036.252.102.452.2.598a.898.898 0 0 0 .332.306c.124.062.284.093.48.093.176 0 .343-.035.498-.106a1.95 1.95 0 0 0 .458-.32l.3.36c-.315.305-.614.527-.898.664a1.95 1.95 0 0 1-.87.207c-.573 0-.998-.169-1.278-.506-.279-.341-.419-.873-.419-1.595v-3.69h-.983v-.34Zm6.938 0c.222-.036.402-.098.54-.187a.934.934 0 0 0 .318-.34c.08-.141.142-.316.186-.524.045-.213.091-.521.14-.925h.944V9.32h2.148v.671h-2.148v2.96c0 .43.018.773.053 1.03.036.252.102.452.2.598a.897.897 0 0 0 .332.306c.124.062.284.093.48.093.176 0 .343-.035.498-.106.155-.076.308-.182.459-.32l.299.36c-.315.305-.614.527-.898.664a1.95 1.95 0 0 1-.87.207c-.573 0-.998-.169-1.278-.506-.279-.341-.418-.873-.418-1.595v-3.69h-.984v-.34Zm7.446 6.13c-.922 0-1.627-.27-2.114-.811-.483-.546-.725-1.35-.725-2.414 0-.732.126-1.35.379-1.855.257-.506.607-.88 1.05-1.124.444-.248.95-.372 1.517-.372.948 0 1.666.277 2.154.83.487.55.731 1.342.731 2.374 0 .736-.122 1.357-.365 1.862-.244.506-.59.885-1.038 1.137-.447.248-.977.373-1.589.373Zm-1.582-3.365c0 .913.144 1.616.432 2.108.293.488.71.731 1.25.731.297 0 .55-.07.758-.212.208-.147.377-.342.505-.585.133-.244.229-.526.286-.845.058-.324.087-.66.087-1.01 0-.652-.073-1.193-.22-1.623-.142-.43-.337-.745-.585-.944a1.303 1.303 0 0 0-.851-.306c-.536 0-.949.233-1.237.698-.283.466-.425 1.128-.425 1.988Zm11.061 3.803c-.244.55-.48.996-.711 1.337-.23.341-.486.598-.765.771-.275.173-.603.26-.984.26a4.5 4.5 0 0 1-.824-.087v-1.316h.591c.053.181.12.308.2.379.08.07.195.106.346.106.132 0 .25-.027.352-.08a1.03 1.03 0 0 0 .326-.26c.115-.123.248-.314.399-.57.155-.258.328-.584.518-.978l-1.861-5.007a4.787 4.787 0 0 0-.293-.678.953.953 0 0 0-.233-.293.988.988 0 0 0-.385-.16V9.32h2.706v.325a1.758 1.758 0 0 0-.439.147.429.429 0 0 0-.186.18.567.567 0 0 0-.06.279c0 .12.013.243.04.372.03.129.078.28.14.452l1.183 3.331 1.33-3.191c.075-.178.133-.34.173-.486.044-.15.066-.29.066-.419 0-.19-.053-.334-.16-.432-.101-.097-.28-.175-.538-.232V9.32h2.487v.325a.925.925 0 0 0-.399.167c-.093.07-.186.186-.28.346a6.775 6.775 0 0 0-.332.658l-2.407 5.405Zm6.335-.438c-.921 0-1.626-.27-2.114-.811-.483-.546-.725-1.35-.725-2.414 0-.732.127-1.35.38-1.855.257-.506.607-.88 1.05-1.124.443-.248.949-.372 1.516-.372.948 0 1.667.277 2.154.83.488.55.732 1.342.732 2.374 0 .736-.122 1.357-.366 1.862-.244.506-.59.885-1.037 1.137-.448.248-.978.373-1.59.373Zm-1.582-3.365c0 .913.144 1.616.432 2.108.293.488.71.731 1.25.731.297 0 .55-.07.758-.212.209-.147.377-.342.506-.585.133-.244.228-.526.285-.845.058-.324.087-.66.087-1.01 0-.652-.073-1.193-.22-1.623-.141-.43-.336-.745-.585-.944a1.303 1.303 0 0 0-.85-.306c-.537 0-.95.233-1.237.698-.284.466-.426 1.128-.426 1.988Zm5.424-3.098h1.895v3.384c0 .519.02.913.06 1.184.04.27.1.474.18.611.08.138.193.253.339.346.146.093.348.14.605.14.168 0 .33-.034.485-.1.155-.066.328-.182.519-.346a1.66 1.66 0 0 0 .406-.498c.084-.164.126-.355.126-.572v-2.494c0-.252-.007-.443-.02-.572a1.133 1.133 0 0 0-.066-.305.615.615 0 0 0-.113-.193.54.54 0 0 0-.18-.133 1.84 1.84 0 0 0-.372-.127V9.32h1.895v4.541c0 .341.006.587.02.738.013.15.042.27.086.36a.542.542 0 0 0 .206.219c.093.053.259.104.499.152v.346l-1.523.067h-.405l.04-1.09-.1-.027c-.368.399-.72.691-1.058.877-.332.187-.667.28-1.004.28-.403 0-.735-.08-.997-.24a1.441 1.441 0 0 1-.585-.711c-.129-.32-.193-.767-.193-1.343v-2.514c0-.372-.015-.627-.046-.764a.594.594 0 0 0-.167-.333c-.08-.084-.257-.162-.532-.232V9.32Zm11.687 1.044.027.006c.31-.323.567-.558.771-.705.208-.146.421-.257.638-.332.222-.08.463-.12.725-.12.474 0 .88.122 1.217.366.341.24.603.6.784 1.084.187.483.28 1.075.28 1.775 0 .723-.111 1.334-.333 1.835a2.39 2.39 0 0 1-.971 1.13c-.425.253-.931.38-1.516.38-.328 0-.638-.031-.931-.093a3.968 3.968 0 0 1-.91-.313l-.466.406-.459-.107V8.45c0-.426-.004-.723-.013-.891a1.83 1.83 0 0 0-.053-.426.688.688 0 0 0-.12-.28.505.505 0 0 0-.206-.159 2.078 2.078 0 0 0-.465-.12v-.345l1.609-.067h.392v4.203Zm0 2.919c0 .34.015.614.047.817.031.2.082.366.152.5a1.294 1.294 0 0 0 .792.598c.173.04.365.06.578.06.532 0 .935-.218 1.21-.652.275-.435.413-1.086.413-1.955 0-.878-.127-1.536-.379-1.975-.249-.443-.625-.665-1.131-.665-.252 0-.467.04-.645.12a1.889 1.889 0 0 0-.532.359 1.913 1.913 0 0 0-.385.485 1.2 1.2 0 0 0-.12.546v1.762Zm8.057 2.938a8.78 8.78 0 0 1-.711 1.337c-.231.341-.485.598-.765.771-.275.173-.603.26-.984.26-.244 0-.518-.03-.824-.087v-1.316h.591c.054.181.12.308.2.379.08.07.195.106.346.106a.75.75 0 0 0 .352-.08c.107-.049.215-.135.326-.26a3.42 3.42 0 0 0 .399-.57c.155-.258.328-.584.519-.978l-1.862-5.007a4.741 4.741 0 0 0-.293-.678.944.944 0 0 0-.233-.293.982.982 0 0 0-.385-.16V9.32h2.706v.325a1.762 1.762 0 0 0-.439.147.43.43 0 0 0-.186.18.566.566 0 0 0-.06.279c0 .12.013.243.04.372.031.129.078.28.14.452l1.183 3.331 1.33-3.191c.075-.178.133-.34.173-.486.044-.15.066-.29.066-.419 0-.19-.053-.334-.159-.432-.102-.097-.282-.175-.539-.232V9.32h2.487v.325a.925.925 0 0 0-.399.167c-.093.07-.186.186-.279.346a6.875 6.875 0 0 0-.333.658l-2.407 5.405Z"/></g></svg>