<svg xmlns="http://www.w3.org/2000/svg" width="258" height="223" fill="none">
    <path fill="url(#a)" fill-rule="evenodd" d="m149 208 17 14c8-5 13-9 17-10 3-2 8-3 13-4l-17-13c-3-1-7 0-11 2l-19 11Z" clip-rule="evenodd"/>
    <path fill="#fff" fill-rule="evenodd" d="m149 208 4 5 25-8 5-7-4-3c-3-1-7 0-11 2l-19 11Z" clip-rule="evenodd"/>
    <path fill="url(#b)" fill-rule="evenodd" d="m221 193 7-8 8 3h7l-6 7-6 1-10-3Z" clip-rule="evenodd"/>
    <path fill="url(#c)" fill-rule="evenodd" d="m87 28 9-8 9 5 8 2-9 8-7-2-10-5Z" clip-rule="evenodd"/>
    <path fill="#FF928D" fill-rule="evenodd" d="m96 20 9 5 8 2c-6 1-10 2-11 1l-6-8Z" clip-rule="evenodd"/>
    <path fill="#2D2D5D" d="M45 190c-13 3-18 8-16 15 4 10 35 3 45-1 11-3 20-7 44-9 8-1 41 3 75-1s58-22 61-27c4-8-42-8-138 0-6 8-13 14-23 18-9 3-25 5-48 5Z" opacity=".1"/>
    <path fill="url(#d)" d="M103 129c-3 16 0 27 8 33 13 9 36 15 91 13 54-3 52-5 55-17 3-13 2-67-25-81-6-3-20 18-36 34-11 13-31 16-43 21-17 0-34-1-50-3Z"/>
    <path fill="url(#e)" d="M103 129c-3 16 0 27 8 33 13 9 36 15 91 13 54-3 52-5 55-17 3-13 2-67-25-81-6-3-20 18-36 34-11 13-31 16-43 21-17 0-34-1-50-3Z" style="mix-blend-mode:soft-light"/>
    <path fill="url(#f)" fill-rule="evenodd" d="m228 129 12-5c2-2-1-2-3-1l-11 5c-7 1-14 1-12 2 1 1 10 0 14-1Z" clip-rule="evenodd" opacity=".2"/>
    <path fill="url(#g)" fill-rule="evenodd" d="m103 129 21 39c7 3 15 5 26 6 6 1 20-19 43-60l-90 15Z" clip-rule="evenodd" opacity=".5" style="mix-blend-mode:soft-light"/>
    <path fill="url(#h)" fill-rule="evenodd" d="M103 129c5 11 17 17 34 18s35-10 56-33l-90 15Z" clip-rule="evenodd" opacity=".5" style="mix-blend-mode:soft-light"/>
    <path fill="url(#i)" fill-rule="evenodd" d="M204 140c1-1 17 0 25-2 5-1 13-3 21-8 2 0 2 1 0 2-1 2-13 8-23 9-6 0-24 0-23-1Z" clip-rule="evenodd" opacity=".4"/>
    <path fill="url(#j)" fill-rule="evenodd" d="M202 152c1-2 21 1 29-2l22-9c2 0 4 0 1 3l-14 7c-3 1-11 3-20 3-9 1-19 0-18-2Z" clip-rule="evenodd" opacity=".2"/>
    <path fill="url(#k)" fill-rule="evenodd" d="m56 169 4-8 16 6-2 10-10-1-8-7Z" clip-rule="evenodd"/>
    <path fill="url(#l)" d="M76 173c-5-5-9-8-14-9s-7-3-7-4l17-52c4-11 4-19 17-17 12 1 34 9 40 13 6 3 1 20-9 24-6 3-15 0-28-8l-6 29-10 24Z"/>
    <path fill="url(#m)" d="M76 173a55 55 0 0 0-6-5l21-63c3-11 31 2 37 6 5 3 2 13-8 17-6 3-15 0-28-8l-6 29c-2 7-5 15-10 24Z" opacity=".3"/>
    <path fill="url(#n)" fill-rule="evenodd" d="m36 157 16-8 9 13-12 8c-2 1-5 3-8 3l-6-8 1-8Z" clip-rule="evenodd"/>
    <path fill="url(#o)" fill-rule="evenodd" d="M5 149c3-1 6 0 8 1 5 2 9 3 17 3 6 0 9 1 9 3v14l7 3-11 7-8 1-13-10-9-22Z" clip-rule="evenodd"/>
    <path fill="url(#p)" fill-rule="evenodd" d="m39 170 7 3-11 7-8 1-13-10-4-10 16 11c8 2 13-3 13-2Z" clip-rule="evenodd" style="mix-blend-mode:soft-light"/>
    <path fill="url(#q)" fill-rule="evenodd" d="M1 151c1-2 3-2 4-2 2 0 6 8 9 14 2 6 10 16 17 17s-4 2-4 2l-5-1-2-2c-1-1-8-10-19-28Z" clip-rule="evenodd"/>
    <path fill="url(#r)" d="M6 163c-4-6-5-11-5-12l6 7 14 22c-4-3-11-11-15-17Z"/>
    <path fill="#F5C4AF" d="M28 159a1 1 0 1 0 0-2 1 1 0 0 0 0 2Zm4 1a1 1 0 1 0 0-2 1 1 0 0 0 0 2Zm4 1a1 1 0 1 0 0-2 1 1 0 0 0 0 2Z"/>
    <path fill="url(#s)" d="M45 149c-2 3 10 16 13 16l35-11c14-5 26-18 33-21 6-3 29 1 37-2l28-14 4-5-15-4-42-6c-7 0-14 0-27 12-6 5-17 12-32 20-10 5-32 13-34 15Z"/>
    <g opacity=".3">
        <path fill="url(#t)" d="M95 150c-14 7-40 15-37 15l35-11c14-5 26-18 33-21 6-3 29 1 37-2l28-14h-18c-7 0-27-1-42 7-10 5-23 19-36 26Z" opacity=".3"/>
        <path fill="url(#u)" d="M95 150c-14 7-40 15-37 15l35-11c14-5 26-18 33-21 6-3 29 1 37-2l28-14h-18c-7 0-27-1-42 7-10 5-23 19-36 26Z" opacity=".3"/>
    </g>
    <path fill="url(#v)" fill-rule="evenodd" d="M22 191v-5l3-4 28-3 21 6 5 1v6l-30 1-27-2Z" clip-rule="evenodd"/>
    <path fill="url(#w)" d="M79 191c-3-1-18 1-25-1-13-4-23-5-27-4-6 2-8 7 3 10 7 3 29 1 41-1 6-1 8-2 8-4Z"/>
    <path fill="url(#x)" fill-rule="evenodd" d="M25 182c6-3 17-5 20-9l3-5c5-1 7-2 8-1s12 10 15 8 4-2 5 0l3 11c0 2-17 2-24 1l-18-5H25Z" clip-rule="evenodd"/>
    <path fill="#FFE2D7" d="m49 173 2-1-2-1-1 1 1 1Zm5-2 1-1-1-1-2 1 2 1Z"/>
    <path fill="url(#y)" fill-rule="evenodd" d="M214 47h-33c-5 1-22 7-27 11l-10 9 12 34 4 4a893 893 0 0 1 35 8l32-24-13-42Z" clip-rule="evenodd"/>
    <path fill="url(#z)" fill-rule="evenodd" d="M192 49s-5 0-6 2c-1 1-8 8-11 16l-5 28v11l9 3 16 4 25-23-1-15-5-28h-16l-6 2Z" clip-rule="evenodd"/>
    <path fill="url(#A)" fill-rule="evenodd" d="m170 95-10 10 10 1 9 3 16 4 26-19c-13 3-22 5-29 5s-14-1-22-4Z" clip-rule="evenodd"/>
    <path fill="#2A2A58" d="M176 82a1 1 0 1 0 0-2 1 1 0 0 0 0 2Zm-2 12a1 1 0 1 0 0-2 1 1 0 0 0 0 2Zm3-23a1 1 0 1 0 0-2 1 1 0 0 0 0 2Zm5-8a1 1 0 1 0 0-2 1 1 0 0 0 0 2Z" style="mix-blend-mode:soft-light"/>
    <path fill="url(#B)" fill-rule="evenodd" d="m156 71 2-4 15-3-3 15-7 6h-5l-2-14Z" clip-rule="evenodd" opacity=".5" style="mix-blend-mode:soft-light"/>
    <path fill="#F4716B" fill-rule="evenodd" d="m156 71 2-4 15-3-1 4-16 3Z" clip-rule="evenodd"/>
    <path fill="url(#C)" fill-rule="evenodd" d="m185 64-2 16 11 4 7-2 4-18h-20Z" clip-rule="evenodd" opacity=".5" style="mix-blend-mode:soft-light"/>
    <path fill="#F4716B" fill-rule="evenodd" d="M185 64h20l-1 4h-19v-4Z" clip-rule="evenodd"/>
    <path fill="url(#D)" fill-rule="evenodd" d="M201 39c-1-1-3-2-7-2-3 1-4 2-2 3l8 1 1-2Z" clip-rule="evenodd"/>
    <path fill="url(#E)" fill-rule="evenodd" d="m185 45-4 5v7l-4-3-4 1a404 404 0 0 0 9-12c1-1 2 0 3 2Z" clip-rule="evenodd"/>
    <path fill="url(#F)" fill-rule="evenodd" d="m181 57-3-5 4-6-1-6 18-14 1 17-12 11c-2 2-5 3-7 3Z" clip-rule="evenodd"/>
    <path fill="url(#G)" fill-rule="evenodd" d="m177 36 6 7c3 1 9-3 12-7l4-11c0-1-1-15-5-16-4-2-18-5-20-1-2 3-3 10-2 10l3 9 2 9Z" clip-rule="evenodd"/>
    <path fill="#fff" d="m188 23-3 1 2 1 4-1-3-1Zm-11 1-2 1 2 1 4-1-4-1Z"/>
    <path stroke="#C79175" stroke-width=".3" d="m175 25 2-1 4 1"/>
    <path fill="#1E1E3F" fill-rule="evenodd" d="M184 21h7l-4-1-3 1Zm-4 1h-2l-3 1h-1l4-2 2 1Z" clip-rule="evenodd"/>
    <path fill="url(#H)" d="m174 24-4-8c0-2-2-7-1-9 1-1 2-3 5-4h5c4-3 8-3 11-2l6 3c2 1 6 2 6 8 0 4-1 8-3 11-3-4-5-6-7-6l-1-5-6-1-6 2h-3l-3 2v4l1 5Z"/>
    <path fill="url(#I)" d="M196 4c2 1 6 2 6 8 0 4-1 8-3 11-3-4-5-6-7-6l-1-5c3-1 5-4 5-8Z"/>
    <path fill="#CA8E7C" d="M180 35c1 1 2 2 4 1 1 0 4-1 5-5-2 3-4 2-6 3l-3 1Z"/>
    <path fill="#FBD4C4" fill-rule="evenodd" d="M198 21c0-3 1-4 3-3s3 6 1 8c-1 1-3 2-4 1v-6Z" clip-rule="evenodd"/>
    <path fill="url(#J)" fill-rule="evenodd" d="m218 86-10-22c1-12 3-18 8-17 6 1 14 9 18 24 3 10 4 18 4 24" clip-rule="evenodd"/>
    <path fill="url(#K)" fill-rule="evenodd" d="M224 52c4 4 8 10 10 19 3 10 4 18 4 24-2-4-4-7-7-8l-3-17c-2-10-6-20-4-18Z" clip-rule="evenodd"/>
    <path fill="#fff" fill-rule="evenodd" d="m191 49 8 6c2-2 3-3 3-5l1-4a4 4 0 0 0 0-2l-2-5-4 5-6 5Z" clip-rule="evenodd"/>
    <path fill="url(#L)" fill-rule="evenodd" d="m191 49-5 6 6-2 6 1-7-5Z" clip-rule="evenodd"/>
    <path stroke="#C79175" stroke-width=".3" d="M185 23h6"/>
    <path fill="url(#M)" fill-rule="evenodd" d="m112 96-5-35 1-1 48 4 3 2 3 39-48-6-2-3Z" clip-rule="evenodd"/>
    <path fill="#fff" fill-rule="evenodd" d="M133 86c2 0 3-1 3-3s-1-4-3-4-4 1-4 3 2 4 4 4Zm29 19 22-1-1-1-23-4 2 6Z" clip-rule="evenodd"/>
    <path fill="#E3E7E9" fill-rule="evenodd" d="m162 101 10 2-10 1v-3Z" clip-rule="evenodd"/>
    <path fill="url(#N)" fill-rule="evenodd" d="m161 90 3-1 12 5c4 1 22 0 27-2l13-3 2-3c6-1 10-1 14 1 3 1 5 4 6 8-1 4-1 7-3 8a299 299 0 0 1-59 0c-3-1-5-4-8-3l-6 2-1-3 2-2h-2v-7Z" clip-rule="evenodd"/>
    <g opacity=".3" style="mix-blend-mode:soft-light">
        <path fill="url(#O)" d="M194 103c8 0 26 1 36-4 6-2 0-13 2-12 3 1 5 4 6 8-1 4-1 7-3 8a294 294 0 0 1-59 0h18Z" opacity=".3" style="mix-blend-mode:soft-light"/>
        <path fill="url(#P)" d="M194 103c8 0 26 1 36-4 6-2 0-13 2-12 3 1 5 4 6 8-1 4-1 7-3 8a294 294 0 0 1-59 0h18Z" opacity=".3" style="mix-blend-mode:soft-light"/>
    </g>
    <path fill="url(#Q)" d="m233 35 6-8 7 2h6l-5 7h-5l-9-1Z"/>
    <path fill="url(#R)" d="m233 35 6-8 7 2h6l-5 7h-5l-9-1Z" style="mix-blend-mode:soft-light"/>
    <path fill="url(#S)" fill-rule="evenodd" d="m239 27 7 2h6l-3 2-3 1-7-5Z" clip-rule="evenodd" opacity=".2"/>
    <circle cx="176.4" cy="25.5" r="1" fill="#1E1E3F"/>
    <path fill="#F7C1A9" d="m179 29 1-4h1l1 3c1 1 2 2 1 3l-3 1-1-3Z"/>
    <circle cx="186.5" cy="23.8" r="1.1" fill="#1E1E3F"/>
    <defs>
        <linearGradient id="a" x1="179.7" x2="179.7" y1="224.8" y2="195" gradientUnits="userSpaceOnUse">
            <stop stop-color="#FFE5DA"/>
            <stop offset="1" stop-color="#fff"/>
        </linearGradient>
        <linearGradient id="b" x1="233.3" x2="236.9" y1="182.1" y2="195.5" gradientUnits="userSpaceOnUse">
            <stop stop-color="#FFE5DA"/>
            <stop offset="1" stop-color="#fff"/>
        </linearGradient>
        <linearGradient id="c" x1="79.5" x2="107.5" y1="25.1" y2="37.5" gradientUnits="userSpaceOnUse">
            <stop stop-color="#E83A39"/>
            <stop offset="1" stop-color="#F66458"/>
        </linearGradient>
        <linearGradient id="d" x1="278.8" x2="30.8" y1="126.1" y2="126.1" gradientUnits="userSpaceOnUse">
            <stop stop-color="#F7A969"/>
            <stop offset="1" stop-color="#ED7038"/>
        </linearGradient>
        <linearGradient id="e" x1="224.8" x2="256.6" y1="127.9" y2="157.5" gradientUnits="userSpaceOnUse">
            <stop stop-opacity="0"/>
            <stop offset="1"/>
        </linearGradient>
        <linearGradient id="f" x1="230.5" x2="230.5" y1="130.9" y2="120.4" gradientUnits="userSpaceOnUse">
            <stop stop-color="#FFE6DB"/>
            <stop offset="1" stop-color="#F5BBA2"/>
        </linearGradient>
        <linearGradient id="g" x1="147.6" x2="147.6" y1="173.9" y2="114" gradientUnits="userSpaceOnUse">
            <stop stop-opacity="0"/>
            <stop offset="1"/>
        </linearGradient>
        <linearGradient id="h" x1="147.6" x2="147.6" y1="146.7" y2="114" gradientUnits="userSpaceOnUse">
            <stop stop-opacity="0"/>
            <stop offset="1"/>
        </linearGradient>
        <linearGradient id="i" x1="233.8" x2="233.8" y1="141.6" y2="127.4" gradientUnits="userSpaceOnUse">
            <stop stop-color="#FFE6DB"/>
            <stop offset="1" stop-color="#F5BBA2"/>
        </linearGradient>
        <linearGradient id="j" x1="235.6" x2="235.3" y1="154.7" y2="138" gradientUnits="userSpaceOnUse">
            <stop stop-color="#FFE6DB"/>
            <stop offset="1" stop-color="#F5BBA2"/>
        </linearGradient>
        <linearGradient id="k" x1="68.9" x2="68.9" y1="177.3" y2="165.1" gradientUnits="userSpaceOnUse">
            <stop stop-color="#FFE6DB"/>
            <stop offset="1" stop-color="#F5BBA2"/>
        </linearGradient>
        <linearGradient id="l" x1="86.6" x2="86.6" y1="90.5" y2="108.3" gradientUnits="userSpaceOnUse">
            <stop stop-color="#2D2D63"/>
            <stop offset="1" stop-color="#1E1E3F"/>
        </linearGradient>
        <linearGradient id="m" x1="127.3" x2="74.8" y1="108.4" y2="113.2" gradientUnits="userSpaceOnUse">
            <stop stop-opacity="0"/>
            <stop offset="1"/>
        </linearGradient>
        <linearGradient id="n" x1="28.5" x2="64" y1="172.4" y2="173.6" gradientUnits="userSpaceOnUse">
            <stop stop-color="#FFD9C9"/>
            <stop offset="1" stop-color="#F5BBA2"/>
        </linearGradient>
        <linearGradient id="o" x1="32.3" x2="32.3" y1="184.3" y2="148.5" gradientUnits="userSpaceOnUse">
            <stop stop-color="#FFDCCD"/>
            <stop offset="1" stop-color="#FFF1EB"/>
        </linearGradient>
        <linearGradient id="p" x1="-1.3" x2="46.4" y1="174.7" y2="174.7" gradientUnits="userSpaceOnUse">
            <stop stop-opacity="0"/>
            <stop offset="1"/>
        </linearGradient>
        <linearGradient id="q" x1="-9.7" x2="17.2" y1="196.4" y2="155.6" gradientUnits="userSpaceOnUse">
            <stop stop-color="#E83A39"/>
            <stop offset="1" stop-color="#F66458"/>
        </linearGradient>
        <linearGradient id="r" x1="9" x2="9" y1="151" y2="157.1" gradientUnits="userSpaceOnUse">
            <stop stop-color="#2D2D63"/>
            <stop offset="1" stop-color="#1E1E3F"/>
        </linearGradient>
        <linearGradient id="s" x1="163.2" x2="42.3" y1="135.6" y2="134" gradientUnits="userSpaceOnUse">
            <stop stop-color="#24244D"/>
            <stop offset=".4" stop-color="#2F2F62"/>
            <stop offset="1" stop-color="#1E1E3F"/>
        </linearGradient>
        <linearGradient id="t" x1="211.1" x2="44.4" y1="138.4" y2="143.1" gradientUnits="userSpaceOnUse">
            <stop stop-opacity="0"/>
            <stop offset="1"/>
        </linearGradient>
        <linearGradient id="u" x1="161.1" x2="161.1" y1="117.9" y2="132.1" gradientUnits="userSpaceOnUse">
            <stop stop-opacity="0"/>
            <stop offset="1"/>
        </linearGradient>
        <linearGradient id="v" x1="-1.9" x2="42.2" y1="186.7" y2="170.7" gradientUnits="userSpaceOnUse">
            <stop stop-color="#E83A39"/>
            <stop offset="1" stop-color="#F66458"/>
        </linearGradient>
        <linearGradient id="w" x1="66.6" x2="21.2" y1="191.9" y2="191.6" gradientUnits="userSpaceOnUse">
            <stop stop-color="#24244D"/>
            <stop offset=".4" stop-color="#2F2F62"/>
            <stop offset="1" stop-color="#1E1E3F"/>
        </linearGradient>
        <linearGradient id="x" x1="60.7" x2="60.7" y1="200.5" y2="175.3" gradientUnits="userSpaceOnUse">
            <stop stop-color="#FFE5DA"/>
            <stop offset="1" stop-color="#fff"/>
        </linearGradient>
        <linearGradient id="y" x1="120.1" x2="210.1" y1="55.6" y2="113.9" gradientUnits="userSpaceOnUse">
            <stop stop-color="#E83A39"/>
            <stop offset="1" stop-color="#F66458"/>
        </linearGradient>
        <linearGradient id="z" x1="211.2" x2="211.2" y1="41.6" y2="119.8" gradientUnits="userSpaceOnUse">
            <stop stop-color="#E83A39"/>
            <stop offset="1" stop-color="#F66458"/>
        </linearGradient>
        <linearGradient id="A" x1="210.2" x2="210.2" y1="114.7" y2="105.9" gradientUnits="userSpaceOnUse">
            <stop stop-color="#E83A39"/>
            <stop offset="1" stop-color="#B4111D"/>
        </linearGradient>
        <linearGradient id="B" x1="163.7" x2="164.6" y1="94.4" y2="35" gradientUnits="userSpaceOnUse">
            <stop stop-color="#fff" stop-opacity="0"/>
            <stop offset="1" stop-color="#fff"/>
        </linearGradient>
        <linearGradient id="C" x1="192.5" x2="193.4" y1="88.3" y2="45.3" gradientUnits="userSpaceOnUse">
            <stop stop-color="#fff" stop-opacity="0"/>
            <stop offset="1" stop-color="#fff"/>
        </linearGradient>
        <linearGradient id="D" x1="199.1" x2="199.1" y1="41.4" y2="37.2" gradientUnits="userSpaceOnUse">
            <stop stop-color="#E83A39"/>
            <stop offset="1" stop-color="#B4111D"/>
        </linearGradient>
        <linearGradient id="E" x1="183" x2="183" y1="58.9" y2="41.1" gradientUnits="userSpaceOnUse">
            <stop stop-color="#E83A39"/>
            <stop offset="1" stop-color="#B4111D"/>
        </linearGradient>
        <linearGradient id="F" x1="191.7" x2="191.7" y1="58.8" y2="33.6" gradientUnits="userSpaceOnUse">
            <stop stop-color="#FFE6DB"/>
            <stop offset="1" stop-color="#F5BBA2"/>
        </linearGradient>
        <linearGradient id="G" x1="188.8" x2="188.8" y1="45" y2="-3.4" gradientUnits="userSpaceOnUse">
            <stop stop-color="#FFE6DB"/>
            <stop offset="1" stop-color="#F5BBA2"/>
        </linearGradient>
        <linearGradient id="H" x1="182.4" x2="182.4" y1=".1" y2="5.2" gradientUnits="userSpaceOnUse">
            <stop stop-color="#2D2D63"/>
            <stop offset="1" stop-color="#1E1E3F"/>
        </linearGradient>
        <linearGradient id="I" x1="195.3" x2="195.3" y1="3.9" y2="8" gradientUnits="userSpaceOnUse">
            <stop stop-color="#2D2D63"/>
            <stop offset="1" stop-color="#1E1E3F"/>
        </linearGradient>
        <linearGradient id="J" x1="227.3" x2="229.2" y1="66.3" y2="90.8" gradientUnits="userSpaceOnUse">
            <stop stop-color="#E83A39"/>
            <stop offset="1" stop-color="#F66458"/>
        </linearGradient>
        <linearGradient id="K" x1="238" x2="238" y1="53.9" y2="105.6" gradientUnits="userSpaceOnUse">
            <stop stop-color="#E83A39"/>
            <stop offset="1" stop-color="#F66458"/>
        </linearGradient>
        <linearGradient id="L" x1="195.4" x2="184.4" y1="52.6" y2="52.4" gradientUnits="userSpaceOnUse">
            <stop stop-color="#C31D25"/>
            <stop offset="1" stop-color="#EA413E"/>
        </linearGradient>
        <linearGradient id="M" x1="107.5" x2="152.4" y1="59.6" y2="113.2" gradientUnits="userSpaceOnUse">
            <stop stop-color="#BADEF8"/>
            <stop offset="1" stop-color="#DEECF5"/>
        </linearGradient>
        <linearGradient id="N" x1="209.1" x2="209.1" y1="106.1" y2="80.5" gradientUnits="userSpaceOnUse">
            <stop stop-color="#FFE6DB"/>
            <stop offset="1" stop-color="#F5BBA2"/>
        </linearGradient>
        <linearGradient id="O" x1="198.2" x2="198.2" y1="112.6" y2="92.3" gradientUnits="userSpaceOnUse">
            <stop stop-opacity="0"/>
            <stop offset="1"/>
        </linearGradient>
        <linearGradient id="P" x1="198.2" x2="198.2" y1="112.6" y2="100.3" gradientUnits="userSpaceOnUse">
            <stop stop-opacity="0"/>
            <stop offset="1"/>
        </linearGradient>
        <linearGradient id="Q" x1="254.9" x2="224.6" y1="28.3" y2="37" gradientUnits="userSpaceOnUse">
            <stop stop-color="#F7A969"/>
            <stop offset="1" stop-color="#ED7038"/>
        </linearGradient>
        <linearGradient id="R" x1="248.3" x2="253.2" y1="30.3" y2="32.3" gradientUnits="userSpaceOnUse">
            <stop stop-opacity="0"/>
            <stop offset="1"/>
        </linearGradient>
        <linearGradient id="S" x1="248.7" x2="246.7" y1="31.9" y2="25" gradientUnits="userSpaceOnUse">
            <stop stop-color="#FFE5DA"/>
            <stop offset="1" stop-color="#fff"/>
        </linearGradient>
    </defs>
</svg>
