<svg width="258" height="223" fill="none" xmlns="http://www.w3.org/2000/svg"><path fill-rule="evenodd" clip-rule="evenodd" d="m148.583 208.467 17.839 13.54c7.125-5.116 12.485-8.533 16.08-10.252 3.595-1.718 8.024-2.98 13.286-3.786l-16.362-12.656c-3.178-.845-7.129-.198-11.855 1.943-4.726 2.14-11.055 5.877-18.988 11.211Z" fill="url(#a)"/><path fill-rule="evenodd" clip-rule="evenodd" d="m148.583 208.467 4.905 4.417 24.41-8.116 5.294-7.166-3.899-2.949c-3.089-.405-6.996.463-11.722 2.603-4.726 2.14-11.055 5.877-18.988 11.211Z" fill="#fff"/><path fill-rule="evenodd" clip-rule="evenodd" d="m221.348 193.179 6.373-8.185c3.811 1.433 6.626 2.319 8.445 2.657 1.819.337 3.957.371 6.414.102l-5.817 7.613c-1.323.758-3.173.942-5.55.551-2.377-.391-5.665-1.304-9.865-2.738Z" fill="url(#b)"/><path fill-rule="evenodd" clip-rule="evenodd" d="m87.0557 27.8621 9.3882-7.475c3.6011 2.2458 6.4851 3.8257 8.6521 4.7399 2.166.9142 4.79 1.6585 7.87 2.2328-5.023 4.5761-7.927 6.9591-8.711 7.149-1.176.2848-4.134-.2848-7.0479-1.411-1.9428-.7507-5.3266-2.496-10.1514-5.2357Z" fill="url(#c)"/><path fill-rule="evenodd" clip-rule="evenodd" d="M96.4443 20.3872c3.6017 2.2457 6.4857 3.8257 8.6517 4.7399 2.166.9142 4.79 1.6585 7.871 2.2328-6.333.9478-9.912 1.2787-10.737.9929l-5.7857-7.9656Z" fill="#FF928D"/><path opacity=".1" d="M45.3528 190.032c-13.328 3.32-18.7254 8.283-16.1923 14.889 3.7997 9.91 34.3644 2.597 45.0191-.574 10.6546-3.171 19.4717-7.382 43.3864-9.272 8.113-.641 41.538 3.036 75.461-.641s57.97-22.523 60.663-27.583c4.228-7.947-41.65-7.947-137.635 0-5.929 8.641-13.517 14.536-22.7641 17.686-9.2471 3.149-25.2265 4.981-47.9381 5.495Z" fill="#2D2D5D"/><path d="M102.506 128.927c-2.651 15.855.307 26.773 8.873 32.754 12.85 8.97 35.979 15.779 90.21 13.243 54.231-2.537 52.688-4.674 55.368-17.165 2.68-12.492 2.091-66.6092-25.448-80.8634-5.246-2.7155-19.104 17.9899-35.666 34.3664-11.293 12.78-30.384 15.246-42.803 20.423-17.257 0-34.102-.92-50.534-2.758Z" fill="url(#d)"/><path style="mix-blend-mode:soft-light" d="M102.506 128.927c-2.651 15.855.307 26.773 8.873 32.754 12.85 8.97 35.979 15.779 90.21 13.243 54.231-2.537 52.688-4.674 55.368-17.165 2.68-12.492 2.091-66.6092-25.448-80.8634-5.246-2.7155-19.104 17.9899-35.666 34.3664-11.293 12.78-30.384 15.246-42.803 20.423-17.257 0-34.102-.92-50.534-2.758Z" fill="url(#e)"/><path opacity=".2292" fill-rule="evenodd" clip-rule="evenodd" d="M228.114 128.802c5.358-1.623 10.054-3.933 11.543-5.06 2.612-1.978-.507-1.243-2.252-.25-1.744.994-6.397 2.916-11.181 4.022-6.8 1.572-14.026 1.608-12.636 2.615 1.39 1.007 10.488-.104 14.526-1.327Z" fill="url(#f)"/><path style="mix-blend-mode:soft-light" opacity=".5131" fill-rule="evenodd" clip-rule="evenodd" d="M102.508 128.926c13.224 25.759 20.542 38.896 21.952 39.411 6.503 2.375 14.699 4.313 25.313 5.565 6.273.739 20.607-19.235 43.003-59.923l-90.268 14.947Z" fill="url(#g)"/><path style="mix-blend-mode:soft-light" opacity=".5131" fill-rule="evenodd" clip-rule="evenodd" d="M102.508 128.926c5.792 10.712 17.166 16.604 34.123 17.676 16.956 1.071 35.672-9.803 56.145-32.623l-90.268 14.947Z" fill="url(#h)"/><path opacity=".3895" fill-rule="evenodd" clip-rule="evenodd" d="M203.657 140.05c1.1-1.025 17.283.112 25.376-1.56 5.395-1.115 12.514-3.813 21.358-8.096 1.758-.487 1.758.196 0 2.05-1.334 1.407-13.647 7.119-23.719 8.255-5.631.634-24.115.376-23.015-.649Z" fill="url(#i)"/><path opacity=".2044" fill-rule="evenodd" clip-rule="evenodd" d="M201.502 152.236c1.239-2.141 21.154.445 29.744-2.183 8.59-2.628 19.78-8.025 21.847-8.71 2.067-.685 4.067-.719.917 2.341-1.203 1.168-7.249 4.486-14.296 6.997-3.078 1.098-10.587 3.584-19.592 3.718-9.004.133-19.477-.683-18.62-2.163Z" fill="url(#j)"/><path fill-rule="evenodd" clip-rule="evenodd" d="m56.0586 168.929 4.0943-7.634 16.3247 6.103-2.7232 9.162-9.351-.999-8.3448-6.632Z" fill="url(#k)"/><path d="M75.5276 173.499c-4.3821-5.458-8.8968-8.721-13.5443-9.787-4.6474-1.067-6.9711-2.387-6.9711-3.962 8.9957-27.185 14.6639-44.445 17.0045-51.78 3.5109-11.0019 4.1626-18.9536 16.7196-17.2662 12.5567 1.6873 34.5877 9.1549 40.3957 12.9242 5.807 3.77.569 20.196-8.79 24.279-6.238 2.723-15.583-.014-28.0341-8.211-2.2037 13.158-4.3083 22.953-6.3138 29.383-2.0054 6.43-5.4943 14.57-10.4665 24.42Z" fill="url(#l)"/><path opacity=".3451" d="M75.5281 173.499c-1.3524-1.656-2.3829-2.841-3.0913-3.557-.7084-.716-1.6439-1.516-2.8064-2.401 11.7631-34.652 18.8149-55.646 21.1556-62.98 3.5109-11.0024 31.023 2.227 36.83 5.997 5.808 3.769 2.085 13.266-7.273 17.35-6.239 2.722-15.584-.015-28.0346-8.212-2.2037 13.159-4.3083 22.953-6.3138 29.383-2.0054 6.43-5.4943 14.57-10.4665 24.42Z" fill="url(#m)"/><path fill-rule="evenodd" clip-rule="evenodd" d="m35.8559 157.065 16.2681-7.777 8.4295 13.095c-4.8186 3.51-8.552 6.029-11.2003 7.559-2.6484 1.529-5.3297 2.715-8.0441 3.557l-6.1992-8.061.746-8.373Z" fill="url(#n)"/><path fill-rule="evenodd" clip-rule="evenodd" d="M4.9866 148.588c2.795-.266 5.6245.173 8.4883 1.319 4.2957 1.719 8.753 3.223 16.9943 3.223 5.4942 0 8.2565 1.012 8.287 3.037-.5226 7.143-.5226 11.588 0 13.335.5226 1.746 3.0806 2.885 7.6741 3.416L35.1199 180.1l-8.0767.776L14.16 171.41l-9.1734-22.822Z" fill="url(#o)"/><path style="mix-blend-mode:soft-light" fill-rule="evenodd" clip-rule="evenodd" d="M38.7563 169.502c.5226 1.746 3.0806 2.885 7.6741 3.416L35.12 180.1l-8.0767.776-12.8831-9.466-3.7371-10.583c7.74 6.396 13.0783 10.013 16.0147 10.851 7.289 2.08 12.1155-2.855 12.3185-2.176Z" fill="url(#p)"/><path fill-rule="evenodd" clip-rule="evenodd" d="M.9414 150.998c1.284-1.607 2.6323-2.41 4.045-2.41 2.119 0 6.2147 7.989 8.678 14.165 2.4633 6.176 10.7122 16.106 17.3398 17.063 6.6276.957-4.0277 2.473-4.0277 2.473s-1.6745-.073-4.7092-1.663c-.6471-.339-1.7736-1.065-2.505-1.742-1.0015-.614-7.2751-9.909-18.8209-27.886Z" fill="url(#q)"/><path d="M6.05 162.897C1.9127 156.555.8053 152.206.9544 151.194c.1492-1.011 2.642 1.957 5.7544 7.234 3.1124 5.277 11.2202 18.314 13.883 21.133-3.533-2.359-10.4041-10.323-14.5416-16.664Z" fill="url(#r)"/><path d="M27.7287 158.801c.4809 0 .8708-.389.8708-.868s-.3899-.868-.8708-.868-.8708.389-.8708.868.3899.868.8708.868ZM31.7922 159.669c.4809 0 .8707-.388.8707-.868 0-.479-.3898-.868-.8707-.868-.481 0-.8708.389-.8708.868 0 .48.3898.868.8708.868ZM35.8552 160.827c.4809 0 .8707-.388.8707-.868 0-.479-.3898-.868-.8707-.868-.481 0-.8708.389-.8708.868 0 .48.3898.868.8708.868Z" fill="#F5C4AF"/><path d="M44.9749 149.313c-2.3853 2.508 10.0683 16.126 13.1089 16.126 3.0407 0 20.1597-6.758 34.5731-11.442 14.4131-4.684 26.7181-18.243 33.0631-20.973 6.344-2.731 29.393.86 37.607-2.326 5.475-2.124 14.538-6.709 27.187-13.754l4.406-4.445c-5.644-1.923-10.704-3.397-15.18-4.423-6.173-1.415-35.12-6.005-42.164-6.005-7.043 0-13.754.204-27.018 12.055-5.269 4.708-16.6961 12.149-31.4545 19.881-10.006 5.242-31.7432 12.798-34.1286 15.306Z" fill="url(#s)"/><g opacity=".3451"><path opacity=".3451" d="M94.6632 149.83c-13.4922 6.925-39.6195 15.608-36.5789 15.608 3.0407 0 20.1597-6.757 34.5731-11.441 14.4136-4.684 26.7176-18.243 33.0626-20.973 6.345-2.731 29.394.86 37.607-2.326 5.476-2.124 14.538-6.709 27.188-13.754-6.927-.251-12.738-.377-17.434-.377-7.044 0-27.27-.269-42.029 7.463-10.006 5.242-22.897 18.874-36.3888 25.8Z" fill="url(#t)"/><path opacity=".3451" d="M94.6632 149.83c-13.4922 6.925-39.6195 15.608-36.5789 15.608 3.0407 0 20.1597-6.757 34.5731-11.441 14.4136-4.684 26.7176-18.243 33.0626-20.973 6.345-2.731 29.394.86 37.607-2.326 5.476-2.124 14.538-6.709 27.188-13.754-6.927-.251-12.738-.377-17.434-.377-7.044 0-27.27-.269-42.029 7.463-10.006 5.242-22.897 18.874-36.3888 25.8Z" fill="url(#u)"/></g><path fill-rule="evenodd" clip-rule="evenodd" d="M22.3666 191.15c-.6889-2.069-.7644-3.932-.2264-5.59s1.5393-2.755 3.0041-3.29l28.3534-3.541 20.2422 6.21 5.3639 1.169-.5975 5.701-29.7067 1.253-26.433-1.912Z" fill="url(#v)"/><path d="M78.5512 191.482c-2.8232-1.103-17.2893.971-24.5745-1.335-12.6098-3.992-23.3584-5.104-27.0349-3.815-5.6571 1.983-8.0963 6.282 2.7236 10.084 7.2702 2.554 29.7856 1.011 41.6242-1.332 5.7805-1.144 7.2616-1.683 7.2616-3.602Z" fill="url(#w)"/><path fill-rule="evenodd" clip-rule="evenodd" d="M25.145 182.27c5.6321-3.06 16.3758-4.998 19.5338-8.974 2.1054-2.65 3.2935-4.29 3.5643-4.921 4.2889-1.465 6.8546-1.956 7.697-1.474 1.2637.723 11.5893 10.478 14.9058 8.197 3.3165-2.281 3.789-1.751 4.7309-.375.942 1.375 3.5277 9.299 3.5277 11.385 0 2.087-17.4053 1.942-23.6797.491s-13.0059-3.573-18.2942-4.329c-3.5256-.504-7.5208-.504-11.9856 0Z" fill="url(#x)"/><path d="M49.3531 172.691c.7213 0 1.3061-.453 1.3061-1.013 0-.559-.5848-1.013-1.3061-1.013-.7214 0-1.3062.454-1.3062 1.013 0 .56.5848 1.013 1.3062 1.013ZM53.7066 170.955c.7214 0 1.3061-.454 1.3061-1.013 0-.559-.5847-1.013-1.3061-1.013s-1.3062.454-1.3062 1.013c0 .559.5848 1.013 1.3062 1.013Z" fill="#FFE2D7"/><path fill-rule="evenodd" clip-rule="evenodd" d="M214.475 46.9902c-19.783-.4264-31.063-.4264-33.842 0-4.168.6396-21.968 6.7109-26.57 10.6381-3.068 2.618-6.391 5.6821-9.969 9.1922l11.463 33.9685 4.814 3.864c4.337.792 7.547 1.391 9.627 1.797 6.149 1.2 14.444 3.286 24.884 6.258l31.736-23.4589-12.143-42.2589Z" fill="url(#y)"/><path fill-rule="evenodd" clip-rule="evenodd" d="M192.251 48.8514s-5.025.165-6.287 1.7791c-1.261 1.6142-8.193 8.8181-10.641 16.7804-1.633 5.3081-3.408 14.4099-5.325 27.3052V106.45c2.323.592 5.412 1.28 9.268 2.064 3.856.785 9.061 2.182 15.616 4.194l24.883-22.7462c-.356-9.4112-.533-14.3115-.533-14.701 0-.3895-1.586-9.813-4.757-28.2706-8.428-.3994-13.833-.4993-16.217-.2996-2.454.2055-6.007 2.1608-6.007 2.1608Z" fill="url(#z)"/><path fill-rule="evenodd" clip-rule="evenodd" d="m169.998 94.7159-9.999 9.8671 9.999 1.867c2.323.592 5.413 1.28 9.268 2.064 3.856.784 9.061 2.182 15.616 4.194l25.754-19.0148c-12.532 3.3909-22.097 5.153-28.696 5.2863-6.599.1333-13.913-1.2879-21.942-4.2636Z" fill="url(#A)"/><path d="M175.617 82.408c.561 0 1.016-.4535 1.016-1.0128 0-.5594-.455-1.0128-1.016-1.0128-.561 0-1.016.4534-1.016 1.0128 0 .5593.455 1.0128 1.016 1.0128ZM173.876 93.6934c.561 0 1.016-.4535 1.016-1.0128 0-.5594-.455-1.0128-1.016-1.0128-.561 0-1.016.4534-1.016 1.0128 0 .5593.455 1.0128 1.016 1.0128ZM177.359 71.1224c.561 0 1.016-.4535 1.016-1.0128 0-.5594-.455-1.0128-1.016-1.0128-.561 0-1.016.4534-1.016 1.0128 0 .5593.455 1.0128 1.016 1.0128ZM182.003 62.7308c.561 0 1.016-.4534 1.016-1.0127 0-.5594-.455-1.0128-1.016-1.0128-.561 0-1.016.4534-1.016 1.0128 0 .5593.455 1.0127 1.016 1.0127Z" fill="#2A2A58" style="mix-blend-mode:soft-light"/><path style="mix-blend-mode:soft-light" opacity=".5" fill-rule="evenodd" clip-rule="evenodd" d="m155.954 71.4896 2.233-4.5252 14.343-2.8293-2.532 15.1037-6.82 5.6712h-5.596l-1.628-13.4204Z" fill="url(#B)"/><path fill-rule="evenodd" clip-rule="evenodd" d="m156.403 70.6862 1.785-3.7218 14.343-2.8293-.667 3.4539-15.461 3.0972Z" fill="#F4716B"/><path style="mix-blend-mode:soft-light" opacity=".5" fill-rule="evenodd" clip-rule="evenodd" d="m185.355 64.1351-2.765 16.2471 11.137 3.2336 7.274-1.2081 3.834-18.2726h-19.48Z" fill="url(#C)"/><path fill-rule="evenodd" clip-rule="evenodd" d="M185.35 64.1351h19.485l-.768 3.9961-19.537-.4618.82-3.5343Z" fill="#F4716B"/><path fill-rule="evenodd" clip-rule="evenodd" d="M200.83 38.5577c-.907-.8722-3.089-1.2391-6.545-1.1007-3.457.1385-4.155 1.0948-2.094 2.869l8.047.6925.592-2.4608Z" fill="url(#D)"/><path fill-rule="evenodd" clip-rule="evenodd" d="M185.071 44.8839c-2.142 1.2474-3.413 2.9252-3.812 5.0333s-.587 4.5732-.564 7.3955c-1.688-1.9356-3.064-3.0313-4.128-3.2873-1.064-.256-2.32.1178-3.768 1.1213 2.149-3.7155 3.404-5.9121 3.768-6.5899 1.899-3.5435 3.92-5.3437 5.112-5.9849 1.533-.8253 2.664-.0546 3.392 2.312Z" fill="url(#E)"/><path fill-rule="evenodd" clip-rule="evenodd" d="M180.697 57.3124c-1.548-2.2519-2.322-4.1014-2.322-5.5485 1.741-1.8261 2.806-3.6254 3.193-5.398l-.385-6.5097 17.833-14.1035.631 17.4417c-4.936 5.1649-8.739 8.8107-11.409 10.9374-2.669 2.1267-5.183 3.1869-7.541 3.1806Z" fill="url(#F)"/><path fill-rule="evenodd" clip-rule="evenodd" d="M177.331 35.8943c1.763 2.6638 3.434 5.8571 6.029 7.1086 2.596 1.2514 8.599-2.7962 11.337-7.1086 2.738-4.3124 4.648-8.6859 4.382-10.417-.265-1.7311-1.212-15.6504-5.383-16.8973-4.171-1.247-17.729-4.1533-19.794-.7445-2.065 3.4089-2.732 9.7076-2.398 10.2884.333.5809 3.196 6.4717 3.48 8.753.284 2.2813.585 6.3536 2.347 9.0174Z" fill="url(#G)"/><path d="M187.857 22.9877c-1.096 0-2.043.5577-2.451 1.0038l1.838.6693c1.43-.1116 4.168-.4016 3.677-.6693-.613-.3346-.613-1.0038-3.064-1.0038ZM177.438 23.7775c-1.096 0-2.043.9073-2.451 1.6331l1.838 1.0888c1.43-.1815 4.168-.6533 3.677-1.0888-.612-.5444-.612-1.6331-3.064-1.6331Z" fill="#fff"/><path d="M174.987 24.9751c.408-.2945 1.471-.8835 2.451-.8835.981 0 2.452.2945 3.064.4417" stroke="#C79175" stroke-width=".3448"/><path fill-rule="evenodd" clip-rule="evenodd" d="M184.433 21.196c.099.6944 1.133.3345 1.836.0761.703-.2585 3.048-.2464 3.854-.0892.805.1571 1.153-.1221.512-.5151-.641-.3931-2.723-.9286-4.108-.7819-1.386.1467-2.192.6156-2.094 1.3101ZM179.893 21.8743c.082.492-.941.4172-1.64.357-.7-.0602-2.746.5358-3.435.7772-.69.2414-1.073.1079-.59-.2677.483-.3757 2.133-1.4859 3.422-1.6157 1.289-.1297 2.162.2573 2.243.7492Z" fill="#1E1E3F"/><path d="M173.954 23.5561c-2.656-3.8701-3.984-6.3906-3.984-7.5616 0-1.7564-2.228-6.6611-.854-8.707.583-.8681 2.089-2.9819 4.639-4.0323.971-.4 2.769-.6449 5.392-.7347 4.059-2.3773 7.597-2.9716 10.613-1.783 4.525 1.783 4.047 2.5981 5.961 3.1986 1.915.6005 6.05 2.4595 6.296 8.1882.164 3.8192-.936 7.4155-3.301 10.7889-2.431-4.0325-4.698-6.0487-6.799-6.0487-.823-.7057-1.249-2.3635-1.28-4.9737-2.568-.9586-4.511-1.3857-5.829-1.2813-1.319.1045-3.206.835-5.661 2.1915-1.589.1052-2.74.2866-3.453.5444-.713.2578-1.658.8339-2.835 1.7283-.121 1.2248-.121 2.4153 0 3.5716.121 1.1563.486 2.7933 1.095 4.9108Z" fill="url(#H)"/><path d="M195.722 3.9362c1.915.6005 6.049 2.4595 6.296 8.1883.164 3.8191-.937 7.4154-3.301 10.7888-2.432-4.0325-4.698-6.0487-6.799-6.0487-.823-.7057-1.249-2.3635-1.28-4.9737 3.389-1.1665 5.084-3.818 5.084-7.9547Z" fill="url(#I)"/><path d="M179.941 35.1745c1.19 1.032 2.465 1.4056 3.822 1.1208 1.358-.2848 4.595-1.1208 5.129-5.4168-1.554 2.865-4.329 2.585-5.664 2.865-1.335.2801-2.431.7571-3.287 1.431Z" fill="#CA8E7C"/><path fill-rule="evenodd" clip-rule="evenodd" d="M197.528 21.0339c.159-2.8937 1.163-3.9881 3.011-3.2833 2.773 1.0573 3.368 6.2234 1.394 8.0102-1.316 1.1912-2.526 1.7649-3.631 1.7211l-.774-6.448Z" fill="#FBD4C4"/><path fill-rule="evenodd" clip-rule="evenodd" d="m217.604 86.1999-9.414-22.5383c.682-11.6773 3.121-17.2202 7.317-16.6289 6.293.8871 14.487 9.0247 18.672 23.9297 2.791 9.9367 4.058 17.9276 3.801 23.9725" fill="url(#J)"/><path fill-rule="evenodd" clip-rule="evenodd" d="M223.684 51.6343c4.088 3.974 8.003 10.4507 10.496 19.328 2.79 9.9367 4.057 17.9275 3.8 23.9725-1.894-4.2984-4.124-6.9973-6.688-8.0967-1.641-.7036-1.247-9.1391-2.936-16.7286-2.269-10.198-6.263-20.0223-4.672-18.4752Z" fill="url(#K)"/><path fill-rule="evenodd" clip-rule="evenodd" d="m191.268 48.8963 7.834 5.9267c1.537-1.7808 2.578-3.2746 3.122-4.4814.455-1.0105.851-2.4615 1.189-4.353a3.748 3.748 0 0 0-.262-2.1743l-2.321-5.2567c-1.39 2.434-2.665 4.2775-3.824 5.5305-1.159 1.2531-3.072 2.8558-5.738 4.8082Z" fill="#fff"/><path fill-rule="evenodd" clip-rule="evenodd" d="m191.267 48.8969-4.831 6.601c2.53-1.7209 4.54-2.621 6.029-2.7003 1.489-.0793 3.324.3104 5.505 1.1689l-6.703-5.0696Z" fill="url(#L)"/><path d="M185.351 23.2587c.408-.2238 1.47-.6714 2.451-.6714.98 0 2.451.5595 3.064.6714" stroke="#C79175" stroke-width=".3448"/><path fill-rule="evenodd" clip-rule="evenodd" d="m111.932 96.0269-4.45-35.4974c-.06-.4758.279-.9096.756-.9691a.871.871 0 0 1 .195-.0023l48.027 4.8329c1.107.1115 1.98.9912 2.079 2.0968l3.473 38.6732-47.601-6.627c-1.3-.181-2.316-1.2089-2.479-2.5071Z" fill="url(#M)"/><path fill-rule="evenodd" clip-rule="evenodd" d="M132.597 85.8464c1.912.155 3.461-1.2588 3.461-3.1578s-1.549-3.5642-3.461-3.7192c-1.911-.155-3.46 1.2588-3.46 3.1579 0 1.899 1.549 3.5641 3.46 3.7191ZM162.011 105.161l22.486-.789-1.098-1.172-23.692-4.2202 2.304 6.1812Z" fill="#fff"/><path fill-rule="evenodd" clip-rule="evenodd" d="m161.75 101.161 10.256 2.037-10.256.649v-2.686Z" fill="#E3E7E9"/><path fill-rule="evenodd" clip-rule="evenodd" d="M160.641 90.0703c1.615-.7474 2.664-1.1212 3.146-1.1212 1.458 0 7.963 3.5598 12.282 4.7444 4.319 1.1846 21.827-.1289 26.897-1.3022 2.772-.6414 8.194-1.0773 12.981-3.4422.701-.346 1.253-1.2623 1.657-2.7489 5.905-1.0044 10.559-.7771 13.962.6818 3.403 1.4589 5.541 4.1433 6.413 8.0532-.529 4.1502-1.386 6.6728-2.57 7.5688-1.777 1.343-10.885 2.657-22.551 2.657-11.666 0-33.731-1.803-36.789-2.657-3.058-.855-5.361-3.5411-8.325-2.9957-1.975.3636-3.974 1.0447-5.995 2.0427l-.33-2.7678c1.099-.7947 1.648-1.4248 1.648-1.8903s-.611-.4655-1.834 0l-.592-6.8226Z" fill="url(#N)"/><g style="mix-blend-mode:soft-light" opacity=".3406"><path style="mix-blend-mode:soft-light" opacity=".3406" d="M193.714 102.582c8.058.63 26.501 1.738 36.542-3.2163 5.771-2.8473-.552-13.2829 1.311-12.4842 3.403 1.4589 5.541 4.1433 6.413 8.0532-.529 4.1503-1.386 6.6733-2.571 7.5683-1.776 1.343-10.884 2.658-22.55 2.658s-33.732-1.804-36.79-2.658c-3.057-.854 11.938-.367 17.645.079Z" fill="url(#O)"/><path style="mix-blend-mode:soft-light" opacity=".3406" d="M193.714 102.582c8.058.63 26.501 1.738 36.542-3.2163 5.771-2.8473-.552-13.2829 1.311-12.4842 3.403 1.4589 5.541 4.1433 6.413 8.0532-.529 4.1503-1.386 6.6733-2.571 7.5683-1.776 1.343-10.884 2.658-22.55 2.658s-33.732-1.804-36.79-2.658c-3.057-.854 11.938-.367 17.645.079Z" fill="url(#P)"/></g><path d="m233.285 34.7475 5.361-7.4649c3.137.8882 5.604 1.4392 7.399 1.6531 1.795.2139 3.892.2066 6.291-.0218-2.746 4.4172-4.389 6.7782-4.928 7.0828-.81.4571-3.117.663-5.51.4514-1.595-.1412-4.466-.708-8.613-1.7006Z" fill="url(#Q)"/><path style="mix-blend-mode:soft-light" d="m233.285 34.7475 5.361-7.4649c3.137.8882 5.604 1.4392 7.399 1.6531 1.795.2139 3.892.2066 6.291-.0218-2.746 4.4172-4.389 6.7782-4.928 7.0828-.81.4571-3.117.663-5.51.4514-1.595-.1412-4.466-.708-8.613-1.7006Z" fill="url(#R)"/><path opacity=".23" fill-rule="evenodd" clip-rule="evenodd" d="M238.649 27.2853c3.138.8871 5.605 1.4373 7.4 1.6506 1.795.2133 3.892.2055 6.292-.0235-1.449.9388-2.646 1.6318-3.59 2.0789-.944.4471-1.975.8087-3.091 1.0846l-7.011-4.7906Z" fill="url(#S)"/><circle cx="176.416" cy="25.4917" r="1.0076" fill="#1E1E3F"/><path d="M178.98 29.094c0-.9805.409-3.2685.613-4.2898.409-.2043 1.226-.4903 1.226 0 0 .6128.613 3.0641 1.226 3.677.612.6128 1.838 1.2257 1.225 2.4513-.613 1.2257-3.064 1.8385-3.677 1.2257s-.613-1.8385-.613-3.0642Z" fill="#F7C1A9"/><circle cx="186.543" cy="23.8242" r="1.0934" fill="#1E1E3F"/><defs><linearGradient id="a" x1="179.685" y1="224.839" x2="179.685" y2="194.954" gradientUnits="userSpaceOnUse"><stop stop-color="#FFE5DA"/><stop offset="1" stop-color="#fff"/></linearGradient><linearGradient id="b" x1="233.329" y1="182.141" x2="236.894" y2="195.503" gradientUnits="userSpaceOnUse"><stop stop-color="#FFE5DA"/><stop offset="1" stop-color="#fff"/></linearGradient><linearGradient id="c" x1="79.51" y1="25.0596" x2="107.506" y2="37.4653" gradientUnits="userSpaceOnUse"><stop stop-color="#E83A39"/><stop offset="1" stop-color="#F66458"/></linearGradient><linearGradient id="d" x1="278.776" y1="126.057" x2="30.7853" y2="126.057" gradientUnits="userSpaceOnUse"><stop stop-color="#F7A969"/><stop offset="1" stop-color="#ED7038"/></linearGradient><linearGradient id="e" x1="224.792" y1="127.883" x2="256.605" y2="157.464" gradientUnits="userSpaceOnUse"><stop stop-opacity="0"/><stop offset="1"/></linearGradient><linearGradient id="f" x1="230.487" y1="130.908" x2="230.487" y2="120.411" gradientUnits="userSpaceOnUse"><stop stop-color="#FFE6DB"/><stop offset="1" stop-color="#F5BBA2"/></linearGradient><linearGradient id="g" x1="147.642" y1="173.922" x2="147.642" y2="113.979" gradientUnits="userSpaceOnUse"><stop stop-opacity="0"/><stop offset="1"/></linearGradient><linearGradient id="h" x1="147.642" y1="146.674" x2="147.642" y2="113.979" gradientUnits="userSpaceOnUse"><stop stop-opacity="0"/><stop offset="1"/></linearGradient><linearGradient id="i" x1="233.75" y1="141.564" x2="233.75" y2="127.437" gradientUnits="userSpaceOnUse"><stop stop-color="#FFE6DB"/><stop offset="1" stop-color="#F5BBA2"/></linearGradient><linearGradient id="j" x1="235.575" y1="154.749" x2="235.283" y2="137.975" gradientUnits="userSpaceOnUse"><stop stop-color="#FFE6DB"/><stop offset="1" stop-color="#F5BBA2"/></linearGradient><linearGradient id="k" x1="68.8535" y1="177.297" x2="68.8535" y2="165.103" gradientUnits="userSpaceOnUse"><stop stop-color="#FFE6DB"/><stop offset="1" stop-color="#F5BBA2"/></linearGradient><linearGradient id="l" x1="86.5942" y1="90.4776" x2="86.5942" y2="108.35" gradientUnits="userSpaceOnUse"><stop stop-color="#2D2D63"/><stop offset="1" stop-color="#1E1E3F"/></linearGradient><linearGradient id="m" x1="127.264" y1="108.426" x2="74.7676" y2="113.22" gradientUnits="userSpaceOnUse"><stop stop-opacity="0"/><stop offset="1"/></linearGradient><linearGradient id="n" x1="28.5444" y1="172.422" x2="64.0321" y2="173.598" gradientUnits="userSpaceOnUse"><stop stop-color="#FFD9C9"/><stop offset="1" stop-color="#F5BBA2"/></linearGradient><linearGradient id="o" x1="32.2926" y1="184.265" x2="32.2926" y2="148.513" gradientUnits="userSpaceOnUse"><stop stop-color="#FFDCCD"/><stop offset="1" stop-color="#FFF1EB"/></linearGradient><linearGradient id="p" x1="-1.3038" y1="174.707" x2="46.4304" y2="174.707" gradientUnits="userSpaceOnUse"><stop stop-opacity="0"/><stop offset="1"/></linearGradient><linearGradient id="q" x1="-9.7293" y1="196.434" x2="17.2378" y2="155.557" gradientUnits="userSpaceOnUse"><stop stop-color="#E83A39"/><stop offset="1" stop-color="#F66458"/></linearGradient><linearGradient id="r" x1="9.048" y1="150.998" x2="9.048" y2="157.147" gradientUnits="userSpaceOnUse"><stop stop-color="#2D2D63"/><stop offset="1" stop-color="#1E1E3F"/></linearGradient><linearGradient id="s" x1="163.216" y1="135.597" x2="42.2597" y2="133.999" gradientUnits="userSpaceOnUse"><stop stop-color="#24244D"/><stop offset=".3522" stop-color="#2F2F62"/><stop offset="1" stop-color="#1E1E3F"/></linearGradient><linearGradient id="t" x1="211.122" y1="138.408" x2="44.3777" y2="143.063" gradientUnits="userSpaceOnUse"><stop stop-opacity="0"/><stop offset="1"/></linearGradient><linearGradient id="u" x1="161.067" y1="117.88" x2="161.067" y2="132.131" gradientUnits="userSpaceOnUse"><stop stop-opacity="0"/><stop offset="1"/></linearGradient><linearGradient id="v" x1="-1.9428" y1="186.725" x2="42.1893" y2="170.724" gradientUnits="userSpaceOnUse"><stop stop-color="#E83A39"/><stop offset="1" stop-color="#F66458"/></linearGradient><linearGradient id="w" x1="66.6446" y1="191.865" x2="21.2132" y2="191.565" gradientUnits="userSpaceOnUse"><stop stop-color="#24244D"/><stop offset=".3522" stop-color="#2F2F62"/><stop offset="1" stop-color="#1E1E3F"/></linearGradient><linearGradient id="x" x1="60.6974" y1="200.534" x2="60.6974" y2="175.254" gradientUnits="userSpaceOnUse"><stop stop-color="#FFE5DA"/><stop offset="1" stop-color="#fff"/></linearGradient><linearGradient id="y" x1="120.062" y1="55.6189" x2="210.103" y2="113.901" gradientUnits="userSpaceOnUse"><stop stop-color="#E83A39"/><stop offset="1" stop-color="#F66458"/></linearGradient><linearGradient id="z" x1="211.216" y1="41.573" x2="211.216" y2="119.786" gradientUnits="userSpaceOnUse"><stop stop-color="#E83A39"/><stop offset="1" stop-color="#F66458"/></linearGradient><linearGradient id="A" x1="210.219" y1="114.743" x2="210.219" y2="105.851" gradientUnits="userSpaceOnUse"><stop stop-color="#E83A39"/><stop offset="1" stop-color="#B4111D"/></linearGradient><linearGradient id="B" x1="163.654" y1="94.4394" x2="164.578" y2="35.0355" gradientUnits="userSpaceOnUse"><stop stop-color="#fff" stop-opacity="0"/><stop offset="1" stop-color="#fff"/></linearGradient><linearGradient id="C" x1="192.466" y1="88.2879" x2="193.422" y2="45.2911" gradientUnits="userSpaceOnUse"><stop stop-color="#fff" stop-opacity="0"/><stop offset="1" stop-color="#fff"/></linearGradient><linearGradient id="D" x1="199.147" y1="41.4028" x2="199.147" y2="37.1561" gradientUnits="userSpaceOnUse"><stop stop-color="#E83A39"/><stop offset="1" stop-color="#B4111D"/></linearGradient><linearGradient id="E" x1="182.963" y1="58.925" x2="182.963" y2="41.1088" gradientUnits="userSpaceOnUse"><stop stop-color="#E83A39"/><stop offset="1" stop-color="#B4111D"/></linearGradient><linearGradient id="F" x1="191.704" y1="58.8369" x2="191.704" y2="33.6271" gradientUnits="userSpaceOnUse"><stop stop-color="#FFE6DB"/><stop offset="1" stop-color="#F5BBA2"/></linearGradient><linearGradient id="G" x1="188.768" y1="45.0208" x2="188.768" y2="-3.3738" gradientUnits="userSpaceOnUse"><stop stop-color="#FFE6DB"/><stop offset="1" stop-color="#F5BBA2"/></linearGradient><linearGradient id="H" x1="182.433" y1=".1432" x2="182.433" y2="5.1835" gradientUnits="userSpaceOnUse"><stop stop-color="#2D2D63"/><stop offset="1" stop-color="#1E1E3F"/></linearGradient><linearGradient id="I" x1="195.339" y1="3.9362" x2="195.339" y2="8.0216" gradientUnits="userSpaceOnUse"><stop stop-color="#2D2D63"/><stop offset="1" stop-color="#1E1E3F"/></linearGradient><linearGradient id="J" x1="227.268" y1="66.3202" x2="229.22" y2="90.795" gradientUnits="userSpaceOnUse"><stop stop-color="#E83A39"/><stop offset="1" stop-color="#F66458"/></linearGradient><linearGradient id="K" x1="238.012" y1="53.941" x2="238.012" y2="105.628" gradientUnits="userSpaceOnUse"><stop stop-color="#E83A39"/><stop offset="1" stop-color="#F66458"/></linearGradient><linearGradient id="L" x1="195.357" y1="52.5558" x2="184.403" y2="52.3708" gradientUnits="userSpaceOnUse"><stop stop-color="#C31D25"/><stop offset="1" stop-color="#EA413E"/></linearGradient><linearGradient id="M" x1="107.475" y1="59.5537" x2="152.363" y2="113.23" gradientUnits="userSpaceOnUse"><stop stop-color="#BADEF8"/><stop offset="1" stop-color="#DEECF5"/></linearGradient><linearGradient id="N" x1="209.102" y1="106.107" x2="209.102" y2="80.5021" gradientUnits="userSpaceOnUse"><stop stop-color="#FFE6DB"/><stop offset="1" stop-color="#F5BBA2"/></linearGradient><linearGradient id="O" x1="198.153" y1="112.558" x2="198.153" y2="92.317" gradientUnits="userSpaceOnUse"><stop stop-opacity="0"/><stop offset="1"/></linearGradient><linearGradient id="P" x1="198.153" y1="112.558" x2="198.153" y2="100.294" gradientUnits="userSpaceOnUse"><stop stop-opacity="0"/><stop offset="1"/></linearGradient><linearGradient id="Q" x1="254.907" y1="28.2794" x2="224.561" y2="37.0258" gradientUnits="userSpaceOnUse"><stop stop-color="#F7A969"/><stop offset="1" stop-color="#ED7038"/></linearGradient><linearGradient id="R" x1="248.337" y1="30.3075" x2="253.164" y2="32.3093" gradientUnits="userSpaceOnUse"><stop stop-opacity="0"/><stop offset="1"/></linearGradient><linearGradient id="S" x1="248.7" y1="31.933" x2="246.716" y2="24.9827" gradientUnits="userSpaceOnUse"><stop stop-color="#FFE5DA"/><stop offset="1" stop-color="#fff"/></linearGradient></defs></svg>