<svg xmlns="http://www.w3.org/2000/svg" width="233" height="166" fill="none">
    <path fill="url(#a)" fill-rule="evenodd" d="m151 155 14 10 12-7 10-3-13-9c-2-1-5-1-8 1l-15 8Z" clip-rule="evenodd"/>
    <path fill="#fff" fill-rule="evenodd" d="m151 155 4 4 18-6 4-6-3-2c-2 0-5 0-8 2l-15 8Z" clip-rule="evenodd"/>
    <path fill="url(#b)" fill-rule="evenodd" d="m206 144 4-6 7 2h5l-5 6h-4l-7-2Z" clip-rule="evenodd"/>
    <path fill="url(#c)" fill-rule="evenodd" d="m51 91 10-8 9 5 9 3-10 7c-1 1-4 0-8-1l-10-6Z" clip-rule="evenodd"/>
    <path fill="#FF928D" fill-rule="evenodd" d="m61 83 9 5 9 3-12 1-6-9Z" clip-rule="evenodd"/>
    <path fill="#2D2D5D" d="M74 142c-9 2-13 6-12 11 3 7 26 2 34-1 8-2 14-5 32-7 6 0 31 3 57 0 25-3 43-17 45-21 3-6-31-6-103 0-4 7-10 11-17 14-7 2-19 3-36 4Z" opacity=".1"/>
    <path fill="url(#d)" d="M117 96c-2 12 0 20 7 25 9 6 27 11 67 9 40-1 39-3 41-12 2-10 2-50-19-61-4-2-14 14-26 26-9 9-23 11-32 15l-38-2Z"/>
    <path fill="url(#e)" d="M117 96c-2 12 0 20 7 25 9 6 27 11 67 9 40-1 39-3 41-12 2-10 2-50-19-61-4-2-14 14-26 26-9 9-23 11-32 15l-38-2Z" style="mix-blend-mode:soft-light"/>
    <path fill="url(#f)" fill-rule="evenodd" d="m211 96 8-4h-1l-9 3c-5 1-10 1-9 2s8 0 11-1Z" clip-rule="evenodd" opacity=".2"/>
    <path fill="url(#g)" fill-rule="evenodd" d="m117 96 16 29c5 2 11 4 19 5 5 0 16-15 32-45l-67 11Z" clip-rule="evenodd" opacity=".5" style="mix-blend-mode:soft-light"/>
    <path fill="url(#h)" fill-rule="evenodd" d="M117 96c4 8 13 12 26 13 12 1 26-7 41-24l-67 11Z" clip-rule="evenodd" opacity=".5" style="mix-blend-mode:soft-light"/>
    <path fill="url(#i)" fill-rule="evenodd" d="m192 104 19-1 16-6c2 0 2 0 0 2-1 1-10 5-17 6l-18-1Z" clip-rule="evenodd" opacity=".4"/>
    <path fill="url(#j)" fill-rule="evenodd" d="M191 113c1-1 16 1 22-1l16-7c2 0 3 0 1 2l-11 5c-2 1-8 3-14 3-7 0-15 0-14-2Z" clip-rule="evenodd" opacity=".2"/>
    <path fill="url(#k)" fill-rule="evenodd" d="m82 126 4-6 12 5-2 7-7-1-7-5Z" clip-rule="evenodd"/>
    <path fill="url(#l)" d="M97 129c-3-4-7-6-10-7-4-1-5-2-5-3l12-39c3-8 3-14 13-12 9 1 26 6 30 9s0 15-7 18c-4 2-11 0-21-6l-4 22-8 18Z"/>
    <path fill="url(#m)" d="M97 129a41 41 0 0 0-4-4l15-47c3-8 23 2 28 4 4 3 1 10-6 13-4 2-11 0-21-6l-4 22-8 18Z" opacity=".3"/>
    <path fill="url(#n)" fill-rule="evenodd" d="m67 117 13-6 6 10-9 6-6 2-4-6v-6Z" clip-rule="evenodd"/>
    <path fill="url(#o)" fill-rule="evenodd" d="m44 111 7 1 12 2c4 0 7 1 7 2v10c0 2 2 3 5 3l-8 5-6 1-10-7-7-17Z" clip-rule="evenodd"/>
    <path fill="url(#p)" fill-rule="evenodd" d="M70 126c0 2 2 3 5 3l-8 5-6 1-10-7-3-8 12 8c6 2 9-2 10-2Z" clip-rule="evenodd" style="mix-blend-mode:soft-light"/>
    <path fill="url(#q)" fill-rule="evenodd" d="M41 113c1-2 2-2 3-2 2 0 5 6 7 10 2 5 8 12 13 13s-3 2-3 2l-4-1-2-2-14-20Z" clip-rule="evenodd"/>
    <path fill="url(#r)" d="m45 121-4-8c1-1 2 1 5 5l10 16-11-13Z"/>
    <path fill="#F5C4AF" d="M61 118a1 1 0 1 0 0-1 1 1 0 0 0 0 1Zm3 1a1 1 0 1 0 0-1 1 1 0 0 0 0 1Zm3 1a1 1 0 1 0 0-1 1 1 0 0 0 0 1Z"/>
    <path fill="url(#s)" d="M74 111c-2 2 8 12 10 12l26-8c10-4 20-14 24-16 5-2 22 1 28-2 5-1 11-5 21-10l3-3-11-3-32-5c-5 0-10 0-20 9-4 4-12 9-23 15-8 4-24 9-26 11Z"/>
    <g opacity=".3">
        <path fill="url(#t)" d="m111 112-27 11 26-8c10-4 20-14 24-16 5-2 22 1 28-2 5-1 11-5 21-10h-13c-6 0-21 0-32 5-7 4-17 15-27 20Z" opacity=".3"/>
        <path fill="url(#u)" d="m111 112-27 11 26-8c10-4 20-14 24-16 5-2 22 1 28-2 5-1 11-5 21-10h-13c-6 0-21 0-32 5-7 4-17 15-27 20Z" opacity=".3"/>
    </g>
    <path fill="url(#v)" fill-rule="evenodd" d="M57 142v-4l2-2 22-3 15 5 4 1-1 4-22 1-20-2Z" clip-rule="evenodd"/>
    <path fill="url(#w)" d="m99 143-18-1c-9-3-17-4-20-3-4 1-6 5 2 7 5 2 22 1 31-1 4 0 5-1 5-2Z"/>
    <path fill="url(#x)" fill-rule="evenodd" d="M59 136c5-2 13-4 15-7l3-3 5-2c1 1 9 8 11 7 3-2 3-2 4-1l3 9H82l-14-3h-9Z" clip-rule="evenodd"/>
    <path fill="#FFE2D7" d="m77 129 1-1-1-1-1 1 1 1Zm4-2h1l-1-1-1 1h1Z"/>
    <path fill="url(#y)" fill-rule="evenodd" d="M201 35h-26c-3 1-16 5-19 8l-8 7 9 25 3 3a665 665 0 0 1 26 6l24-17-9-32Z" clip-rule="evenodd"/>
    <path fill="url(#z)" fill-rule="evenodd" d="m184 36-5 2c-1 1-6 6-8 12l-4 21v8l7 2 12 3 18-17V56l-3-21h-13l-4 1Z" clip-rule="evenodd"/>
    <path fill="url(#A)" fill-rule="evenodd" d="m167 71-7 7 7 1 7 2 12 3 19-14-21 4-17-3Z" clip-rule="evenodd"/>
    <path fill="#2A2A58" d="M172 61a1 1 0 1 0 0-1 1 1 0 0 0 0 1Zm-2 9a1 1 0 1 0 0-2 1 1 0 0 0 0 2Zm3-17a1 1 0 1 0 0-1 1 1 0 0 0 0 1Zm3-6a1 1 0 1 0 0-2 1 1 0 0 0 0 2Z" style="mix-blend-mode:soft-light"/>
    <path fill="url(#B)" fill-rule="evenodd" d="m157 53 2-3 10-2-2 11-5 4h-4l-1-10Z" clip-rule="evenodd" opacity=".5" style="mix-blend-mode:soft-light"/>
    <path fill="#F4716B" fill-rule="evenodd" d="m157 53 2-3 10-2v2l-12 3Z" clip-rule="evenodd"/>
    <path fill="url(#C)" fill-rule="evenodd" d="m179 48-2 12 8 2 6-1 2-13h-14Z" clip-rule="evenodd" opacity=".5" style="mix-blend-mode:soft-light"/>
    <path fill="#F4716B" fill-rule="evenodd" d="M179 48h14v3l-15-1 1-2Z" clip-rule="evenodd"/>
    <path fill="url(#D)" fill-rule="evenodd" d="m190 29-4-1c-3 0-4 1-2 2l6 1v-2Z" clip-rule="evenodd"/>
    <path fill="url(#E)" fill-rule="evenodd" d="m179 33-3 4-1 6-3-3-3 1a295 295 0 0 0 7-9c1-1 2 0 3 1Z" clip-rule="evenodd"/>
    <path fill="url(#F)" fill-rule="evenodd" d="m175 43-1-4 2-4v-5l13-11 1 13-9 8-6 3Z" clip-rule="evenodd"/>
    <path fill="url(#G)" fill-rule="evenodd" d="m173 27 4 5c2 1 7-2 9-5l3-8c0-1-1-12-4-13s-13-3-15 0c-1 2-2 7-1 8l2 6 2 7Z" clip-rule="evenodd"/>
    <path fill="#fff" d="m181 17-2 1h4l-2-1Zm-8 1-2 1 1 1 3-1-2-1Z"/>
    <path stroke="#C79175" stroke-width=".3" d="m171 19 2-1h2"/>
    <path fill="#1E1E3F" fill-rule="evenodd" d="M178 16h4l1-1h-3l-2 1Zm-3 0-1 1h-3c-1 0-1 0 0 0l2-1h2Z" clip-rule="evenodd"/>
    <path fill="url(#H)" d="m170 18-3-6V5l3-3h4c3-2 6-2 8-1l5 2c1 0 4 2 4 6 0 3 0 6-2 8-2-3-4-4-5-4l-1-4-5-1-4 2h-2l-2 1v7Z"/>
    <path fill="url(#I)" d="M187 3c1 0 4 2 4 6 0 3 0 6-2 8-2-3-4-4-5-4l-1-4c2-1 4-3 4-6Z"/>
    <path fill="#CA8E7C" d="m175 26 3 1c1 0 3-1 3-4-1 2-3 2-4 2l-2 1Z"/>
    <path fill="#FBD4C4" fill-rule="evenodd" d="M188 16c0-2 1-3 2-3 2 1 3 5 1 6l-2 1-1-4Z" clip-rule="evenodd"/>
    <path fill="url(#J)" fill-rule="evenodd" d="m203 64-7-17c0-8 2-12 5-12 5 1 11 7 14 18l3 18" clip-rule="evenodd"/>
    <path fill="url(#K)" fill-rule="evenodd" d="M207 38c3 3 6 8 8 15l3 18c-1-3-3-5-5-6l-2-13-4-14Z" clip-rule="evenodd"/>
    <path fill="#fff" fill-rule="evenodd" d="m183 36 6 5 2-3 1-4v-1l-2-4-2 4-5 3Z" clip-rule="evenodd"/>
    <path fill="url(#L)" fill-rule="evenodd" d="m183 36-3 5 4-2 4 1-5-4Z" clip-rule="evenodd"/>
    <path stroke="#C79175" stroke-width=".3" d="M179 17h4"/>
    <path fill="url(#M)" fill-rule="evenodd" d="m124 72-3-27a1 1 0 0 1 1-1l35 4 2 2 2 28-35-5-2-1Z" clip-rule="evenodd"/>
    <path fill="#fff" fill-rule="evenodd" d="m140 64 2-2c0-2-1-3-2-3-2 0-3 1-3 2 0 2 1 3 3 3Zm21 14h17l-1-1-17-3 1 4Z" clip-rule="evenodd"/>
    <path fill="#E3E7E9" fill-rule="evenodd" d="m161 75 8 2h-8v-2Z" clip-rule="evenodd"/>
    <path fill="url(#N)" fill-rule="evenodd" d="m160 67 3-1 9 4c3 1 16 0 20-1l10-3 1-2 10 1c3 1 4 3 5 6 0 3-1 5-2 5-1 1-8 2-17 2l-27-2-6-2-5 2v-2l1-2h-1l-1-5Z" clip-rule="evenodd"/>
    <g opacity=".3" style="mix-blend-mode:soft-light">
        <path fill="url(#O)" d="M185 76c6 1 20 2 27-2 5-2 0-10 1-9 3 1 4 3 5 6 0 3-1 5-2 5-1 1-8 2-17 2l-27-2h13Z" opacity=".3" style="mix-blend-mode:soft-light"/>
        <path fill="url(#P)" d="M185 76c6 1 20 2 27-2 5-2 0-10 1-9 3 1 4 3 5 6 0 3-1 5-2 5-1 1-8 2-17 2l-27-2h13Z" opacity=".3" style="mix-blend-mode:soft-light"/>
    </g>
    <path fill="url(#Q)" d="m215 26 4-6 5 2h5l-4 5h-4l-6-1Z"/>
    <path fill="url(#R)" d="m215 26 4-6 5 2h5l-4 5h-4l-6-1Z" style="mix-blend-mode:soft-light"/>
    <path fill="url(#S)" fill-rule="evenodd" d="m219 20 5 2h5l-3 1-2 1-5-4Z" clip-rule="evenodd" opacity=".2"/>
    <circle cx="172.2" cy="19" r=".8" fill="#1E1E3F"/>
    <path fill="#F7C1A9" d="m174 22 1-4 1 3c1 1 2 1 1 2l-2 1-1-2Z"/>
    <circle cx="179.7" cy="17.8" r=".8" fill="#1E1E3F"/>
    <path fill="url(#T)" d="m0 101 6 7a72 72 0 0 1 12-5l-3-4-3-2-7 2-5 2Z"/>
    <path fill="url(#U)" d="m0 101 6 7a72 72 0 0 1 12-5l-3-4-3-2-7 2-5 2Z" style="mix-blend-mode:soft-light"/>
    <path fill="url(#V)" fill-rule="evenodd" d="M0 101h11l1-2v-2l-7 2-5 2Z" clip-rule="evenodd" opacity=".2"/>
    <defs>
        <linearGradient id="a" x1="174.6" x2="174.6" y1="167.6" y2="145.3" gradientUnits="userSpaceOnUse">
            <stop stop-color="#FFE5DA"/>
            <stop offset="1" stop-color="#fff"/>
        </linearGradient>
        <linearGradient id="b" x1="214.6" x2="217.3" y1="135.8" y2="145.7" gradientUnits="userSpaceOnUse">
            <stop stop-color="#FFE5DA"/>
            <stop offset="1" stop-color="#fff"/>
        </linearGradient>
        <linearGradient id="c" x1="42.4" x2="72.6" y1="88.1" y2="101.5" gradientUnits="userSpaceOnUse">
            <stop stop-color="#E83A39"/>
            <stop offset="1" stop-color="#F66458"/>
        </linearGradient>
        <linearGradient id="d" x1="248.5" x2="63.6" y1="94" y2="94" gradientUnits="userSpaceOnUse">
            <stop stop-color="#F7A969"/>
            <stop offset="1" stop-color="#ED7038"/>
        </linearGradient>
        <linearGradient id="e" x1="208.2" x2="232" y1="95.3" y2="117.4" gradientUnits="userSpaceOnUse">
            <stop stop-opacity="0"/>
            <stop offset="1"/>
        </linearGradient>
        <linearGradient id="f" x1="212.5" x2="212.5" y1="97.6" y2="89.8" gradientUnits="userSpaceOnUse">
            <stop stop-color="#FFE6DB"/>
            <stop offset="1" stop-color="#F5BBA2"/>
        </linearGradient>
        <linearGradient id="g" x1="150.7" x2="150.7" y1="129.6" y2="85" gradientUnits="userSpaceOnUse">
            <stop stop-opacity="0"/>
            <stop offset="1"/>
        </linearGradient>
        <linearGradient id="h" x1="150.7" x2="150.7" y1="109.3" y2="85" gradientUnits="userSpaceOnUse">
            <stop stop-opacity="0"/>
            <stop offset="1"/>
        </linearGradient>
        <linearGradient id="i" x1="214.9" x2="214.9" y1="105.5" y2="95" gradientUnits="userSpaceOnUse">
            <stop stop-color="#FFE6DB"/>
            <stop offset="1" stop-color="#F5BBA2"/>
        </linearGradient>
        <linearGradient id="j" x1="216.3" x2="216.1" y1="115.4" y2="102.9" gradientUnits="userSpaceOnUse">
            <stop stop-color="#FFE6DB"/>
            <stop offset="1" stop-color="#F5BBA2"/>
        </linearGradient>
        <linearGradient id="k" x1="92" x2="92" y1="132.2" y2="123.1" gradientUnits="userSpaceOnUse">
            <stop stop-color="#FFE6DB"/>
            <stop offset="1" stop-color="#F5BBA2"/>
        </linearGradient>
        <linearGradient id="l" x1="105.2" x2="105.2" y1="67.4" y2="80.8" gradientUnits="userSpaceOnUse">
            <stop stop-color="#2D2D63"/>
            <stop offset="1" stop-color="#1E1E3F"/>
        </linearGradient>
        <linearGradient id="m" x1="135.5" x2="96.4" y1="80.8" y2="84.4" gradientUnits="userSpaceOnUse">
            <stop stop-opacity="0"/>
            <stop offset="1"/>
        </linearGradient>
        <linearGradient id="n" x1="62" x2="88.4" y1="128.5" y2="129.4" gradientUnits="userSpaceOnUse">
            <stop stop-color="#FFD9C9"/>
            <stop offset="1" stop-color="#F5BBA2"/>
        </linearGradient>
        <linearGradient id="o" x1="64.8" x2="64.8" y1="137.4" y2="110.7" gradientUnits="userSpaceOnUse">
            <stop stop-color="#FFDCCD"/>
            <stop offset="1" stop-color="#FFF1EB"/>
        </linearGradient>
        <linearGradient id="p" x1="39.7" x2="75.3" y1="130.2" y2="130.2" gradientUnits="userSpaceOnUse">
            <stop stop-opacity="0"/>
            <stop offset="1"/>
        </linearGradient>
        <linearGradient id="q" x1="33.4" x2="53.5" y1="146.4" y2="116" gradientUnits="userSpaceOnUse">
            <stop stop-color="#E83A39"/>
            <stop offset="1" stop-color="#F66458"/>
        </linearGradient>
        <linearGradient id="r" x1="47.4" x2="47.4" y1="112.6" y2="117.1" gradientUnits="userSpaceOnUse">
            <stop stop-color="#2D2D63"/>
            <stop offset="1" stop-color="#1E1E3F"/>
        </linearGradient>
        <linearGradient id="s" x1="162.3" x2="72.2" y1="101.1" y2="99.9" gradientUnits="userSpaceOnUse">
            <stop stop-color="#24244D"/>
            <stop offset=".4" stop-color="#2F2F62"/>
            <stop offset="1" stop-color="#1E1E3F"/>
        </linearGradient>
        <linearGradient id="t" x1="198.1" x2="73.8" y1="103.2" y2="106.6" gradientUnits="userSpaceOnUse">
            <stop stop-opacity="0"/>
            <stop offset="1"/>
        </linearGradient>
        <linearGradient id="u" x1="160.7" x2="160.7" y1="87.9" y2="98.5" gradientUnits="userSpaceOnUse">
            <stop stop-opacity="0"/>
            <stop offset="1"/>
        </linearGradient>
        <linearGradient id="v" x1="39.2" x2="72.1" y1="139.2" y2="127.3" gradientUnits="userSpaceOnUse">
            <stop stop-color="#E83A39"/>
            <stop offset="1" stop-color="#F66458"/>
        </linearGradient>
        <linearGradient id="w" x1="90.4" x2="56.5" y1="143" y2="142.8" gradientUnits="userSpaceOnUse">
            <stop stop-color="#24244D"/>
            <stop offset=".4" stop-color="#2F2F62"/>
            <stop offset="1" stop-color="#1E1E3F"/>
        </linearGradient>
        <linearGradient id="x" x1="85.9" x2="85.9" y1="149.5" y2="130.6" gradientUnits="userSpaceOnUse">
            <stop stop-color="#FFE5DA"/>
            <stop offset="1" stop-color="#fff"/>
        </linearGradient>
        <linearGradient id="y" x1="130.2" x2="197.3" y1="41.5" y2="84.9" gradientUnits="userSpaceOnUse">
            <stop stop-color="#E83A39"/>
            <stop offset="1" stop-color="#F66458"/>
        </linearGradient>
        <linearGradient id="z" x1="198.1" x2="198.1" y1="31" y2="89.3" gradientUnits="userSpaceOnUse">
            <stop stop-color="#E83A39"/>
            <stop offset="1" stop-color="#F66458"/>
        </linearGradient>
        <linearGradient id="A" x1="197.4" x2="197.4" y1="85.5" y2="78.9" gradientUnits="userSpaceOnUse">
            <stop stop-color="#E83A39"/>
            <stop offset="1" stop-color="#B4111D"/>
        </linearGradient>
        <linearGradient id="B" x1="162.7" x2="163.4" y1="70.4" y2="26.1" gradientUnits="userSpaceOnUse">
            <stop stop-color="#fff" stop-opacity="0"/>
            <stop offset="1" stop-color="#fff"/>
        </linearGradient>
        <linearGradient id="C" x1="184.2" x2="184.9" y1="65.8" y2="33.8" gradientUnits="userSpaceOnUse">
            <stop stop-color="#fff" stop-opacity="0"/>
            <stop offset="1" stop-color="#fff"/>
        </linearGradient>
        <linearGradient id="D" x1="189.1" x2="189.1" y1="30.9" y2="27.7" gradientUnits="userSpaceOnUse">
            <stop stop-color="#E83A39"/>
            <stop offset="1" stop-color="#B4111D"/>
        </linearGradient>
        <linearGradient id="E" x1="177.1" x2="177.1" y1="43.9" y2="30.6" gradientUnits="userSpaceOnUse">
            <stop stop-color="#E83A39"/>
            <stop offset="1" stop-color="#B4111D"/>
        </linearGradient>
        <linearGradient id="F" x1="183.6" x2="183.6" y1="43.9" y2="25.1" gradientUnits="userSpaceOnUse">
            <stop stop-color="#FFE6DB"/>
            <stop offset="1" stop-color="#F5BBA2"/>
        </linearGradient>
        <linearGradient id="G" x1="181.4" x2="181.4" y1="33.6" y2="-2.5" gradientUnits="userSpaceOnUse">
            <stop stop-color="#FFE6DB"/>
            <stop offset="1" stop-color="#F5BBA2"/>
        </linearGradient>
        <linearGradient id="H" x1="176.7" x2="176.7" y1=".1" y2="3.9" gradientUnits="userSpaceOnUse">
            <stop stop-color="#2D2D63"/>
            <stop offset="1" stop-color="#1E1E3F"/>
        </linearGradient>
        <linearGradient id="I" x1="186.3" x2="186.3" y1="2.9" y2="6" gradientUnits="userSpaceOnUse">
            <stop stop-color="#2D2D63"/>
            <stop offset="1" stop-color="#1E1E3F"/>
        </linearGradient>
        <linearGradient id="J" x1="210.1" x2="211.5" y1="49.4" y2="67.7" gradientUnits="userSpaceOnUse">
            <stop stop-color="#E83A39"/>
            <stop offset="1" stop-color="#F66458"/>
        </linearGradient>
        <linearGradient id="K" x1="218.1" x2="218.1" y1="40.2" y2="78.7" gradientUnits="userSpaceOnUse">
            <stop stop-color="#E83A39"/>
            <stop offset="1" stop-color="#F66458"/>
        </linearGradient>
        <linearGradient id="L" x1="186.3" x2="178.1" y1="39.2" y2="39" gradientUnits="userSpaceOnUse">
            <stop stop-color="#C31D25"/>
            <stop offset="1" stop-color="#EA413E"/>
        </linearGradient>
        <linearGradient id="M" x1="120.8" x2="154.3" y1="44.4" y2="84.4" gradientUnits="userSpaceOnUse">
            <stop stop-color="#BADEF8"/>
            <stop offset="1" stop-color="#DEECF5"/>
        </linearGradient>
        <linearGradient id="N" x1="196.6" x2="196.6" y1="79.1" y2="60" gradientUnits="userSpaceOnUse">
            <stop stop-color="#FFE6DB"/>
            <stop offset="1" stop-color="#F5BBA2"/>
        </linearGradient>
        <linearGradient id="O" x1="188.4" x2="188.4" y1="83.9" y2="68.8" gradientUnits="userSpaceOnUse">
            <stop stop-opacity="0"/>
            <stop offset="1"/>
        </linearGradient>
        <linearGradient id="P" x1="188.4" x2="188.4" y1="83.9" y2="74.8" gradientUnits="userSpaceOnUse">
            <stop stop-opacity="0"/>
            <stop offset="1"/>
        </linearGradient>
        <linearGradient id="Q" x1="230.7" x2="208.1" y1="21.1" y2="27.6" gradientUnits="userSpaceOnUse">
            <stop stop-color="#F7A969"/>
            <stop offset="1" stop-color="#ED7038"/>
        </linearGradient>
        <linearGradient id="R" x1="225.8" x2="229.4" y1="22.6" y2="24.1" gradientUnits="userSpaceOnUse">
            <stop stop-opacity="0"/>
            <stop offset="1"/>
        </linearGradient>
        <linearGradient id="S" x1="226.1" x2="224.6" y1="23.8" y2="18.6" gradientUnits="userSpaceOnUse">
            <stop stop-color="#FFE5DA"/>
            <stop offset="1" stop-color="#fff"/>
        </linearGradient>
        <linearGradient id="T" x1="20.2" x2="-8.1" y1="102.5" y2="102.5" gradientUnits="userSpaceOnUse">
            <stop stop-color="#F7A969"/>
            <stop offset="1" stop-color="#ED7038"/>
        </linearGradient>
        <linearGradient id="U" x1="14.1" x2="17.7" y1="102.7" y2="105.9" gradientUnits="userSpaceOnUse">
            <stop stop-opacity="0"/>
            <stop offset="1"/>
        </linearGradient>
        <linearGradient id="V" x1="8.1" x2="8.1" y1="101.9" y2="97.1" gradientUnits="userSpaceOnUse">
            <stop stop-color="#FFE5DA"/>
            <stop offset="1" stop-color="#fff"/>
        </linearGradient>
    </defs>
</svg>
