<svg width="377" height="287" fill="none" xmlns="http://www.w3.org/2000/svg"><path fill-rule="evenodd" clip-rule="evenodd" d="m232.987 269.309 22.991 17.503c9.182-6.613 16.09-11.03 20.723-13.252 4.633-2.222 10.341-3.853 17.122-4.894l-21.087-16.361c-4.095-1.093-9.187-.256-15.278 2.511-6.09 2.767-14.247 7.598-24.471 14.493Z" fill="url(#a)"/><path fill-rule="evenodd" clip-rule="evenodd" d="m232.987 269.309 6.321 5.71 31.459-10.491 6.823-9.264-5.025-3.812c-3.981-.524-9.016.597-15.107 3.364-6.09 2.767-14.247 7.598-24.471 14.493Z" fill="#fff"/><path fill-rule="evenodd" clip-rule="evenodd" d="m326.764 249.546 8.214-10.582c4.911 1.854 8.538 2.998 10.883 3.435 2.344.437 5.1.481 8.266.132l-7.496 9.842c-1.706.98-4.09 1.217-7.154.712-3.063-.505-7.301-1.685-12.713-3.539Z" fill="url(#b)"/><path fill-rule="evenodd" clip-rule="evenodd" d="m82.4453 117.89 17.5362-14.005c6.7275 4.207 12.1145 7.168 16.1605 8.881 4.047 1.712 8.947 3.107 14.702 4.183-9.383 8.574-14.807 13.039-16.272 13.395-2.196.533-7.721-.534-13.165-2.644-3.6288-1.407-9.9494-4.677-18.9617-9.81Z" fill="url(#c)"/><path fill-rule="evenodd" clip-rule="evenodd" d="M99.9824 103.885c6.7276 4.207 12.1146 7.168 16.1606 8.881 4.046 1.712 8.947 3.107 14.702 4.183-11.829 1.776-18.514 2.396-20.055 1.86l-10.8076-14.924Z" fill="#FF928D"/><path d="m0 134.569 9.621 11.008a.6.6 0 0 0 .7389.131c3.5402-1.933 6.587-3.462 9.1404-4.588 2.6543-1.17 6.4491-2.642 11.3843-4.415-1.9487-2.476-3.5451-4.331-4.7895-5.564-1.2443-1.232-2.8972-2.596-4.9585-4.092-5.6461 1.352-10.0017 2.573-13.067 3.664-3.0653 1.09-5.7551 2.376-8.0696 3.856Z" fill="url(#d)"/><path style="mix-blend-mode:soft-light" d="m0 134.569 9.621 11.008a.6.6 0 0 0 .7389.131c3.5402-1.933 6.587-3.462 9.1404-4.588 2.6543-1.17 6.4491-2.642 11.3843-4.415-1.9487-2.476-3.5451-4.331-4.7895-5.564-1.2443-1.232-2.8972-2.596-4.9585-4.092-5.6461 1.352-10.0017 2.573-13.067 3.664-3.0653 1.09-5.7551 2.376-8.0696 3.856Z" fill="url(#e)"/><path opacity=".23" fill-rule="evenodd" clip-rule="evenodd" d="m0 134.569 19.2194-1.064c.7417-.957 1.2373-1.855 1.4869-2.696.2496-.841.393-2.094.4302-3.76-5.646 1.352-10.0017 2.573-13.067 3.664-3.0652 1.09-5.755 2.376-8.0695 3.856Z" fill="url(#f)"/><path opacity=".1" d="M106.592 245.478c-17.1762 4.291-24.1321 10.707-20.8676 19.248 4.8969 12.81 44.2876 3.356 58.0186-.743 13.732-4.099 25.095-9.542 55.914-11.986 10.457-.829 53.533 3.925 97.252-.829 43.719-4.754 74.71-29.116 78.18-35.658 5.449-10.273-53.677-10.273-177.378 0-7.641 11.171-17.421 18.793-29.338 22.864-11.917 4.071-32.511 6.439-61.781 7.104Z" fill="#2D2D5D"/><path d="M180.251 166.484c-3.417 20.498.395 34.612 11.435 42.343 16.561 11.596 46.368 20.399 116.258 17.12 69.891-3.279 67.902-6.042 71.357-22.19 3.454-16.148 2.695-86.109-32.796-104.5357-6.762-3.5105-24.621 23.2567-45.965 44.4267-14.554 16.521-39.158 19.71-55.164 26.401-22.24 0-43.948-1.188-65.125-3.565Z" fill="url(#g)"/><path style="mix-blend-mode:soft-light" d="M180.251 166.484c-3.417 20.498.395 34.612 11.435 42.343 16.561 11.596 46.368 20.399 116.258 17.12 69.891-3.279 67.902-6.042 71.357-22.19 3.454-16.148 2.695-86.109-32.796-104.5357-6.762-3.5105-24.621 23.2567-45.965 44.4267-14.554 16.521-39.158 19.71-55.164 26.401-22.24 0-43.948-1.188-65.125-3.565Z" fill="url(#h)"/><path opacity=".2292" fill-rule="evenodd" clip-rule="evenodd" d="M342.128 166.323c6.906-2.098 12.958-5.084 14.877-6.542 3.367-2.557-.654-1.607-2.902-.322s-8.244 3.769-14.41 5.198c-8.764 2.033-18.077 2.08-16.285 3.381 1.792 1.302 13.516-.134 18.72-1.715Z" fill="url(#i)"/><path style="mix-blend-mode:soft-light" opacity=".5131" fill-rule="evenodd" clip-rule="evenodd" d="M180.251 166.484c17.044 33.299 26.474 50.282 28.292 50.948 8.38 3.07 18.943 5.576 32.622 7.194 8.084.956 26.558-24.866 55.421-77.466l-116.335 19.324Z" fill="url(#j)"/><path style="mix-blend-mode:soft-light" opacity=".5131" fill-rule="evenodd" clip-rule="evenodd" d="M180.251 166.484c7.465 13.848 22.124 21.465 43.977 22.849 21.853 1.385 45.972-12.672 72.358-42.173l-116.335 19.324Z" fill="url(#k)"/><path opacity=".3895" fill-rule="evenodd" clip-rule="evenodd" d="M310.608 180.863c1.418-1.325 22.274.146 32.704-2.016 6.952-1.441 16.128-4.929 27.525-10.466 2.266-.629 2.266.254 0 2.65-1.72 1.819-17.587 9.204-30.568 10.671-7.257.821-31.079.486-29.661-.839Z" fill="url(#l)"/><path opacity=".2044" fill-rule="evenodd" clip-rule="evenodd" d="M307.831 196.617c1.597-2.767 27.263.576 38.333-2.821 11.071-3.398 25.492-10.375 28.156-11.26 2.664-.885 5.242-.93 1.182 3.025-1.55 1.511-9.342 5.8-18.424 9.047-3.967 1.418-13.644 4.632-25.249 4.805-11.605.173-25.102-.882-23.998-2.796Z" fill="url(#m)"/><path fill-rule="evenodd" clip-rule="evenodd" d="m120.39 218.197 5.276-9.869 21.039 7.89-3.51 11.844-12.051-1.291-10.754-8.574Z" fill="url(#n)"/><path d="M145.481 224.105c-5.647-7.057-11.465-11.274-17.455-12.653-5.989-1.378-8.984-3.085-8.984-5.121 11.593-35.144 18.898-57.457 21.915-66.938 4.524-14.223 5.364-24.503 21.547-22.321 16.183 2.181 44.576 11.835 52.06 16.708 7.485 4.873.734 26.108-11.327 31.387-8.04 3.519-20.084-.02-36.13-10.616-2.84 17.011-5.552 29.672-8.137 37.985-2.584 8.312-7.081 18.835-13.489 31.569Z" fill="url(#o)"/><path opacity=".3451" d="M145.482 224.105c-1.743-2.141-3.071-3.673-3.984-4.599-.913-.925-2.119-1.959-3.617-3.103 15.16-44.797 24.248-71.936 27.264-81.418 4.525-14.223 39.982 2.88 47.466 7.753 7.485 4.873 2.687 17.15-9.374 22.429-8.04 3.519-20.083-.02-36.13-10.616-2.84 17.011-5.552 29.672-8.137 37.985-2.584 8.312-7.08 18.835-13.488 31.569Z" fill="url(#p)"/><path opacity=".1" d="M124.888 213.977c9.666-39.141 15.223-61.24 16.673-66.296 2.174-7.585 7.157-28.054 13.275-28.054 1.077 0 6.666-1.157 9.809-.615 14.713 2.538 44.04 11.593 49.926 15.881" stroke="#fff" stroke-width="1.4028"/><path opacity=".1" d="M213.685 136.113c-27.203-10.367-43.036-15.551-47.499-15.551-2.647 0-6.03.544-8.306.898-3.482.543-6.581 2.911-7.098 4.277-.855 2.26-16.9 57.739-16.9 60.273 0 1.689-2.328 11.373-6.985 29.051" stroke="#fff" stroke-width="1.4028"/><path opacity=".1" d="M211.884 135.761c-28.225-8.435-43.089-12.653-44.59-12.653-2.253 0-10.424-1.62-13.2 2.36-2.775 3.981-15.357 53.297-16.213 54.607" stroke="#fff" stroke-width="1.4028"/><path opacity=".1" d="M140.932 180.076c7.301-27.738 11.347-42.872 12.141-45.4 1.189-3.793 1.189-7.666 6.093-9.559 3.269-1.262 20.976 2.403 53.122 10.997" stroke="#fff" stroke-width="1.4028"/><path opacity=".1" d="M144.742 178.658c6.758-27.744 10.884-42.882 12.378-45.413 2.242-3.796 4.657-6.608 8.633-6.608 2.651 0 17.028 3.045 43.131 9.134" stroke="#fff" stroke-width="1.4028"/><path fill-rule="evenodd" clip-rule="evenodd" d="m94.3536 202.859 20.9654-10.053 10.864 16.929c-6.21 4.536-11.022 7.793-14.435 9.771-3.413 1.977-6.868 3.51-10.367 4.598l-7.9889-10.42.9615-10.825Z" fill="url(#q)"/><path fill-rule="evenodd" clip-rule="evenodd" d="M54.5713 191.901c3.6022-.344 7.2487.224 10.9394 1.705 5.5362 2.222 11.2805 4.167 21.9016 4.167 7.0807 0 10.6407 1.308 10.6799 3.925-.6735 9.235-.6735 14.982 0 17.239.6735 2.258 3.9698 3.73 9.8898 4.417l-14.576 9.284-10.409 1.003-16.6033-12.236-11.8224-29.504Z" fill="url(#r)"/><path style="mix-blend-mode:soft-light" fill-rule="evenodd" clip-rule="evenodd" d="M98.0918 218.937c.6736 2.258 3.9702 3.73 9.8902 4.417l-14.5764 9.284-10.409 1.003-16.6032-12.237-4.8163-13.681c9.9751 8.269 16.8548 12.945 20.6392 14.028 9.3937 2.688 15.614-3.691 15.8755-2.814Z" fill="url(#s)"/><path fill-rule="evenodd" clip-rule="evenodd" d="M49.3579 195.017c1.6548-2.077 3.3925-3.116 5.2131-3.116 2.7308 0 8.0092 10.327 11.1838 18.312 3.1746 7.984 13.8055 20.821 22.3469 22.058 8.5413 1.237-5.1907 3.197-5.1907 3.197s-2.1581-.094-6.0691-2.15c-.8339-.438-2.2858-1.376-3.2283-2.251-1.2907-.794-9.3759-12.811-24.2557-36.05Z" fill="url(#t)"/><path d="M55.9418 210.398c-5.3323-8.198-6.7594-13.819-6.5672-15.128.1922-1.308 3.4048 2.529 7.416 9.351 4.0111 6.822 14.4601 23.676 17.8919 27.321-4.5532-3.05-13.4084-13.346-18.7407-21.544Z" fill="url(#u)"/><path d="M83.8801 205.104c.6198 0 1.1222-.502 1.1222-1.122 0-.62-.5024-1.122-1.1222-1.122-.6198 0-1.1223.502-1.1223 1.122 0 .62.5025 1.122 1.1223 1.122ZM89.1169 206.226c.6197 0 1.1222-.502 1.1222-1.122 0-.62-.5025-1.122-1.1222-1.122-.6198 0-1.1223.502-1.1223 1.122 0 .62.5025 1.122 1.1223 1.122ZM94.3537 207.723c.6198 0 1.1222-.502 1.1222-1.122 0-.62-.5024-1.122-1.1222-1.122-.6198 0-1.1223.502-1.1223 1.122 0 .62.5025 1.122 1.1223 1.122Z" fill="#FFE5DA"/><mask id="v" style="mask-type:alpha" maskUnits="userSpaceOnUse" x="105" y="131" width="195" height="83"><path d="M106.106 192.838c-3.074 3.242 12.976 20.847 16.894 20.847 3.919 0 25.981-8.736 44.557-14.791 18.575-6.056 34.433-23.583 42.61-27.113 8.176-3.53 37.881 1.112 48.466-3.007 7.057-2.746 18.736-8.673 35.038-17.78l5.678-5.747c-7.274-2.485-13.795-4.391-19.563-5.718-7.956-1.829-45.261-7.763-54.339-7.763-9.078 0-17.726.265-34.82 15.584-6.791 6.086-21.517 15.706-40.537 25.701-12.896 6.777-40.91 16.545-43.984 19.787Z" fill="#fff"/></mask><g mask="url(#v)"><path d="M106.106 192.838c-3.074 3.242 12.976 20.847 16.894 20.847 3.919 0 25.981-8.736 44.557-14.791 18.575-6.056 34.433-23.583 42.61-27.113 8.176-3.53 37.881 1.112 48.466-3.007 7.057-2.746 18.736-8.673 35.038-17.78l5.678-5.747c-7.274-2.485-13.795-4.391-19.563-5.718-7.956-1.829-45.261-7.763-54.339-7.763-9.078 0-17.726.265-34.82 15.584-6.791 6.086-21.517 15.706-40.537 25.701-12.896 6.777-40.91 16.545-43.984 19.787Z" fill="url(#w)"/><g opacity=".2" stroke="#fff" stroke-width="1.4028"><path opacity=".2" d="M98.8423 201.434c16.4767-8.628 33.3797-18.023 44.1257-20.82 10.745-2.797 41.046-22.683 47.301-26.396 6.255-3.713 15.293-14.654 25.92-17.406 10.627-2.751 50.326 3.347 61.837 5.696 7.674 1.566 15.156 2.861 22.445 3.885"/><path opacity=".2" d="M103.013 202.859c10.417-4.114 11.89-6.093 21.212-10.053 9.322-3.96 24.934-9.713 36.701-16.03 11.768-6.317 35.541-21.01 41.535-26.271 5.995-5.262 9.825-9.74 19.251-10.409 9.426-.669 34.21 1.904 41.496 3.655 7.286 1.751 30.813 2.736 35.325 3.929"/><path opacity=".2" d="M107.982 205.478c7.694-4.044 20.633-7.809 35.451-13.675 14.819-5.866 37.554-20.751 43.055-24.203 5.5-3.451 19.023-14.143 22.709-17.095 3.687-2.953 7.237-6.465 13.674-6.465 6.437 0 31.825 1.297 38.093 2.723 4.178.952 16.456 1.745 36.832 2.379"/><path opacity=".2" d="M111.748 208.455c1.506-.128 10.795-3.594 19.063-7.021 8.268-3.428 15.027-4.364 22.623-8.628 7.596-4.264 32.223-19.687 38.554-24.033 6.33-4.345 18.531-16.935 29.725-20.273 11.193-3.338 68.579 3.39 76.082 1.155"/><path opacity=".2" d="M113.431 212.722c3.928-1.419 12.385-4.626 20.116-7.244 7.732-2.619 24.778-10.863 29.831-13.577 5.053-2.715 23.691-12.842 28.61-17.142 4.919-4.3 16.861-14.871 23.317-18.646 6.457-3.774 6.953-4.49 14.026-5.608 4.516-.715 17.932-.669 30.772-.715 5.928-.021 13.672.475 19.671.715 8.532.341 14.571.511 15.735.923"/></g></g><g opacity=".3451"><path opacity=".3451" d="M170.141 193.506c-17.388 8.953-51.06 20.178-47.141 20.178 3.919 0 25.981-8.735 44.556-14.791 18.576-6.055 34.434-23.583 42.61-27.113 8.177-3.53 37.882 1.113 48.467-3.006 7.057-2.746 18.736-8.673 35.038-17.781-8.927-.325-16.416-.487-22.468-.487-9.077 0-35.145-.348-54.165 9.647-12.895 6.777-29.508 24.4-46.897 33.353Z" fill="url(#x)"/><path opacity=".3451" d="M170.141 193.506c-17.388 8.953-51.06 20.178-47.141 20.178 3.919 0 25.981-8.735 44.556-14.791 18.576-6.055 34.434-23.583 42.61-27.113 8.177-3.53 37.882 1.113 48.467-3.006 7.057-2.746 18.736-8.673 35.038-17.781-8.927-.325-16.416-.487-22.468-.487-9.077 0-35.145-.348-54.165 9.647-12.895 6.777-29.508 24.4-46.897 33.353Z" fill="url(#y)"/></g><path fill-rule="evenodd" clip-rule="evenodd" d="M76.9695 246.923c-.8879-2.675-.9851-5.084-.2918-7.227.6933-2.143 1.9838-3.561 3.8716-4.253l36.5407-4.578 26.087 8.029 6.913 1.511-.77 7.37-38.285 1.62-34.0655-2.472Z" fill="url(#z)"/><path d="M149.377 247.351c-3.638-1.425-22.282 1.257-31.671-1.725-16.251-5.16-30.103-6.598-34.8411-4.932-7.2906 2.564-10.4342 8.122 3.5101 13.036 9.3695 3.302 38.386 1.308 53.644-1.721 7.449-1.479 9.358-2.177 9.358-4.658Z" fill="url(#A)"/><path fill-rule="evenodd" clip-rule="evenodd" d="M80.5493 235.443c7.2584-3.955 21.1047-6.462 25.1747-11.6 2.713-3.426 4.244-5.547 4.593-6.363 5.528-1.893 8.834-2.529 9.92-1.906 1.628.935 14.936 13.547 19.21 10.597 4.274-2.949 4.883-2.263 6.097-.485 1.214 1.779 4.546 12.022 4.546 14.719 0 2.697-22.431 2.51-30.517.634-8.086-1.876-16.762-4.618-23.5772-5.596-4.5436-.651-9.6924-.651-15.4465 0Z" fill="url(#B)"/><path d="M111.748 223.06c.93 0 1.684-.586 1.684-1.309s-.754-1.31-1.684-1.31c-.929 0-1.683.587-1.683 1.31 0 .723.754 1.309 1.683 1.309ZM117.36 220.815c.929 0 1.683-.586 1.683-1.309s-.754-1.309-1.683-1.309c-.93 0-1.684.586-1.684 1.309s.754 1.309 1.684 1.309Z" fill="#FFEEE7"/><path fill-rule="evenodd" clip-rule="evenodd" d="M324.551 60.5611c-25.494-.5512-40.033-.5512-43.614 0-5.372.8268-28.311 8.6755-34.242 13.7523-3.954 3.3845-8.237 7.3455-12.847 11.8832l14.773 43.9124 6.204 4.995c5.59 1.024 9.725 1.799 12.407 2.324 7.925 1.551 18.614 4.248 32.069 8.089l40.9-30.326-15.65-54.6299Z" fill="url(#C)"/><path fill-rule="evenodd" clip-rule="evenodd" d="M295.911 62.9672s-6.476.2133-8.102 2.3c-1.625 2.0866-10.559 11.3995-13.715 21.6927-2.103 6.862-4.391 18.6281-6.862 35.2991v15.169c2.994.765 6.976 1.655 11.945 2.668 4.969 1.014 11.677 2.821 20.124 5.421l32.069-29.405c-.458-12.166-.687-18.5007-.687-19.0042 0-.5035-2.044-12.6858-6.131-36.5467-10.861-.5163-17.827-.6454-20.899-.3873-3.163.2657-7.742 2.7934-7.742 2.7934Z" fill="url(#D)"/><path fill-rule="evenodd" clip-rule="evenodd" d="m267.232 122.258-12.887 12.756 12.887 2.414c2.994.765 6.976 1.654 11.945 2.668 4.969 1.014 11.677 2.821 20.124 5.421l33.191-24.581c-16.15 4.384-28.478 6.662-36.982 6.834-8.504.172-17.93-1.665-28.278-5.512Z" fill="url(#E)"/><path d="M274.473 106.347c.723 0 1.31-.586 1.31-1.309s-.587-1.309-1.31-1.309c-.723 0-1.309.586-1.309 1.309s.586 1.309 1.309 1.309ZM272.229 120.937c.723 0 1.309-.587 1.309-1.31 0-.723-.586-1.309-1.309-1.309s-1.31.586-1.31 1.309.587 1.31 1.31 1.31ZM276.718 91.7581c.723 0 1.309-.5862 1.309-1.3093 0-.7231-.586-1.3093-1.309-1.3093s-1.309.5862-1.309 1.3093c0 .7231.586 1.3093 1.309 1.3093ZM282.703 80.9097c.723 0 1.309-.5862 1.309-1.3093 0-.723-.586-1.3092-1.309-1.3092s-1.309.5862-1.309 1.3092c0 .7231.586 1.3093 1.309 1.3093Z" fill="#2A2A58" style="mix-blend-mode:soft-light"/><path style="mix-blend-mode:soft-light" opacity=".5" fill-rule="evenodd" clip-rule="evenodd" d="m249.132 92.2328 2.878-5.8499 18.485-3.6576-3.264 19.5257-8.789 7.331h-7.211l-2.099-17.3492Z" fill="url(#F)"/><path fill-rule="evenodd" clip-rule="evenodd" d="m249.71 91.1942 2.301-4.8113 18.485-3.6576-.86 4.4651-19.926 4.0038Z" fill="#F4716B"/><path style="mix-blend-mode:soft-light" opacity=".5" fill-rule="evenodd" clip-rule="evenodd" d="m287.023 82.7253-3.562 21.0037 14.352 4.18 9.375-1.562 4.94-23.6217h-25.105Z" fill="url(#G)"/><path fill-rule="evenodd" clip-rule="evenodd" d="M287.017 82.7253h25.112l-.99 5.1659-25.179-.5969 1.057-4.569Z" fill="#F4716B"/><path fill-rule="evenodd" clip-rule="evenodd" d="M306.966 49.66c-1.169-1.1275-3.98-1.6018-8.435-1.4228-4.455.179-5.355 1.4153-2.699 3.7088l10.371.8952.763-3.1812Z" fill="url(#H)"/><path fill-rule="evenodd" clip-rule="evenodd" d="M286.658 57.8382c-2.761 1.6126-4.398 3.7815-4.913 6.5067-.514 2.7253-.756 5.9121-.726 9.5605-2.176-2.5021-3.95-3.9186-5.321-4.2495-1.371-.331-2.99.1522-4.856 1.4495 2.769-4.8031 4.388-7.6428 4.856-8.5191 2.447-4.5808 5.053-6.9079 6.588-7.7369 1.976-1.0668 3.434-.0706 4.372 2.9888Z" fill="url(#I)"/><path fill-rule="evenodd" clip-rule="evenodd" d="M281.019 73.9051c-1.995-2.9111-2.993-5.3021-2.993-7.1728 2.245-2.3606 3.617-4.6867 4.116-6.9782l-.496-8.4154 22.982-18.2322.814 22.5477c-6.362 6.6768-11.263 11.3899-14.703 14.1392-3.441 2.7493-6.68 4.1199-9.72 4.1117Z" fill="url(#J)"/><path fill-rule="evenodd" clip-rule="evenodd" d="M276.682 46.2171c2.271 3.4436 4.425 7.5718 7.77 9.1896 3.346 1.6178 11.082-3.6148 14.61-9.1896 3.529-5.5749 5.991-11.2286 5.648-13.4665-.342-2.2379-1.562-20.2319-6.938-21.8439-5.375-1.612-22.849-5.3692-25.509-.9624-2.661 4.4068-3.521 12.5494-3.091 13.3003.43.7509 4.119 8.3662 4.485 11.3153.366 2.9492.754 8.2135 3.025 11.6572Z" fill="url(#K)"/><path d="M290.248 29.4358c-1.413 0-2.633.7188-3.16 1.2937l2.37.8625c1.843-.1437 5.37-.5175 4.739-.8624-.79-.4313-.79-1.2938-3.949-1.2938ZM276.821 30.4536c-1.413 0-2.633 1.1693-3.159 2.1047l2.369 1.4032c1.843-.2338 5.371-.8419 4.739-1.4031-.79-.7016-.79-2.1048-3.949-2.1048Z" fill="#fff"/><path d="M273.662 31.9971c.526-.3796 1.895-1.1387 3.159-1.1387 1.264 0 3.159.3795 3.949.5693" stroke="#C79175" stroke-width=".5961"/><path fill-rule="evenodd" clip-rule="evenodd" d="M286.495 25.9644c.128.8977 1.46.4325 2.366.0984.906-.3341 3.928-.3185 4.966-.1153 1.039.2032 1.487-.1578.66-.6659-.826-.5081-3.508-1.2004-5.294-1.0107-1.786.1896-2.825.7958-2.698 1.6935ZM279.985 28.0928c.106.6359-1.213.5393-2.114.4614-.901-.0778-3.538.6927-4.427 1.0048-.888.312-1.382.1395-.76-.3461.622-.4856 2.749-1.9209 4.411-2.0886 1.661-.1677 2.785.3325 2.89.9685Z" fill="#1E1E3F"/><path d="M272.33 30.2669c-3.423-5.0031-5.135-8.2615-5.135-9.7752 0-2.2706-2.871-8.6111-1.1-11.256.752-1.1222 2.693-3.8547 5.979-5.2126 1.251-.5171 3.567-.8337 6.949-.9499C284.254 0 288.813-.7683 292.7.7683c5.832 2.305 5.215 3.3587 7.683 4.135 2.467.7763 7.796 3.1795 8.113 10.5853.212 4.9372-1.206 9.5863-4.254 13.9472-3.133-5.213-6.054-7.8195-8.762-7.8195-1.06-.9122-1.61-3.0554-1.649-6.4296-3.31-1.2393-5.814-1.7914-7.513-1.6564-1.7.135-4.131 1.0794-7.295 2.833-2.048.136-3.532.3706-4.451.7038-.919.3332-2.137 1.078-3.654 2.2342-.156 1.5833-.156 3.1224 0 4.6172.156 1.4948.627 3.611 1.412 6.3484Z" fill="url(#L)"/><path d="M300.383 4.9034c2.468.7763 7.797 3.1795 8.114 10.5853.211 4.9372-1.207 9.5863-4.254 13.9472-3.134-5.213-6.054-7.8195-8.762-7.8195-1.061-.9122-1.61-3.0554-1.649-6.4296 4.367-1.508 6.551-4.9359 6.551-10.2834Z" fill="url(#M)"/><path opacity=".4956" d="M280.045 45.2866c1.535 1.334 3.177 1.817 4.926 1.4488 1.75-.3682 4.277-1.7284 7.581-4.0805-3.793.1591-6.55.4197-8.27.7817-1.721.3621-3.133.9787-4.237 1.85Z" fill="#F4716B"/><path fill-rule="evenodd" clip-rule="evenodd" d="M302.711 27.0062c.205-3.7408 1.499-5.1556 3.881-4.2444 3.573 1.3668 4.34 8.0453 1.796 10.3551-1.695 1.54-3.255 2.2816-4.679 2.225l-.998-8.3357Z" fill="#FBD4C4"/><path fill-rule="evenodd" clip-rule="evenodd" d="m328.585 111.249-12.132-29.1359c.878-15.0957 4.021-22.2613 9.429-21.4968 8.111 1.1467 18.67 11.6666 24.064 30.935 3.596 12.8457 5.229 23.1757 4.898 30.9907" fill="url(#N)"/><path fill-rule="evenodd" clip-rule="evenodd" d="M336.42 66.5646c5.269 5.1374 10.314 13.5102 13.527 24.9862 3.596 12.8452 5.228 23.1762 4.897 30.9902-2.441-5.557-5.314-9.046-8.619-10.467-2.115-.909-1.608-11.814-3.784-21.6256-2.923-13.1834-8.072-25.8837-6.021-23.8838Z" fill="url(#O)"/><path fill-rule="evenodd" clip-rule="evenodd" d="m294.644 63.0254 10.096 7.6617c1.981-2.3022 3.322-4.2333 4.023-5.7933.586-1.3063 1.097-3.182 1.532-5.6273a4.8592 4.8592 0 0 0-.337-2.8109l-2.991-6.7955c-1.792 3.1465-3.435 5.5297-4.929 7.1496-1.494 1.6198-3.958 3.6917-7.394 6.2157Z" fill="#fff"/><path fill-rule="evenodd" clip-rule="evenodd" d="m294.643 63.0259-6.226 8.5335c3.261-2.2247 5.85-3.3883 7.77-3.4908 1.919-.1025 4.284.4012 7.095 1.511l-8.639-6.5537Z" fill="url(#P)"/><path d="M287.018 29.785c.526-.2885 1.895-.8654 3.159-.8654 1.263 0 3.159.7212 3.949.8654" stroke="#C79175" stroke-width=".5961"/><path fill-rule="evenodd" clip-rule="evenodd" d="m192.397 123.953-5.735-45.8889c-.077-.6151.359-1.1759.975-1.2528.083-.0104.168-.0114.251-.003l61.895 6.2477c1.427.1441 2.552 1.2814 2.68 2.7107l4.475 49.9953-61.346-8.568c-1.675-.234-2.985-1.563-3.195-3.241Z" fill="url(#Q)"/><path fill-rule="evenodd" clip-rule="evenodd" d="M219.031 110.792c2.463.201 4.46-1.627 4.46-4.082s-1.997-4.607-4.46-4.808c-2.463-.2-4.46 1.628-4.46 4.082 0 2.455 1.997 4.608 4.46 4.808ZM256.938 135.762l28.98-1.021-1.416-1.515-30.534-5.455 2.97 7.991Z" fill="#fff"/><path fill-rule="evenodd" clip-rule="evenodd" d="m256.601 130.59 13.217 2.634-13.217.838v-3.472Z" fill="#E3E7E9"/><path fill-rule="evenodd" clip-rule="evenodd" d="M255.173 116.253c2.081-.966 3.433-1.45 4.054-1.45 1.88 0 10.263 4.602 15.828 6.134 5.566 1.531 28.13-.167 34.665-1.684 3.572-.829 10.559-1.392 16.729-4.45.903-.447 1.615-1.631 2.135-3.553 7.611-1.299 13.609-1.005 17.995.881 4.385 1.886 7.14 5.356 8.264 10.411-.682 5.365-1.786 8.626-3.313 9.784-2.289 1.736-14.027 3.436-29.062 3.436-15.035 0-43.472-2.332-47.413-3.436-3.94-1.105-6.909-4.577-10.728-3.872-2.546.47-5.121 1.35-7.727 2.64l-.425-3.578c1.416-1.027 2.125-1.842 2.125-2.443 0-.602-.788-.602-2.364 0l-.763-8.82Z" fill="url(#R)"/><g style="mix-blend-mode:soft-light" opacity=".3406"><path style="mix-blend-mode:soft-light" opacity=".3406" d="M297.796 132.428c10.384.814 34.154 2.245 47.094-4.159 7.437-3.68-.712-17.171 1.689-16.138 4.386 1.886 7.141 5.356 8.265 10.41-.682 5.366-1.787 8.627-3.313 9.784-2.29 1.736-14.027 3.436-29.062 3.436-15.035 0-43.472-2.331-47.413-3.436-3.941-1.104 15.384-.474 22.74.103Z" fill="url(#S)"/><path style="mix-blend-mode:soft-light" opacity=".3406" d="M297.796 132.428c10.384.814 34.154 2.245 47.094-4.159 7.437-3.68-.712-17.171 1.689-16.138 4.386 1.886 7.141 5.356 8.265 10.41-.682 5.366-1.787 8.627-3.313 9.784-2.29 1.736-14.027 3.436-29.062 3.436-15.035 0-43.472-2.331-47.413-3.436-3.941-1.104 15.384-.474 22.74.103Z" fill="url(#T)"/></g><path d="m348.786 44.7441 6.921-9.6468c4.044 1.1422 7.222 1.8501 9.536 2.1236 2.313.2735 5.017.261 8.11-.0375-3.547 5.7078-5.668 8.7587-6.364 9.153-1.044.5913-4.019.8606-7.103.5909-2.056-.1799-5.756-.9076-11.1-2.1832Z" fill="url(#U)"/><path style="mix-blend-mode:soft-light" d="m348.786 44.7441 6.921-9.6468c4.044 1.1422 7.222 1.8501 9.536 2.1236 2.313.2735 5.017.261 8.11-.0375-3.547 5.7078-5.668 8.7587-6.364 9.153-1.044.5913-4.019.8606-7.103.5909-2.056-.1799-5.756-.9076-11.1-2.1832Z" fill="url(#V)"/><path opacity=".23" fill-rule="evenodd" clip-rule="evenodd" d="M355.707 35.0988c4.043 1.1415 7.222 1.849 9.535 2.1222 2.314.2732 5.017.2604 8.111-.0384-1.869 1.2143-3.413 2.1107-4.63 2.6893-1.218.5786-2.547 1.0468-3.986 1.4046l-9.03-6.1777Z" fill="url(#W)"/><circle cx="274.563" cy="32.3375" r="1.2985" fill="#765048"/><path d="M278.807 37.3052c0-1.2636.527-4.2122.79-5.5286.526-.2632 1.58-.6318 1.58 0 0 .7898.789 3.949 1.579 4.7388.79.7898 2.37 1.5796 1.58 3.1592-.79 1.5797-3.949 2.3695-4.739 1.5797-.79-.7899-.79-2.3695-.79-3.9491Z" fill="#F7C1A9"/><circle cx="287.598" cy="30.199" r="1.4091" fill="#765048"/><defs><linearGradient id="a" x1="273.07" y1="290.474" x2="273.07" y2="251.841" gradientUnits="userSpaceOnUse"><stop stop-color="#FFE5DA"/><stop offset="1" stop-color="#fff"/></linearGradient><linearGradient id="b" x1="342.205" y1="235.277" x2="346.826" y2="252.543" gradientUnits="userSpaceOnUse"><stop stop-color="#FFE5DA"/><stop offset="1" stop-color="#fff"/></linearGradient><linearGradient id="c" x1="68.3508" y1="112.639" x2="120.698" y2="135.764" gradientUnits="userSpaceOnUse"><stop stop-color="#E83A39"/><stop offset="1" stop-color="#F66458"/></linearGradient><linearGradient id="d" x1="34.9863" y1="136.415" x2="-13.9743" y2="136.415" gradientUnits="userSpaceOnUse"><stop stop-color="#F7A969"/><stop offset="1" stop-color="#ED7038"/></linearGradient><linearGradient id="e" x1="24.3284" y1="136.738" x2="30.5655" y2="142.366" gradientUnits="userSpaceOnUse"><stop stop-opacity="0"/><stop offset="1"/></linearGradient><linearGradient id="f" x1="13.9263" y1="135.357" x2="13.9263" y2="127.049" gradientUnits="userSpaceOnUse"><stop stop-color="#FFE5DA"/><stop offset="1" stop-color="#fff"/></linearGradient><linearGradient id="g" x1="407.42" y1="162.774" x2="87.8196" y2="162.774" gradientUnits="userSpaceOnUse"><stop stop-color="#F7A969"/><stop offset="1" stop-color="#ED7038"/></linearGradient><linearGradient id="h" x1="337.848" y1="165.135" x2="378.965" y2="203.249" gradientUnits="userSpaceOnUse"><stop stop-opacity="0"/><stop offset="1"/></linearGradient><linearGradient id="i" x1="345.187" y1="169.046" x2="345.187" y2="155.476" gradientUnits="userSpaceOnUse"><stop stop-color="#FFE6DB"/><stop offset="1" stop-color="#F5BBA2"/></linearGradient><linearGradient id="j" x1="238.419" y1="224.651" x2="238.419" y2="147.16" gradientUnits="userSpaceOnUse"><stop stop-opacity="0"/><stop offset="1"/></linearGradient><linearGradient id="k" x1="238.419" y1="189.427" x2="238.419" y2="147.16" gradientUnits="userSpaceOnUse"><stop stop-opacity="0"/><stop offset="1"/></linearGradient><linearGradient id="l" x1="349.391" y1="182.821" x2="349.391" y2="164.559" gradientUnits="userSpaceOnUse"><stop stop-color="#FFE6DB"/><stop offset="1" stop-color="#F5BBA2"/></linearGradient><linearGradient id="m" x1="351.743" y1="199.867" x2="351.365" y2="178.182" gradientUnits="userSpaceOnUse"><stop stop-color="#FFE6DB"/><stop offset="1" stop-color="#F5BBA2"/></linearGradient><linearGradient id="n" x1="136.879" y1="229.015" x2="136.879" y2="213.252" gradientUnits="userSpaceOnUse"><stop stop-color="#FFE6DB"/><stop offset="1" stop-color="#F5BBA2"/></linearGradient><linearGradient id="o" x1="159.744" y1="116.779" x2="159.744" y2="139.884" gradientUnits="userSpaceOnUse"><stop stop-color="#2D2D63"/><stop offset="1" stop-color="#1E1E3F"/></linearGradient><linearGradient id="p" x1="212.157" y1="139.982" x2="144.498" y2="146.141" gradientUnits="userSpaceOnUse"><stop stop-opacity="0"/><stop offset="1"/></linearGradient><linearGradient id="q" x1="84.9307" y1="222.712" x2="130.666" y2="224.223" gradientUnits="userSpaceOnUse"><stop stop-color="#FFE6DB"/><stop offset="1" stop-color="#F5BBA2"/></linearGradient><linearGradient id="r" x1="89.7623" y1="238.022" x2="89.7623" y2="191.804" gradientUnits="userSpaceOnUse"><stop stop-color="#FFE5DA"/><stop offset="1" stop-color="#fff"/></linearGradient><linearGradient id="s" x1="46.4639" y1="225.666" x2="107.982" y2="225.666" gradientUnits="userSpaceOnUse"><stop stop-opacity="0"/><stop offset="1"/></linearGradient><linearGradient id="t" x1="35.606" y1="253.754" x2="70.5098" y2="201.009" gradientUnits="userSpaceOnUse"><stop stop-color="#E83A39"/><stop offset="1" stop-color="#F66458"/></linearGradient><linearGradient id="u" x1="59.8054" y1="195.016" x2="59.8054" y2="202.966" gradientUnits="userSpaceOnUse"><stop stop-color="#2D2D63"/><stop offset="1" stop-color="#1E1E3F"/></linearGradient><linearGradient id="w" x1="258.491" y1="175.107" x2="102.606" y2="173.054" gradientUnits="userSpaceOnUse"><stop stop-color="#24244D"/><stop offset=".3522" stop-color="#2F2F62"/><stop offset="1" stop-color="#1E1E3F"/></linearGradient><linearGradient id="x" x1="320.23" y1="178.741" x2="105.334" y2="184.721" gradientUnits="userSpaceOnUse"><stop stop-opacity="0"/><stop offset="1"/></linearGradient><linearGradient id="y" x1="255.72" y1="152.203" x2="255.72" y2="170.626" gradientUnits="userSpaceOnUse"><stop stop-opacity="0"/><stop offset="1"/></linearGradient><linearGradient id="z" x1="45.6404" y1="241.202" x2="102.557" y2="220.629" gradientUnits="userSpaceOnUse"><stop stop-color="#E83A39"/><stop offset="1" stop-color="#F66458"/></linearGradient><linearGradient id="A" x1="134.032" y1="247.848" x2="75.482" y2="247.462" gradientUnits="userSpaceOnUse"><stop stop-color="#24244D"/><stop offset=".3522" stop-color="#2F2F62"/><stop offset="1" stop-color="#1E1E3F"/></linearGradient><linearGradient id="B" x1="126.368" y1="259.054" x2="126.368" y2="226.373" gradientUnits="userSpaceOnUse"><stop stop-color="#FFE5DA"/><stop offset="1" stop-color="#fff"/></linearGradient><linearGradient id="C" x1="202.876" y1="71.7157" x2="319.128" y2="146.732" gradientUnits="userSpaceOnUse"><stop stop-color="#E83A39"/><stop offset="1" stop-color="#F66458"/></linearGradient><linearGradient id="D" x1="320.352" y1="53.5581" x2="320.352" y2="154.668" gradientUnits="userSpaceOnUse"><stop stop-color="#E83A39"/><stop offset="1" stop-color="#F66458"/></linearGradient><linearGradient id="E" x1="319.068" y1="148.149" x2="319.068" y2="136.653" gradientUnits="userSpaceOnUse"><stop stop-color="#E83A39"/><stop offset="1" stop-color="#B4111D"/></linearGradient><linearGradient id="F" x1="259.056" y1="121.901" x2="260.253" y2="45.1071" gradientUnits="userSpaceOnUse"><stop stop-color="#fff" stop-opacity="0"/><stop offset="1" stop-color="#fff"/></linearGradient><linearGradient id="G" x1="296.188" y1="113.949" x2="297.428" y2="58.365" gradientUnits="userSpaceOnUse"><stop stop-color="#fff" stop-opacity="0"/><stop offset="1" stop-color="#fff"/></linearGradient><linearGradient id="H" x1="304.798" y1="53.338" x2="304.798" y2="47.8482" gradientUnits="userSpaceOnUse"><stop stop-color="#E83A39"/><stop offset="1" stop-color="#B4111D"/></linearGradient><linearGradient id="I" x1="283.942" y1="75.9898" x2="283.942" y2="52.958" gradientUnits="userSpaceOnUse"><stop stop-color="#E83A39"/><stop offset="1" stop-color="#B4111D"/></linearGradient><linearGradient id="J" x1="295.205" y1="75.8759" x2="295.205" y2="43.2861" gradientUnits="userSpaceOnUse"><stop stop-color="#FFE6DB"/><stop offset="1" stop-color="#F5BBA2"/></linearGradient><linearGradient id="K" x1="291.421" y1="58.0154" x2="291.421" y2="-4.5465" gradientUnits="userSpaceOnUse"><stop stop-color="#FFE6DB"/><stop offset="1" stop-color="#F5BBA2"/></linearGradient><linearGradient id="L" x1="283.257" y1="0" x2="283.257" y2="6.5159" gradientUnits="userSpaceOnUse"><stop stop-color="#2D2D63"/><stop offset="1" stop-color="#1E1E3F"/></linearGradient><linearGradient id="M" x1="299.89" y1="4.9034" x2="299.89" y2="10.1848" gradientUnits="userSpaceOnUse"><stop stop-color="#2D2D63"/><stop offset="1" stop-color="#1E1E3F"/></linearGradient><linearGradient id="N" x1="341.039" y1="85.55" x2="343.57" y2="117.188" gradientUnits="userSpaceOnUse"><stop stop-color="#E83A39"/><stop offset="1" stop-color="#F66458"/></linearGradient><linearGradient id="O" x1="354.886" y1="69.5467" x2="354.886" y2="136.365" gradientUnits="userSpaceOnUse"><stop stop-color="#E83A39"/><stop offset="1" stop-color="#F66458"/></linearGradient><linearGradient id="P" x1="299.914" y1="67.756" x2="285.797" y2="67.5182" gradientUnits="userSpaceOnUse"><stop stop-color="#C31D25"/><stop offset="1" stop-color="#EA413E"/></linearGradient><linearGradient id="Q" x1="186.653" y1="76.8026" x2="244.714" y2="146.016" gradientUnits="userSpaceOnUse"><stop stop-color="#BADEF8"/><stop offset="1" stop-color="#DEECF5"/></linearGradient><linearGradient id="R" x1="317.628" y1="136.984" x2="317.628" y2="103.884" gradientUnits="userSpaceOnUse"><stop stop-color="#FFE6DB"/><stop offset="1" stop-color="#F5BBA2"/></linearGradient><linearGradient id="S" x1="303.517" y1="145.324" x2="303.517" y2="119.157" gradientUnits="userSpaceOnUse"><stop stop-opacity="0"/><stop offset="1"/></linearGradient><linearGradient id="T" x1="303.517" y1="145.324" x2="303.517" y2="129.47" gradientUnits="userSpaceOnUse"><stop stop-opacity="0"/><stop offset="1"/></linearGradient><linearGradient id="U" x1="376.668" y1="36.3604" x2="337.505" y2="47.5881" gradientUnits="userSpaceOnUse"><stop stop-color="#F7A969"/><stop offset="1" stop-color="#ED7038"/></linearGradient><linearGradient id="V" x1="368.195" y1="38.9888" x2="374.413" y2="41.5693" gradientUnits="userSpaceOnUse"><stop stop-opacity="0"/><stop offset="1"/></linearGradient><linearGradient id="W" x1="368.656" y1="41.088" x2="366.084" y2="32.1218" gradientUnits="userSpaceOnUse"><stop stop-color="#FFE5DA"/><stop offset="1" stop-color="#fff"/></linearGradient></defs></svg>