<svg width="287" height="206" fill="none" xmlns="http://www.w3.org/2000/svg"><path fill-rule="evenodd" clip-rule="evenodd" d="m133.188 190.361 17.319 13.185c6.916-4.982 12.12-8.309 15.61-9.983 3.49-1.673 7.79-2.902 12.898-3.686l-15.884-12.324c-3.085-.824-6.921-.193-11.509 1.891s-10.732 5.723-18.434 10.917Z" fill="url(#a)"/><path fill-rule="evenodd" clip-rule="evenodd" d="m133.188 190.362 4.762 4.301 23.697-7.903 5.14-6.979-3.786-2.871c-2.998-.395-6.791.45-11.379 2.534-4.588 2.084-10.732 5.723-18.434 10.918Z" fill="#fff"/><path fill-rule="evenodd" clip-rule="evenodd" d="m246.142 188.796 6.187-7.97c3.699 1.395 6.432 2.258 8.198 2.587 1.766.329 3.841.362 6.226.099l-5.646 7.414c-1.285.738-3.081.917-5.389.536-2.307-.381-5.499-1.269-9.576-2.666Z" fill="url(#b)"/><path fill-rule="evenodd" clip-rule="evenodd" d="m62.1035 89.6239 13.2095-10.55c5.0674 3.1695 9.1252 5.3995 12.1733 6.6898 3.048 1.2902 6.7395 2.3407 11.0743 3.1512-7.0679 6.4587-11.1534 9.822-12.2567 10.0899-1.6548.4019-5.8166-.4019-9.917-1.9913-2.7336-1.0597-7.4947-3.5229-14.2834-7.3896Z" fill="url(#c)"/><path fill-rule="evenodd" clip-rule="evenodd" d="M75.3135 79.0739c5.0674 3.1695 9.1252 5.3995 12.1733 6.6898 3.0481 1.2903 6.7395 2.3407 11.0743 3.1512-8.91 1.3377-13.9456 1.8048-15.1069 1.4014l-8.1407-11.2424Z" fill="#FF928D"/><path d="m0 102.188 7.2472 8.291c.1393.16.3707.201.5566.099 2.6667-1.456 4.9618-2.608 6.8852-3.456 1.9994-.881 4.8579-1.99 8.5754-3.325-1.4678-1.866-2.6704-3.263-3.6077-4.1913-.9374-.9285-2.1824-1.9562-3.7352-3.083-4.253 1.0184-7.534 1.9384-9.843 2.76-2.3089.8213-4.335 1.7903-6.0785 2.9053Z" fill="url(#d)"/><path style="mix-blend-mode:soft-light" d="m0 102.188 7.2472 8.291c.1393.16.3707.201.5566.099 2.6667-1.456 4.9618-2.608 6.8852-3.456 1.9994-.881 4.8579-1.99 8.5754-3.325-1.4678-1.866-2.6704-3.263-3.6077-4.1913-.9374-.9285-2.1824-1.9562-3.7352-3.083-4.253 1.0184-7.534 1.9384-9.843 2.76-2.3089.8213-4.335 1.7903-6.0785 2.9053Z" fill="url(#e)"/><path opacity=".23" fill-rule="evenodd" clip-rule="evenodd" d="m0 102.188 14.4774-.802c.5587-.721.932-1.3975 1.1201-2.0307.188-.6332.296-1.5774.324-2.8326-4.253 1.0184-7.534 1.9384-9.843 2.76-2.3089.8213-4.335 1.7903-6.0785 2.9053Z" fill="url(#f)"/><path opacity=".1" d="M80.2927 185.732c-12.9386 3.233-18.1783 8.066-15.7192 14.499 3.6886 9.65 33.3604 2.528 43.7035-.56 10.344-3.088 18.903-7.188 42.119-9.028 7.876-.625 40.325 2.956 73.257-.625s56.277-21.932 58.89-26.86c4.105-7.738-40.433-7.738-133.613 0-5.756 8.415-13.123 14.156-22.1 17.223-8.977 3.066-24.489 4.85-46.5373 5.351Z" fill="#2D2D5D"/><path d="M135.778 126.228c-2.574 15.44.297 26.072 8.613 31.896 12.475 8.735 34.928 15.366 87.574 12.896 52.647-2.47 51.149-4.551 53.751-16.715 2.602-12.164 2.03-64.8632-24.704-78.7438-5.093-2.6444-18.546 17.5183-34.624 33.4658-10.963 12.444-29.497 14.846-41.553 19.887-16.753 0-33.105-.895-49.057-2.686Z" fill="url(#g)"/><path style="mix-blend-mode:soft-light" d="M135.778 126.228c-2.574 15.44.297 26.072 8.613 31.896 12.475 8.735 34.928 15.366 87.574 12.896 52.647-2.47 51.149-4.551 53.751-16.715 2.602-12.164 2.03-64.8632-24.704-78.7438-5.093-2.6444-18.546 17.5183-34.624 33.4658-10.963 12.444-29.497 14.846-41.553 19.887-16.753 0-33.105-.895-49.057-2.686Z" fill="url(#h)"/><path opacity=".2292" fill-rule="evenodd" clip-rule="evenodd" d="M257.715 126.107c5.202-1.581 9.761-3.83 11.207-4.928 2.535-1.926-.493-1.21-2.187-.243-1.693.968-6.21 2.839-10.854 3.916-6.602 1.531-13.617 1.567-12.267 2.547 1.349.98 10.181-.101 14.101-1.292Z" fill="url(#i)"/><path style="mix-blend-mode:soft-light" opacity=".5131" fill-rule="evenodd" clip-rule="evenodd" d="M135.778 126.228c12.838 25.084 19.942 37.876 21.311 38.378 6.313 2.313 14.269 4.2 24.573 5.419 6.09.72 20.005-18.731 41.747-58.353l-87.631 14.556Z" fill="url(#j)"/><path style="mix-blend-mode:soft-light" opacity=".5131" fill-rule="evenodd" clip-rule="evenodd" d="M135.778 126.228c5.623 10.431 16.665 16.169 33.126 17.212 16.461 1.043 34.63-9.546 54.505-31.768l-87.631 14.556Z" fill="url(#k)"/><path opacity=".3895" fill-rule="evenodd" clip-rule="evenodd" d="M233.972 137.06c1.068-.998 16.779.109 24.635-1.519 5.237-1.085 12.148-3.713 20.734-7.884 1.707-.474 1.707.191 0 1.996-1.296 1.371-13.248 6.933-23.026 8.039-5.467.618-23.411.366-22.343-.632Z" fill="url(#l)"/><path opacity=".2044" fill-rule="evenodd" clip-rule="evenodd" d="M231.88 148.927c1.203-2.085 20.536.433 28.875-2.126 8.339-2.559 19.203-7.814 21.209-8.481 2.007-.667 3.949-.701.891 2.278-1.168 1.138-7.038 4.369-13.878 6.815-2.989 1.068-10.279 3.489-19.02 3.62-8.742.13-18.908-.665-18.077-2.106Z" fill="url(#m)"/><path fill-rule="evenodd" clip-rule="evenodd" d="m90.686 165.182 3.9747-7.434 15.8483 5.943-2.644 8.922-9.078-.973-8.101-6.458Z" fill="url(#n)"/><path d="M109.587 169.632c-4.254-5.315-8.637-8.492-13.1486-9.531-4.5117-1.038-6.7675-2.324-6.7675-3.857 8.7329-26.473 14.2351-43.281 16.5081-50.423 3.408-10.7135 4.041-18.4568 16.231-16.8137 12.19 1.6431 33.577 8.915 39.215 12.5857 5.638 3.671.552 19.666-8.532 23.643-6.057 2.651-15.129-.015-27.216-7.996-2.139 12.813-4.182 22.351-6.129 28.612-1.947 6.262-5.334 14.188-10.161 23.78Z" fill="url(#o)"/><path opacity=".3451" d="M109.587 169.632c-1.313-1.612-2.313-2.767-3.001-3.464-.687-.696-1.596-1.476-2.724-2.338 11.419-33.744 18.265-54.187 20.537-61.329 3.409-10.7138 30.117 2.169 35.755 5.84 5.638 3.671 2.024 12.918-7.061 16.895-6.057 2.651-15.129-.015-27.216-7.996-2.139 12.813-4.182 22.351-6.129 28.612-1.947 6.262-5.334 14.188-10.161 23.78Z" fill="url(#p)"/><path opacity=".1" d="M94.0747 162.003c7.2813-29.484 11.4673-46.13 12.5593-49.939 1.638-5.713 5.391-21.1319 10-21.1319.811 0 5.021-.8715 7.389-.4631 11.083 1.9117 33.174 8.7326 37.607 11.962" stroke="#fff" stroke-width="1.2319"/><path opacity=".1" d="M160.963 103.351c-20.491-7.8098-32.418-11.7147-35.78-11.7147-1.993 0-4.542.41-6.256.677-2.623.4084-4.957 2.192-5.347 3.2215-.644 1.7022-12.73 43.4932-12.73 45.4022 0 1.272-1.754 8.567-5.2616 21.883" stroke="#fff" stroke-width="1.2319"/><path opacity=".1" d="M159.606 103.086c-21.261-6.3543-32.457-9.5314-33.588-9.5314-1.697 0-7.853-1.2207-9.943 1.7778-2.091 2.9984-11.568 40.1466-12.213 41.1336" stroke="#fff" stroke-width="1.2319"/><path opacity=".1" d="M106.16 136.466c5.499-20.894 8.548-32.293 9.145-34.198.896-2.8573.896-5.7742 4.59-7.2005 2.463-.9508 15.801 1.8105 40.015 8.2835" stroke="#fff" stroke-width="1.2319"/><path opacity=".1" d="M109.03 135.399c5.09-20.899 8.198-32.302 9.324-34.209 1.688-2.8591 3.508-4.9776 6.503-4.9776 1.996 0 12.826 2.2936 32.489 6.8806" stroke="#fff" stroke-width="1.2319"/><path fill-rule="evenodd" clip-rule="evenodd" d="m71.0739 153.629 15.7928-7.573 8.1832 12.752c-4.6778 3.417-8.3022 5.87-10.8731 7.36-2.5709 1.49-5.174 2.644-7.809 3.464l-6.0182-7.849.7243-8.154Z" fill="url(#q)"/><path fill-rule="evenodd" clip-rule="evenodd" d="M41.1069 145.374c2.7135-.259 5.4603.169 8.2404 1.285 4.1702 1.673 8.4973 3.138 16.4978 3.138 5.3337 0 8.0153.986 8.0449 2.957-.5074 6.956-.5074 11.285 0 12.986.5073 1.7 2.9906 2.809 7.4499 3.327L70.36 176.06l-7.8408.756-12.5068-9.218-8.9055-22.224Z" fill="url(#r)"/><path style="mix-blend-mode:soft-light" fill-rule="evenodd" clip-rule="evenodd" d="M73.8892 165.74c.5074 1.7 2.9907 2.809 7.4499 3.326l-10.9799 6.994-7.8408.756-12.5067-9.218-3.6279-10.306c7.5139 6.229 12.6962 9.751 15.5468 10.567 7.0761 2.025 11.7616-2.78 11.9586-2.119Z" fill="url(#s)"/><path fill-rule="evenodd" clip-rule="evenodd" d="M37.1802 147.721c1.2465-1.565 2.5554-2.347 3.9268-2.347 2.0571 0 6.0332 7.779 8.4245 13.794 2.3913 6.014 10.3993 15.684 16.8332 16.615 6.434.932-3.91 2.409-3.91 2.409s-1.6256-.071-4.5716-1.619c-.6282-.331-1.7219-1.037-2.4318-1.697-.9723-.598-7.0626-9.649-18.2711-27.155Z" fill="url(#t)"/><path d="M42.1396 159.307c-4.0166-6.175-5.0917-10.409-4.9469-11.395.1448-.985 2.5648 1.905 5.5863 7.044 3.0215 5.139 10.8924 17.834 13.4774 20.579-3.4298-2.297-10.1001-10.052-14.1168-16.228Z" fill="url(#u)"/><path d="M63.1842 155.319a.845.845 0 1 0 0-1.69.845.845 0 0 0-.8453.845c0 .467.3784.845.8453.845ZM67.129 156.165a.845.845 0 0 0 .8454-.845c0-.467-.3785-.846-.8454-.846-.4668 0-.8453.379-.8453.846 0 .467.3785.845.8453.845ZM71.0739 157.292a.845.845 0 0 0 .8453-.845.845.845 0 0 0-.8453-.845.845.845 0 1 0 0 1.69Z" fill="#FFE5DA"/><mask id="v" style="mask-type:alpha" maskUnits="userSpaceOnUse" x="79" y="100" width="147" height="62"><path d="M79.9266 146.08c-2.3157 2.442 9.7741 15.703 12.7259 15.703 2.9519 0 19.5705-6.58 33.5635-11.142 13.992-4.561 25.937-17.764 32.096-20.423 6.16-2.659 28.535.838 36.509-2.265 5.315-2.068 14.113-6.533 26.393-13.393l4.277-4.329c-5.479-1.872-10.391-3.308-14.736-4.307-5.994-1.378-34.094-5.848-40.932-5.848-6.838 0-13.353.199-26.229 11.739-5.116 4.585-16.209 11.831-30.536 19.36-9.714 5.105-30.8158 12.463-33.1314 14.905Z" fill="#fff"/></mask><g mask="url(#v)"><path d="M79.9266 146.08c-2.3157 2.442 9.7741 15.703 12.7259 15.703 2.9519 0 19.5705-6.58 33.5635-11.142 13.992-4.561 25.937-17.764 32.096-20.423 6.16-2.659 28.535.838 36.509-2.265 5.315-2.068 14.113-6.533 26.393-13.393l4.277-4.329c-5.479-1.872-10.391-3.308-14.736-4.307-5.994-1.378-34.094-5.848-40.932-5.848-6.838 0-13.353.199-26.229 11.739-5.116 4.585-16.209 11.831-30.536 19.36-9.714 5.105-30.8158 12.463-33.1314 14.905Z" fill="url(#w)"/><g opacity=".2" stroke="#fff" stroke-width="1.2319"><path opacity=".2" d="M74.4546 152.555c12.4114-6.499 25.1442-13.576 33.2384-15.683 8.094-2.107 30.919-17.086 35.631-19.883 4.711-2.798 11.52-11.039 19.525-13.112 8.005-2.072 37.909 2.522 46.58 4.291 5.78 1.18 11.416 2.155 16.907 2.926"/><path opacity=".2" d="M77.5967 153.629c7.847-3.099 8.9561-4.59 15.978-7.573 7.0223-2.983 18.7823-7.317 27.6463-12.075 8.864-4.758 26.772-15.827 31.287-19.79 4.515-3.963 7.401-7.336 14.501-7.84 7.101-.504 25.769 1.434 31.258 2.753 5.488 1.319 23.21 2.061 26.609 2.96"/><path opacity=".2" d="M81.3394 155.601c5.7956-3.046 15.5419-5.882 26.7046-10.301 11.162-4.418 28.288-15.631 32.431-18.231 4.144-2.6 14.33-10.654 17.107-12.878 2.777-2.223 5.451-4.869 10.3-4.869 4.849 0 23.972.976 28.694 2.051 3.148.717 12.396 1.314 27.744 1.792"/><path opacity=".2" d="M84.1758 157.844c1.135-.097 8.1321-2.708 14.3599-5.289 6.2283-2.582 11.3193-3.288 17.0413-6.499 5.722-3.212 24.273-14.83 29.041-18.103 4.769-3.274 13.96-12.757 22.391-15.272 8.432-2.514 51.659 2.554 57.311.87"/><path opacity=".2" d="M85.4443 161.058c2.9588-1.069 9.3289-3.484 15.1527-5.457 5.824-1.972 18.664-8.182 22.471-10.227 3.806-2.045 17.845-9.673 21.551-12.912 3.705-3.239 12.701-11.203 17.564-14.046 4.864-2.843 5.237-3.382 10.565-4.225 3.402-.538 13.508-.503 23.18-.538 4.466-.016 10.299.358 14.817.538 6.428.257 10.976.386 11.853.696"/></g></g><g opacity=".3451"><path opacity=".3451" d="M128.163 146.583c-13.098 6.744-38.4624 15.2-35.5106 15.2 2.9519 0 19.5706-6.58 33.5626-11.142 13.993-4.561 25.938-17.764 32.097-20.423 6.16-2.659 28.535.838 36.509-2.265 5.315-2.068 14.113-6.533 26.393-13.394-6.724-.244-12.366-.366-16.925-.366-6.837 0-26.473-.263-40.8 7.266-9.714 5.105-22.228 18.38-35.326 25.124Z" fill="url(#x)"/><path opacity=".3451" d="M128.163 146.583c-13.098 6.744-38.4624 15.2-35.5106 15.2 2.9519 0 19.5706-6.58 33.5626-11.142 13.993-4.561 25.938-17.764 32.097-20.423 6.16-2.659 28.535.838 36.509-2.265 5.315-2.068 14.113-6.533 26.393-13.394-6.724-.244-12.366-.366-16.925-.366-6.837 0-26.473-.263-40.8 7.266-9.714 5.105-22.228 18.38-35.326 25.124Z" fill="url(#y)"/></g><path fill-rule="evenodd" clip-rule="evenodd" d="M57.9788 186.821c-.6688-2.015-.742-3.83-.2198-5.444.5223-1.615 1.4944-2.683 2.9164-3.204l27.525-3.449 19.6506 6.049 5.207 1.138-.58 5.551-28.8384 1.22-25.6608-1.861Z" fill="url(#z)"/><path d="M112.521 187.143c-2.741-1.074-16.7841.946-23.8565-1.299-12.2413-3.888-22.676-4.971-26.245-3.716-5.4918 1.931-7.8598 6.118 2.644 9.82 7.0578 2.487 28.9154.985 40.4085-1.296 5.611-1.114 7.049-1.64 7.049-3.509Z" fill="url(#A)"/><path fill-rule="evenodd" clip-rule="evenodd" d="M60.6753 178.173c5.4675-2.979 15.8974-4.867 18.9631-8.738 2.0439-2.581 3.1972-4.179 3.4601-4.793 4.1637-1.426 6.6544-1.905 7.4722-1.435 1.2268.703 11.2503 10.203 14.4703 7.982 3.22-2.222 3.678-1.705 4.593-.366.914 1.34 3.424 9.056 3.424 11.088 0 2.031-16.8964 1.89-22.9875.477-6.0911-1.413-12.626-3.479-17.7598-4.215-3.4226-.491-7.301-.491-11.6354 0Z" fill="url(#B)"/><path d="M84.1767 168.845c.7003 0 1.268-.441 1.268-.986 0-.545-.5677-.986-1.268-.986s-1.268.441-1.268.986c0 .545.5677.986 1.268.986ZM88.4033 167.154c.7003 0 1.268-.441 1.268-.986 0-.545-.5677-.986-1.268-.986s-1.268.441-1.268.986c0 .545.5677.986 1.268.986Z" fill="#FFEEE7"/><path fill-rule="evenodd" clip-rule="evenodd" d="M244.477 46.4395c-19.205-.4153-30.156-.4153-32.854 0-4.046.6228-21.325 6.535-25.793 10.3591-2.979 2.5495-6.205 5.5333-9.678 8.9513l11.128 33.0776 4.674 3.7625c4.21.772 7.326 1.355 9.346 1.751 5.969 1.169 14.021 3.2 24.156 6.093l30.809-22.8434-11.788-41.1511Z" fill="url(#C)"/><path fill-rule="evenodd" clip-rule="evenodd" d="M222.903 48.2519s-4.878.1607-6.102 1.7325c-1.224 1.5718-7.954 8.587-10.331 16.3405-1.585 5.169-3.308 14.0321-5.169 26.5894v11.4267c2.255.576 5.254 1.246 8.997 2.01 3.744.764 8.797 2.125 15.159 4.083l24.157-22.1494c-.345-9.1644-.518-13.9363-.518-14.3156 0-.3793-1.539-9.5558-4.618-27.5295-8.181-.3889-13.429-.4862-15.743-.2918-2.382.2001-5.832 2.1042-5.832 2.1042Z" fill="url(#D)"/><path fill-rule="evenodd" clip-rule="evenodd" d="m201.3 92.9142-9.707 9.6088 9.707 1.818c2.255.576 5.255 1.246 8.998 2.01 3.743.763 8.796 2.125 15.159 4.083l25.002-18.5158c-12.166 3.3021-21.452 5.018-27.858 5.1478-6.406.1298-13.506-1.2542-21.301-4.1518Z" fill="url(#E)"/><path d="M206.755 80.9288c.544 0 .986-.4416.986-.9863 0-.5446-.442-.9862-.986-.9862-.545 0-.986.4416-.986.9862 0 .5447.441.9863.986.9863ZM205.064 91.9185c.545 0 .987-.4416.987-.9863s-.442-.9862-.987-.9862c-.544 0-.986.4415-.986.9862s.442.9863.986.9863ZM208.446 69.9392c.544 0 .986-.4416.986-.9863 0-.5446-.442-.9862-.986-.9862-.545 0-.987.4416-.987.9862 0 .5447.442.9863.987.9863ZM212.954 61.7675c.545 0 .986-.4416.986-.9863s-.441-.9862-.986-.9862c-.545 0-.986.4415-.986.9862s.441.9863.986.9863Z" fill="#2A2A58" style="mix-blend-mode:soft-light"/><path style="mix-blend-mode:soft-light" opacity=".5" fill-rule="evenodd" clip-rule="evenodd" d="m187.667 70.2968 2.167-4.4065 13.925-2.7552-2.459 14.7078-6.621 5.5226h-5.432l-1.58-13.0687Z" fill="url(#F)"/><path fill-rule="evenodd" clip-rule="evenodd" d="m188.102 69.5145 1.732-3.6242 13.925-2.7552-.648 3.3634-15.009 3.016Z" fill="#F4716B"/><path style="mix-blend-mode:soft-light" opacity=".5" fill-rule="evenodd" clip-rule="evenodd" d="m216.208 63.1351-2.683 15.8212 10.811 3.1488 7.061-1.1764 3.722-17.7936h-18.911Z" fill="url(#G)"/><path fill-rule="evenodd" clip-rule="evenodd" d="M216.204 63.1351h18.916l-.746 3.8913-18.966-.4496.796-3.4417Z" fill="#F4716B"/><path fill-rule="evenodd" clip-rule="evenodd" d="M231.231 38.228c-.881-.8494-2.999-1.2066-6.354-1.0718-3.356.1349-4.034 1.0661-2.033 2.7937l7.812.6744.575-2.3963Z" fill="url(#H)"/><path fill-rule="evenodd" clip-rule="evenodd" d="M215.933 44.3884c-2.079 1.2147-3.313 2.8485-3.7 4.9013-.388 2.0528-.57 4.4534-.548 7.2016-1.639-1.8848-2.975-2.9518-4.008-3.201-1.033-.2493-2.252.1147-3.657 1.0919 2.085-3.6181 3.305-5.7572 3.657-6.4172 1.844-3.4506 3.806-5.2036 4.963-5.828 1.489-.8036 2.586-.0532 3.293 2.2514Z" fill="url(#I)"/><path fill-rule="evenodd" clip-rule="evenodd" d="M211.686 56.4911c-1.503-2.1929-2.254-3.9939-2.254-5.4031 1.69-1.7782 2.724-3.5303 3.1-5.2565l-.374-6.339 17.312-13.7338.613 16.9845c-4.792 5.0295-8.484 8.5797-11.076 10.6507-2.591 2.071-5.031 3.1033-7.321 3.0972Z" fill="url(#J)"/><path fill-rule="evenodd" clip-rule="evenodd" d="M208.418 35.6345c1.711 2.594 3.333 5.7037 5.853 6.9223 2.52 1.2186 8.348-2.7229 11.006-6.9223 2.658-4.1993 4.512-8.4582 4.254-10.1439-.258-1.6857-1.177-15.2401-5.226-16.4543-4.049-1.2143-17.211-4.0445-19.216-.725-2.004 3.3195-2.652 9.4531-2.328 10.0187.324.5657 3.103 6.302 3.379 8.5236.276 2.2215.568 6.1869 2.278 8.7809Z" fill="url(#K)"/><path d="M218.637 22.9937c-1.064 0-1.983.5414-2.38.9745l1.785.6497c1.388-.1083 4.046-.3898 3.57-.6497-.595-.3248-.595-.9745-2.975-.9745ZM208.523 23.7604c-1.064 0-1.983.8808-2.379 1.5854l1.784 1.057c1.389-.1762 4.046-.6342 3.57-1.057-.595-.5284-.595-1.5854-2.975-1.5854Z" fill="#fff"/><path d="M206.144 24.923c.396-.2859 1.427-.8577 2.379-.8577s2.38.2859 2.975.4288" stroke="#C79175" stroke-width=".5235"/><path fill-rule="evenodd" clip-rule="evenodd" d="M215.81 20.3788c.096.6762 1.1.3258 1.782.0741.683-.2517 2.96-.2399 3.742-.0869.782.1531 1.119-.1188.497-.5016-.623-.3827-2.643-.9041-3.989-.7613-1.345.1428-2.128.5995-2.032 1.2757ZM210.907 21.982c.079.4791-.914.4063-1.593.3476-.679-.0586-2.665.5218-3.334.7569-.67.235-1.042.1051-.573-.2607.469-.3658 2.071-1.447 3.322-1.5733 1.252-.1263 2.098.2505 2.178.7295Z" fill="#1E1E3F"/><path d="M205.141 23.6197c-2.579-3.7686-3.868-6.2231-3.868-7.3633 0-1.7104-2.163-6.4866-.829-8.4789.566-.8453 2.028-2.9036 4.503-3.9265.943-.3895 2.688-.628 5.235-.7155 3.94-2.315 7.375-2.8937 10.303-1.7362 4.393 1.7362 3.928 2.53 5.787 3.1147 1.858.5848 5.873 2.395 6.111 7.9736.16 3.7191-.908 7.2211-3.204 10.5061-2.36-3.9268-4.56-5.8902-6.6-5.8902-.799-.6871-1.213-2.3015-1.242-4.8432-2.494-.9336-4.38-1.3495-5.66-1.2478-1.28.1017-3.112.8131-5.495 2.1341-1.543.1024-2.66.2791-3.353.5301-.692.251-1.609.812-2.752 1.683-.117 1.1926-.117 2.352 0 3.478.118 1.126.472 2.72 1.064 4.782Z" fill="url(#L)"/><path d="M226.272 4.5142c1.859.5847 5.873 2.395 6.112 7.9735.159 3.7191-.909 7.2211-3.204 10.5061-2.361-3.9268-4.561-5.8902-6.601-5.8902-.798-.6871-1.213-2.3015-1.242-4.8432 3.29-1.136 4.935-3.718 4.935-7.7462Z" fill="url(#M)"/><path opacity=".4956" d="M210.953 34.9336c1.155 1.0049 2.392 1.3687 3.71 1.0914 1.318-.2774 3.222-1.302 5.711-3.0738-2.858.1199-4.934.3162-6.23.5889-1.296.2727-2.36.7372-3.191 1.3935Z" fill="#F4716B"/><path fill-rule="evenodd" clip-rule="evenodd" d="M228.025 21.1635c.155-2.8178 1.13-3.8835 2.924-3.1971 2.692 1.0295 3.269 6.0602 1.353 7.8002-1.277 1.16-2.452 1.7186-3.525 1.676l-.752-6.2791Z" fill="#FBD4C4"/><path fill-rule="evenodd" clip-rule="evenodd" d="m247.514 84.6216-9.139-21.9476c.662-11.3711 3.03-16.7688 7.103-16.1929 6.11.8638 14.064 8.7881 18.127 23.3024 2.709 9.6762 3.939 17.4576 3.689 23.344" fill="url(#N)"/><path fill-rule="evenodd" clip-rule="evenodd" d="M253.417 50.9618c3.968 3.8698 7.769 10.1767 10.189 18.8213 2.709 9.6762 3.938 17.4576 3.689 23.3441-1.839-4.1857-4.003-6.8138-6.493-7.8844-1.593-.6852-1.211-8.8995-2.85-16.2901-2.202-9.9307-6.08-19.4974-4.535-17.9909Z" fill="url(#O)"/><path fill-rule="evenodd" clip-rule="evenodd" d="m221.949 48.2958 7.605 5.7713c1.492-1.7342 2.502-3.1888 3.03-4.3639.442-.984.827-2.397 1.155-4.2389a3.663 3.663 0 0 0-.254-2.1174l-2.253-5.1188c-1.351 2.3701-2.588 4.1653-3.713 5.3855-1.125 1.2202-2.982 2.7809-5.57 4.6822Z" fill="#fff"/><path fill-rule="evenodd" clip-rule="evenodd" d="m221.948 48.2961-4.69 6.428c2.456-1.6758 4.407-2.5523 5.853-2.6295 1.446-.0772 3.227.3022 5.344 1.1382l-6.507-4.9367Z" fill="url(#P)"/><path d="M216.204 23.2567c.397-.2173 1.428-.6518 2.38-.6518s2.38.5432 2.975.6518" stroke="#C79175" stroke-width=".5235"/><path fill-rule="evenodd" clip-rule="evenodd" d="m144.927 94.191-4.32-34.567c-.058-.4632.271-.8857.734-.9436a.8503.8503 0 0 1 .19-.0023l46.623 4.7062c1.075.1086 1.923.9653 2.019 2.0419l3.371 37.6598-46.21-6.4537c-1.262-.1762-2.249-1.1771-2.407-2.4413Z" fill="url(#Q)"/><path fill-rule="evenodd" clip-rule="evenodd" d="M164.99 84.2773c1.855.1509 3.359-1.2258 3.359-3.0751 0-1.8492-1.504-3.4707-3.359-3.6216-1.856-.1509-3.36 1.2258-3.36 3.075 0 1.8493 1.504 3.4707 3.36 3.6217ZM193.544 103.086l21.829-.769-1.067-1.141-22.999-4.1095 2.237 6.0195Z" fill="#fff"/><path fill-rule="evenodd" clip-rule="evenodd" d="m193.29 99.1903 9.956 1.9837-9.956.632v-2.6157Z" fill="#E3E7E9"/><path fill-rule="evenodd" clip-rule="evenodd" d="M192.214 88.3905c1.568-.7279 2.586-1.0918 3.054-1.0918 1.416 0 7.731 3.4664 11.923 4.62 4.193 1.1535 21.19-.1255 26.112-1.268 2.691-.6246 7.954-1.0492 12.602-3.352.68-.337 1.216-1.2292 1.608-2.6768 5.733-.9781 10.251-.7568 13.555.6639 3.303 1.4206 5.378 4.0347 6.225 7.842-.514 4.0415-1.346 6.4982-2.495 7.3702-1.725 1.308-10.567 2.588-21.892 2.588s-32.746-1.756-35.715-2.588c-2.968-.8322-5.204-3.448-8.081-2.9169-1.918.354-3.858 1.0171-5.82 1.9891l-.321-2.6953c1.067-.7738 1.601-1.3873 1.601-1.8406 0-.4533-.594-.4533-1.781 0l-.575-6.6438Z" fill="url(#R)"/><g style="mix-blend-mode:soft-light" opacity=".3406"><path style="mix-blend-mode:soft-light" opacity=".3406" d="M224.32 100.574c7.823.614 25.728 1.692 35.475-3.1317 5.603-2.7726-.536-12.9347 1.273-12.1569 3.303 1.4207 5.378 4.0347 6.225 7.8421-.514 4.0414-1.346 6.4981-2.495 7.3695-1.725 1.308-10.567 2.589-21.892 2.589s-32.746-1.757-35.715-2.589c-2.968-.8316 11.589-.357 17.129.077Z" fill="url(#S)"/><path style="mix-blend-mode:soft-light" opacity=".3406" d="M224.32 100.574c7.823.614 25.728 1.692 35.475-3.1317 5.603-2.7726-.536-12.9347 1.273-12.1569 3.303 1.4207 5.378 4.0347 6.225 7.8421-.514 4.0414-1.346 6.4981-2.495 7.3695-1.725 1.308-10.567 2.589-21.892 2.589s-32.746-1.757-35.715-2.589c-2.968-.8316 11.589-.357 17.129.077Z" fill="url(#T)"/></g><path d="m262.73 34.5251 5.214-7.2667c3.045.8604 5.44 1.3936 7.182 1.5997 1.743.206 3.78.1966 6.11-.0282-2.672 4.2994-4.27 6.5976-4.794 6.8946-.786.4454-3.027.6483-5.351.4451-1.548-.1355-4.335-.6836-8.361-1.6445Z" fill="url(#U)"/><path style="mix-blend-mode:soft-light" d="m262.73 34.5251 5.214-7.2667c3.045.8604 5.44 1.3936 7.182 1.5997 1.743.206 3.78.1966 6.11-.0282-2.672 4.2994-4.27 6.5976-4.794 6.8946-.786.4454-3.027.6483-5.351.4451-1.548-.1355-4.335-.6836-8.361-1.6445Z" fill="url(#V)"/><path opacity=".23" fill-rule="evenodd" clip-rule="evenodd" d="M267.943 27.2595c3.046.86 5.44 1.3928 7.183 1.5986 1.743.2059 3.779.1962 6.11-.0288-1.408.9146-2.571 1.5899-3.488 2.0257-.917.4359-1.918.7885-3.002 1.0581l-6.803-4.6536Z" fill="url(#W)"/><circle cx="206.82" cy="25.1796" r=".9782" fill="#765048"/><path d="M210.017 28.9216c0-.9519.397-3.173.595-4.1645.397-.1983 1.19-.476 1.19 0 0 .5949.595 2.9746 1.19 3.5696.595.5949 1.785 1.1898 1.19 2.3797-.595 1.1899-2.975 1.7848-3.57 1.1899-.595-.595-.595-1.7848-.595-2.9747Z" fill="#F7C1A9"/><circle cx="216.639" cy="23.5687" r="1.0615" fill="#765048"/><defs><linearGradient id="a" x1="163.382" y1="206.304" x2="163.382" y2="177.203" gradientUnits="userSpaceOnUse"><stop stop-color="#FFE5DA"/><stop offset="1" stop-color="#fff"/></linearGradient><linearGradient id="b" x1="257.773" y1="178.048" x2="261.253" y2="191.054" gradientUnits="userSpaceOnUse"><stop stop-color="#FFE5DA"/><stop offset="1" stop-color="#fff"/></linearGradient><linearGradient id="c" x1="51.4865" y1="85.6685" x2="90.918" y2="103.087" gradientUnits="userSpaceOnUse"><stop stop-color="#E83A39"/><stop offset="1" stop-color="#F66458"/></linearGradient><linearGradient id="d" x1="26.3542" y1="103.578" x2="-10.5264" y2="103.578" gradientUnits="userSpaceOnUse"><stop stop-color="#F7A969"/><stop offset="1" stop-color="#ED7038"/></linearGradient><linearGradient id="e" x1="18.3258" y1="103.821" x2="23.0241" y2="108.061" gradientUnits="userSpaceOnUse"><stop stop-opacity="0"/><stop offset="1"/></linearGradient><linearGradient id="f" x1="10.4902" y1="102.781" x2="10.4902" y2="96.5227" gradientUnits="userSpaceOnUse"><stop stop-color="#FFE5DA"/><stop offset="1" stop-color="#fff"/></linearGradient><linearGradient id="g" x1="306.898" y1="123.434" x2="66.1519" y2="123.434" gradientUnits="userSpaceOnUse"><stop stop-color="#F7A969"/><stop offset="1" stop-color="#ED7038"/></linearGradient><linearGradient id="h" x1="254.491" y1="125.212" x2="285.463" y2="153.922" gradientUnits="userSpaceOnUse"><stop stop-opacity="0"/><stop offset="1"/></linearGradient><linearGradient id="i" x1="260.019" y1="128.158" x2="260.019" y2="117.936" gradientUnits="userSpaceOnUse"><stop stop-color="#FFE6DB"/><stop offset="1" stop-color="#F5BBA2"/></linearGradient><linearGradient id="j" x1="179.593" y1="170.044" x2="179.593" y2="111.672" gradientUnits="userSpaceOnUse"><stop stop-opacity="0"/><stop offset="1"/></linearGradient><linearGradient id="k" x1="179.593" y1="143.51" x2="179.593" y2="111.672" gradientUnits="userSpaceOnUse"><stop stop-opacity="0"/><stop offset="1"/></linearGradient><linearGradient id="l" x1="263.186" y1="138.535" x2="263.186" y2="124.778" gradientUnits="userSpaceOnUse"><stop stop-color="#FFE6DB"/><stop offset="1" stop-color="#F5BBA2"/></linearGradient><linearGradient id="m" x1="264.958" y1="151.374" x2="264.673" y2="135.04" gradientUnits="userSpaceOnUse"><stop stop-color="#FFE6DB"/><stop offset="1" stop-color="#F5BBA2"/></linearGradient><linearGradient id="n" x1="103.107" y1="173.331" x2="103.107" y2="161.457" gradientUnits="userSpaceOnUse"><stop stop-color="#FFE6DB"/><stop offset="1" stop-color="#F5BBA2"/></linearGradient><linearGradient id="o" x1="120.33" y1="88.7871" x2="120.33" y2="106.191" gradientUnits="userSpaceOnUse"><stop stop-color="#2D2D63"/><stop offset="1" stop-color="#1E1E3F"/></linearGradient><linearGradient id="p" x1="159.812" y1="106.265" x2="108.846" y2="110.904" gradientUnits="userSpaceOnUse"><stop stop-opacity="0"/><stop offset="1"/></linearGradient><linearGradient id="q" x1="63.9759" y1="168.583" x2="98.4272" y2="169.722" gradientUnits="userSpaceOnUse"><stop stop-color="#FFE6DB"/><stop offset="1" stop-color="#F5BBA2"/></linearGradient><linearGradient id="r" x1="67.6153" y1="180.115" x2="67.6153" y2="145.301" gradientUnits="userSpaceOnUse"><stop stop-color="#FFE5DA"/><stop offset="1" stop-color="#fff"/></linearGradient><linearGradient id="s" x1="34.9995" y1="170.808" x2="81.3391" y2="170.808" gradientUnits="userSpaceOnUse"><stop stop-opacity="0"/><stop offset="1"/></linearGradient><linearGradient id="t" x1="26.8212" y1="191.966" x2="53.1132" y2="152.235" gradientUnits="userSpaceOnUse"><stop stop-color="#E83A39"/><stop offset="1" stop-color="#F66458"/></linearGradient><linearGradient id="u" x1="45.05" y1="147.721" x2="45.05" y2="153.709" gradientUnits="userSpaceOnUse"><stop stop-color="#2D2D63"/><stop offset="1" stop-color="#1E1E3F"/></linearGradient><linearGradient id="w" x1="194.714" y1="132.724" x2="77.2905" y2="131.177" gradientUnits="userSpaceOnUse"><stop stop-color="#24244D"/><stop offset=".3522" stop-color="#2F2F62"/><stop offset="1" stop-color="#1E1E3F"/></linearGradient><linearGradient id="x" x1="241.22" y1="135.461" x2="79.3454" y2="139.966" gradientUnits="userSpaceOnUse"><stop stop-opacity="0"/><stop offset="1"/></linearGradient><linearGradient id="y" x1="192.626" y1="115.471" x2="192.626" y2="129.349" gradientUnits="userSpaceOnUse"><stop stop-opacity="0"/><stop offset="1"/></linearGradient><linearGradient id="z" x1="34.3796" y1="182.511" x2="77.2531" y2="167.014" gradientUnits="userSpaceOnUse"><stop stop-color="#E83A39"/><stop offset="1" stop-color="#F66458"/></linearGradient><linearGradient id="A" x1="100.962" y1="187.517" x2="56.8582" y2="187.226" gradientUnits="userSpaceOnUse"><stop stop-color="#24244D"/><stop offset=".3522" stop-color="#2F2F62"/><stop offset="1" stop-color="#1E1E3F"/></linearGradient><linearGradient id="B" x1="95.189" y1="195.958" x2="95.189" y2="171.341" gradientUnits="userSpaceOnUse"><stop stop-color="#FFE5DA"/><stop offset="1" stop-color="#fff"/></linearGradient><linearGradient id="C" x1="152.822" y1="54.8419" x2="240.391" y2="111.35" gradientUnits="userSpaceOnUse"><stop stop-color="#E83A39"/><stop offset="1" stop-color="#F66458"/></linearGradient><linearGradient id="D" x1="241.315" y1="41.1644" x2="241.315" y2="117.327" gradientUnits="userSpaceOnUse"><stop stop-color="#E83A39"/><stop offset="1" stop-color="#F66458"/></linearGradient><linearGradient id="E" x1="240.347" y1="112.417" x2="240.347" y2="103.757" gradientUnits="userSpaceOnUse"><stop stop-color="#E83A39"/><stop offset="1" stop-color="#B4111D"/></linearGradient><linearGradient id="F" x1="195.142" y1="92.645" x2="196.044" y2="34.7984" gradientUnits="userSpaceOnUse"><stop stop-color="#fff" stop-opacity="0"/><stop offset="1" stop-color="#fff"/></linearGradient><linearGradient id="G" x1="223.112" y1="86.6547" x2="224.046" y2="44.7852" gradientUnits="userSpaceOnUse"><stop stop-color="#fff" stop-opacity="0"/><stop offset="1" stop-color="#fff"/></linearGradient><linearGradient id="H" x1="229.597" y1="40.9985" x2="229.597" y2="36.8632" gradientUnits="userSpaceOnUse"><stop stop-color="#E83A39"/><stop offset="1" stop-color="#B4111D"/></linearGradient><linearGradient id="I" x1="213.887" y1="58.0614" x2="213.887" y2="40.7123" gradientUnits="userSpaceOnUse"><stop stop-color="#E83A39"/><stop offset="1" stop-color="#B4111D"/></linearGradient><linearGradient id="J" x1="222.372" y1="57.9756" x2="222.372" y2="33.4267" gradientUnits="userSpaceOnUse"><stop stop-color="#FFE6DB"/><stop offset="1" stop-color="#F5BBA2"/></linearGradient><linearGradient id="K" x1="219.521" y1="44.5218" x2="219.521" y2="-2.6042" gradientUnits="userSpaceOnUse"><stop stop-color="#FFE6DB"/><stop offset="1" stop-color="#F5BBA2"/></linearGradient><linearGradient id="L" x1="213.371" y1=".8206" x2="213.371" y2="5.7288" gradientUnits="userSpaceOnUse"><stop stop-color="#2D2D63"/><stop offset="1" stop-color="#1E1E3F"/></linearGradient><linearGradient id="M" x1="225.901" y1="4.5142" x2="225.901" y2="8.4925" gradientUnits="userSpaceOnUse"><stop stop-color="#2D2D63"/><stop offset="1" stop-color="#1E1E3F"/></linearGradient><linearGradient id="N" x1="256.896" y1="65.2629" x2="258.803" y2="89.0952" gradientUnits="userSpaceOnUse"><stop stop-color="#E83A39"/><stop offset="1" stop-color="#F66458"/></linearGradient><linearGradient id="O" x1="267.326" y1="53.208" x2="267.326" y2="103.54" gradientUnits="userSpaceOnUse"><stop stop-color="#E83A39"/><stop offset="1" stop-color="#F66458"/></linearGradient><linearGradient id="P" x1="225.919" y1="51.8591" x2="215.285" y2="51.68" gradientUnits="userSpaceOnUse"><stop stop-color="#C31D25"/><stop offset="1" stop-color="#EA413E"/></linearGradient><linearGradient id="Q" x1="140.601" y1="58.6739" x2="184.336" y2="110.811" gradientUnits="userSpaceOnUse"><stop stop-color="#BADEF8"/><stop offset="1" stop-color="#DEECF5"/></linearGradient><linearGradient id="R" x1="239.26" y1="104.007" x2="239.26" y2="79.0731" gradientUnits="userSpaceOnUse"><stop stop-color="#FFE6DB"/><stop offset="1" stop-color="#F5BBA2"/></linearGradient><linearGradient id="S" x1="228.63" y1="110.289" x2="228.63" y2="90.5784" gradientUnits="userSpaceOnUse"><stop stop-opacity="0"/><stop offset="1"/></linearGradient><linearGradient id="T" x1="228.63" y1="110.289" x2="228.63" y2="98.3465" gradientUnits="userSpaceOnUse"><stop stop-opacity="0"/><stop offset="1"/></linearGradient><linearGradient id="U" x1="283.733" y1="28.2099" x2="254.232" y2="36.6674" gradientUnits="userSpaceOnUse"><stop stop-color="#F7A969"/><stop offset="1" stop-color="#ED7038"/></linearGradient><linearGradient id="V" x1="277.351" y1="30.1898" x2="282.034" y2="32.1336" gradientUnits="userSpaceOnUse"><stop stop-opacity="0"/><stop offset="1"/></linearGradient><linearGradient id="W" x1="277.698" y1="31.7711" x2="275.76" y2="25.0171" gradientUnits="userSpaceOnUse"><stop stop-color="#FFE5DA"/><stop offset="1" stop-color="#fff"/></linearGradient></defs></svg>