<svg width="233" height="166" viewBox="0 0 233 166" fill="none" xmlns="http://www.w3.org/2000/svg">
<path fill-rule="evenodd" clip-rule="evenodd" d="M151.438 155.397L164.736 165.49C170.047 161.677 174.042 159.13 176.722 157.849C179.402 156.567 182.704 155.627 186.626 155.026L174.429 145.592C172.061 144.962 169.115 145.445 165.592 147.04C162.07 148.636 157.351 151.421 151.438 155.397Z" fill="url(#paint0_linear_0_1)"/>
<path fill-rule="evenodd" clip-rule="evenodd" d="M151.438 155.398L155.094 158.69L173.29 152.64L177.237 147.299L174.33 145.1C172.028 144.798 169.115 145.445 165.592 147.04C162.07 148.636 157.351 151.422 151.438 155.398Z" fill="white"/>
<path fill-rule="evenodd" clip-rule="evenodd" d="M205.679 144.001L210.43 137.9C213.271 138.969 215.369 139.629 216.725 139.881C218.081 140.132 219.675 140.158 221.506 139.957L217.17 145.632C216.184 146.197 214.804 146.334 213.033 146.042C211.261 145.751 208.81 145.071 205.679 144.001Z" fill="url(#paint1_linear_0_1)"/>
<path fill-rule="evenodd" clip-rule="evenodd" d="M50.5063 91.129L60.6493 83.0531C64.5404 85.4794 67.6561 87.1863 69.9966 88.174C72.3371 89.1618 75.1716 89.9658 78.5001 90.5863C73.073 95.5303 69.9359 98.1049 69.0888 98.31C67.8181 98.6177 64.6224 98.0024 61.4739 96.7857C59.3749 95.9745 55.7191 94.089 50.5063 91.129Z" fill="url(#paint2_linear_0_1)"/>
<path fill-rule="evenodd" clip-rule="evenodd" d="M60.6494 83.0532C64.5405 85.4794 67.6563 87.1864 69.9967 88.1741C72.3372 89.1618 75.1717 89.9659 78.5003 90.5864C71.6586 91.6104 67.792 91.9679 66.9003 91.6591L60.6494 83.0532Z" fill="#FF928D"/>
<path opacity="0.1" d="M74.4877 141.656C64.5528 144.13 60.5294 147.83 62.4177 152.755C65.25 160.142 88.0337 154.69 95.9759 152.326C103.918 149.963 110.491 146.824 128.317 145.415C134.365 144.937 159.281 147.678 184.568 144.937C209.855 142.196 227.78 128.148 229.787 124.376C232.939 118.452 198.74 118.452 127.191 124.376C122.771 130.817 117.115 135.212 110.222 137.56C103.329 139.907 91.4175 141.273 74.4877 141.656Z" fill="#2D2D5D"/>
<path d="M117.092 96.1064C115.115 107.926 117.32 116.064 123.706 120.522C133.285 127.209 150.525 132.284 190.95 130.394C231.375 128.503 230.225 126.91 232.223 117.599C234.221 108.287 233.782 67.9467 213.253 57.3213C209.343 55.297 199.013 70.7314 186.667 82.9388C178.249 92.4649 164.018 94.3037 154.76 98.1622C141.897 98.1622 129.341 97.477 117.092 96.1064Z" fill="url(#paint3_linear_0_1)"/>
<path style="mix-blend-mode:soft-light" d="M117.092 96.1064C115.115 107.926 117.32 116.064 123.706 120.522C133.285 127.209 150.525 132.284 190.95 130.394C231.375 128.503 230.225 126.91 232.223 117.599C234.221 108.287 233.782 67.9467 213.253 57.3213C209.343 55.297 199.013 70.7314 186.667 82.9388C178.249 92.4649 164.018 94.3037 154.76 98.1622C141.897 98.1622 129.341 97.477 117.092 96.1064Z" fill="url(#paint4_linear_0_1)"/>
<path opacity="0.22919" fill-rule="evenodd" clip-rule="evenodd" d="M210.722 96.0133C214.716 94.8035 218.217 93.082 219.327 92.2412C221.274 90.7669 218.949 91.3147 217.648 92.0555C216.348 92.7964 212.88 94.2287 209.314 95.053C204.245 96.2248 198.858 96.2521 199.894 97.0025C200.931 97.753 207.712 96.925 210.722 96.0133Z" fill="url(#paint5_linear_0_1)"/>
<path style="mix-blend-mode:soft-light" opacity="0.513091" fill-rule="evenodd" clip-rule="evenodd" d="M117.092 96.1062C126.95 115.307 132.405 125.1 133.456 125.484C138.303 127.254 144.413 128.699 152.325 129.632C157.001 130.183 167.686 115.294 184.38 84.9638L117.092 96.1062Z" fill="url(#paint6_linear_0_1)"/>
<path style="mix-blend-mode:soft-light" opacity="0.513091" fill-rule="evenodd" clip-rule="evenodd" d="M117.092 96.1062C121.41 104.091 129.888 108.483 142.528 109.282C155.168 110.08 169.119 101.974 184.38 84.9638L117.092 96.1062Z" fill="url(#paint7_linear_0_1)"/>
<path opacity="0.389509" fill-rule="evenodd" clip-rule="evenodd" d="M192.491 104.398C193.311 103.634 205.375 104.481 211.407 103.235C215.428 102.404 220.735 100.393 227.328 97.2004C228.639 96.8373 228.639 97.3465 227.328 98.7283C226.333 99.7772 217.155 104.035 209.647 104.881C205.45 105.354 191.671 105.162 192.491 104.398Z" fill="url(#paint8_linear_0_1)"/>
<path opacity="0.20445" fill-rule="evenodd" clip-rule="evenodd" d="M190.885 113.482C191.808 111.886 206.653 113.814 213.057 111.855C219.46 109.896 227.801 105.873 229.342 105.362C230.883 104.852 232.374 104.826 230.026 107.107C229.129 107.978 224.622 110.451 219.369 112.323C217.075 113.141 211.477 114.994 204.765 115.094C198.053 115.194 190.246 114.585 190.885 113.482Z" fill="url(#paint9_linear_0_1)"/>
<path fill-rule="evenodd" clip-rule="evenodd" d="M82.4683 125.925L85.5202 120.234L97.6891 124.784L95.6591 131.613L88.6886 130.869L82.4683 125.925Z" fill="url(#paint10_linear_0_1)"/>
<path d="M96.9812 129.331C93.7146 125.263 90.3492 122.831 86.8849 122.036C83.4206 121.241 81.6885 120.257 81.6885 119.083C88.3941 98.8183 92.6193 85.9523 94.364 80.4849C96.9812 72.2838 97.4669 66.3564 106.827 67.6141C116.187 68.8719 132.61 74.4385 136.939 77.2483C141.268 80.0581 137.363 92.3027 130.387 95.3466C125.737 97.3759 118.771 95.3355 109.49 89.2256C107.847 99.0342 106.278 106.335 104.783 111.128C103.288 115.921 100.688 121.989 96.9812 129.331Z" fill="url(#paint11_linear_0_1)"/>
<path opacity="0.345099" d="M96.9813 129.332C95.9731 128.097 95.205 127.214 94.6769 126.68C94.1489 126.147 93.4515 125.55 92.585 124.89C101.353 99.0597 106.61 83.4107 108.355 77.9433C110.972 69.7422 131.48 79.604 135.809 82.4138C140.138 85.2236 137.363 92.3028 130.387 95.3467C125.737 97.376 118.771 95.3356 109.49 89.2257C107.847 99.0343 106.278 106.335 104.783 111.128C103.288 115.922 100.688 121.989 96.9813 129.332Z" fill="url(#paint12_linear_0_1)"/>
<path fill-rule="evenodd" clip-rule="evenodd" d="M67.4087 117.081L79.5353 111.284L85.8188 121.046C82.2269 123.662 79.4439 125.54 77.4698 126.68C75.4957 127.82 73.497 128.704 71.4736 129.331L66.8525 123.323L67.4087 117.081Z" fill="url(#paint13_linear_0_1)"/>
<path fill-rule="evenodd" clip-rule="evenodd" d="M44.3984 110.762C46.482 110.564 48.5911 110.892 50.7258 111.746C53.928 113.027 57.2505 114.148 63.3938 114.148C67.4893 114.148 69.5484 114.903 69.5711 116.412C69.1815 121.737 69.1815 125.05 69.5711 126.352C69.9606 127.654 71.8674 128.503 75.2915 128.899L66.8605 134.252L60.8399 134.831L51.2366 127.775L44.3984 110.762Z" fill="url(#paint14_linear_0_1)"/>
<path style="mix-blend-mode:soft-light" fill-rule="evenodd" clip-rule="evenodd" d="M69.5709 126.352C69.9604 127.654 71.8673 128.503 75.2913 128.899L66.8604 134.252L60.8398 134.83L51.2364 127.775L48.4507 119.885C54.2203 124.653 58.1995 127.35 60.3884 127.974C65.8218 129.525 69.4196 125.846 69.5709 126.352Z" fill="url(#paint15_linear_0_1)"/>
<path fill-rule="evenodd" clip-rule="evenodd" d="M41.3828 112.559C42.3399 111.361 43.345 110.762 44.3981 110.762C45.9776 110.762 49.0306 116.717 50.8668 121.321C52.703 125.925 58.852 133.327 63.7923 134.04C68.7327 134.754 60.79 135.884 60.79 135.884C60.79 135.884 59.5418 135.83 57.2797 134.644C56.7973 134.392 55.9575 133.851 55.4124 133.346C54.6658 132.888 49.9893 125.959 41.3828 112.559Z" fill="url(#paint16_linear_0_1)"/>
<path d="M45.1909 121.428C42.1067 116.701 41.2813 113.46 41.3924 112.705C41.5036 111.951 43.3618 114.164 45.6819 118.097C48.002 122.031 54.0457 131.749 56.0306 133.851C53.397 132.092 48.2751 126.155 45.1909 121.428Z" fill="url(#paint17_linear_0_1)"/>
<path d="M61.3508 118.376C61.7093 118.376 61.9999 118.086 61.9999 117.728C61.9999 117.371 61.7093 117.081 61.3508 117.081C60.9923 117.081 60.7017 117.371 60.7017 117.728C60.7017 118.086 60.9923 118.376 61.3508 118.376Z" fill="#F5C4AF"/>
<path d="M64.3796 119.023C64.7381 119.023 65.0287 118.733 65.0287 118.376C65.0287 118.018 64.7381 117.729 64.3796 117.729C64.0211 117.729 63.7305 118.018 63.7305 118.376C63.7305 118.733 64.0211 119.023 64.3796 119.023Z" fill="#F5C4AF"/>
<path d="M67.4084 119.886C67.7669 119.886 68.0575 119.596 68.0575 119.239C68.0575 118.881 67.7669 118.592 67.4084 118.592C67.0499 118.592 66.7593 118.881 66.7593 119.239C66.7593 119.596 67.0499 119.886 67.4084 119.886Z" fill="#F5C4AF"/>
<path d="M74.2063 111.303C72.4282 113.172 81.7113 123.323 83.9779 123.323C86.2445 123.323 99.0054 118.286 109.749 114.794C120.494 111.303 129.666 101.196 134.395 99.1605C139.125 97.125 156.306 99.802 162.428 97.4269C166.51 95.8436 173.265 92.426 182.695 87.1743L185.979 83.8608C181.771 82.4277 178 81.3287 174.663 80.5638C170.061 79.5087 148.484 76.0872 143.233 76.0872C137.983 76.0872 132.981 76.2398 123.094 85.0733C119.165 88.5829 110.648 94.1298 99.6465 99.8931C92.1878 103.801 75.9843 109.434 74.2063 111.303Z" fill="url(#paint18_linear_0_1)"/>
<g opacity="0.345099">
<path opacity="0.345099" d="M111.245 111.688C101.188 116.85 81.7117 123.323 83.9783 123.323C86.2449 123.323 99.0058 118.286 109.75 114.794C120.494 111.303 129.666 101.196 134.396 99.1603C139.125 97.1248 156.306 99.8018 162.429 97.4267C166.51 95.8434 173.266 92.4258 182.695 87.1741C177.532 86.9869 173.2 86.8933 169.699 86.8933C164.449 86.8933 149.372 86.6927 138.37 92.4561C130.912 96.3635 121.302 106.526 111.245 111.688Z" fill="url(#paint19_linear_0_1)"/>
<path opacity="0.345099" d="M111.245 111.688C101.188 116.85 81.7117 123.323 83.9783 123.323C86.2449 123.323 99.0058 118.286 109.75 114.794C120.494 111.303 129.666 101.196 134.396 99.1603C139.125 97.1248 156.306 99.8018 162.429 97.4267C166.51 95.8434 173.266 92.4258 182.695 87.1741C177.532 86.9869 173.2 86.8933 169.699 86.8933C164.449 86.8933 149.372 86.6927 138.37 92.4561C130.912 96.3635 121.302 106.526 111.245 111.688Z" fill="url(#paint20_linear_0_1)"/>
</g>
<path fill-rule="evenodd" clip-rule="evenodd" d="M57.3534 142.489C56.8399 140.947 56.7836 139.558 57.1847 138.322C57.5857 137.086 58.3321 136.269 59.424 135.87L80.5592 133.23L95.6482 137.86L99.6466 138.731L99.2013 142.98L77.0572 143.914L57.3534 142.489Z" fill="url(#paint21_linear_0_1)"/>
<path d="M99.2348 142.736C97.1303 141.914 86.3469 143.461 80.9164 141.741C71.5168 138.766 63.5045 137.936 60.764 138.897C56.547 140.376 54.7288 143.581 62.7942 146.414C68.2135 148.318 84.997 147.168 93.8218 145.422C98.1307 144.569 99.2348 144.167 99.2348 142.736Z" fill="url(#paint22_linear_0_1)"/>
<path fill-rule="evenodd" clip-rule="evenodd" d="M59.4243 135.87C63.6226 133.589 71.6312 132.144 73.9853 129.18C75.5546 127.205 76.4403 125.982 76.6421 125.512C79.8392 124.42 81.7517 124.054 82.3797 124.413C83.3217 124.952 91.0186 132.224 93.4908 130.523C95.963 128.823 96.3152 129.218 97.0173 130.244C97.7195 131.269 99.6469 137.176 99.6469 138.731C99.6469 140.286 86.6726 140.178 81.9956 139.096C77.3185 138.015 72.3007 136.433 68.3586 135.87C65.7306 135.494 62.7525 135.494 59.4243 135.87Z" fill="url(#paint23_linear_0_1)"/>
<path d="M77.4697 128.729C78.0075 128.729 78.4434 128.391 78.4434 127.974C78.4434 127.557 78.0075 127.219 77.4697 127.219C76.932 127.219 76.4961 127.557 76.4961 127.974C76.4961 128.391 76.932 128.729 77.4697 128.729Z" fill="#FFE2D7"/>
<path d="M80.7154 127.435C81.2531 127.435 81.689 127.097 81.689 126.68C81.689 126.263 81.2531 125.925 80.7154 125.925C80.1776 125.925 79.7417 126.263 79.7417 126.68C79.7417 127.097 80.1776 127.435 80.7154 127.435Z" fill="#FFE2D7"/>
<path fill-rule="evenodd" clip-rule="evenodd" d="M200.556 35.0291C185.809 34.7112 177.4 34.7112 175.329 35.0291C172.222 35.5058 158.954 40.0316 155.523 42.9589C153.236 44.9105 150.759 47.1945 148.092 49.811L156.637 75.1316L160.225 78.012C163.459 78.6026 165.851 79.0493 167.402 79.352C171.986 80.2466 178.168 81.8014 185.95 84.0165L209.607 66.5298L200.556 35.0291Z" fill="url(#paint24_linear_0_1)"/>
<path fill-rule="evenodd" clip-rule="evenodd" d="M183.989 36.4164C183.989 36.4164 180.244 36.5394 179.304 37.7426C178.364 38.9458 173.196 44.3159 171.371 50.2511C170.154 54.2079 168.831 60.9926 167.402 70.605V79.352C169.133 79.7932 171.436 80.3061 174.311 80.8906C177.185 81.4752 181.065 82.5171 185.951 84.0165L204.499 67.061C204.234 60.0457 204.102 56.3929 204.102 56.1026C204.102 55.8122 202.92 48.7877 200.556 35.029C194.274 34.7313 190.244 34.6569 188.467 34.8057C186.638 34.9589 183.989 36.4164 183.989 36.4164Z" fill="url(#paint25_linear_0_1)"/>
<path fill-rule="evenodd" clip-rule="evenodd" d="M167.402 70.6049L159.948 77.96L167.402 79.3519C169.133 79.7931 171.436 80.306 174.31 80.8905C177.185 81.4751 181.065 82.517 185.95 84.0164L205.148 69.8425C195.807 72.3702 188.677 73.6837 183.758 73.7831C178.839 73.8824 173.387 72.8231 167.402 70.6049Z" fill="url(#paint26_linear_0_1)"/>
<g style="mix-blend-mode:soft-light">
<path d="M171.59 61.4303C172.009 61.4303 172.348 61.0923 172.348 60.6753C172.348 60.2584 172.009 59.9203 171.59 59.9203C171.172 59.9203 170.833 60.2584 170.833 60.6753C170.833 61.0923 171.172 61.4303 171.59 61.4303Z" fill="#2A2A58"/>
</g>
<g style="mix-blend-mode:soft-light">
<path d="M170.292 69.8427C170.71 69.8427 171.049 69.5047 171.049 69.0877C171.049 68.6708 170.71 68.3328 170.292 68.3328C169.874 68.3328 169.535 68.6708 169.535 69.0877C169.535 69.5047 169.874 69.8427 170.292 69.8427Z" fill="#2A2A58"/>
</g>
<g style="mix-blend-mode:soft-light">
<path d="M172.888 53.0178C173.306 53.0178 173.645 52.6798 173.645 52.2628C173.645 51.8459 173.306 51.5079 172.888 51.5079C172.47 51.5079 172.131 51.8459 172.131 52.2628C172.131 52.6798 172.47 53.0178 172.888 53.0178Z" fill="#2A2A58"/>
</g>
<g style="mix-blend-mode:soft-light">
<path d="M176.35 46.7624C176.768 46.7624 177.107 46.4244 177.107 46.0074C177.107 45.5905 176.768 45.2525 176.35 45.2525C175.932 45.2525 175.593 45.5905 175.593 46.0074C175.593 46.4244 175.932 46.7624 176.35 46.7624Z" fill="#2A2A58"/>
</g>
<path style="mix-blend-mode:soft-light" opacity="0.5" fill-rule="evenodd" clip-rule="evenodd" d="M156.933 53.2915L158.598 49.9183L169.289 47.8093L167.402 59.0679L162.318 63.2954H158.147L156.933 53.2915Z" fill="url(#paint27_linear_0_1)"/>
<path fill-rule="evenodd" clip-rule="evenodd" d="M157.268 52.6926L158.598 49.9183L169.29 47.8093L168.793 50.3839L157.268 52.6926Z" fill="#F4716B"/>
<path style="mix-blend-mode:soft-light" opacity="0.5" fill-rule="evenodd" clip-rule="evenodd" d="M178.849 47.8093L176.789 59.9202L185.09 62.3306L190.512 61.4301L193.37 47.8093H178.849Z" fill="url(#paint28_linear_0_1)"/>
<path fill-rule="evenodd" clip-rule="evenodd" d="M178.846 47.8093H193.37L192.798 50.7881L178.234 50.4439L178.846 47.8093Z" fill="#F4716B"/>
<path fill-rule="evenodd" clip-rule="evenodd" d="M190.384 28.7432C189.708 28.093 188.082 27.8195 185.505 27.9228C182.929 28.026 182.408 28.7388 183.945 30.0613L189.943 30.5775L190.384 28.7432Z" fill="url(#paint29_linear_0_1)"/>
<path fill-rule="evenodd" clip-rule="evenodd" d="M178.638 33.459C177.041 34.3888 176.094 35.6395 175.796 37.2109C175.499 38.7823 175.359 40.6199 175.376 42.7237C174.117 41.2809 173.092 40.4641 172.298 40.2733C171.505 40.0825 170.569 40.3611 169.49 41.1091C171.091 38.3395 172.028 36.7021 172.298 36.1968C173.714 33.5554 175.221 32.2136 176.109 31.7356C177.252 31.1204 178.095 31.6949 178.638 33.459Z" fill="url(#paint30_linear_0_1)"/>
<path fill-rule="evenodd" clip-rule="evenodd" d="M175.377 42.7234C174.223 41.0448 173.646 39.6662 173.646 38.5874C174.944 37.2263 175.737 35.885 176.026 34.5637L175.739 29.7112L189.032 19.1982L189.503 32.1996C185.823 36.0496 182.988 38.7672 180.998 40.3525C179.008 41.9379 177.135 42.7282 175.377 42.7234Z" fill="url(#paint31_linear_0_1)"/>
<path fill-rule="evenodd" clip-rule="evenodd" d="M172.868 26.7579C174.181 28.7436 175.427 31.124 177.362 32.0568C179.297 32.9897 183.772 29.9725 185.813 26.7579C187.854 23.5434 189.278 20.2833 189.079 18.9929C188.881 17.7024 188.176 7.32673 185.067 6.39725C181.957 5.46777 171.851 3.30127 170.312 5.8423C168.773 8.38333 168.275 13.0785 168.524 13.5115C168.773 13.9445 170.907 18.3356 171.118 20.0362C171.33 21.7367 171.554 24.7723 172.868 26.7579Z" fill="url(#paint32_linear_0_1)"/>
<path d="M180.714 17.137C179.897 17.137 179.191 17.5527 178.887 17.8853L180.257 18.3842C181.323 18.301 183.364 18.0848 182.998 17.8853C182.541 17.6359 182.541 17.137 180.714 17.137Z" fill="white"/>
<path d="M172.948 17.7257C172.131 17.7257 171.425 18.402 171.121 18.9431L172.491 19.7547C173.557 19.6194 175.597 19.2677 175.232 18.9431C174.775 18.5373 174.775 17.7257 172.948 17.7257Z" fill="white"/>
<path d="M171.121 18.6185C171.425 18.399 172.217 17.9599 172.948 17.9599C173.679 17.9599 174.775 18.1794 175.232 18.2892" stroke="#C79175" stroke-width="0.344791"/>
<path fill-rule="evenodd" clip-rule="evenodd" d="M178.162 15.8015C178.236 16.3191 179.006 16.0508 179.53 15.8582C180.054 15.6655 181.803 15.6745 182.403 15.7917C183.004 15.9089 183.263 15.7007 182.785 15.4077C182.307 15.1148 180.755 14.7156 179.722 14.8249C178.69 14.9343 178.088 15.2838 178.162 15.8015Z" fill="#1E1E3F"/>
<path fill-rule="evenodd" clip-rule="evenodd" d="M174.778 16.3071C174.839 16.6738 174.077 16.6181 173.555 16.5732C173.034 16.5283 171.509 16.9726 170.995 17.1525C170.481 17.3325 170.195 17.233 170.555 16.953C170.915 16.673 172.145 15.8454 173.106 15.7487C174.067 15.652 174.717 15.9404 174.778 16.3071Z" fill="#1E1E3F"/>
<path d="M170.351 17.5607C168.371 14.6759 167.381 12.797 167.381 11.9242C167.381 10.6149 165.72 6.95879 166.744 5.43371C167.179 4.78662 168.302 3.21099 170.202 2.428C170.926 2.12983 172.266 1.94727 174.222 1.88032C177.247 0.108215 179.884 -0.33481 182.133 0.55124C185.506 1.88032 185.149 2.48793 186.576 2.93555C188.004 3.38317 191.086 4.76891 191.269 9.03925C191.392 11.8861 190.571 14.5669 188.809 17.0815C186.996 14.0756 185.307 12.5726 183.741 12.5726C183.128 12.0466 182.809 10.8108 182.787 8.86518C180.873 8.15059 179.424 7.83222 178.441 7.91007C177.458 7.98793 176.052 8.53245 174.222 9.54364C173.037 9.62203 172.179 9.7573 171.648 9.94945C171.116 10.1416 170.411 10.571 169.534 11.2378C169.444 12.1507 169.444 13.0382 169.534 13.9001C169.624 14.7621 169.897 15.9823 170.351 17.5607Z" fill="url(#paint33_linear_0_1)"/>
<path d="M186.577 2.93561C188.004 3.38323 191.086 4.76897 191.27 9.03931C191.392 11.8862 190.572 14.567 188.809 17.0816C186.997 14.0757 185.307 12.5727 183.741 12.5727C183.128 12.0467 182.81 10.8109 182.787 8.86524C185.313 7.99567 186.577 6.01912 186.577 2.93561Z" fill="url(#paint34_linear_0_1)"/>
<path d="M174.813 26.2214C175.701 26.9906 176.651 27.2691 177.663 27.0568C178.675 26.8445 181.088 26.2214 181.486 23.019C180.328 25.1547 178.259 24.9459 177.264 25.1547C176.269 25.3634 175.452 25.719 174.813 26.2214Z" fill="#CA8E7C"/>
<path fill-rule="evenodd" clip-rule="evenodd" d="M187.923 15.6805C188.042 13.5235 188.79 12.7077 190.168 13.2331C192.235 14.0213 192.678 17.8722 191.207 19.2041C190.226 20.0921 189.324 20.5197 188.5 20.4871L187.923 15.6805Z" fill="#FBD4C4"/>
<path fill-rule="evenodd" clip-rule="evenodd" d="M202.888 64.257L195.871 47.4563C196.379 38.7519 198.197 34.62 201.325 35.0608C206.016 35.7221 212.124 41.788 215.244 52.8986C217.324 60.3056 218.268 66.2622 218.077 70.7682" fill="url(#paint35_linear_0_1)"/>
<path fill-rule="evenodd" clip-rule="evenodd" d="M207.42 38.4908C210.468 41.4531 213.386 46.281 215.244 52.8983C217.324 60.3054 218.268 66.2619 218.077 70.7679C216.665 67.5638 215.003 65.552 213.091 64.7325C211.868 64.208 212.162 57.9201 210.903 52.2626C209.212 44.6608 206.234 37.3376 207.42 38.4908Z" fill="url(#paint36_linear_0_1)"/>
<path fill-rule="evenodd" clip-rule="evenodd" d="M183.257 36.4499L189.097 40.8678C190.242 39.5403 191.018 38.4268 191.423 37.5273C191.763 36.774 192.058 35.6924 192.31 34.2825C192.408 33.7349 192.34 33.1707 192.115 32.6616L190.385 28.7432C189.348 30.5576 188.398 31.9317 187.534 32.8658C186.67 33.7998 185.244 34.9945 183.257 36.4499Z" fill="white"/>
<path fill-rule="evenodd" clip-rule="evenodd" d="M183.256 36.4503L179.655 41.3709C181.541 40.088 183.039 39.4171 184.149 39.358C185.259 39.2989 186.627 39.5893 188.253 40.2293L183.256 36.4503Z" fill="url(#paint37_linear_0_1)"/>
<path d="M178.846 17.3391C179.15 17.1722 179.942 16.8385 180.673 16.8385C181.404 16.8385 182.5 17.2556 182.957 17.3391" stroke="#C79175" stroke-width="0.344791"/>
<path fill-rule="evenodd" clip-rule="evenodd" d="M124.118 71.5822L120.8 45.1216C120.756 44.7669 121.008 44.4435 121.364 44.3992C121.412 44.3932 121.461 44.3926 121.51 44.3975L157.31 48C158.135 48.0831 158.786 48.7389 158.86 49.563L161.449 78.3912L125.965 73.451C124.997 73.3161 124.239 72.5499 124.118 71.5822Z" fill="url(#paint38_linear_0_1)"/>
<path fill-rule="evenodd" clip-rule="evenodd" d="M139.523 63.9934C140.947 64.1089 142.102 63.055 142.102 61.6394C142.102 60.2239 140.947 58.9827 139.523 58.8671C138.098 58.7516 136.943 59.8055 136.943 61.221C136.943 62.6366 138.098 63.8778 139.523 63.9934Z" fill="white"/>
<path fill-rule="evenodd" clip-rule="evenodd" d="M161.448 78.3912L178.21 77.8028L177.391 76.9291L159.73 73.7833L161.448 78.3912Z" fill="white"/>
<path fill-rule="evenodd" clip-rule="evenodd" d="M161.253 75.4091L168.898 76.9277L161.253 77.4113V75.4091Z" fill="#E3E7E9"/>
<path fill-rule="evenodd" clip-rule="evenodd" d="M160.427 67.1419C161.631 66.5848 162.413 66.3062 162.772 66.3062C163.859 66.3062 168.708 68.9597 171.927 69.8427C175.147 70.7258 188.198 69.7467 191.977 68.8721C194.044 68.394 198.085 68.069 201.654 66.3062C202.176 66.0482 202.588 65.3652 202.889 64.2571C207.291 63.5084 210.76 63.6778 213.297 64.7653C215.833 65.8528 217.427 67.8538 218.077 70.7683C217.682 73.862 217.044 75.7426 216.161 76.41C214.836 77.4111 208.047 78.3912 199.351 78.3912C190.655 78.3912 174.207 77.0469 171.927 76.41C169.648 75.7731 167.931 73.7707 165.722 74.1772C164.25 74.4483 162.76 74.9558 161.253 75.6999L161.007 73.6367C161.826 73.0444 162.236 72.5747 162.236 72.2277C162.236 71.8807 161.78 71.8807 160.869 72.2277L160.427 67.1419Z" fill="url(#paint39_linear_0_1)"/>
<g style="mix-blend-mode:soft-light" opacity="0.340634">
<path style="mix-blend-mode:soft-light" opacity="0.340634" d="M185.08 76.4687C191.086 76.9383 204.835 77.7637 212.319 74.071C216.621 71.9486 211.908 64.1697 213.296 64.7651C215.833 65.8526 217.427 67.8536 218.077 70.7681C217.682 73.8618 217.044 75.7423 216.161 76.4097C214.836 77.4108 208.047 78.391 199.351 78.391C190.655 78.391 174.207 77.0466 171.927 76.4097C169.648 75.7728 180.826 76.136 185.08 76.4687Z" fill="url(#paint40_linear_0_1)"/>
<path style="mix-blend-mode:soft-light" opacity="0.340634" d="M185.08 76.4687C191.086 76.9383 204.835 77.7637 212.319 74.071C216.621 71.9486 211.908 64.1697 213.296 64.7651C215.833 65.8526 217.427 67.8536 218.077 70.7681C217.682 73.8618 217.044 75.7423 216.161 76.4097C214.836 77.4108 208.047 78.391 199.351 78.391C190.655 78.391 174.207 77.0466 171.927 76.4097C169.648 75.7728 180.826 76.136 185.08 76.4687Z" fill="url(#paint41_linear_0_1)"/>
</g>
<path d="M214.577 25.9031L218.573 20.3386C220.912 21.0007 222.75 21.4114 224.089 21.5709C225.427 21.7303 226.99 21.7249 228.778 21.5546C226.731 24.8473 225.507 26.6072 225.104 26.8343C224.501 27.175 222.781 27.3285 220.997 27.1708C219.808 27.0656 217.668 26.643 214.577 25.9031Z" fill="url(#paint42_linear_0_1)"/>
<path style="mix-blend-mode:soft-light" d="M214.577 25.9031L218.573 20.3386C220.912 21.0007 222.75 21.4114 224.089 21.5709C225.427 21.7303 226.99 21.7249 228.778 21.5546C226.731 24.8473 225.507 26.6072 225.104 26.8343C224.501 27.175 222.781 27.3285 220.997 27.1708C219.808 27.0656 217.668 26.643 214.577 25.9031Z" fill="url(#paint43_linear_0_1)"/>
<path opacity="0.23" fill-rule="evenodd" clip-rule="evenodd" d="M218.576 20.3406C220.915 21.0019 222.753 21.412 224.091 21.571C225.429 21.7301 226.993 21.7242 228.781 21.5535C227.701 22.2533 226.809 22.7699 226.106 23.1032C225.402 23.4365 224.634 23.706 223.801 23.9117L218.576 20.3406Z" fill="url(#paint44_linear_0_1)"/>
<circle cx="172.186" cy="19.0036" r="0.75108" fill="#1E1E3F"/>
<path d="M174.097 21.6888C174.097 20.9578 174.402 19.2524 174.554 18.491C174.859 18.3387 175.468 18.1255 175.468 18.491C175.468 18.9478 175.924 20.7751 176.381 21.2319C176.838 21.6888 177.752 22.1456 177.295 23.0592C176.838 23.9729 175.011 24.4297 174.554 23.9729C174.097 23.5161 174.097 22.6024 174.097 21.6888Z" fill="#F7C1A9"/>
<circle cx="179.734" cy="17.7605" r="0.815041" fill="#1E1E3F"/>
<path d="M0.00830064 101.432L5.57307 107.779C5.68007 107.901 5.85776 107.933 6.00047 107.855C8.04815 106.74 9.81044 105.859 11.2873 105.21C12.8226 104.535 15.0175 103.686 17.872 102.664C16.7449 101.236 15.8215 100.166 15.1018 99.4556C14.382 98.7449 13.426 97.9582 12.2337 97.0956C8.96806 97.8752 6.44873 98.5795 4.67577 99.2084C2.90281 99.8373 1.34699 100.579 0.00830064 101.432Z" fill="url(#paint45_linear_0_1)"/>
<path style="mix-blend-mode:soft-light" d="M0.00830064 101.432L5.57307 107.779C5.68007 107.901 5.85776 107.933 6.00047 107.855C8.04815 106.74 9.81044 105.859 11.2873 105.21C12.8226 104.535 15.0175 103.686 17.872 102.664C16.7449 101.236 15.8215 100.166 15.1018 99.4556C14.382 98.7449 13.426 97.9582 12.2337 97.0956C8.96806 97.8752 6.44873 98.5795 4.67577 99.2084C2.90281 99.8373 1.34699 100.579 0.00830064 101.432Z" fill="url(#paint46_linear_0_1)"/>
<path opacity="0.23" fill-rule="evenodd" clip-rule="evenodd" d="M0.00830064 101.432L11.1248 100.819C11.5538 100.267 11.8405 99.7487 11.9849 99.264C12.1293 98.7793 12.2122 98.0565 12.2337 97.0956C8.96805 97.8752 6.44872 98.5795 4.67577 99.2084C2.90281 99.8373 1.34699 100.579 0.00830064 101.432Z" fill="url(#paint47_linear_0_1)"/>
<defs>
<linearGradient id="paint0_linear_0_1" x1="174.622" y1="167.601" x2="174.622" y2="145.325" gradientUnits="userSpaceOnUse">
<stop stop-color="#FFE5DA"/>
<stop offset="1" stop-color="white"/>
</linearGradient>
<linearGradient id="paint1_linear_0_1" x1="214.61" y1="135.774" x2="217.268" y2="145.734" gradientUnits="userSpaceOnUse">
<stop stop-color="#FFE5DA"/>
<stop offset="1" stop-color="white"/>
</linearGradient>
<linearGradient id="paint2_linear_0_1" x1="42.354" y1="88.1012" x2="72.6012" y2="101.504" gradientUnits="userSpaceOnUse">
<stop stop-color="#E83A39"/>
<stop offset="1" stop-color="#F66458"/>
</linearGradient>
<linearGradient id="paint3_linear_0_1" x1="248.487" y1="93.9671" x2="63.6292" y2="93.9671" gradientUnits="userSpaceOnUse">
<stop stop-color="#F7A969"/>
<stop offset="1" stop-color="#ED7038"/>
</linearGradient>
<linearGradient id="paint4_linear_0_1" x1="208.246" y1="95.3287" x2="231.961" y2="117.379" gradientUnits="userSpaceOnUse">
<stop stop-opacity="0"/>
<stop offset="1"/>
</linearGradient>
<linearGradient id="paint5_linear_0_1" x1="212.491" y1="97.5836" x2="212.491" y2="89.7586" gradientUnits="userSpaceOnUse">
<stop stop-color="#FFE6DB"/>
<stop offset="1" stop-color="#F5BBA2"/>
</linearGradient>
<linearGradient id="paint6_linear_0_1" x1="150.736" y1="129.647" x2="150.736" y2="84.9638" gradientUnits="userSpaceOnUse">
<stop stop-opacity="0"/>
<stop offset="1"/>
</linearGradient>
<linearGradient id="paint7_linear_0_1" x1="150.736" y1="109.335" x2="150.736" y2="84.9638" gradientUnits="userSpaceOnUse">
<stop stop-opacity="0"/>
<stop offset="1"/>
</linearGradient>
<linearGradient id="paint8_linear_0_1" x1="214.923" y1="105.527" x2="214.923" y2="94.9962" gradientUnits="userSpaceOnUse">
<stop stop-color="#FFE6DB"/>
<stop offset="1" stop-color="#F5BBA2"/>
</linearGradient>
<linearGradient id="paint9_linear_0_1" x1="216.284" y1="115.355" x2="216.066" y2="102.852" gradientUnits="userSpaceOnUse">
<stop stop-color="#FFE6DB"/>
<stop offset="1" stop-color="#F5BBA2"/>
</linearGradient>
<linearGradient id="paint10_linear_0_1" x1="92.0059" y1="132.163" x2="92.0059" y2="123.073" gradientUnits="userSpaceOnUse">
<stop stop-color="#FFE6DB"/>
<stop offset="1" stop-color="#F5BBA2"/>
</linearGradient>
<linearGradient id="paint11_linear_0_1" x1="105.23" y1="67.4456" x2="105.23" y2="80.7684" gradientUnits="userSpaceOnUse">
<stop stop-color="#2D2D63"/>
<stop offset="1" stop-color="#1E1E3F"/>
</linearGradient>
<linearGradient id="paint12_linear_0_1" x1="135.547" y1="80.8248" x2="96.4143" y2="84.398" gradientUnits="userSpaceOnUse">
<stop stop-opacity="0"/>
<stop offset="1"/>
</linearGradient>
<linearGradient id="paint13_linear_0_1" x1="61.9585" y1="128.529" x2="88.4119" y2="129.406" gradientUnits="userSpaceOnUse">
<stop stop-color="#FFD9C9"/>
<stop offset="1" stop-color="#F5BBA2"/>
</linearGradient>
<linearGradient id="paint14_linear_0_1" x1="64.753" y1="137.356" x2="64.753" y2="110.706" gradientUnits="userSpaceOnUse">
<stop stop-color="#FFDCCD"/>
<stop offset="1" stop-color="#FFF1EB"/>
</linearGradient>
<linearGradient id="paint15_linear_0_1" x1="39.7092" y1="130.232" x2="75.2913" y2="130.232" gradientUnits="userSpaceOnUse">
<stop stop-opacity="0"/>
<stop offset="1"/>
</linearGradient>
<linearGradient id="paint16_linear_0_1" x1="33.4287" y1="146.428" x2="53.5306" y2="115.957" gradientUnits="userSpaceOnUse">
<stop stop-color="#E83A39"/>
<stop offset="1" stop-color="#F66458"/>
</linearGradient>
<linearGradient id="paint17_linear_0_1" x1="47.4257" y1="112.559" x2="47.4257" y2="117.142" gradientUnits="userSpaceOnUse">
<stop stop-color="#2D2D63"/>
<stop offset="1" stop-color="#1E1E3F"/>
</linearGradient>
<linearGradient id="paint18_linear_0_1" x1="162.346" y1="101.079" x2="72.1822" y2="99.8876" gradientUnits="userSpaceOnUse">
<stop stop-color="#24244D"/>
<stop offset="0.352153" stop-color="#2F2F62"/>
<stop offset="1" stop-color="#1E1E3F"/>
</linearGradient>
<linearGradient id="paint19_linear_0_1" x1="198.056" y1="103.174" x2="73.761" y2="106.644" gradientUnits="userSpaceOnUse">
<stop stop-opacity="0"/>
<stop offset="1"/>
</linearGradient>
<linearGradient id="paint20_linear_0_1" x1="160.744" y1="87.8718" x2="160.744" y2="98.4951" gradientUnits="userSpaceOnUse">
<stop stop-opacity="0"/>
<stop offset="1"/>
</linearGradient>
<linearGradient id="paint21_linear_0_1" x1="39.2326" y1="139.19" x2="72.1297" y2="127.263" gradientUnits="userSpaceOnUse">
<stop stop-color="#E83A39"/>
<stop offset="1" stop-color="#F66458"/>
</linearGradient>
<linearGradient id="paint22_linear_0_1" x1="90.3593" y1="143.022" x2="56.4937" y2="142.798" gradientUnits="userSpaceOnUse">
<stop stop-color="#24244D"/>
<stop offset="0.352153" stop-color="#2F2F62"/>
<stop offset="1" stop-color="#1E1E3F"/>
</linearGradient>
<linearGradient id="paint23_linear_0_1" x1="85.9259" y1="149.484" x2="85.9259" y2="130.639" gradientUnits="userSpaceOnUse">
<stop stop-color="#FFE5DA"/>
<stop offset="1" stop-color="white"/>
</linearGradient>
<linearGradient id="paint24_linear_0_1" x1="130.178" y1="41.4611" x2="197.297" y2="84.9059" gradientUnits="userSpaceOnUse">
<stop stop-color="#E83A39"/>
<stop offset="1" stop-color="#F66458"/>
</linearGradient>
<linearGradient id="paint25_linear_0_1" x1="198.127" y1="30.991" x2="198.127" y2="89.2929" gradientUnits="userSpaceOnUse">
<stop stop-color="#E83A39"/>
<stop offset="1" stop-color="#F66458"/>
</linearGradient>
<linearGradient id="paint26_linear_0_1" x1="197.384" y1="85.5338" x2="197.384" y2="78.905" gradientUnits="userSpaceOnUse">
<stop stop-color="#E83A39"/>
<stop offset="1" stop-color="#B4111D"/>
</linearGradient>
<linearGradient id="paint27_linear_0_1" x1="162.673" y1="70.3988" x2="163.361" y2="26.1178" gradientUnits="userSpaceOnUse">
<stop stop-color="white" stop-opacity="0"/>
<stop offset="1" stop-color="white"/>
</linearGradient>
<linearGradient id="paint28_linear_0_1" x1="184.15" y1="65.8133" x2="184.863" y2="33.7625" gradientUnits="userSpaceOnUse">
<stop stop-color="white" stop-opacity="0"/>
<stop offset="1" stop-color="white"/>
</linearGradient>
<linearGradient id="paint29_linear_0_1" x1="189.13" y1="30.864" x2="189.13" y2="27.6985" gradientUnits="userSpaceOnUse">
<stop stop-color="#E83A39"/>
<stop offset="1" stop-color="#B4111D"/>
</linearGradient>
<linearGradient id="paint30_linear_0_1" x1="177.066" y1="43.9256" x2="177.066" y2="30.645" gradientUnits="userSpaceOnUse">
<stop stop-color="#E83A39"/>
<stop offset="1" stop-color="#B4111D"/>
</linearGradient>
<linearGradient id="paint31_linear_0_1" x1="183.582" y1="43.8598" x2="183.582" y2="25.0679" gradientUnits="userSpaceOnUse">
<stop stop-color="#FFE6DB"/>
<stop offset="1" stop-color="#F5BBA2"/>
</linearGradient>
<linearGradient id="paint32_linear_0_1" x1="181.393" y1="33.5611" x2="181.393" y2="-2.51342" gradientUnits="userSpaceOnUse">
<stop stop-color="#FFE6DB"/>
<stop offset="1" stop-color="#F5BBA2"/>
</linearGradient>
<linearGradient id="paint33_linear_0_1" x1="176.671" y1="0.108215" x2="176.671" y2="3.8654" gradientUnits="userSpaceOnUse">
<stop stop-color="#2D2D63"/>
<stop offset="1" stop-color="#1E1E3F"/>
</linearGradient>
<linearGradient id="paint34_linear_0_1" x1="186.291" y1="2.93561" x2="186.291" y2="5.98096" gradientUnits="userSpaceOnUse">
<stop stop-color="#2D2D63"/>
<stop offset="1" stop-color="#1E1E3F"/>
</linearGradient>
<linearGradient id="paint35_linear_0_1" x1="210.092" y1="49.4381" x2="211.547" y2="67.6822" gradientUnits="userSpaceOnUse">
<stop stop-color="#E83A39"/>
<stop offset="1" stop-color="#F66458"/>
</linearGradient>
<linearGradient id="paint36_linear_0_1" x1="218.101" y1="40.2103" x2="218.101" y2="78.7392" gradientUnits="userSpaceOnUse">
<stop stop-color="#E83A39"/>
<stop offset="1" stop-color="#F66458"/>
</linearGradient>
<linearGradient id="paint37_linear_0_1" x1="186.305" y1="39.1777" x2="178.14" y2="39.0398" gradientUnits="userSpaceOnUse">
<stop stop-color="#C31D25"/>
<stop offset="1" stop-color="#EA413E"/>
</linearGradient>
<linearGradient id="paint38_linear_0_1" x1="120.795" y1="44.3942" x2="154.256" y2="84.406" gradientUnits="userSpaceOnUse">
<stop stop-color="#BADEF8"/>
<stop offset="1" stop-color="#DEECF5"/>
</linearGradient>
<linearGradient id="paint39_linear_0_1" x1="196.551" y1="79.0961" x2="196.551" y2="60.0096" gradientUnits="userSpaceOnUse">
<stop stop-color="#FFE6DB"/>
<stop offset="1" stop-color="#F5BBA2"/>
</linearGradient>
<linearGradient id="paint40_linear_0_1" x1="188.389" y1="83.905" x2="188.389" y2="68.8168" gradientUnits="userSpaceOnUse">
<stop stop-opacity="0"/>
<stop offset="1"/>
</linearGradient>
<linearGradient id="paint41_linear_0_1" x1="188.389" y1="83.905" x2="188.389" y2="74.7632" gradientUnits="userSpaceOnUse">
<stop stop-opacity="0"/>
<stop offset="1"/>
</linearGradient>
<linearGradient id="paint42_linear_0_1" x1="230.694" y1="21.0817" x2="208.074" y2="27.6014" gradientUnits="userSpaceOnUse">
<stop stop-color="#F7A969"/>
<stop offset="1" stop-color="#ED7038"/>
</linearGradient>
<linearGradient id="paint43_linear_0_1" x1="225.797" y1="22.5934" x2="229.395" y2="24.0856" gradientUnits="userSpaceOnUse">
<stop stop-opacity="0"/>
<stop offset="1"/>
</linearGradient>
<linearGradient id="paint44_linear_0_1" x1="226.068" y1="23.8051" x2="224.589" y2="18.6243" gradientUnits="userSpaceOnUse">
<stop stop-color="#FFE5DA"/>
<stop offset="1" stop-color="white"/>
</linearGradient>
<linearGradient id="paint45_linear_0_1" x1="20.2445" y1="102.497" x2="-8.07445" y2="102.497" gradientUnits="userSpaceOnUse">
<stop stop-color="#F7A969"/>
<stop offset="1" stop-color="#ED7038"/>
</linearGradient>
<linearGradient id="paint46_linear_0_1" x1="14.0799" y1="102.683" x2="17.6775" y2="105.939" gradientUnits="userSpaceOnUse">
<stop stop-opacity="0"/>
<stop offset="1"/>
</linearGradient>
<linearGradient id="paint47_linear_0_1" x1="8.06329" y1="101.886" x2="8.06329" y2="97.0956" gradientUnits="userSpaceOnUse">
<stop stop-color="#FFE5DA"/>
<stop offset="1" stop-color="white"/>
</linearGradient>
</defs>
</svg>
