<svg xmlns="http://www.w3.org/2000/svg" xmlns:xlink="http://www.w3.org/1999/xlink" width="104" height="219" fill="none">
    <defs>
        <path id="x" fill="#4C1D0A" d="M33 66Z"/>
    </defs>
    <mask id="b" width="121" height="219" x="-17" y="0" maskUnits="userSpaceOnUse" style="mask-type:alpha">
        <path fill="#D9D9D9" d="M-17 1h121v218H18c-11 0-20-9-20-20v-2l-15-11V1Z"/>
    </mask>
    <g clip-path="url(#a)" mask="url(#b)">
        <path fill="url(#c)" d="m50 93-2-9v-1h-1l-2 4-4 3-6-1-12-7v4l-1 5-1 8 3 12 3 11 3 5c2 2 5 2 9 2h2c1-1 2-2 1-4l-1-9 3-9c1-3 5-4 6-7v-7Z"/>
        <path fill="url(#d)" d="M24 101c1 3 3 8 8 9s10-5 12-9l4-17v-1h-1l-2 4-4 3-6-1-12-7v4c-1 4 0 13 1 15Z"/>
        <path fill="url(#e)" d="M23 84s0 5 8 10c3 2 7 2 10 0 4-2 6-7 6-7l-24-3Z"/>
        <path fill="#FF5647" d="M27 119s5 12 14 7c8-4 7-10 7-10l1 72-8 36-12-2-2-103Z"/>
        <path fill="url(#f)" d="M63 66Z"/>
        <path fill="url(#g)" d="M9 101c-1 17-9 15-9 32-1 6 6 31 4 37l-4 12c-2 6-2 12-2 18v15c-1 2 0 10 2 11l37-2c6-16-4-35-3-52 0-11 0-23-2-34a110 110 0 0 0-17-37c-1-1-4-2-5-1-2 1-3 4-1 5"/>
        <path fill="url(#h)" d="M25 186c1-8-1-14-5-15-3 0-7 5-8 13s1 14 4 15c4 0 8-6 9-13Z" opacity=".5"/>
        <path fill="url(#i)" d="m10 194-4-6c-2-2-4-2-7-3l-1 5v21l-1 3c0 3 1 10 3 10 6 1 13-4 18-3l-5-8 6 6c1-1-1-10-1-11-2-3-2-7-3-10l-5-4Z"/>
        <path fill="url(#j)" d="m9 98-12 8c-4 2-8 4-10 9l-2 16a871 871 0 0 0 0 45c1 4 3 7 6 8 5 2 12 1 15 4l4 6c1 2 2 4 4 4-2-5-3-12-1-18l3-6c1-2 4-3 6-3l-10-2c-3 0-8-5-8-5l1-22 1-26 3-16-1 2"/>
        <path fill="url(#k)" d="M22 95c0 11 4 22 8 34-5-4-7-11-9-17l-1-3c-1-2-2-4-5-5h-3l-8 2 2-2 1-3a43 43 0 0 1 4-5 42 42 0 0 1 5-5 42 42 0 0 1 2-2l4-2v8Z"/>
        <path fill="url(#l)" d="M13 180a14 14 0 0 1 3-7l-2-1c-2 1-7 7-9 5l-1-2c-1-1-6 3-7 1-1-3 1-2 1-4 1-3-6 1-8 3-2 1-3-5-3-9l3-18c2-4 0-30 2-36l2-4c-3 1-5 4-7 7l-2 16a871 871 0 0 0 0 45c1 4 3 7 6 8 5 3 12 1 15 4l3 6c1 2 3 4 5 4-2-5-3-12-1-18Z" opacity=".3"/>
        <path fill="url(#m)" d="M5 131v16l-2-3c-1 0-2 0-1 1l1 12c0 2 0 4-2 6l-4 1c-2 1-3 2-3 4 4 0 7-4 10-2h2c3 3 7 4 10 3-1 0-2-2-1-3l1-6-2-1c-1-1-2 1-3 2l-2 1c1-11-1-25-3-37H5v6Z"/>
        <path fill="url(#n)" d="m48 82-1 1h1v-1Z"/>
        <path fill="url(#o)" d="m49 82-1 1v1a62 62 0 0 0 1-2Z"/>
        <path fill="url(#p)" d="M23 82Z"/>
        <path fill="url(#q)" d="M23 82Z"/>
        <path fill="url(#r)" d="M20 81v1l1-1h-1Z"/>
        <path fill="url(#s)" d="M21 81v-1l-1 1h1Z"/>
        <path fill="url(#t)" d="M21 80v1-1Z"/>
        <path fill="url(#u)" d="M21 80v1-1Z"/>
        <path fill="url(#v)" d="M52 59c1-5-2-13-4-15h-9c-3 1-3 0-5-1-3 0-9 0-11 2 0 0-4 2-4 10s-2 19 2 25v1h1l-1-11V56c2-5 6-8 11-10 5-1 11 1 15 4 3 4 5 8 5 13a58 58 0 0 1 0 15l2-7-2-12Z"/>
        <path fill="url(#w)" d="M52 59c1-5-2-13-4-15h-9c-3 1-3 0-5-1-3 0-9 0-11 2 0 0-4 2-4 10s-2 19 2 25v1l1 1c4 6 7 8 10 9 3 2 7 2 9 1 4-1 6-4 8-8l3-6 2-7-2-12Z"/>
        <use xlink:href="#x"/>
        <path fill="url(#y)" d="M33 66Z"/>
        <use xlink:href="#x"/>
        <path fill="url(#z)" d="M33 66Z"/>
        <use xlink:href="#x"/>
        <path fill="url(#A)" d="M33 66Z"/>
        <path fill="url(#B)" d="M15 65h-1v4l1 2 1 1 1 2h2a29 29 0 0 1-1-6v-1h-1l-1 1v1l1 1v1h-1a15 15 0 0 1-1-3v-1l1-1-1-1"/>
        <path fill="url(#C)" d="M54 65h1v4l-1 2-1 2v-7l1-1Z"/>
        <path fill="#000" d="m34 76 2 1 1 1h2l1-1 1-1h1-2l-1 1-2-1h-4" opacity=".5"/>
        <path fill="#000" d="m29 64 3 1 1-1v-1h-6l-1 1h3Zm15 1 1-1 1-1h4-5l-3 1 2 1Zm9 5c0 1-1 2-3 2h-3l-1-1h-2v4-1l2 2 1 4v-1l1-1 1-1 4-2v-5Z" opacity=".2"/>
        <path fill="url(#D)" d="m40 63 1 7c3 2 3 3 3 4l-2 2h-2l-3 1-2-1-3-1 1-4c2-1 2-3 2-5-1-2 0-3 1-4 0-1 4-2 4 1Z"/>
        <path fill="url(#E)" d="M44 74v-1l-2 1-2-1-1 1h-1l-1 1 1 1 1-1h3a2 2 0 0 0 2 0v-1Z" opacity=".2"/>
        <path fill="url(#F)" d="M30 80h9l6-1s0 2-2 3-6 3-8 2l-4-3-1-1Z"/>
        <path fill="#F6E1D8" d="M39 84h-3l1-2 1-1 1 1v2Zm2-1-2 1v-2l1-1h1v2Z"/>
        <path fill="#DABCA8" d="m42 81-1-1v3h2l-1-2Zm-5 0-1-1-1 1v2h2v-2Zm-2 0-1-1v1l-1 2h2v-2Z"/>
        <path fill="#D2A798" d="M43 80v-1l-1 1 1 2v-2Zm-9 1-1-1v1l-1 2h1l1-2Z"/>
        <path fill="#B99081" d="M33 81v-1l-1 1v1l1 1v-2Zm11-1v-1l-1 1v2l1-1v-1Z"/>
        <path fill="#562717" d="M41 79h2l3-1c0 2-1 2-2 2h-2l-2 1h-7c-2 0-3 0-4-3 1 1 2 2 5 1h3l2 1 2-1Z"/>
        <path fill="url(#G)" d="m33 84 1 2h7c2-1 3-2 3-4-1 1-1 2-3 2h-5l-3-1-1-1v-1 1l1 2Z" opacity=".8"/>
        <path fill="url(#H)" d="m32 83 2 2h7c2-1 4-3 4-5l-4 3h-4a20 20 0 0 1-4-1l-2-1v-1 1l1 2Z"/>
        <path fill="#000" d="m35 61 1 11-2 1h-2c2-2 3-4 2-6l-1-2-2-2-3-1 2-1h4l2 1" opacity=".2"/>
        <path fill="#000" d="m23 79 2-2 3 3a3 3 0 0 1 0-1h1l1 2v1-3l1-2 1-3v-1l1-1h-1l-4 2-3 1h-3l-1-2h-1l1 3 2 3Z" opacity=".1"/>
        <path fill="#000" d="M28 81v-1l-3-3-2 2-2-3-1-3v-7l3-5c2-4 1-7-2-11l-1-2-1 3v1l-1 2v1c0 8-1 20 3 27 5 6 8 7 11 9a13 13 0 0 0 2 1c-4-3-5-5-6-11Z" opacity=".1"/>
        <path fill="url(#I)" d="M53 70c0 1-1 2-3 2-1 1-5-1-5-2l4-1 4 1Z" opacity=".6"/>
        <path fill="#fff" d="M44 66c-1 0 0-2 2-2l4 2h-6Zm-18 1 2-2c3 0 4 1 5 2h-7Z"/>
        <path fill="url(#J)" d="m22 71 3 2c2 1 6-1 6-2l-5-1-4 1Z" opacity=".2"/>
        <path fill="url(#K)" d="M20 52v2-2Z" opacity=".9"/>
        <path fill="url(#L)" d="M48 44h-9c-3 1-3 0-5-1-3 0-9 0-11 2 0 0-4 2-4 9h1v-2 2c2-1 2-4 3-5 1-2 3-2 4-2h5l5 1c3 0 6-2 9-1 2 0 3 1 4 3l1 2c0-4-2-7-3-8Z" opacity=".6"/>
        <path fill="url(#M)" d="M48 44H34c-3-1-9-1-11 1 0 0-4 2-4 9h1s0-1 0 0c2-1 2-4 3-5l4-2h5l5 1c3 0 6-2 9-1 2 0 3 1 4 3l1 2c0-4-2-7-3-8Z" opacity=".4"/>
        <path fill="#000" d="m32 75 3 1 2 1 3-1h2l2-1h-5l-1 1c-2 0-2-1-3-2l-3-1s1-1 0 0v2Z" opacity=".2"/>
        <path fill="url(#N)" d="m44 74-2-4-1-7c-1-2-2-2-3-2v5l1 6 2 1-1 2h2a2 2 0 0 0 2 0v-1Z" opacity=".3"/>
        <path fill="url(#O)" d="m33 66-1 1h-1l-3 1h-1 4l1-1 1-1Z"/>
        <path fill="url(#P)" d="M44 67h5l1-1-2 2h-2l-1-1-1-1v1Z"/>
        <path fill="#000" d="M29 67c-1 0-1-2 1-2s2 1 2 2h-3Zm20-1-2-2-1 2h3Z"/>
        <path fill="#000" d="m25 66 8-1c2 1 3-1 5-2l3 2h3l6-1h3l-1-5c0-2-1 1-2 0l-4 1c-1 1-2-1-3-1l-5-1c-4 0-5 1-7 2h-3c-2 0-4 0-5 2l-1 1-2 2 5 1Z" opacity=".1"/>
        <path fill="url(#Q)" d="M43 60v-1l3-1h3l1 1h1v3l-1-2h-4l-2 1-1-1Z"/>
        <path fill="url(#R)" d="m32 60-1-1h-5l-1 1-1 1-1 3 2-3h6l1-1Z"/>
        <path fill="url(#S)" d="M69 53v-6l-2-4v-4c1 0 3-2 2-3l-3-1v-1c1-1 0-2-1-1l1-1v-2l-1-1v-3l-3-2c-2-3 0-3-2-4l-4-1-2-3h-6l-6-3-8 1c-2-1-4-3-6-2-4 1-3 3-7 2l-4 3h-4v3l-3 1c-1 0-3 1-2 2-2-1-3 1-3 2l-3 2c-2 0-2 2-3 4l1 4c-3 2-4 8-1 10l-1 4v2c1 2 0 3-1 3v1c-2 0-2 3-1 3-1 1-1 3 1 5 1 2 3 5 5 4 1 7 4 10 11 10-1 2 0 5 2 5 1 1 4 0 5-1l1-1c-4-6-2-17-2-25a21 21 0 0 1 0-2l2-2v-4l2-1h3l1-1h8v-1l1 1-1 1h1l1-1h2l1 1h4l2 1 1 1 4 3v1c1 2 2 5 1 7l2 12-2 7 1-2h1v-1l3-1v-2l3-3 1-1 2-2h-1 4l1-2 1-2 1-3v-6Z"/>
        <path fill="#000" d="m28 44-1-6c-2-1-4-1-5 1l-3 4c0 2-2 3-3 3v-4l-1-3 3-3v-3l-2 1c-2 1-4-1-4-2v-5c1-5 5-10 9-13h-1l-3 3h-4v3c-1 0-2 0-3 2-1-1-3 0-3 1-1 0-3 1-2 2l-3 2c-2 0-2 2-3 4l1 4c-3 2-4 8-1 10l-1 4v3l-1 2a1 1 0 0 0-1 0v9c1 2 4 5 6 4 0 7 4 10 11 11-1 1 0 4 2 4h5l1-1-3-9-2-1c-2 0-5 0-5-2l1-4-2-4c-1-1-2-3-1-4 1-2 4-1 5 0l4 1a97 97 0 0 0 1-5l2-2-1-2 1-2 2-1h3v-1l3 1v-1h2v-2l-3 1Z" opacity=".2"/>
        <path fill="#60372B" d="m50 65-3-1h-3l-1 1 3-1 5 1h-1Z"/>
        <path fill="#562717" d="M25 66h2l5-1 1 1-2-1h-4l-2 1h-1 1Z"/>
        <path fill="url(#T)" d="M48 85c0 5 1 11-2 16-6 8-8 13-8 34l-2 35c-2 10 3 11 0 17-9 25-10 36-10 36h14l5-42 14-46-11-50Z" opacity=".4"/>
        <path fill="url(#U)" d="M62 95c4 8 9 20 8 30l1 4 1 3v20l9 1c2 1 4 4 3 7 5 1 5 6 7 11l5-4v-4l-7-39-4-13c-5-12-23-16-23-16Z"/>
        <path fill="url(#V)" d="M42 110c-4 20 3 40 2 60l-3 20c-2 9-13 23-15 33 14 2 34 12 42 9 7-3 6-14 6-18l-1-72v-23c-1-7-4-15-8-21-2-3-6-6-10-5-3 0-4 3-6 6l-8 13"/>
        <path fill="url(#W)" d="m50 95-2 6-3 4c-4 5-4 9-4 22l3-15 5-9 2-2h4l8 6c-2-8-5-13-10-19-3-3-5-3-5-3l2 10Z"/>
        <path fill="url(#X)" d="M57 134c3 0 12 1 16-1h1v5c-2 0-10 2-17 1v-5Z"/>
        <path fill="url(#Y)" d="M71 160h-9c-2 0-4-2-4-4v-16h9l7-1 1 16c0 2-2 5-4 5Z" opacity=".4"/>
        <path fill="url(#Z)" d="m80 190 1 3h2l1-3h-4Z"/>
        <path fill="url(#aa)" d="M85 189s-1 3 1 3c2 1 3-2 3-2l2-3-1-2-2 3-3 1Z"/>
        <path fill="url(#ab)" d="m75 182-1-38h-8c-7 1-12 5-11 9a12 12 0 0 0-6 1l-2-1v-1l-1-1-1 1h-1l-1-1-1 1h-1l-2 1v-1l-2 1-1 1h-1l-2 4h-1l4-8h-4v1h-2v1l-2 2h-1v1a30 30 0 0 0-1 1h-1l-1 2h1l-3 5c-5 5-4 7-4 7l4 1v1l46 11 11-1h-4Z" opacity=".2"/>
        <path fill="url(#ac)" d="M79 186c6-2 9-6 12-14v-5c1-1 0-2-1-2l-3-2 1-1c0-2 0-3-2-4l-7-3h-1c2-1 2-2 2-4-1-2-3-3-6-4l1 39h4Z" opacity=".2"/>
        <path fill="url(#ad)" d="M41 166c-3 1-5 3-4 4 0 2 3 2 6 1s5-3 4-5c-1-1-3-2-6 0Z"/>
        <path fill="url(#ae)" d="M56 165c-3 1-4 3-4 5 1 1 4 2 6 1 3-1 5-4 4-5 0-2-3-2-6-1Z"/>
        <path fill="url(#af)" d="M78 164c0-1-4-1-8 1-4 1-7 4-7 5 1 2 5 2 9 0s7-4 6-6Z"/>
        <path fill="url(#ag)" d="M86 167c-4-1-6 0-8 1 2 0 4 2 5 3l11-1c-1-2-4-3-8-3Z"/>
        <path fill="url(#ah)" d="m78 168-3-1c-5-1-9 1-9 4a235 235 0 0 0 17 0c-1-1-3-3-5-3Z"/>
        <path fill="url(#ai)" d="m57 164 9-2a3 3 0 0 1 0-1l-5-1-5 3 1 1Z"/>
        <path fill="url(#aj)" d="m66 171-5-2c-2-1-4 0-5 1v1h10Z"/>
        <path fill="url(#ak)" d="M56 170c-1-3-5-4-10-3l-6 3a568 568 0 0 0 16 0Z"/>
        <path fill="url(#al)" d="M92 166c1-3-3-6-8-6-5-1-9 0-10 3 0 3 3 6 8 6 5 1 10-1 10-3Z"/>
        <path fill="url(#am)" d="M47 157c-2-1-6 2-10 7l-3 6h5c4-5 9-12 8-13Z"/>
        <path fill="url(#an)" d="m95 171-1-1a147 147 0 0 1-28 1H55l-15-1h-1a570 570 0 0 1-5 0h-1l2 19 39 1c12 1 17-1 20-14l1-5Z"/>
        <path fill="url(#ao)" d="M52 170c4-2 7-5 6-7 0-2-5-2-9-1-4 2-7 5-6 7s5 2 9 1Z"/>
        <path fill="url(#ap)" d="M75 165c6-2 11-6 10-9-1-4-6-6-12-5-6 2-11 6-10 9 1 4 6 6 12 5Z"/>
        <path fill="url(#aq)" d="M65 170c5-1 9-3 9-5-1-2-5-3-10-3-5 1-9 3-9 5 1 2 5 3 10 3Z"/>
        <path fill="url(#ar)" d="M61 163h-2v2h2v-2Z"/>
        <path fill="url(#as)" d="M53 158h-1v2h1v-2Z"/>
        <path fill="url(#at)" d="M64 166h-1l-1 1v1h2v-2Z"/>
        <path fill="url(#au)" d="M71 166h-1v1h1v-1Z"/>
        <path fill="url(#av)" d="M58 170h-1l1 1 1-1h-1Z"/>
        <path fill="url(#aw)" d="M70 170h-1l1 1v-1h1-1Z"/>
        <path fill="url(#ax)" d="m54 169-1 1h1v-1Z"/>
        <path fill="url(#ay)" d="M58 166h-1v1h2v-1h-1Z"/>
        <path fill="url(#az)" d="M74 161v1h1v-1h-1Z"/>
        <path fill="url(#aA)" d="M42 158h-1v1h2v-1h-1Z"/>
        <path fill="url(#aB)" d="M88 162h-1v1h1v-1Z"/>
        <path fill="url(#aC)" d="M39 161v1l1-1h-1Z"/>
        <path fill="url(#aD)" d="M67 165v1h1v-1h-1Z"/>
        <path fill="url(#aE)" d="M87 165h-1v2h1l1-1v-1h-1Z"/>
        <path fill="url(#aF)" d="M75 169h-1v1h2v-1h-1Z"/>
        <path fill="url(#aG)" d="m65 162-1 1-1 1h1l1-1h1-1v-1Z"/>
        <path fill="url(#aH)" d="m85 161-1 1 1 1 1-1v-1h-1Z"/>
        <path fill="url(#aI)" d="m78 155 1-1 1-1-1-1h-1l-1 1v2h1Z"/>
        <path fill="url(#aJ)" d="m37 165 1-2h-1l-1 2h1Z"/>
        <path fill="url(#aK)" d="m82 165 1-1-1-1-1 2v1l1-1Z"/>
        <path fill="url(#aL)" d="m43 158 2-1h-2v1Z"/>
        <path fill="url(#aM)" d="M76 159h1v-2h-1l-1 1v1h1Z"/>
        <path fill="url(#aN)" d="m68 156 1-1h1l-1-1h-2v1l1 1Z"/>
        <path fill="url(#aO)" d="M66 159v-1l-1 1h1Z"/>
        <path fill="url(#aP)" d="M79 162h1v-1h-1v1Z"/>
        <path fill="url(#aQ)" d="M81 155h1v-1l-1 1s0 1 0 0Z"/>
        <path fill="url(#aR)" d="m90 166 1-1-1-1v2Z"/>
        <path fill="url(#aS)" d="M70 159h2v-1h-2v1Z"/>
        <path fill="url(#aT)" d="M83 167v1l1 1v-1h1l-1-1h-1s-1 0 0 0Z"/>
        <path fill="url(#aU)" d="M72 156h2v-2h-2v2Z"/>
        <path fill="url(#aV)" d="M43 168s0-6 6-8c3-1 9-2 10 4 0 0-1-3-4-3l-10 3-2 4Z"/>
        <path fill="url(#aW)" d="M46 161v1-1Z"/>
        <path fill="url(#aX)" d="M91 162h-1v1h1v-1Z"/>
        <path fill="url(#aY)" d="M62 171v-1 1h1l-1-1Z"/>
        <path fill="url(#aZ)" d="M70 163v1-1Z"/>
        <path fill="url(#ba)" d="M51 159v1-1Z"/>
        <path fill="url(#bb)" d="M79 170v1l1-1h-1Z"/>
        <path fill="url(#bc)" d="M42 169h-1v1h1v-1Z"/>
        <path fill="url(#bd)" d="M84 160v1l1-1h-1Z"/>
        <path fill="url(#be)" d="M74 168h-1v1h1v-1Z"/>
        <path fill="url(#bf)" d="M56 159h-2l1 1h1v-1Z"/>
        <path fill="url(#bg)" d="M48 160h1v-1l-1 1h-1 1Z"/>
        <path fill="url(#bh)" d="m77 165 2-1h-2v1Z"/>
        <path fill="url(#bi)" d="m60 170 1 1v-1h-2 1Z"/>
        <path fill="url(#bj)" d="M30 189v-1 1Z"/>
        <path fill="url(#bk)" d="m52 192-2-1h-2l-6-1 2-1c1 0 2-1 1-2l-2-2-4-2a14 14 0 0 1-4-2v-4h1l2-1 3-1 1-2-1-1h-8l2-1v-4l-3-1-2 1-2 1-1 1-1 2-3 1h-4l-3 2c-3 4-4 9-4 13h16l-1-1h1l3 2 2 2 3 1h1l4 1h4a1 1 0 0 0 0 1h2l1 1h3v2l1-4Z"/>
        <path fill="url(#bl)" d="m28 187 2 1a35 35 0 0 1-2-1Z" opacity=".5"/>
        <path fill="url(#bm)" d="m48 194-1-1h-2v-1h-4a21 21 0 0 1-6-1l-2-1-2-2-3-2h-1l1 1 2 1v1l7 4 4 1 6 1 3 1h1l1-2h-4Z"/>
        <path fill="#CC9376" d="M42 186h-1l-1 1 1 1 2 1v-3h-1Zm6 6-1 1v1l1 1h2v-2l-1-1h-1Zm-10-19v1l1 1a5 5 0 0 1 0-1v-1h-1Zm-5-7-2 1v1l1-1h1v-1Z"/>
        <path fill="url(#bn)" d="m26 171 1-2h2l1 2h3l1-1 1-1v-2l1 2-1 2-3 1-1 1h-1l-1-2h-3Z"/>
        <path fill="url(#bo)" d="M39 175h2l-1 1h-1l-8 2-4-1 2-2h1l1 1v1h1v-3l1 1 1 1h1l1-1-1-1v-1h1l1 1v-1l1 1 1 1Z" opacity=".4"/>
        <path fill="url(#bp)" d="m30 178 2 1 5 4 5 2-6-3-1-1v-4l-5 1Z"/>
        <path fill="#8C4638" d="M43 189Zm0 0Z"/>
        <path fill="url(#bq)" d="m28 182 1 1h1l2 2 3 2h1a36 36 0 0 1 2 2l5 1 2-1h-2l-3-2-1-1-1-1h-1v1h-2l-2-1-1-2a4 4 0 0 0-1-1h-3l-1-1 1 1Z" opacity=".4"/>
        <path fill="url(#br)" d="M42 190h1a16 16 0 0 1-1 0Z" opacity=".3"/>
        <path fill="url(#bs)" d="m50 191-6-1a64 64 0 0 1-2 0l-4-1-2-1a41 41 0 0 0 0-1h-1l-3-2-2-2h-1l-1-1a5 5 0 0 1-1-1v-6l-1-2v-2l-1 1 1-1-4 1h-3l-4 2v1l1-1h1a16 16 0 0 0 0 3v4l1 2 3 2h1l1-1 1 1h3l1 2 1 1 3 2 3 2-2-2-2-2c-2-3 2-1 2-1l7 3 7 1 3 1 2 1-2-2Z"/>
        <path fill="#8C4638" d="M27 185Zm-1 0Zm0 0Zm1 0Zm-1 0Zm0 0Zm1 0Z"/>
        <path fill="url(#bt)" d="M26 185Z"/>
        <path fill="url(#bu)" d="M26 185Z"/>
        <path fill="url(#bv)" d="M26 185Z"/>
        <path fill="url(#bw)" d="M27 185Z"/>
        <path fill="url(#bx)" d="M27 185Z"/>
        <path fill="url(#by)" d="M26 185h1a1 1 0 0 0-1 0Z"/>
        <path fill="url(#bz)" d="M27 185v1a1 1 0 0 0 0-1Z"/>
        <path fill="url(#bA)" d="m28 187-1-1v-1a1 1 0 0 0-1 0h-2l-1-1-1 1h-1l-3-2-1-2a16 16 0 0 1 0-7h-1a9 9 0 0 0-1 1l-2 4-1 7v2h1l5-1h10Z"/>
        <path fill="url(#bB)" fill-rule="evenodd" d="m92 82-4 8h-6l-5 1 2-7 5-2h8Z" clip-rule="evenodd"/>
        <path fill="#fff" fill-rule="evenodd" d="m92 82-1 2-9 2-3-1v-2l5-1h8Z" clip-rule="evenodd"/>
    </g>
    <defs>
        <linearGradient id="c" x1="18.4" x2="52.6" y1="105.4" y2="106.3" gradientUnits="userSpaceOnUse">
            <stop stop-color="#7A3D1C"/>
            <stop offset=".6" stop-color="#A76645"/>
            <stop offset=".9" stop-color="#BB7957"/>
        </linearGradient>
        <linearGradient id="d" x1="45.9" x2="24.6" y1="102.7" y2="83.1" gradientUnits="userSpaceOnUse">
            <stop offset=".1" stop-color="#723D24" stop-opacity=".2"/>
            <stop offset=".8" stop-color="#4C1F18"/>
        </linearGradient>
        <linearGradient id="e" x1="46.6" x2="23.2" y1="90" y2="89.4" gradientUnits="userSpaceOnUse">
            <stop stop-color="#5E2D1E" stop-opacity=".6"/>
            <stop offset="1" stop-color="#341518"/>
        </linearGradient>
        <linearGradient id="f" x1="49.2" x2="75.8" y1="52.1" y2="80.1" gradientUnits="userSpaceOnUse">
            <stop stop-color="#112C31"/>
            <stop offset="1" stop-color="#1E4E56"/>
        </linearGradient>
        <linearGradient id="g" x1="42.9" x2=".5" y1="158.2" y2="166.3" gradientUnits="userSpaceOnUse">
            <stop stop-color="#FFDFD0"/>
            <stop offset=".7" stop-color="#FFC8AE"/>
        </linearGradient>
        <linearGradient id="h" x1="24.1" x2="11.6" y1="187.6" y2="179" gradientUnits="userSpaceOnUse">
            <stop stop-color="#E5967E"/>
            <stop offset="1" stop-color="#F6A27E"/>
        </linearGradient>
        <linearGradient id="i" x1="16.8" x2="-5.4" y1="210.3" y2="199.1" gradientUnits="userSpaceOnUse">
            <stop stop-color="#E5967E" stop-opacity=".2"/>
            <stop offset="1" stop-color="#F6A27E"/>
        </linearGradient>
        <linearGradient id="j" x1="29.6" x2="-18.8" y1="156.9" y2="133.8" gradientUnits="userSpaceOnUse">
            <stop stop-color="#FFDFD0"/>
            <stop offset="1" stop-color="#FFC8AE"/>
        </linearGradient>
        <linearGradient id="k" x1="4.2" x2="30.1" y1="107.3" y2="107.9" gradientUnits="userSpaceOnUse">
            <stop stop-color="#FFDFD0"/>
            <stop offset="1" stop-color="#fff"/>
        </linearGradient>
        <linearGradient id="l" x1="26.4" x2="-22.1" y1="163.7" y2="140.6" gradientUnits="userSpaceOnUse">
            <stop stop-color="#E5967E"/>
            <stop offset="1" stop-color="#F6A27E"/>
        </linearGradient>
        <linearGradient id="m" x1="13.5" x2="-7.6" y1="170.7" y2="132" gradientUnits="userSpaceOnUse">
            <stop stop-color="#E5967E" stop-opacity=".2"/>
            <stop offset="1" stop-color="#F6A27E"/>
        </linearGradient>
        <linearGradient id="n" x1="20.8" x2="50.5" y1="82.2" y2="83" gradientUnits="userSpaceOnUse">
            <stop stop-color="#7A3D1C"/>
            <stop offset=".6" stop-color="#A76645"/>
            <stop offset=".9" stop-color="#BB7957"/>
        </linearGradient>
        <linearGradient id="o" x1="52.9" x2="35.5" y1="86.9" y2="70.9" gradientUnits="userSpaceOnUse">
            <stop offset=".1" stop-color="#723D24" stop-opacity=".2"/>
            <stop offset="1" stop-color="#683E2D"/>
        </linearGradient>
        <linearGradient id="p" x1="20.9" x2="50.5" y1="81.8" y2="82.5" gradientUnits="userSpaceOnUse">
            <stop stop-color="#7A3D1C"/>
            <stop offset=".6" stop-color="#A76645"/>
            <stop offset=".9" stop-color="#BB7957"/>
        </linearGradient>
        <linearGradient id="q" x1="41.9" x2="24.5" y1="98.9" y2="82.8" gradientUnits="userSpaceOnUse">
            <stop offset=".1" stop-color="#723D24" stop-opacity=".2"/>
            <stop offset="1" stop-color="#683E2D"/>
        </linearGradient>
        <linearGradient id="r" x1="-15.7" x2="34.4" y1="43.3" y2="95.9" gradientUnits="userSpaceOnUse">
            <stop stop-color="#112C31"/>
            <stop offset="1" stop-color="#1E4E56"/>
        </linearGradient>
        <linearGradient id="s" x1="-15.6" x2="34.5" y1="43.2" y2="95.8" gradientUnits="userSpaceOnUse">
            <stop stop-color="#112C31"/>
            <stop offset="1" stop-color="#1E4E56"/>
        </linearGradient>
        <linearGradient id="t" x1="-14.9" x2="35.1" y1="42.6" y2="95.2" gradientUnits="userSpaceOnUse">
            <stop stop-color="#112C31"/>
            <stop offset="1" stop-color="#1E4E56"/>
        </linearGradient>
        <linearGradient id="u" x1="17.8" x2="53.3" y1="80.3" y2="81.2" gradientUnits="userSpaceOnUse">
            <stop stop-color="#54261D"/>
            <stop offset=".3" stop-color="#74402F"/>
            <stop offset=".7" stop-color="#A7694B"/>
            <stop offset=".9" stop-color="#BB7957"/>
        </linearGradient>
        <linearGradient id="v" x1="1.1" x2="51.2" y1="27.3" y2="80" gradientUnits="userSpaceOnUse">
            <stop stop-color="#112C31"/>
            <stop offset="1" stop-color="#1E4E56"/>
        </linearGradient>
        <linearGradient id="w" x1="20.5" x2="43.8" y1="74.5" y2="62.6" gradientUnits="userSpaceOnUse">
            <stop stop-color="#754130"/>
            <stop offset=".6" stop-color="#A7694C"/>
            <stop offset=".9" stop-color="#BB7957"/>
        </linearGradient>
        <linearGradient id="y" x1="33" x2="25.2" y1="65.7" y2="67.4" gradientUnits="userSpaceOnUse">
            <stop stop-color="#A56543"/>
            <stop offset=".1" stop-color="#A76745"/>
            <stop offset="1" stop-color="#BB7957"/>
        </linearGradient>
        <linearGradient id="z" x1="33" x2="25.3" y1="65.7" y2="67.4" gradientUnits="userSpaceOnUse">
            <stop stop-color="#A56543"/>
            <stop offset=".1" stop-color="#A76745"/>
            <stop offset="1" stop-color="#BB7957"/>
        </linearGradient>
        <linearGradient id="A" x1="33" x2="25.3" y1="65.7" y2="67.4" gradientUnits="userSpaceOnUse">
            <stop stop-color="#A56543"/>
            <stop offset=".1" stop-color="#A76745"/>
            <stop offset="1" stop-color="#BB7957"/>
        </linearGradient>
        <linearGradient id="B" x1="18.9" x2="13.1" y1="69.8" y2="69.6" gradientUnits="userSpaceOnUse">
            <stop stop-color="#7A3D1C"/>
            <stop offset="1" stop-color="#562B14"/>
        </linearGradient>
        <linearGradient id="C" x1="52.9" x2="55.2" y1="68.6" y2="68.6" gradientUnits="userSpaceOnUse">
            <stop stop-color="#A66644"/>
            <stop offset="1" stop-color="#B47250"/>
        </linearGradient>
        <linearGradient id="D" x1="32" x2="44.1" y1="68.7" y2="69" gradientUnits="userSpaceOnUse">
            <stop stop-color="#643326"/>
            <stop offset=".1" stop-color="#703D2C"/>
            <stop offset=".4" stop-color="#92573E"/>
            <stop offset=".6" stop-color="#B2714F"/>
        </linearGradient>
        <linearGradient id="E" x1="29" x2="35.8" y1="77.2" y2="75.5" gradientUnits="userSpaceOnUse">
            <stop stop-color="#D2A790"/>
            <stop offset=".1" stop-color="#C59881"/>
            <stop offset=".7" stop-color="#9A654E"/>
            <stop offset="1" stop-color="#8A523B"/>
        </linearGradient>
        <linearGradient id="F" x1="30.2" x2="44.6" y1="81.3" y2="81.7" gradientUnits="userSpaceOnUse">
            <stop stop-color="#633326"/>
            <stop offset="0" stop-color="#663629"/>
            <stop offset=".7" stop-color="#D2A798"/>
            <stop offset="1" stop-color="#59281B"/>
        </linearGradient>
        <linearGradient id="G" x1="31.4" x2="43.7" y1="84" y2="84.4" gradientUnits="userSpaceOnUse">
            <stop stop-color="#633326"/>
            <stop offset="1" stop-color="#59281B"/>
        </linearGradient>
        <linearGradient id="I" x1="52.6" x2="45.3" y1="69.9" y2="71.6" gradientUnits="userSpaceOnUse">
            <stop stop-color="#D2A790"/>
            <stop offset="1" stop-color="#C79175"/>
        </linearGradient>
        <linearGradient id="J" x1="7.3" x2="15.5" y1="68.7" y2="70.1" gradientUnits="userSpaceOnUse">
            <stop stop-color="#D2A790"/>
            <stop offset="1" stop-color="#C79175"/>
        </linearGradient>
        <linearGradient id="K" x1="20" x2="20.3" y1="54.4" y2="41.8" gradientUnits="userSpaceOnUse">
            <stop stop-color="#633326" stop-opacity="0"/>
            <stop offset=".2" stop-color="#623225" stop-opacity=".1"/>
            <stop offset=".4" stop-color="#603023" stop-opacity=".2"/>
            <stop offset=".7" stop-color="#5E2D20" stop-opacity=".5"/>
            <stop offset=".9" stop-color="#5A291C" stop-opacity=".8"/>
            <stop offset="1" stop-color="#59281B"/>
        </linearGradient>
        <linearGradient id="L" x1="35" x2="35.3" y1="54.8" y2="42.2" gradientUnits="userSpaceOnUse">
            <stop stop-color="#633326" stop-opacity="0"/>
            <stop offset=".2" stop-color="#623225" stop-opacity=".1"/>
            <stop offset=".4" stop-color="#603023" stop-opacity=".2"/>
            <stop offset=".7" stop-color="#5E2D20" stop-opacity=".5"/>
            <stop offset=".9" stop-color="#5A291C" stop-opacity=".8"/>
            <stop offset="1" stop-color="#59281B"/>
        </linearGradient>
        <linearGradient id="M" x1="51.5" x2="16.4" y1="49.4" y2="48.5" gradientUnits="userSpaceOnUse">
            <stop offset=".3" stop-color="#633326" stop-opacity="0"/>
            <stop offset=".5" stop-color="#623225" stop-opacity="0"/>
            <stop offset=".6" stop-color="#613124" stop-opacity=".1"/>
            <stop offset=".7" stop-color="#5F2F22" stop-opacity=".3"/>
            <stop offset=".8" stop-color="#5D2C1F" stop-opacity=".6"/>
            <stop offset=".9" stop-color="#5A291C" stop-opacity=".9"/>
            <stop offset=".9" stop-color="#59281B"/>
        </linearGradient>
        <linearGradient id="N" x1="38" x2="42.3" y1="69.3" y2="67.2" gradientUnits="userSpaceOnUse">
            <stop stop-color="#D2A790"/>
            <stop offset="1" stop-color="#C79175"/>
        </linearGradient>
        <linearGradient id="O" x1="26.7" x2="32.8" y1="68.2" y2="67.1" gradientUnits="userSpaceOnUse">
            <stop stop-color="#A56543"/>
            <stop offset=".1" stop-color="#A76745"/>
            <stop offset="1" stop-color="#BB7957"/>
        </linearGradient>
        <linearGradient id="P" x1="62.7" x2="57.2" y1="66.1" y2="65.4" gradientUnits="userSpaceOnUse">
            <stop stop-color="#D2A790"/>
            <stop offset="1" stop-color="#C48B6E"/>
        </linearGradient>
        <linearGradient id="Q" x1="42.9" x2="51.7" y1="58.8" y2="61" gradientUnits="userSpaceOnUse">
            <stop stop-color="#112C31"/>
            <stop offset="1" stop-color="#15373D"/>
        </linearGradient>
        <linearGradient id="R" x1="23" x2="32.5" y1="61.4" y2="60.4" gradientUnits="userSpaceOnUse">
            <stop stop-color="#112C31"/>
            <stop offset="1" stop-color="#15373D"/>
        </linearGradient>
        <linearGradient id="S" x1="-4.1" x2="69.4" y1="46.5" y2="48.4" gradientUnits="userSpaceOnUse">
            <stop stop-color="#112C31"/>
            <stop offset=".5" stop-color="#173C42"/>
        </linearGradient>
        <linearGradient id="T" x1="39" x2="48.7" y1="202.3" y2="128.8" gradientUnits="userSpaceOnUse">
            <stop stop-color="#881C1B" stop-opacity=".3"/>
            <stop offset=".9" stop-color="#323A45"/>
        </linearGradient>
        <linearGradient id="U" x1="90.8" x2="66.3" y1="125" y2="138.3" gradientUnits="userSpaceOnUse">
            <stop stop-color="#FFDFD0"/>
            <stop offset=".5" stop-color="#FFC8AE"/>
        </linearGradient>
        <linearGradient id="V" x1="20.8" x2="84.5" y1="133.8" y2="200.8" gradientUnits="userSpaceOnUse">
            <stop stop-color="#FFDFD0"/>
            <stop offset=".7" stop-color="#FFC8AE"/>
        </linearGradient>
        <linearGradient id="W" x1="41.3" x2="62.8" y1="106.1" y2="106.6" gradientUnits="userSpaceOnUse">
            <stop stop-color="#FFDFD0"/>
            <stop offset="1" stop-color="#fff"/>
        </linearGradient>
        <linearGradient id="X" x1="56.5" x2="74.4" y1="135.8" y2="135.7" gradientUnits="userSpaceOnUse">
            <stop stop-color="#FFE9DF"/>
            <stop offset="1" stop-color="#fff"/>
        </linearGradient>
        <linearGradient id="Y" x1="59.4" x2="75.8" y1="149.9" y2="149.3" gradientUnits="userSpaceOnUse">
            <stop stop-color="#FFE9DF"/>
            <stop offset="1" stop-color="#fff"/>
        </linearGradient>
        <linearGradient id="Z" x1="80.6" x2="83.9" y1="192" y2="191.3" gradientUnits="userSpaceOnUse">
            <stop stop-color="#834C30"/>
            <stop offset="1" stop-color="#5C2E15"/>
        </linearGradient>
        <linearGradient id="aa" x1="85.1" x2="91" y1="189.7" y2="188.4" gradientUnits="userSpaceOnUse">
            <stop stop-color="#834C30"/>
            <stop offset="1" stop-color="#5C2E15"/>
        </linearGradient>
        <linearGradient id="ab" x1="17.8" x2="91.5" y1="162.7" y2="163.6" gradientUnits="userSpaceOnUse">
            <stop stop-color="#623117"/>
            <stop offset="1" stop-color="#4A2511"/>
        </linearGradient>
        <linearGradient id="ac" x1="72.9" x2="101.8" y1="167.1" y2="166.4" gradientUnits="userSpaceOnUse">
            <stop stop-color="#623117"/>
            <stop offset="1" stop-color="#4A2511"/>
        </linearGradient>
        <linearGradient id="ad" x1="36.8" x2="47.2" y1="168.2" y2="168.5" gradientUnits="userSpaceOnUse">
            <stop stop-color="#7A3D1C"/>
            <stop offset="1" stop-color="#4A2511"/>
        </linearGradient>
        <linearGradient id="ae" x1="52.1" x2="62.5" y1="167.8" y2="168.1" gradientUnits="userSpaceOnUse">
            <stop stop-color="#7A3D1C"/>
            <stop offset="1" stop-color="#4A2511"/>
        </linearGradient>
        <linearGradient id="af" x1="63.3" x2="78.5" y1="167.1" y2="167.4" gradientUnits="userSpaceOnUse">
            <stop stop-color="#7A3D1C"/>
            <stop offset="1" stop-color="#4A2511"/>
        </linearGradient>
        <linearGradient id="ag" x1="78.2" x2="93.7" y1="168.5" y2="168.9" gradientUnits="userSpaceOnUse">
            <stop stop-color="#7A3D1C"/>
            <stop offset="1" stop-color="#4A2511"/>
        </linearGradient>
        <linearGradient id="ah" x1="74.3" x2="74.4" y1="171.6" y2="167" gradientUnits="userSpaceOnUse">
            <stop offset=".3" stop-color="#E07242"/>
            <stop offset=".5" stop-color="#DB6F41"/>
            <stop offset=".6" stop-color="#CE6841"/>
            <stop offset=".8" stop-color="#B95C40"/>
            <stop offset=".9" stop-color="#9B4B3F"/>
            <stop offset="1" stop-color="#91463F"/>
        </linearGradient>
        <linearGradient id="ai" x1="56.3" x2="66" y1="162.3" y2="162.5" gradientUnits="userSpaceOnUse">
            <stop stop-color="#E07242"/>
            <stop offset=".6" stop-color="#E17343"/>
            <stop offset="1" stop-color="#FF9C6C"/>
        </linearGradient>
        <linearGradient id="aj" x1="56.1" x2="66.3" y1="169.8" y2="170.1" gradientUnits="userSpaceOnUse">
            <stop stop-color="#E07242"/>
            <stop offset=".6" stop-color="#E17343"/>
            <stop offset="1" stop-color="#FF9C6C"/>
        </linearGradient>
        <linearGradient id="ak" x1="48" x2="48.1" y1="171" y2="166.6" gradientUnits="userSpaceOnUse">
            <stop stop-color="#E07242"/>
            <stop offset=".1" stop-color="#CA6541"/>
            <stop offset=".3" stop-color="#B15740"/>
            <stop offset=".4" stop-color="#9F4D3F"/>
            <stop offset=".6" stop-color="#94473F"/>
            <stop offset=".8" stop-color="#91463F"/>
        </linearGradient>
        <linearGradient id="al" x1="74.1" x2="92.2" y1="164.3" y2="164.7" gradientUnits="userSpaceOnUse">
            <stop stop-color="#E07242"/>
            <stop offset=".6" stop-color="#E17343"/>
            <stop offset="1" stop-color="#FF9C6C"/>
        </linearGradient>
        <linearGradient id="am" x1="34.1" x2="46.5" y1="163.3" y2="163.6" gradientUnits="userSpaceOnUse">
            <stop stop-color="#FF814D"/>
            <stop offset="1" stop-color="#FF9C6C"/>
        </linearGradient>
        <linearGradient id="an" x1="62.2" x2="64.1" y1="190.1" y2="168.4" gradientUnits="userSpaceOnUse">
            <stop offset=".1" stop-color="#D8E0D4"/>
            <stop offset=".2" stop-color="#E3E8E0"/>
            <stop offset=".3" stop-color="#F2F5F1"/>
            <stop offset=".5" stop-color="#FCFCFB"/>
            <stop offset=".7" stop-color="#fff"/>
        </linearGradient>
        <linearGradient id="ao" x1="42.7" x2="58.4" y1="165.7" y2="166" gradientUnits="userSpaceOnUse">
            <stop offset=".3" stop-color="#E07242"/>
            <stop offset=".5" stop-color="#DB6F41"/>
            <stop offset=".7" stop-color="#CE6841"/>
            <stop offset=".9" stop-color="#B95C40"/>
            <stop offset="1" stop-color="#AD5540"/>
        </linearGradient>
        <linearGradient id="ap" x1="70.6" x2="79.4" y1="162.8" y2="150.7" gradientUnits="userSpaceOnUse">
            <stop offset=".3" stop-color="#FF814D"/>
            <stop offset="1" stop-color="#FF9C6C"/>
        </linearGradient>
        <linearGradient id="aq" x1="57.6" x2="71.1" y1="168.4" y2="163.5" gradientUnits="userSpaceOnUse">
            <stop offset=".7" stop-color="#FF9665"/>
            <stop offset="1" stop-color="#FFA87E"/>
        </linearGradient>
        <linearGradient id="ar" x1="59.1" x2="61.2" y1="163.8" y2="163.9" gradientUnits="userSpaceOnUse">
            <stop stop-color="#7A3D1C"/>
            <stop offset="1" stop-color="#4A2511"/>
        </linearGradient>
        <linearGradient id="as" x1="51.8" x2="53.4" y1="159.1" y2="159.1" gradientUnits="userSpaceOnUse">
            <stop stop-color="#7A3D1C"/>
            <stop offset="1" stop-color="#4A2511"/>
        </linearGradient>
        <linearGradient id="at" x1="62.3" x2="64.1" y1="167.3" y2="167.3" gradientUnits="userSpaceOnUse">
            <stop stop-color="#7A3D1C"/>
            <stop offset="1" stop-color="#4A2511"/>
        </linearGradient>
        <linearGradient id="au" x1="70" x2="71.2" y1="166.3" y2="166.3" gradientUnits="userSpaceOnUse">
            <stop stop-color="#7A3D1C"/>
            <stop offset="1" stop-color="#4A2511"/>
        </linearGradient>
        <linearGradient id="av" x1="57.5" x2="58.7" y1="170.2" y2="170.2" gradientUnits="userSpaceOnUse">
            <stop stop-color="#623117"/>
            <stop offset="1" stop-color="#4A2511"/>
        </linearGradient>
        <linearGradient id="aw" x1="69.3" x2="70.5" y1="170.3" y2="170.3" gradientUnits="userSpaceOnUse">
            <stop stop-color="#7A3D1C"/>
            <stop offset="1" stop-color="#4A2511"/>
        </linearGradient>
        <linearGradient id="ax" x1="53.3" x2="54.5" y1="169.8" y2="169.9" gradientUnits="userSpaceOnUse">
            <stop stop-color="#623117"/>
            <stop offset="1" stop-color="#4A2511"/>
        </linearGradient>
        <linearGradient id="ay" x1="57.5" x2="58.6" y1="166.5" y2="166.6" gradientUnits="userSpaceOnUse">
            <stop stop-color="#7A3D1C"/>
            <stop offset="1" stop-color="#4A2511"/>
        </linearGradient>
        <linearGradient id="az" x1="73.6" x2="74.7" y1="161.6" y2="161.6" gradientUnits="userSpaceOnUse">
            <stop stop-color="#7A3D1C"/>
            <stop offset="1" stop-color="#4A2511"/>
        </linearGradient>
        <linearGradient id="aA" x1="41.4" x2="42.5" y1="158.5" y2="158.6" gradientUnits="userSpaceOnUse">
            <stop stop-color="#7A3D1C"/>
            <stop offset="1" stop-color="#4A2511"/>
        </linearGradient>
        <linearGradient id="aB" x1="87.2" x2="88.4" y1="162.6" y2="162.6" gradientUnits="userSpaceOnUse">
            <stop stop-color="#7A3D1C"/>
            <stop offset="1" stop-color="#4A2511"/>
        </linearGradient>
        <linearGradient id="aC" x1="38.6" x2="39.5" y1="161.3" y2="161.3" gradientUnits="userSpaceOnUse">
            <stop stop-color="#7A3D1C"/>
            <stop offset="1" stop-color="#4A2511"/>
        </linearGradient>
        <linearGradient id="aD" x1="68.3" x2="69.8" y1="161.1" y2="160.3" gradientUnits="userSpaceOnUse">
            <stop stop-color="#7A3D1C"/>
            <stop offset="1" stop-color="#4A2511"/>
        </linearGradient>
        <linearGradient id="aE" x1="87.7" x2="89.2" y1="161.5" y2="160.7" gradientUnits="userSpaceOnUse">
            <stop stop-color="#7A3D1C"/>
            <stop offset="1" stop-color="#4A2511"/>
        </linearGradient>
        <linearGradient id="aF" x1="76" x2="77.5" y1="165" y2="164.2" gradientUnits="userSpaceOnUse">
            <stop stop-color="#7A3D1C"/>
            <stop offset="1" stop-color="#4A2511"/>
        </linearGradient>
        <linearGradient id="aG" x1="70" x2="71.9" y1="166.5" y2="165.5" gradientUnits="userSpaceOnUse">
            <stop stop-color="#7A3D1C"/>
            <stop offset="1" stop-color="#4A2511"/>
        </linearGradient>
        <linearGradient id="aH" x1="90.4" x2="92.3" y1="165.1" y2="164.1" gradientUnits="userSpaceOnUse">
            <stop stop-color="#7A3D1C"/>
            <stop offset="1" stop-color="#4A2511"/>
        </linearGradient>
        <linearGradient id="aI" x1="81.4" x2="79.1" y1="151.8" y2="152.9" gradientUnits="userSpaceOnUse">
            <stop stop-color="#7A3D1C"/>
            <stop offset="1" stop-color="#4A2511"/>
        </linearGradient>
        <linearGradient id="aJ" x1="39.6" x2="38.4" y1="162.8" y2="165.1" gradientUnits="userSpaceOnUse">
            <stop stop-color="#7A3D1C"/>
            <stop offset="1" stop-color="#4A2511"/>
        </linearGradient>
        <linearGradient id="aK" x1="84.3" x2="83.2" y1="163.2" y2="165.5" gradientUnits="userSpaceOnUse">
            <stop stop-color="#7A3D1C"/>
            <stop offset="1" stop-color="#4A2511"/>
        </linearGradient>
        <linearGradient id="aL" x1="61.9" x2="60.2" y1="188.7" y2="189.6" gradientUnits="userSpaceOnUse">
            <stop stop-color="#7A3D1C"/>
            <stop offset="1" stop-color="#4A2511"/>
        </linearGradient>
        <linearGradient id="aM" x1="79.4" x2="77.3" y1="156.6" y2="157.6" gradientUnits="userSpaceOnUse">
            <stop stop-color="#7A3D1C"/>
            <stop offset="1" stop-color="#4A2511"/>
        </linearGradient>
        <linearGradient id="aN" x1="71.5" x2="69.5" y1="153.1" y2="154.1" gradientUnits="userSpaceOnUse">
            <stop stop-color="#7A3D1C"/>
            <stop offset="1" stop-color="#4A2511"/>
        </linearGradient>
        <linearGradient id="aO" x1="68.6" x2="67.3" y1="157.5" y2="158.1" gradientUnits="userSpaceOnUse">
            <stop stop-color="#7A3D1C"/>
            <stop offset="1" stop-color="#4A2511"/>
        </linearGradient>
        <linearGradient id="aP" x1="82.3" x2="81" y1="159.9" y2="160.5" gradientUnits="userSpaceOnUse">
            <stop stop-color="#7A3D1C"/>
            <stop offset="1" stop-color="#4A2511"/>
        </linearGradient>
        <linearGradient id="aQ" x1="84.3" x2="83" y1="153.5" y2="154.1" gradientUnits="userSpaceOnUse">
            <stop stop-color="#7A3D1C"/>
            <stop offset="1" stop-color="#4A2511"/>
        </linearGradient>
        <linearGradient id="aR" x1="93.1" x2="91.8" y1="163.6" y2="164.2" gradientUnits="userSpaceOnUse">
            <stop stop-color="#7A3D1C"/>
            <stop offset="1" stop-color="#4A2511"/>
        </linearGradient>
        <linearGradient id="aS" x1="152.5" x2="150.5" y1="155.3" y2="155.3" gradientUnits="userSpaceOnUse">
            <stop stop-color="#7A3D1C"/>
            <stop offset="1" stop-color="#4A2511"/>
        </linearGradient>
        <linearGradient id="aT" x1="-66.3" x2="-67.2" y1="-110" y2="-111.7" gradientUnits="userSpaceOnUse">
            <stop stop-color="#7A3D1C"/>
            <stop offset="1" stop-color="#4A2511"/>
        </linearGradient>
        <linearGradient id="aU" x1="222.6" x2="220.1" y1="152.7" y2="152.7" gradientUnits="userSpaceOnUse">
            <stop stop-color="#7A3D1C"/>
            <stop offset="1" stop-color="#4A2511"/>
        </linearGradient>
        <linearGradient id="aV" x1="42.9" x2="58.5" y1="163.2" y2="163.6" gradientUnits="userSpaceOnUse">
            <stop offset=".3" stop-color="#FF9665"/>
            <stop offset="1" stop-color="#FFA87E"/>
        </linearGradient>
        <linearGradient id="aW" x1="45.7" x2="46.2" y1="161.3" y2="161.3" gradientUnits="userSpaceOnUse">
            <stop stop-color="#7A3D1C"/>
            <stop offset="1" stop-color="#4A2511"/>
        </linearGradient>
        <linearGradient id="aX" x1="90.3" x2="90.8" y1="162.5" y2="162.5" gradientUnits="userSpaceOnUse">
            <stop stop-color="#7A3D1C"/>
            <stop offset="1" stop-color="#4A2511"/>
        </linearGradient>
        <linearGradient id="aY" x1="62.2" x2="62.7" y1="170.8" y2="170.8" gradientUnits="userSpaceOnUse">
            <stop stop-color="#623117"/>
            <stop offset="1" stop-color="#4A2511"/>
        </linearGradient>
        <linearGradient id="aZ" x1="69.9" x2="70.5" y1="163.5" y2="163.5" gradientUnits="userSpaceOnUse">
            <stop stop-color="#7A3D1C"/>
            <stop offset="1" stop-color="#4A2511"/>
        </linearGradient>
        <linearGradient id="ba" x1="50.6" x2="51.5" y1="159.1" y2="159.2" gradientUnits="userSpaceOnUse">
            <stop stop-color="#7A3D1C"/>
            <stop offset="1" stop-color="#4A2511"/>
        </linearGradient>
        <linearGradient id="bb" x1="78.7" x2="79.6" y1="170.1" y2="170.1" gradientUnits="userSpaceOnUse">
            <stop stop-color="#7A3D1C"/>
            <stop offset="1" stop-color="#4A2511"/>
        </linearGradient>
        <linearGradient id="bc" x1="41.4" x2="42.3" y1="169.5" y2="169.5" gradientUnits="userSpaceOnUse">
            <stop stop-color="#623117"/>
            <stop offset="1" stop-color="#4A2511"/>
        </linearGradient>
        <linearGradient id="bd" x1="83.8" x2="84.7" y1="160.2" y2="160.3" gradientUnits="userSpaceOnUse">
            <stop stop-color="#7A3D1C"/>
            <stop offset="1" stop-color="#4A2511"/>
        </linearGradient>
        <linearGradient id="be" x1="73.3" x2="74.2" y1="168.3" y2="168.3" gradientUnits="userSpaceOnUse">
            <stop stop-color="#7A3D1C"/>
            <stop offset="1" stop-color="#4A2511"/>
        </linearGradient>
        <linearGradient id="bf" x1="56.2" x2="57.9" y1="162" y2="163.2" gradientUnits="userSpaceOnUse">
            <stop stop-color="#7A3D1C"/>
            <stop offset="1" stop-color="#4A2511"/>
        </linearGradient>
        <linearGradient id="bg" x1="60.8" x2="59" y1="191.9" y2="192.5" gradientUnits="userSpaceOnUse">
            <stop stop-color="#7A3D1C"/>
            <stop offset="1" stop-color="#4A2511"/>
        </linearGradient>
        <linearGradient id="bh" x1="90.6" x2="88.9" y1="196.3" y2="196.9" gradientUnits="userSpaceOnUse">
            <stop stop-color="#7A3D1C"/>
            <stop offset="1" stop-color="#4A2511"/>
        </linearGradient>
        <linearGradient id="bi" x1="57.4" x2="55.6" y1="190.2" y2="189.9" gradientUnits="userSpaceOnUse">
            <stop stop-color="#623117"/>
            <stop offset="1" stop-color="#4A2511"/>
        </linearGradient>
        <linearGradient id="bj" x1="12" x2="52.2" y1="188.1" y2="189.1" gradientUnits="userSpaceOnUse">
            <stop stop-color="#7A3D1C"/>
            <stop offset=".6" stop-color="#A76645"/>
            <stop offset=".9" stop-color="#BB7957"/>
        </linearGradient>
        <linearGradient id="bk" x1="12.2" x2="52.4" y1="179.9" y2="181" gradientUnits="userSpaceOnUse">
            <stop stop-color="#7A3D1C"/>
            <stop offset=".6" stop-color="#A76645"/>
            <stop offset=".9" stop-color="#BB7957"/>
        </linearGradient>
        <linearGradient id="bl" x1="30.2" x2="28" y1="187.6" y2="187.6" gradientUnits="userSpaceOnUse">
            <stop stop-color="#7A3D1C"/>
            <stop offset="1" stop-color="#4A2511"/>
        </linearGradient>
        <linearGradient id="bm" x1="27.2" x2="52" y1="190.4" y2="191" gradientUnits="userSpaceOnUse">
            <stop stop-color="#854A2A"/>
            <stop offset="1" stop-color="#BA7A5F"/>
        </linearGradient>
        <linearGradient id="bn" x1="35.9" x2="25.9" y1="170.1" y2="169.8" gradientUnits="userSpaceOnUse">
            <stop offset=".3" stop-color="#7A3D1C" stop-opacity=".2"/>
            <stop offset=".5" stop-color="#773D1E" stop-opacity=".3"/>
            <stop offset=".8" stop-color="#6F3D25" stop-opacity=".7"/>
            <stop offset="1" stop-color="#683E2D"/>
        </linearGradient>
        <linearGradient id="bo" x1="27.2" x2="40.8" y1="175.1" y2="175.5" gradientUnits="userSpaceOnUse">
            <stop stop-color="#7A3D1C"/>
            <stop offset="1" stop-color="#9D6648"/>
        </linearGradient>
        <linearGradient id="bp" x1="42.4" x2="29.7" y1="180.9" y2="180.6" gradientUnits="userSpaceOnUse">
            <stop offset=".3" stop-color="#7A3D1C" stop-opacity=".2"/>
            <stop offset=".5" stop-color="#773D1E" stop-opacity=".3"/>
            <stop offset=".8" stop-color="#6F3D25" stop-opacity=".7"/>
            <stop offset="1" stop-color="#683E2D"/>
        </linearGradient>
        <linearGradient id="bq" x1="27.2" x2="44.6" y1="185.5" y2="185.9" gradientUnits="userSpaceOnUse">
            <stop stop-color="#7A3D1C"/>
            <stop offset="1" stop-color="#9D6648"/>
        </linearGradient>
        <linearGradient id="br" x1="42.7" x2="38.3" y1="189.3" y2="189.2" gradientUnits="userSpaceOnUse">
            <stop stop-color="#7A3D1C" stop-opacity="0"/>
            <stop offset="0" stop-color="#703819" stop-opacity=".2"/>
            <stop offset=".1" stop-color="#623116" stop-opacity=".5"/>
            <stop offset=".2" stop-color="#572B14" stop-opacity=".7"/>
            <stop offset=".3" stop-color="#4F2712" stop-opacity=".9"/>
            <stop offset=".5" stop-color="#4B2511"/>
            <stop offset="1" stop-color="#4A2511"/>
        </linearGradient>
        <linearGradient id="bs" x1="50" x2="17" y1="191" y2="175.3" gradientUnits="userSpaceOnUse">
            <stop stop-color="#763D20" stop-opacity=".3"/>
            <stop offset=".4" stop-color="#723D24" stop-opacity=".5"/>
            <stop offset=".6" stop-color="#7A3D1C" stop-opacity=".2"/>
            <stop offset=".7" stop-color="#793D1C" stop-opacity=".2"/>
            <stop offset=".8" stop-color="#783D1D" stop-opacity=".3"/>
            <stop offset=".9" stop-color="#773D1E" stop-opacity=".4"/>
            <stop offset=".9" stop-color="#743D21" stop-opacity=".5"/>
            <stop offset=".9" stop-color="#723D24" stop-opacity=".7"/>
            <stop offset="1" stop-color="#683E2D"/>
        </linearGradient>
        <linearGradient id="bt" x1="26.2" x2="26.1" y1="184.8" y2="184.8" gradientUnits="userSpaceOnUse">
            <stop stop-color="#7A3D1C"/>
            <stop offset="1" stop-color="#4A2511"/>
        </linearGradient>
        <linearGradient id="bu" x1="26" x2="25.9" y1="184.8" y2="184.8" gradientUnits="userSpaceOnUse">
            <stop stop-color="#7A3D1C"/>
            <stop offset="1" stop-color="#4A2511"/>
        </linearGradient>
        <linearGradient id="bv" x1="26.3" x2="26.3" y1="184.9" y2="184.9" gradientUnits="userSpaceOnUse">
            <stop stop-color="#7A3D1C"/>
            <stop offset="1" stop-color="#4A2511"/>
        </linearGradient>
        <linearGradient id="bw" x1="26.7" x2="26.6" y1="185" y2="185" gradientUnits="userSpaceOnUse">
            <stop stop-color="#7A3D1C"/>
            <stop offset="1" stop-color="#4A2511"/>
        </linearGradient>
        <linearGradient id="bx" x1="26.8" x2="26.8" y1="185.1" y2="185.1" gradientUnits="userSpaceOnUse">
            <stop stop-color="#7A3D1C"/>
            <stop offset="1" stop-color="#4A2511"/>
        </linearGradient>
        <linearGradient id="by" x1="26.5" x2="26.4" y1="185" y2="185" gradientUnits="userSpaceOnUse">
            <stop stop-color="#7A3D1C"/>
            <stop offset="1" stop-color="#4A2511"/>
        </linearGradient>
        <linearGradient id="bz" x1="27.3" x2="27" y1="185.4" y2="185.4" gradientUnits="userSpaceOnUse">
            <stop stop-color="#7A3D1C"/>
            <stop offset="1" stop-color="#4A2511"/>
        </linearGradient>
        <linearGradient id="bA" x1="28.2" x2="11.7" y1="181.2" y2="180.7" gradientUnits="userSpaceOnUse">
            <stop stop-color="#7A3D1C"/>
            <stop offset="1" stop-color="#4A2511"/>
        </linearGradient>
        <linearGradient id="bB" x1="84.8" x2="79.1" y1="93.3" y2="83.6" gradientUnits="userSpaceOnUse">
            <stop stop-color="#FFE5DA"/>
            <stop offset="1" stop-color="#fff"/>
        </linearGradient>
        <radialGradient id="H" cx="0" cy="0" r="1" gradientTransform="matrix(-.01241 -4.25843 12.63975 -.03684 38 83)" gradientUnits="userSpaceOnUse">
            <stop stop-color="#D48C8F"/>
            <stop offset=".2" stop-color="#B77374"/>
            <stop offset=".6" stop-color="#8B4D4B"/>
            <stop offset=".7" stop-color="#7B3F3C"/>
            <stop offset=".8" stop-color="#834442"/>
            <stop offset=".9" stop-color="#995454"/>
            <stop offset="1" stop-color="#B5686A"/>
        </radialGradient>
        <clipPath id="a">
            <path fill="#fff" d="M0 0h112v212H0z" transform="rotate(1 -433 -470)"/>
        </clipPath>
    </defs>
</svg>
