<svg width="104" height="219" fill="none" xmlns="http://www.w3.org/2000/svg"><mask id="a" style="mask-type:alpha" maskUnits="userSpaceOnUse" x="-17" y="0" width="121" height="219"><path d="M-17 .564h120.947V219H17.8093c-11.0457 0-20-8.954-20-20v-2.368L-17 185.797V.564Z" fill="#D9D9D9"/></mask><g clip-path="url(#b)" mask="url(#a)"><path d="M49.7335 92.823c-.5103-2.9489-1.0206-5.9007-1.5338-8.8497-.064-.3753-.1309-.7506-.1949-1.1258-.184.1836-.368.3672-.555.5507-.6536 1.3132-1.3712 2.5983-2.3198 3.7157-1.1819 1.3939-2.7745 2.5185-4.5779 2.7964-1.8537.2884-3.7226-.3297-5.4628-1.0387-4.1844-1.7093-8.1245-4.0156-11.6726-6.8179-.2294 1.2768-.4558 2.5537-.6851 3.8306-.3324 1.8626-.6678 3.7251-1.0001 5.5877-.4387 2.4601-.8808 4.9377-.8588 7.4359.0392 4.2521 1.4168 8.3641 2.7817 12.3941 1.2172 3.596 2.4372 7.196 3.6544 10.792.5388 1.593 1.1087 3.238 2.2384 4.484 2.1737 2.397 5.7645 2.706 8.9949 2.849 1.019.047 2.1418.061 2.9314-.587 1.0028-.819 1.032-2.322.9177-3.61-.2743-3.099-.8992-6.168-.9821-9.277-.0829-3.109.4315-6.352 2.2131-8.902 1.8549-2.657 4.987-4.437 6.0962-7.4827.7774-2.1366.3993-4.5027.0122-6.7453h.0029Z" fill="url(#c)"/><path d="M23.9532 100.557c.973 3.602 2.7376 8.339 8.1717 9.347 5.279.978 10.1454-4.611 11.6052-8.734 1.9096-5.3971 2.3736-11.8692 4.4725-17.1938-.064-.3752-.131-.7505-.195-1.1228-.184.1836-.368.3672-.555.5508-.6536 1.3131-1.3712 2.5982-2.3197 3.7156-1.182 1.3939-2.7746 2.5185-4.578 2.7964-1.8537.2884-3.7226-.3297-5.4628-1.0387-4.1844-1.7093-8.1244-4.0156-11.6726-6.8179-.2294 1.2768-.4558 2.5537-.6851 3.8306-.4557 4.5219.7054 12.7679 1.2187 14.6728l.0001-.006Z" fill="url(#d)"/><path d="M23.3509 83.8348s-.1985 4.9285 8.118 10.0699c2.8396 1.7576 6.1822 2.1159 9.7512-.0794 3.569-2.1954 5.4216-6.4995 5.4216-6.4995l-23.2908-3.491Z" fill="url(#e)"/><path d="M27.1044 118.897s5.0704 11.996 13.4508 7.422c8.3804-4.574 6.9926-9.905 6.9926-9.905l1.091 71.333-7.579 36.175-12.4271-1.527L27.1043 118.9l.0001-.003Z" fill="#FF5647"/><path d="m62.5711 66.0892.0031.0001-.003-.0032h-.0031l.003.0031Z" fill="url(#f)"/><path d="M8.7245 100.756c-.8019 16.79-8.3933 15.291-9.1952 32.081-.306 6.394 6.1696 31.152 4.3266 37.283-1.1622 3.863-2.9104 7.531-4.0259 11.406-1.738 6.055-1.8792 12.435-2.0065 18.733l-.2984 14.673c-.043 2.043-.0204 10.46 2.0042 10.735l37.26-1.794c6.6797-16.352-3.6643-34.53-2.8938-51.939.4962-11.228.0208-22.513-1.9362-33.577-2.0624-11.658-7.8203-22.283-13.4958-32.673-.9329-1.707-1.9028-3.458-3.4244-4.67-1.5217-1.2099-3.7484-1.7488-5.4284-.773-1.68.975-2.1646 3.743-.585 4.874" fill="url(#g)"/><path opacity=".49" d="M24.7128 185.652c1.0267-7.596-1.0164-14.142-4.5633-14.622-3.5469-.48-7.2545 5.288-8.2812 12.884s1.0163 14.142 4.5632 14.622c3.5469.48 7.2546-5.288 8.2813-12.884Z" fill="url(#h)"/><path d="M9.675 193.756c-.9913-1.955-1.6768-4.138-3.2313-5.678-1.9846-1.968-4.7467-2.379-7.6086-2.678-.2672 1.496-.4613 3.003-.6056 4.521l-.5127 19.185c-.0106.418-.0752.996-.1657 1.667l-.0698 3.449c-.0462 2.288.0635 9.94 2.3283 10.248 5.7076.777 12.9815-4.138 18.6891-3.361-1.5008-2.035-5.5489-9.243-5.0049-8.317.6738 1.138 4.6904 6.574 5.9059 6.06 1.0164-.43-1.4639-9.525-1.8314-10.566-1.1876-3.372-1.8828-6.914-2.0775-10.485-.2744.155-4.8305-2.09-5.8188-4.045h.003Z" fill="url(#i)"/><path d="M8.9352 98.2435c-4.2505 2.1725-5.7619 4.2665-12.0804 7.5275-4.2421 2.191-7.7457 4.705-9.5104 9.141-1.6359 4.11-1.9642 11.609-2.1614 16.026-.5242 11.633-.8869 23.28-.9439 34.925-.0179 3.489.001 7.034.9893 10.38.9883 3.347 3.0923 6.524 6.2476 8.005 4.7244 2.217 11.1281.464 14.8364 4.141 1.5544 1.543 2.243 3.726 3.2313 5.678.9884 1.952 2.6003 3.893 4.7802 4.072-2.376-5.55-2.9809-11.843-1.7024-17.745.506-2.331 1.3296-4.667 2.9067-6.457 1.5743-1.793 4.0176-2.958 6.3614-2.516-2.8844-1.847-6.5382-1.76-9.9554-1.955-3.4173-.196-7.7859-4.967-7.7893-5.293 1.1109-11.816 1.0592-9.314 1.1591-22.535.1165-15.153-.1577-20.459 1.1298-25.554.771-3.046 2.7752-12.985 2.9899-16.1189l-1.4532 2.1199" fill="url(#j)"/><path d="M21.9266 94.7984c-.3925 11.5426 3.8559 22.3296 7.6474 34.3226-4.2422-4.185-6.1656-11.471-8.5974-16.91l-1.3993-3.136c-.9042-2.027-2.018-4.25-4.1134-4.979-.9966-.349-2.0887-.297-3.1357-.168-2.8106.343-5.5578 1.203-8.0611 2.532.465-.248 1.0483-2.269 1.3141-2.783.5038-.966 1.0423-1.915 1.6214-2.839a42.7426 42.7426 0 0 1 3.8788-5.2554 41.793 41.793 0 0 1 4.6442-4.5952 42.181 42.181 0 0 1 2.4956-1.9548c.4882-.3525 4.1637-3.0364 4.2744-2.4188.1601.8749-.428 4.0136-.5689 8.1816l-.0001.003Z" fill="url(#k)"/><path opacity=".26" d="M12.5433 180.466c.5059-2.332 1.3295-4.667 2.9067-6.457.1605-.185.3354-.36.5132-.529.3552-.909-.043-1.204-1.6346-1.047-2.3256.232-7.3338 6.198-9.04 4.848-1.7064-1.349.0256-1.014-1.7659-1.786s-5.4988 2.473-6.385.2c-.8862-2.27.9157-1.789 1.2653-4.101.3497-2.312-6.0475 1.153-8.0472 2.914-2.0028 1.762-3.4409-4.367-3.1941-8.424.2469-4.056 1.4601-14.687 2.9307-18.424 1.4706-3.734.3093-29.37 1.7076-35.936.3268-1.527 1.062-2.929 1.9994-4.185-2.878 1.845-5.1989 4.095-6.5303 7.442-1.6359 4.109-1.9641 11.609-2.1614 16.028-.5242 11.634-.887 23.28-.944 34.926-.0178 3.488.0011 7.034.9894 10.38.9883 3.346 3.0922 6.524 6.2476 8.004 4.7243 2.218 11.128.465 14.8364 4.142 1.5544 1.543 2.243 3.725 3.2313 5.677.9912 1.955 2.6003 3.894 4.7802 4.072-2.376-5.549-2.981-11.843-1.7024-17.744h-.0029Z" fill="url(#l)"/><path d="m4.859 130.771-.0363 15.821-1.9962-2.44c-.4592-.558-1.3628-.172-1.2751.545l1.4302 11.895c.294 2.437.3727 4.551-1.6556 5.933-1.2476.851-2.8871 1.621-4.3568 1.957-1.4698.337-3.0472 1.559-2.7141 3.032 3.2907.316 6.9692-3.065 10.087-1.962.9442.333.7899.273 1.5435.93 2.7962 2.428 6.739 3.466 10.365 2.734-1.4408-.225-1.9931-2.098-1.6631-3.519.4324-1.866 1.7963-3.476 1.3229-5.562-.1985-.87-.9012-1.565-1.7904-1.628-1.3823-.097-2.0401 1.263-2.7544 2.301-.644.934-1.9993 1.744-2.8232.961 1.1084-11.254-.3766-24.701-2.2653-36.369-.1117-.697-1.1395-.629-1.1545.077-.016.629-.2607 5.297-.2607 5.297l-.0028-.003Z" fill="url(#m)"/><path d="M47.9332 82.4191c-.1583.3284-.3165.6568-.4777.9822.1869-.1806.3709-.3642.555-.5508-.0258-.1448-.0486-.2895-.0744-.4314h-.0029Z" fill="url(#n)"/><path d="M49.0035 81.8372c-.329.3388-.661.6775-.9959 1.0132.064.3753.131.7506.195 1.1229a62.2565 62.2565 0 0 0 .8009-2.1361Z" fill="url(#o)"/><path d="M23.0447 81.7589c.1239.1002.2508.1976.3748.2948.024-.1376.0481-.2753.0752-.4158l-.4499.118-.0001.003Z" fill="url(#p)"/><path d="M23.0447 81.7589c.1239.1002.2508.1976.3748.2948.024-.1376.0481-.2753.0752-.4158l-.4499.118-.0001.003Z" fill="url(#q)"/><path d="m19.8854 81.4847-.1665.1899c1.5926-.1979.5299-.6073 1.2775-.8737-.0507-.0866-.1044-.1733-.1522-.2598-.2265.3531-.5579.6684-.9588.9436Z" fill="url(#r)"/><path d="M20.8441 80.541c-.0169-.0298-.0367-.0598-.0535-.0925l-.9024 1.0362c.401-.2752.7324-.5904.9589-.9436l-.003-.0001Z" fill="url(#s)"/><path d="m21.0449 80.1579-.2544.2936c.0169.0298.0367.0598.0535.0925.0796-.1244.1505-.2521.2008-.3832l.0001-.0029Z" fill="url(#t)"/><path d="m21.0449 80.1579-.2544.2936c.0169.0298.0367.0598.0535.0925.0796-.1244.1505-.2521.2008-.3832l.0001-.0029Z" fill="url(#u)"/><path d="M52.437 59.3512c.2231-4.9749-2.2199-13.4505-4.2134-14.9543-1.9906-1.5008-5.7176-1.307-8.833-.4181-3.1155.8889-3.0525.261-5.8355-.4862-2.7829-.7471-8.3012-.4045-10.8166 1.5145 0 0-4.1139 2.1198-4.1703 10.1468-.0564 7.5591-1.6478 18.3802 2.2226 25.2916l.2544-.2936c-.0504.1311-.1213.2587-.2008.3832l.1521.2598c.1424-.0493.3465-.0971.6502-.1335-.3787-3.5016-.7573-7.0062-1.139-10.5078-.5-4.6314-.9836-9.4478.5654-13.8419 1.7232-4.8839 6.0231-8.773 11.055-9.9928 5.029-1.2199 10.6333.2665 14.4006 3.8187 3.5663 3.3647 5.3676 8.2733 5.8701 13.1548.4997 4.8785-.1836 9.7976-.9297 14.6446.0877.0198.1757.028.2639.0273 1.0387-2.4714 1.8127-4.9376 1.8658-7.0338.0968-3.8191-1.3788-6.613-1.1557-11.5879l-.0061.0086Z" fill="url(#v)"/><path d="M52.437 59.3512c.2231-4.9749-2.2199-13.4505-4.2134-14.9543-1.9906-1.5008-5.7176-1.307-8.833-.4181-3.1155.8889-3.0525.261-5.8355-.4862-2.7829-.7471-8.3012-.4045-10.8166 1.5145 0 0-4.1139 2.1198-4.1703 10.1468-.0564 7.5591-1.6478 18.3802 2.2226 25.2916l.2544-.2936c-.0504.1311-.1213.2587-.2008.3832l.1521.2598c.1805.3017.37.5978.5716.8824 4.8552 6.7952 7.8046 7.9349 10.2594 9.4474 3.5202 2.1692 7.3771 2.1845 9.4893 1.2084 3.2753-1.5115 5.1859-3.9313 7.5617-8.4633.9638-1.8378 1.9945-3.8739 2.8486-5.9057 1.0387-2.4713 1.8127-4.9376 1.8659-7.0338.0968-3.819-1.3789-6.6129-1.1558-11.5879l-.0002.0088Z" fill="url(#w)"/><path d="M32.8215 65.9352c.0501-.0046.0913-.0065.1208-.0087.0008-.0324-.0166-.0416-.0732-.0137-.0148.0055-.0415.0137-.0741.0246a2.283 2.283 0 0 0 .0265.0007v-.0029Z" fill="#4C1D0A"/><path d="M32.9991 65.925s-.0208-.0006-.0597.0014a.3969.3969 0 0 0 .0597-.0014Z" fill="url(#x)"/><path d="M32.9398 65.9293a1.1777 1.1777 0 0 0-.1209.0058c.0383.001.0796-.0039.1209-.0058Z" fill="#4C1D0A"/><path d="M32.9398 65.9293a1.1777 1.1777 0 0 0-.1209.0058c.0383.001.0796-.0039.1209-.0058Z" fill="url(#y)"/><path d="m32.8222 65.9353-.0267-.0007c-.0089-.0002-.0209.0054-.0299.0081.0208.0006.0388-.0049.0566-.0074Z" fill="#4C1D0A"/><path d="m32.8222 65.9353-.0267-.0007c-.0089-.0002-.0209.0054-.0299.0081.0208.0006.0388-.0049.0566-.0074Z" fill="url(#z)"/><path d="M15.1894 65.2707c-.2957-.1664-.6787-.1349-.9768.0282-.2982.1631-.5256.4368-.6889.7327-.5853 1.0531-.4243 2.4722.382 3.3693.3804.4215.8784.7254 1.2587 1.1498.4116.4605.6676 1.0348.9268 1.5944.2593.5597.5418 1.1287.9957 1.5492.4538.4204 1.115.6666 1.6992.4667a29.108 29.108 0 0 1-.5651-6.3541c.0048-.1911.0098-.3881-.077-.5579-.1624-.3219-.5892-.418-.9381-.3386-.411.0925-.7712.3805-.9542.7584-.183.3778-.18.8397.0015 1.2179.1369.283.3634.5094.5541.7584.1906.249.3536.5473.3251.8613-.0286.3141-.3213.6126-.6284.549-.2515-.0535-.4008-.3103-.5125-.5426a15.1702 15.1702 0 0 1-.9173-2.4356c-.1132-.4059-.2111-.8379-.1154-1.2473.0986-.4123.4463-.7918.8695-.784.0276-.2759-.118-.562-.3556-.7004-.2376-.1384-.5584-.1259-.7858.0301" fill="url(#A)"/><path d="M53.5694 65.0107c.2787-.3253.7543-.528 1.1499-.3621.3171.1345.5142.4749.5526.8171.0384.3423-.0556.687-.1813 1.0074-.1258.3205-.2864.6282-.386.9611-.1891.6159-.1617 1.2756-.1369 1.9205.0248.6449.0433 1.3073-.1632 1.9169-.2067.6125-.6854 1.1711-1.3176 1.2934.4021-1.599.4332-3.2898.0919-4.9047-.0998-.4674-.3058-1.0404-.182-1.5168.0977-.377.3182-.8392.5697-1.1329l.0029.0001Z" fill="url(#B)"/><path opacity=".5" d="M33.6203 76.299c.4239.2079 1.7042.5021 2.1283.7071l1.4375.7013c.4269.2079.9155.4203 1.3608.2492.5552-.2125.7523-.9135 1.2403-1.2571.4071-.2868.9448-.2761 1.4374-.3401.4926-.064 1.0482-.2912 1.1751-.7734-.5692-.3939-1.3527-.1078-1.9325.2658-.5798.3736-1.1769.8469-1.8668.8088-.6195-.0363-1.1344-.4818-1.7203-.6849-1.0405-.3588-2.8807-.7173-3.8913-.284" fill="#000"/><path opacity=".19" d="M29.3986 64.3392c.7688.2931 1.521.7741 2.3375.6918.4008-.0399.8027-.2356 1.0085-.5834.2058-.3478.148-.8524-.1783-1.0872-.2396-.1737-.56-.1759-.857-.1717l-2.9765.0452c-.6324.0104-1.2677.0208-1.88.1671-.2485.0584-1.1124.2719-1.2046.549-.1433.4318.6606.1521.8643.116.9628-.1697 1.9748-.0793 2.8891.2733l-.003-.0001ZM43.7167 64.8168c.4882-.1229.902-.4419 1.298-.7555.3961-.3136.8069-.6326 1.2952-.7585.5683-.1474 1.1647-.0176 1.7518.0208.587.0384 1.2448-.0479 1.6179-.5003-1.6083-.3438-3.2625-.1533-4.8756.0412-.7373.0902-2.6595-.0498-2.5711 1.1028.0574.7486.8421.9921 1.4808.8494l.003.0001Z" fill="#000"/><path opacity=".16" d="M53.4605 70.1179c-.8514.9964-1.8594 1.9093-3.0938 2.3546-1.2343.4423-2.728.3339-3.7055-.5382-.2444-.218-.4495-.4762-.6879-.6999-.2383-.2238-.5185-.4221-.8404-.4803-.322-.0581-.6894.0532-.864.3312a.5492.5492 0 0 0-.0728.2041c-.2725-.1511-.5095-.1983-.663-.058-.2859.2634.1584 1.2925.1962 1.6553.0208.2241.1278 1.689-.1157 1.7828.4304-.1627.7472-.5959.7705-1.0542.5747.6441 1.1549 1.2972 1.6665 1.9927.5121 1.4897.852 3.0399.9946 4.6086-.0021-.5002-.0039-1.0062.1259-1.4883.1298-.4822.4032-.9459.8388-1.1938.3221-.183.6998-.2352 1.0634-.3143 1.5109-.3383 2.8673-1.3071 3.6828-2.6249.8154-1.3179 1.0747-2.9647.7042-4.4685l.0002-.0089Z" fill="#000"/><path d="M40.3828 63.0614c.2823 1.6222.0107 5.2603 1.0555 6.4959 2.3663 2.8018 2.3539 3.2898 2.4938 4.1494.1829 1.1344-.7794 1.866-1.7578 1.8412-.9784-.0248-1.2084.0047-1.7621.3908-.5537.386-1.6779 1.3548-3.0245.6617-.7256-.3714-.8978-.767-2.3157-.6206-1.4179.1465-2.386-.0546-2.949-.922-.5009-.7687-.329-1.9852 1.1254-3.69 1.4574-1.7046 1.3667-3.8103 1.2994-5.4448-.0674-1.6344.0735-2.9017.997-4.0727.7746-.9836 4.2889-1.9477 4.838 1.2111Z" fill="url(#C)"/><path opacity=".21" d="M44.0308 73.6386c-.0669-.2606-.2406-.4797-.4554-.5911-.8734-.4546-1.0467.8149-1.6867.778-.5373-.0312-.863-.9838-1.3983-.9739-.2677.005-.4624.2619-.5954.5233-.1331.2614-.2406.5588-.4564.7239-.3299.2535-.7852.1243-1.1952.058-.4509-.0703-1.0122.0332-1.0591.6086-.0296.3552.1941.6933.4847.8301.5201.2427.9976-.0394 1.4082-.3467.3417-.2562.69-.5444 1.1086-.5868.5394-.054 1.0652.3124 1.6051.4702a2.1363 2.1363 0 0 0 1.8362-.2947c.3381-.2327.5234-.7016.4089-1.1723.0003-.0088-.0054-.0178-.0081-.0267l.0029.0001Z" fill="url(#D)"/><path d="M30.2388 79.9113s5.7215.5716 8.9962.128 5.3931-.8518 5.3931-.8518.208 2.1175-1.219 2.7403c-2.1018.9146-6.2839 2.7061-8.0549 1.7051-1.771-1.0009-4.3982-2.3237-4.3906-2.6236.0076-.2999-.7248-1.098-.7248-1.098Z" fill="url(#E)"/><path d="m38.6639 83.8991-2.2124-.1766.0494-1.9493c.0149-.585.4647-1.0502 1.0053-1.0365l.2439.0062c.5406.0137.8914.4403.8766 1.0254l.0343 2.1278.0029.003ZM41.1927 83.4131l-2.2998.2595-.1325-1.9627c-.0617-.5811.3602-1.1058.941-1.1676l.1179-.0117c.5808-.0618 1.1051.3604 1.1669.9416l.2066 1.938-.0001.0029Z" fill="#F6E1D8"/><path d="M42.4934 80.8161c-.0382-.5805-.5903-.9535-.9977-.8873-.4074.0662-.7029.5912-.6648 1.1746l.2376 2.1095 1.6442-.4908-.2164-1.903-.0029-.003ZM36.5001 81.2291c.0821-.5716-.1909-1.0521-.6107-1.0775-.4197-.0253-.8279.4174-.91.989l-.2783 1.9345 1.8616.0913-.0625-1.9402-.0001.0029Z" fill="#DABCA8"/><path d="M35.0219 81.0856c.0681-.4836-.3268-.9085-.682-.9292-.3582-.0209-.7028.3528-.7709.8365l-.2355 1.6356 1.4828.423.2056-1.9659Z" fill="#DABCA8"/><path d="M43.3832 80.2855c-.0136-.5063-.369-.8683-.5705-.8087-.2015.0625-.4714.5028-.4577 1.0092l.1618 1.7339.9445-.2614-.0782-1.67.0001-.003ZM33.5532 81.1485c.1007-.4946.0106-.8852-.2014-.87-.2121.0152-.4637.4295-.5644.9241l-.3396 1.6801.7629-.0543.3395-1.68.003.0001Z" fill="#D2A798"/><path d="M32.8504 80.9277c.1007-.4947.0106-.8853-.2014-.87-.2121.0152-.4637.4295-.5644.9241l-.2704 1.0405.6936.5883.3396-1.6801.003-.0028ZM43.9816 79.983c-.0329-.4421-.2133-.7497-.4031-.6869-.1897.0629-.3147.4687-.2818.9108l.1124 1.4826s.0085.012.0145.0092l.6641-.2186s.006-.0057.0061-.0116l-.1122-1.4885v.003Z" fill="#B99081"/><path d="M40.9603 78.5531c.7498-.0045 1.4899.1437 2.2272.283.7374.1393 2.3923-.0806 3.2149-1.1011-.774 1.8896-1.7137 2.3071-2.6925 2.2999-.6849-.0056-1.4646-.2165-2.1084.0143-.6319.2252-1.1923.6405-1.8406.8153-1.1633.3118-2.3799-.0603-3.569-.2405-1.1803-.177-2.5138-.2285-3.6863-.0199-1.075.1905-2.3892-.0429-3.688-2.1557 1.4284.3657 2.3074 1.4117 4.8959.7831.9289-.2266 1.8336-.6596 2.7875-.5943.9011.0611 1.8637.2444 2.2887.9906-.1897-.0548.4181-1.0691 2.1706-1.0776v.0029Z" fill="#562717"/><path opacity=".79" d="M32.549 83.5354c.25.8066 1.0205 1.7263 1.7367 2.2358 1.9609 1.397 4.293 1.6032 6.5087.6032 2.2157-.9999 2.9182-2.3854 2.9469-4.6793-.4336 1.4511-.9192 1.8153-2.4569 2.2824-1.5377.467-3.2087.3923-4.8043.1283-1.2121-.2014-2.4069-.5052-3.5579-.911-.577-.2029-.4275-.5345-1.0099-.9876-.2364-.1854-.0684-.7813-.3384-.9176-.3831-.195.2731.8277.3762.9362.5009.5364.1314-.1996.6017 1.3127l-.0028-.0031Z" fill="url(#F)"/><path d="M32.1001 82.8032c.5914.6799 1.1885 1.3657 1.9037 1.9134 1.9583 1.5 4.7765 1.7832 6.9942.7039 2.2177-1.0794 3.596-3.0273 3.6291-5.4947-.4364 1.5599-1.6838 2.2873-3.2225 2.7926-1.5387.5052-3.2096.4276-4.8049.1488a19.9647 19.9647 0 0 1-3.5563-.9726c-.5766-.2176-.9716-.4101-1.5502-.8954-.2361-.1972-.7058-.5739-.9755-.722-.3828-.2097.3065.6668.4065.7811.4999.5775.673 1.1732 1.1758 1.7479l.0001-.003Z" fill="url(#G)"/><path opacity=".2" d="M34.8188 61.1493c1.2979 3.1954 1.4428 7.453.8246 11.1971-.153.9346-1.2063 1.4256-2.0018.9142-.6393-.4134-.1967-.0109-1.4902-.4791 1.499-1.9566 2.5406-3.3805 2.1631-5.4229-.1628-.8837-.4228-1.7611-.8823-2.5406-.4595-.7795-1.1331-1.4614-1.9819-1.8448-1.2557-.5672-2.8745-.4994-3.8384-1.4446.465-.4825 1.2634-.4299 1.9242-.2866.6608.1432 1.3881.3323 1.9899.021.3665-.1908.6193-.5374.9829-.7312.611-.3287 1.4029-.138 1.9304.2784.5275.4164.8533 1.016 1.1649 1.5976" fill="#000"/><path opacity=".13" d="M22.9185 78.5108c1.0048-.0893 1.5497-1.4052 2.5519-1.5093.6103-.0639 1.4941 1.4882 2.0807 2.8211a2.7167 2.7167 0 0 1 .0323-.464.5574.5574 0 0 0 .2453-.0497c.1843-.0806.3179-.2479.5023-.3285.3508-.1529.7741.0784.9716.407.1974.3316.2255.7295.257 1.1127.0314.3832.0771.7845.3015 1.0961-.351-.8826-.3546-1.9006-.0058-2.7861.1822-.4631.4516-.8829.6803-1.3242.5718-1.1005.8758-2.3048 1.0892-3.5321.1684-.2664.334-.5358.4995-.8022.1288-.2086.4825-.5909.5062-.8315.0427-.4078-.4433-.4878-.7443-.3278-.1282.0674-.2426.1763-.3517.303-1.2797.6118-2.5623 1.2206-3.845 1.8324-.8273.3938-1.6635.7904-2.5537.9973-.8931.2068-1.8604.2058-2.6945-.1742-.8342-.3801-1.5016-1.1913-1.549-2.1074l-.0361.3815c-.2007-.1992-.5588-.1083-.7437.1106.2473 1.033.5505 2.0586.8546 3.0547.304.9991.9111 2.2148 1.9514 2.1206Z" fill="#000"/><path opacity=".12" d="M28.1415 81.4614c-.0626-.3134-.2848-.9456-.5906-1.6388-.5866-1.3329-1.4704-2.885-2.0806-2.8211-1.0023.1041-1.5501 1.4199-2.552 1.5092-1.0402.0943-1.6445-1.1213-1.9514-2.1205-.304-.9962-.6073-2.0217-.8546-3.0547-.6223-2.5899-.8933-5.2386.0652-7.6737.663-1.6836 1.866-3.0975 2.6425-4.7341 1.898-4.0088.9143-6.8402-1.6967-10.4278-.4518-.6204-.9135-2.1207-.9742-2.9754-.486.8467-.9458 1.9382-1.2719 3.3185-.0454.399-.0814.7776-.125 1.103-.1083.7945-.2197 1.5919-.3251 2.3894l-.0172.6762c-.0593 8.0268-1.8525 19.7312 2.9998 26.5293 4.8553 6.7952 7.8046 7.9349 10.2595 9.4475a12.5643 12.5643 0 0 0 2.516 1.1846c-3.7839-3.3614-5.0344-5.6407-6.0437-10.7145v.0029Z" fill="#000"/><path opacity=".6" d="M52.6741 69.9451c.2182.9058-.8843 1.9457-2.458 2.3265-1.5738.3808-4.9192-.9072-5.1374-1.8129-.2181-.9058 2.7736-1.0859 4.3502-1.4637 1.5767-.3807 3.03.0474 3.2482.9502l-.003-.0001Z" fill="url(#H)"/><path d="M43.5324 66.1358c-.5826.3041.3357-1.993 2.3234-2.279 1.2639-.1804 3.6096 1.5628 3.7115 2.2097.1018.6469-2.6374-.1069-3.9003.0915-1.2629.1983-2.0938-.0444-2.1317-.0219l-.0029-.0003ZM25.6393 67.0666c-.0784-.3787 1.1307-1.3904 2.68-1.814 2.713-.7457 4.1437 1.0508 4.222 1.4294.0784.3786-2.452.1515-4.0251.4766-1.5731.3251-2.7986.2866-2.8769-.092Z" fill="#fff"/><path opacity=".21" d="M22.3551 71.2683c-.1555.9169 1.16 1.9092 2.9398 2.2132 1.7799.304 5.3624-1.1467 5.5209-2.0664.1555-.9169-3.1716-.9542-4.9515-1.2582-1.7798-.3039-3.3506.1917-3.5062 1.1085l-.003.0029Z" fill="url(#I)"/><path opacity=".91" d="m19.8782 52.1893.0199 1.6509c.0717-.0453.1377-.0966.2037-.1478.2591-.4789.1663-1.1108-.2266-1.5032l.003.0001Z" fill="url(#J)"/><path opacity=".59" d="M48.2265 44.3999c-1.9906-1.5008-5.7176-1.307-8.8331-.4181-3.1155.8889-3.0525.261-5.8354-.4862-2.783-.7471-8.3013-.4045-10.8167 1.5145 0 0-3.6791 1.9014-4.127 8.9034.0166.1564.0332.3127.0557.4692.5622.0878 1.1664-.1999 1.4313-.6786.0001-.0029.0002-.0059.0032-.0087-.066.0512-.132.1025-.2037.1478l-.0199-1.6509c.3899.3923.4856 1.0243.2265 1.5031 1.5198-1.15 1.6533-3.403 2.8268-4.9265 1.0001-1.2956 2.7074-1.9554 4.3866-2.0894 1.6792-.1339 3.3614.1941 5.011.533 1.6496.3389 3.3194.696 5.006.6181 2.8493-.1307 5.659-1.4863 8.4458-.892 1.7253.3673 3.2059 1.4609 4.3221 2.7748.4996.5893.9334 1.221 1.3314 1.8754-.8499-3.3547-2.0999-6.3547-3.2077-7.1889h-.0029Z" fill="url(#K)"/><path opacity=".38" d="M48.2245 44.4704c-1.9906-1.5008-5.7176-1.3069-8.8331-.418-3.1154.8889-3.0525.2609-5.8354-.4862-2.7829-.7472-8.3013-.4046-10.8166 1.5145 0 0-3.6792 1.9013-4.1271 8.9034.0166.1563.0332.3127.0557.4692.5623.0878 1.1664-.1999 1.4314-.6786.0001-.003.0001-.0059.0032-.0088-.066.0513-.132.1026-.2037.1478 0 0 .4628-.6266.2037-.1478 1.5197-1.15 1.6532-3.403 2.8267-4.9266 1.0001-1.2955 2.7074-1.9554 4.3866-2.0893 1.6792-.134 3.3614.194 5.011.533 1.6496.3389 3.3194.696 5.006.6181 2.8493-.1307 5.659-1.4863 8.4458-.8921 1.7254.3674 3.2059 1.461 4.3221 2.7749.4996.5893.9334 1.221 1.3314 1.8754-.8499-3.3547-2.0998-6.3547-3.2077-7.1889Z" fill="url(#L)"/><path opacity=".2" d="M32.0667 75.0711c.5631.8674 1.5312 1.0655 2.949.922 1.4179-.1464 1.5931.2493 2.3157.6206 1.3467.6931 2.4708-.2757 3.0245-.6617.5537-.3861.7838-.4156 1.7622-.3908.6287.016 1.2508-.2831 1.5637-.7988a.7979.7979 0 0 1-.1111.0913c-.5326.369-1.203.4844-1.8361.2948-.0701-.0195-.14-.0448-.21-.0701-.4947-.0831-1.0136-.2581-1.5807-.2725a1.5046 1.5046 0 0 0-.2798.0194c-.2264.1179-.4364.2832-.6431.4368-.4106.3073-.8882.5894-1.4083.3467-1.7647-.0888-1.7351-.5617-2.6533-1.4558-.921-.8941-2.5778-1.2979-2.5778-1.2979s.6558-.8189-.125-.0562c-.0392.0373-.0756.0805-.1119.1237-.4438.9213-.4119 1.6341-.078 2.1485Z" fill="#000"/><path opacity=".25" d="M44.0498 73.7069c-.137-.8596-.1246-1.3476-2.4938-4.1495-1.0448-1.2356-.7732-4.8737-1.0555-6.4959-.3129-1.8084-1.6008-2.2646-2.7889-2.1388-.034 1.576-.045 3.9821.1349 5.3517.2833 2.1606.6347 4.5377 1.0945 5.4202.4598.8824 1.2219.3928 1.6027 1.6116.3507 1.1268.1208 1.4945-.1067 1.5388.4249.0578.8247.1739 1.2082.2395.0699.0253.1398.0506.2099.07a2.1363 2.1363 0 0 0 1.8362-.2947c.0389-.0284.075-.0599.1111-.0913-.0737.1217-.1676.2311-.2699.3256.0207-.0054.0415-.0137.0622-.019.3462-.3208.5493-.7922.455-1.3653l.0001-.0029Z" fill="url(#M)"/><path d="M32.5467 66.4607s-.0237.0082-.0355.0109c-.0594.025-.1544.0579-.2759.0989-.2764.1136-.6841.3092-1.1954.6463-1.0315.677-2.6288.9425-3.3058.6282-.0727-.0342-.3911-.1129-.4433-.1407-.5612-.0172-.7167-.1447-.7167-.1447s.9555.5803 1.8449.7528c.8893.1756 1.7502-.2645 2.5942-.7373.8411-.4729 1.4401-.7902 1.4401-.7902s.1776-.2809.1734-.3486c-.0266.0081-.0532.0133-.0769.0216l-.0031.0028Z" fill="url(#N)"/><path d="M44.3936 66.5256s.1511.1862.1658.1866c.0586.0074.0885.1052.2029.114.2696.0362.5259.2457 1.0591.4387 1.0693.3831 2.5017.1281 3.0136-.3502a5.1124 5.1124 0 0 0 .1387-.1377c.4834-.1643.7956-.9977.7956-.9977s.0945 1.0291-1.3849 1.8595c-.7277.4081-1.5927.2038-2.4452-.0326-.8526-.2364-1.1806-.5153-1.1806-.5153s-.6652-.7847-.6782-.8527c.0235.0006.2956.287.3191.2876l-.0059-.0002Z" fill="url(#O)"/><path d="M28.5014 66.9165c-.0255-.1276-.2112-1.8247 1.7957-1.9007 1.2072-.3673 1.4594 1.4011 1.4848 1.5288-.0565.568-.7551.3719-1.7889.4628-.699.1406-1.4662.0368-1.4916-.0909ZM48.7417 66.0324c.19-.9592-.3826-1.7179-1.5594-1.8339-1.5474-.1533-1.2973 1.5668-1.2878 1.7257.0094.1588.7009.2861 1.4451.2687.7443-.0174 1.4123.0012 1.4021-.1605Z" fill="#000"/><path opacity=".14" d="M25.4957 65.7907s4.7763-1.1116 7.1519-.4159c2.3756.6956 3.2482-1.6034 4.8561-2.0539 1.6079-.4506 2.2925 1.073 3.2159 1.876.9234.803 1.5842.3667 3.2491-.2442 1.6648-.6109 4.6217-1.3891 6.0972-1.0252 1.4755.364 2.3475.2949 2.5619-.2792.2145-.5741-.3251-2.9472-.2456-4.575.0794-1.6278-.922.6474-2.346.3407-1.424-.3068-2.217-.4563-3.8521.373-1.6351.8294-2.2865-.6139-3.3839-.933-1.0973-.319-3.453-.5229-5.1343-.542-3.2126-.0343-4.5541.4642-6.4595 1.2867-1.1474.4945-.9484.7614-3.2133.6863-2.2648-.075-4.1565.2036-4.6912 1.3491-.5347 1.1456-1.1966.6964-1.713 1.1187s-1.2571 1.692-1.1858 2.4734c.0714.7814 3.3606 1.1561 5.0955.5646l-.0029-.0001Z" fill="#000"/><path d="M42.6788 60.4134c-.301-.5291.3144-1.1956.7962-1.5683.8292-.6473 1.9574-.6829 2.9624-.616.7375.0496 1.4696.1636 2.2071.2131.3673.0246.7428.0325 1.0972.1325.5033.1403.8114.4804 1.0681.9176.4525.7744.6712 1.6811.6275 2.5771-.4598-.719-.9774-1.5167-1.8509-1.7502-.3865-.1043-.7914-.113-1.1896-.106-.7135.0159-1.4285.0879-2.123.2517-.6945.1638-1.3503.5521-2.0588.5302-.4932-.0145-1.2561-.097-1.5303-.581l-.0059-.0007Z" fill="url(#P)"/><path d="M32.3937 60.2749c.2575-.5817-.4893-1.133-1.0528-1.4191-.9743-.493-2.1887-.3204-3.2624-.0704-.788.1829-1.5602.4351-2.3453.6176-.3924.0928-.7924.1686-1.1628.333-.523.233-.811.6285-1.0312 1.1118-.3865.8548-.5097 1.8012-.3467 2.6863.4035-.8033.8605-1.6917 1.7691-2.0847.402-.1736.8365-.2587 1.267-.3257.7682-.1159 1.5452-.1735 2.3138-.1386.7686.0349 1.5221.3018 2.2809.1515.527-.1063 1.3377-.3269 1.5733-.862l-.0029.0003Z" fill="url(#Q)"/><path d="M68.7746 53.0903c-.573-1.9856.8552-4.2794.3297-6.2785-.3675-1.3949-2.1033-2.7392-2.2698-4.1732-.1565-1.366-.1077-2.0179.2377-3.3477 1.3627.1758 2.5094-2.2634 1.858-3.4743-.6515-1.2109-2.4833-1.7839-3.085-.5459l.6376-1.6078c.2513-.6349-.4572-1.2177-1.031-.8498l.5502-.8304c.3302-.4976.2675-1.1582-.1479-1.5894-.3266-.3378-.993-1.1872-1.0313-1.5324-.148-1.3541.4722-1.4648.1915-2.7987-.2595-1.2451-2.9365-1.3012-3.5135-2.4337-1.1847-2.3247.7184-2.2412-1.4987-3.7389-.9279-.6266-2.5133-.249-3.5328-.7426-.9759-.4719-1.7352-2.7594-2.7493-3.1175-.9733-.3424-4.5392.1056-5.5061-.1395-2.413-.6113-4.2264-2.3753-6.6693-2.852-2.4691-.4833-4.7867 1.1731-7.2694.7601-1.8708-.3122-4.4605-2.3018-6.3116-1.8839-4.0836.9261-3.2521 3.033-7.3225 2.0443-1.0695-.2595-2.607 2.4022-3.6907 2.5895-.9775.1693-2.2655-.7459-3.6105.8145-.6482.7514-1.2074 2.167-.2462 2.4061-1.1576-.147-2.367.5931-2.7653 1.6892-1.1267-.7846-2.9612.3721-2.7427 1.725-1.2312-.7196-3.0122.7592-2.5347 2.1039-1.2118-.3278-2.5906.714-2.6078 1.9697-1.969-.147-2.698 1.3584-3.176 3.2762-.4777 1.9148.4165 3.6379 1.16 4.8099-3.0246 2.0621-4.4488 7.4479-1.7509 9.9227-.1521 1.4788-.4583 2.5419-.6106 4.0237-.0743.7277.06 1.4636.2325 2.1976.2438 1.0505-.39 2.0435-1.3991 2.421a1.3632 1.3632 0 0 0-.31.1657l-.0708 1.2867c-1.1673.1176-1.2414 2.2309-.085 2.4279-1.2803 1.5591-.967 3.6969.095 5.4125 1.065 1.7156 3.1956 4.6497 5.1623 4.1935.8864 6.324 4.7263 9.7956 11.1024 10.0631-.7237 1.7556.6146 4.1695 2.3785 4.8732 1.2603.5026 3.3643.0794 4.7138-.8484l.9024-1.0362c-3.8704-6.9115-2.276-17.7324-2.2226-25.2917.0021-.4324.0213-.8438.0462-1.2432.0138-.1968.0274-.3877.0469-.5754.1247-.0498.2376-.094.3239-.136 1.2849-.5852 2.066-1.4745 2.101-2.3914.0214-.6114-.2719-1.219-.477-1.8272-.2051-.6083-.3184-1.2437.0491-1.8198.3674-.5761 1.3324-1.0665 2.479-1.0669.9937.0017 2.0343.3546 2.9363.148.7393-.1695 1.0095-.7393.5218-1.0988.8936.005 1.7935.1131 2.6176.3105-.4404-.2583-.1438-.7067.4245-.8571.5683-.1503 1.2693-.0855 1.8838.0301.6145.1156 1.2161.275 1.8592.306.6754.0318 1.3634-.086 1.8633-.3234.0714-.0335.1283-.0733.191-.1099.0486.0542.0943.1083.1281.165.2396.4062-.065.9398-.7404 1.0256.2172.3615 1.1083.3488 1.5587.0954.4504-.2533.6365-.6369.9854-.9458.3489-.3089 1.0457-.5442 1.5666-.331.6198.254.4043.8693.8536 1.2366.4695.3826 1.4206.3273 2.122.145.6985-.1823 1.3993-.4588 2.162-.3894.8799.0811 1.4786.5876 1.9726 1.0502l1.0395.9766c1.189 1.1157 2.4214 2.253 4.0936 3.0927.089.317.175.6369.2579.9597.6762 2.6677 1.1028 5.5586 1.0028 7.7625-.2231 4.9749 1.2526 7.7688 1.1558 11.5879-.0531 2.0962-.8271 4.5595-1.8659 7.0338.8616-.0047 1.6396-1.0058 1.3138-1.8378l.3283.1525c.5231.2427 1.1019-.2074.9928-.7721l-.1323-.6976c.7627.6489 2.1501.1957 2.3864-.775l.6505-1.6545c1.7204-1.0626.4773-2.2443 2.6882-3.2856.607-.2876 1.0809-.7728 1.4219-1.3525.4179-.7102 1.757-1.1146 1.1945-1.6555l-.1528-.0038c.05.0012.0999.0025.1499.0008-.0086-.0061-.0114-.015-.02-.0211l.02.0211c.7818.011 1.2114.2278 1.7045-.4363-.5151.6047 1.0757.7127 1.7054.2286.6296-.4842.9736-1.5257.7637-2.293-.2099-.7673 1.3688-.5301 1.6027-1.2891.3042-.9837-.0931-2.0116.2072-2.8425.743-2.0522.8225-4.2625.22-6.3606l.0059.0002Z" fill="url(#R)"/><path d="M28.0568 43.6239c-1.4063-1.2388-.395-3.7873-1.5364-5.2695-1.0446-1.3562-3.3127-.9577-4.5309.244-1.2182 1.2018-1.7526 2.9122-2.5524 4.4246-.7998 1.5125-2.1427 2.9935-3.8539 2.9972 1.2289-.5808 1.0956-2.3963.5183-3.6289-.5745-1.2325-1.4138-2.5688-.955-3.8486.4491-1.2478 1.8997-1.7582 2.9037-2.6271 1.004-.8688 1.2276-2.9637-.0846-3.1587-.7938-.1172-1.4211.62-2.136.9873-1.5133.7794-3.4736-.2911-4.1782-1.8416-.7074-1.5507-.4645-3.3626-.0172-5.0046 1.4199-5.2152 4.885-9.805 9.4021-12.753-.1726-.0338-.3539-.0707-.5467-.1198-1.0695-.2595-2.607 2.4022-3.6907 2.5895-.9775.1694-2.2656-.7458-3.6105.8146-.6482.7514-1.2074 2.167-.2462 2.4061-1.1576-.147-2.3671.5931-2.7653 1.6891-1.1267-.7846-2.9612.3721-2.7427 1.7251-1.2313-.7196-3.0122.7591-2.5347 2.1039-1.2118-.3279-2.5906.7139-2.6078 1.9697-1.969-.147-2.698 1.3584-3.176 3.2761-.4777 1.9148.4165 3.6379 1.16 4.81-3.0246 2.062-4.4489 7.4478-1.7509 9.9226-.1521 1.4789-.4584 2.542-.6106 4.0237-.0743.7277.06 1.4637.2324 2.1976.2439 1.0506-.3899 2.0436-1.399 2.421a1.3712 1.3712 0 0 0-.31.1657l-.0708 1.2868c-1.1673.1175-1.2414 2.2308-.085 2.4278-1.2803 1.5591-.967 3.697.095 5.4125 1.065 1.7156 3.1956 4.6497 5.1623 4.1936.8864 6.3239 4.7263 9.7955 11.1024 10.063-.7237 1.7557.6146 4.1695 2.3784 4.8732 1.2603.5027 3.3644.0794 4.7139-.8484l.9024-1.0362c-1.3052-2.3307-1.9874-5.1074-2.3185-8.0547-.8289-.4711-1.7223-.8321-2.6456-1.0614-1.826-.4523-4.2185-.8277-4.5892-2.6758-.282-1.4016.9151-2.698.9631-4.1265.0452-1.4345-1.0423-2.6094-1.9491-3.7209-.9067-1.1115-1.7179-2.6324-1.0768-3.9135.9137-1.8302 3.6768-1.3424 5.4378-.2976 1.2021.713 2.5533 1.5739 3.8688 1.7514.0458-1.1108.0818-2.1808.0898-3.1926.0021-.4324.0214-.8437.0462-1.2432.0138-.1968.0275-.3876.0469-.5754.1248-.0498.2376-.094.3239-.136 1.285-.5852 2.066-1.4744 2.101-2.3914.0214-.6114-.2719-1.219-.477-1.8272-.2051-.6083-.3183-1.2437.0491-1.8198.3673-.5732 1.3324-1.0665 2.479-1.0669.9937.0017 2.0344.3546 2.9363.148.7393-.1695 1.0095-.7393.5218-1.0988.8936.005 1.7935.1131 2.6176.3105-.4404-.2583-.1438-.7067.4245-.8571.3345-.0886.7141-.1025 1.0927-.0752.4269-.607.662-1.2983.5547-2.0512-.233 1.3033-2.0899 1.9534-3.082 1.0781l.0056.0089Z" fill="#000" opacity=".18"/><path d="M50.2633 64.6368s-1.4501-.7037-2.8791-.812c-1.4291-.1083-2.6077-.0622-3.7298.2924-1.122.3545-.9324.9559-.9324.9559s1.2448-.6312 2.9148-.7316c1.6701-.1004 4.9093.8296 5.1924.8613.2832.0318-.5659-.566-.5659-.566Z" fill="#60372B"/><path d="M24.6204 66.1559c.0176-.0021.0352-.0043.0558-.0065.0908-.0165.2374-.0414.4222-.0687.4279-.0802.8247-.2277 1.635-.4894 1.6264-.5236 4.2369-.5595 5.1852-.2412a5.896 5.896 0 0 1 .2572.0925c.8238.0519.9948.1487.9948.1487s-.7439-.8598-2.0317-1.0728c-1.2877-.2131-3.0911.0537-4.4055.4119-1.3173.3582-1.9233.941-1.9233.941s-.308.2353-.3101.2939c.0411-.0044.0793-.0087.1174-.0131l.003.0037Z" fill="#562717"/><path opacity=".44" d="M48.4743 85.1952c-.1207 4.7628.606 10.7738-2.6664 15.5358-5.9009 8.591-7.4153 13.36-7.5639 34.537-.0804 11.522-1.3249 26.173-2.4328 34.506-1.3368 10.056 2.75 10.863.2018 17.677-9.0542 24.199-10.3041 35.117-10.3041 35.117l14.5929.641 4.5931-42.023 14.1196-46.115-10.5402-49.8758Z" fill="url(#S)"/><path d="M62.3296 94.7603c4.0043 7.8887 9.1162 19.9887 8.1593 29.9017-.1273 1.312-.297 2.673.1449 3.914.4419 1.241.1498 3.831 1.4307 3.522-.4478 7.229.6809 12.923.2331 20.152 2.8616-.384 5.9019-.745 8.5263.457 2.6244 1.202 4.4581 4.602 2.9608 7.071 4.738.982 5.4015 6.353 6.7774 10.995 1.2027-.24 5.4485-3.036 5.7023-4.236.2539-1.203.0297-2.447-.1896-3.656-2.3743-12.925-4.7486-25.85-7.12-38.775-.8319-4.53-1.9979-8.985-3.6916-13.27-4.8544-12.2815-22.9307-16.0757-22.9307-16.0757h-.0029Z" fill="url(#T)"/><path d="M42.1933 110.071c-3.7278 19.713 2.5209 39.971 1.4134 60.003-.3691 6.678-1.5566 13.279-2.7378 19.862-1.6905 9.395-12.7123 23.183-14.3999 32.578 13.4475 2.332 33.6705 12.095 41.3861 9.39 7.6-2.667 6.0064-13.987 6.3544-17.623 0-26.501-1.6738-50.661-1.0352-72.723.217-7.52.4349-15.075-.5461-22.534-.9811-7.459-3.2187-14.876-7.5254-21.0427-2.281-3.2673-5.9794-6.4088-9.825-5.3619-2.8569.7778-4.6096 3.5781-6.0772 6.1533-2.5876 4.5353-5.175 9.0683-7.7655 13.6033" fill="url(#U)"/><path d="M49.8477 94.5733c.3427 2.6034-.6109 3.9208-2.2245 5.9887-.787 1.007-2.2615 3.388-3.051 4.492-3.5237 4.932-3.9482 8.461-3.4638 22.291.8801-8.974 1.8807-12.376 2.984-15.54 1.1034-3.164 2.8178-6.08 4.6904-8.857.5255-.778 1.1015-1.581 1.9466-1.983 1.2887-.615 2.8172-.141 4.1196.443 2.9566 1.319 5.6732 3.173 7.9823 5.447-1.7759-7.882-5.2-12.7963-10.319-19.0452-2.2159-2.7038-4.2349-2.852-4.1784-2.8771.1131-.053 1.1811 7.1081 1.5139 9.6377l-.0001.0029Z" fill="url(#V)"/><path d="M57.0857 134.154c2.4925.143 11.7972.511 16.2421-1.559.3302-.154.6944.094.7344.489l.3776 3.893c.0302.316-.1595.611-.4433.671-2.0251.44-9.8755 1.968-16.7912.952-.249-.036-.4402-.265-.4625-.548l-.2355-3.233c-.026-.368.2436-.682.5754-.665h.003Z" fill="url(#W)"/><path opacity=".44" d="m70.9235 159.826-8.8318.458c-2.0636.107-3.7811-1.964-3.8371-4.624l-.3348-15.907 8.8889.302 7.4116-1.148.3348 15.907c.056 2.66-1.5708 4.905-3.6345 5.012h.0029Z" fill="url(#X)"/><path d="M80.1782 190.359s-.0939 2.777.9797 3.107c1.0735.331 1.7789-.472 1.7789-.472l.7572-3.426-3.5128.788-.003.003Z" fill="url(#Y)"/><path d="M84.8947 189.407s-.486 2.586 1.3909 3.007c1.8768.421 2.4306-2.404 2.4306-2.404s2.027-1.446 2.333-2.73c.0164-.07-.7682-1.822-.7682-1.822s-1.2016 1.705-2.0078 2.308c-.8061.603-3.3814 1.638-3.3814 1.638l.0029.003Z" fill="url(#Z)"/><path opacity=".17" d="m74.8646 182.278-.381-38.21c-2.4802-.631-5.5891-.695-8.8133-.041-6.7911 1.378-11.524 5.412-10.5656 9.011-.0002.009.0055.018.0082.027-.819-.053-1.7047-.023-2.6255.115-1.3398.199-2.5345.586-3.4788 1.074-.4895-.756-1.1668-1.294-1.9571-1.661.0633-.178.0007-.377-.1816-.493l-1.0706-.678c-.2257-.144-.5414-.099-.7052.1l-.1002.124a.392.392 0 0 0-.0794.348c-.334-.044-.6716-.067-1.0153-.078l.0069-.271c.0003-.244-.2239-.447-.5031-.451l-.8141-.009c-.2792-.004-.5077.193-.5109.437l-.0034.365c-.1238.014-.2447.026-.3686.044l.0055-.218c-.002-.153-.14-.277-.3134-.279l-.385-.003c-.1734-.005-.3147.118-.3156.271l-.0027.338c-.0005.018.0079.036.0104.053-.5585.11-1.091.241-1.5769.387a.2324.2324 0 0 0-.0117-.118c-.0555-.128-.2156-.191-.3609-.144l-1.4795.489c-.1452.046-.2164.188-.1609.316.0362.081.1143.133.205.15-.5744.273-1.0877.575-1.5428.899-.0111-.141-.1405-.257-.305-.261-.1734-.004-.3147.119-.3156.272-.0034.132.1057.238.249.268-1.3859 1.086-2.2116 2.347-2.6979 3.435-.2121.018-.4275.048-.6488.081 2.7956-3.93 4.8618-7.617 3.9869-8.127-.5476-.32-1.2972-.325-2.1682-.061-.0054-.021-.0108-.042-.022-.063-.0763-.119-.2459-.159-.3798-.095l-1.3785.68c-.134.068-.1818.216-.1055.336l.0057.006c-.2179.13-.442.271-.6663.422a.525.525 0 0 0-.2889-.084l-.3085-.008c-.2794.002-.5077.196-.5111.443l-.0041.162c.0007.088.031.171.0792.24-.7469.587-1.5141 1.277-2.2747 2.052a.3307.3307 0 0 0-.1865-.064l-.3851-.004c-.1733-.004-.3146.119-.3156.272l-.0026.338c-.0026.1.0628.187.1557.236a30.382 30.382 0 0 0-1.1391 1.328.4991.4991 0 0 0-.1158-.071l-.1571-.066c-.2502-.106-.5524-.014-.6756.207l-.8384 1.526c-.114.206-.0261.449.1885.567-1.1699 1.732-2.0478 3.425-2.5854 4.918-4.4735 5.17-4.0332 6.822-4.0332 6.822l4.1301 1.532-.0512.628 45.9252 10.958c4.3735.052 7.9146-.115 10.815-.756l-3.876.04-.0117-.003Z" fill="url(#aa)"/><path opacity=".17" d="M78.6561 185.572c6.4011-1.418 9.6799-5.156 11.886-14.014l.829-4.869c.1347-.79-.6448-1.469-1.5447-1.342a.1454.1454 0 0 0-.0355.005c-.2815-.725-1.3607-1.411-2.9464-1.952.678-.532 1.1086-1.166 1.2147-1.872.1659-1.096-.4618-2.198-1.6544-3.166.0334-.044.0552-.09.0566-.146.0039-.153-.1371-.277-.3105-.278a.3164.3164 0 0 0-.2135.074c-1.7333-1.215-4.3787-2.168-7.43-2.536-.0117-.001-.0264-.001-.0381-.004 1.0594-1.315 1.507-2.733 1.1473-4.087-.5019-1.89-2.4746-3.284-5.2177-3.98l.3811 38.21 3.876-.04.0001-.003Z" fill="url(#ab)"/><path d="M40.8919 165.598c-2.8302 1.117-4.6422 3.242-4.0483 4.752.5939 1.507 3.3701 1.824 6.1973.71 2.8301-1.117 4.6421-3.242 4.0483-4.751-.5939-1.507-3.3701-1.824-6.1973-.711Z" fill="url(#ac)"/><path d="M56.1993 165.189c-2.8302 1.117-4.6422 3.242-4.0483 4.752.5939 1.506 3.3701 1.824 6.1972.71 2.8302-1.117 4.6422-3.242 4.0484-4.752-.594-1.506-3.3701-1.824-6.1973-.71Z" fill="url(#ad)"/><path d="M78.4556 164.265c-.594-1.507-4.4571-1.396-8.6295.249-4.1725 1.644-7.0744 4.201-6.4805 5.71.5939 1.507 4.457 1.396 8.6294-.249 4.1725-1.644 7.0744-4.201 6.4806-5.71Z" fill="url(#ae)"/><path d="M85.8233 166.578c-3.3656-.261-6.307.255-7.6102 1.214 2.1342.707 3.8325 1.791 4.7717 3.015 5.0986-.368 8.7177-.829 10.6506-1.112-.4747-1.454-3.7511-2.799-7.8122-3.114l.0001-.003Z" fill="url(#af)"/><path d="M78.2128 167.792c-.8572-.284-1.7805-.507-2.7559-.653-4.9646-.74-9.3077.794-9.7274 3.434.2257.256.3983.522.5031.795.05.002.0999.003.147.001 4.9597.005 9.3469-.134 13.1183-.341 1.2277-.066 2.388-.143 3.4837-.221-.9363-1.221-2.6375-2.308-4.7717-3.015h.0029Z" fill="url(#ag)"/><path d="M56.7161 164.393c3.1073-.798 6.2658-1.644 9.2836-2.509a2.6911 2.6911 0 0 1-.2135-.738l.0006-.024c-1.0882-.68-2.8891-.967-4.855-.658-2.1519.34-3.899 1.296-4.6297 2.401.0198.03.0397.06.0594.093.2449.429.362.915.3576 1.435h-.003Z" fill="url(#ah)"/><path d="M65.7296 170.57c-.8548-.957-2.5049-1.737-4.4773-1.987-2.1598-.276-4.1053.155-5.1178 1.011.0109.036.0218.069.0297.107.1171.483.0897.982-.0552 1.481 3.2079.102 6.4755.173 9.6122.185.1705.002.3381 0 .5086.001-.1048-.273-.2744-.539-.5032-.795l.003-.003Z" fill="url(#ai)"/><path d="M56.1672 169.698c-.0079-.035-.0217-.071-.0296-.106-.7208-2.534-5.1379-3.649-9.9654-2.492-2.7155.652-4.987 1.886-6.3665 3.301 4.1596.256 9.7586.557 15.6132.752.2292.006.4612.015.6903.024.1479-.5.1723-.999.0552-1.482l.0028.003Z" fill="url(#aj)"/><path d="M92.1672 165.845c.396-2.654-3.3188-5.408-8.2972-6.152-4.9784-.744-9.3353.805-9.7313 3.459-.396 2.654 3.3187 5.408 8.2972 6.151 4.9784.744 9.3352-.804 9.7313-3.458Z" fill="url(#ak)"/><path d="M46.5324 156.954c-1.7629-1.207-5.9627 1.867-9.3793 6.867-1.4809 2.166-2.5708 4.336-3.1884 6.2 1.0859.078 2.8938.203 5.2039.347 3.9343-5.122 8.4792-12.647 7.3637-13.411l.0001-.003Z" fill="url(#al)"/><path d="M95.0034 171.047c.1288-.788-.5447-1.476-1.3356-1.36l-.0324.005c-1.933.283-5.5522.747-10.6506 1.112-1.0928.079-2.256.155-3.4837.221-3.7715.208-8.1615.346-13.1183.341-.05-.001-.0999-.002-.147 0-.1705-.002-.3381 0-.5086-.002-3.1368-.011-6.4072-.083-9.6122-.184-.2322-.006-.4613-.015-.6904-.024-5.8545-.198-11.4535-.499-15.6132-.751-.2172-.015-.4286-.026-.6369-.04a570.2781 570.2781 0 0 1-5.204-.347c-.7337-.051-1.1386-.082-1.1386-.082l2.4329 19.431 38.7815 1.071c12.3167.313 17.1511-1.695 20.1577-14.53l.8024-4.861h-.003Z" fill="url(#am)"/><path d="M51.9212 169.575c4.2844-1.561 7.1508-4.495 6.4021-6.552-.7486-2.057-4.8287-2.46-9.1132-.898-4.2845 1.561-7.1508 4.494-6.4022 6.551.7487 2.058 4.8288 2.46 9.1133.899Z" fill="url(#an)"/><path d="M75.4844 164.526c5.9871-1.306 10.2032-5.29 9.4171-8.899-.7862-3.609-6.277-5.475-12.2641-4.169-5.987 1.306-10.2032 5.29-9.417 8.899.7861 3.608 6.2769 5.475 12.264 4.169Z" fill="url(#ao)"/><path d="M64.8412 169.615c5.0153-.547 8.9023-2.631 8.6819-4.656-.2204-2.025-4.4649-3.223-9.4802-2.676-5.0153.547-8.9023 2.631-8.6818 4.656.2204 2.025 4.4648 3.223 9.4801 2.676Z" fill="url(#ap)"/><path d="m60.8431 162.8-1.3427-.034a.3975.3975 0 0 0-.4067.387l-.0327 1.291a.3973.3973 0 0 0 .3866.407l1.3427.034a.3975.3975 0 0 0 .4067-.387l.0327-1.291a.3973.3973 0 0 0-.3866-.407Z" fill="url(#aq)"/><path d="m53.0289 158.387-.811-.021a.3976.3976 0 0 0-.4067.387l-.0175.691a.3974.3974 0 0 0 .3866.407l.8109.02a.3961.3961 0 0 0 .4068-.386l.0175-.691a.3962.3962 0 0 0-.3866-.407Z" fill="url(#ar)"/><path d="m63.754 166.393-1.0666-.027a.3961.3961 0 0 0-.4067.386l-.0258 1.018a.3974.3974 0 0 0 .3866.407l1.0666.027a.3976.3976 0 0 0 .4067-.387l.0258-1.017a.3962.3962 0 0 0-.3866-.407Z" fill="url(#as)"/><path d="m70.7998 165.762-.3673-.009a.3963.3963 0 0 0-.4067.387l-.0065.258a.396.396 0 0 0 .3866.407l.3672.01a.3975.3975 0 0 0 .4067-.387l.0066-.259a.3973.3973 0 0 0-.3866-.407Z" fill="url(#at)"/><path d="m58.2788 169.675-.3673-.009c-.219-.006-.4011.168-.4067.387l-.0065.258a.396.396 0 0 0 .3866.407l.3672.01a.3976.3976 0 0 0 .4068-.387l.0065-.259a.3973.3973 0 0 0-.3866-.407Z" fill="url(#au)"/><path d="m70.1162 169.758-.3673-.01a.3976.3976 0 0 0-.4067.387l-.0065.259a.3973.3973 0 0 0 .3866.407l.3672.009a.397.397 0 0 0 .4068-.387l.0065-.259a.3958.3958 0 0 0-.3866-.406Z" fill="url(#av)"/><path d="m54.0833 169.328-.3673-.01a.3975.3975 0 0 0-.4067.387l-.0066.259a.3974.3974 0 0 0 .3866.407l.3673.009a.3963.3963 0 0 0 .4067-.387l.0066-.258a.3962.3962 0 0 0-.3866-.407Z" fill="url(#aw)"/><path d="m58.2627 166.018-.3673-.009a.3963.3963 0 0 0-.4067.387l-.0065.258a.396.396 0 0 0 .3866.407l.3672.01a.3975.3975 0 0 0 .4067-.387l.0066-.259a.3974.3974 0 0 0-.3866-.407Z" fill="url(#ax)"/><path d="m74.3381 161.06-.3672-.01a.3975.3975 0 0 0-.4067.387l-.0066.259a.3973.3973 0 0 0 .3866.407l.3673.009c.219.006.4011-.168.4067-.387l.0065-.259a.3958.3958 0 0 0-.3866-.406Z" fill="url(#ay)"/><path d="m42.165 158.044-.3672-.01a.3975.3975 0 0 0-.4067.387l-.0066.259a.3974.3974 0 0 0 .3866.407l.3673.009a.3963.3963 0 0 0 .4067-.387l.0065-.258a.396.396 0 0 0-.3866-.407Z" fill="url(#az)"/><path d="m88.0017 162.059-.3673-.009a.3961.3961 0 0 0-.4067.386l-.0065.259a.3967.3967 0 0 0 .3866.407l.3672.009a.396.396 0 0 0 .4067-.386l.0066-.259a.3967.3967 0 0 0-.3866-.407Z" fill="url(#aA)"/><path d="m39.2897 160.836-.3937-.01a.2478.2478 0 0 0-.2531.241l-.01.394a.2468.2468 0 0 0 .2406.253l.3937.01a.2465.2465 0 0 0 .2531-.241l.0099-.394a.2473.2473 0 0 0-.2405-.253Z" fill="url(#aB)"/><path d="m67.4848 164.547-.7952.432a.3977.3977 0 0 0-.1589.539l.3792.697a.3962.3962 0 0 0 .5382.159l.7951-.432a.3977.3977 0 0 0 .159-.539l-.3793-.697a.396.396 0 0 0-.5381-.159Z" fill="url(#aC)"/><path d="m86.9997 164.97-.7952.433a.3965.3965 0 0 0-.1589.538l.3792.698a.398.398 0 0 0 .5382.159l.7951-.433a.3977.3977 0 0 0 .159-.539l-.3793-.697a.396.396 0 0 0-.5381-.159Z" fill="url(#aD)"/><path d="m75.1918 168.538-.7952.433a.3977.3977 0 0 0-.1589.539l.3792.697a.3962.3962 0 0 0 .5382.159l.7952-.432a.3977.3977 0 0 0 .1589-.539l-.3792-.697a.3974.3974 0 0 0-.5382-.16Z" fill="url(#aE)"/><path d="m64.8322 162.365-1.2263.667a.3977.3977 0 0 0-.159.539l.1658.305a.397.397 0 0 0 .5381.159l1.2264-.668a.3968.3968 0 0 0 .1589-.538l-.1657-.305a.3962.3962 0 0 0-.5382-.159Z" fill="url(#aF)"/><path d="m85.2663 160.902-1.2264.668a.3968.3968 0 0 0-.1589.538l.1658.305a.396.396 0 0 0 .5381.159l1.2264-.667a.3978.3978 0 0 0 .1589-.539l-.1658-.305a.397.397 0 0 0-.5381-.159Z" fill="url(#aG)"/><path d="m77.7684 154.758 1.6086-.785a.3976.3976 0 0 0 .1827-.531l-.5658-1.161a.3957.3957 0 0 0-.5306-.182l-1.6087.785a.3972.3972 0 0 0-.1826.531l.5658 1.16a.397.397 0 0 0 .5306.183Z" fill="url(#aH)"/><path d="m37.0601 165.067.8015-1.602a.3975.3975 0 0 0-.1771-.533l-.2207-.11a.3969.3969 0 0 0-.5325.177l-.8015 1.601a.3971.3971 0 0 0 .1771.533l.2207.111c.196.098.4344.019.5325-.177Z" fill="url(#aI)"/><path d="m81.7786 165.428.8015-1.602a.3975.3975 0 0 0-.1771-.533l-.2207-.11a.3969.3969 0 0 0-.5325.177l-.8015 1.601a.3971.3971 0 0 0 .1771.533l.2207.111c.196.098.4344.019.5325-.177Z" fill="url(#aJ)"/><path d="m43.2701 157.817 1.265-.688a.2218.2218 0 0 0 .0883-.3l-.0239-.043a.2207.2207 0 0 0-.2989-.089l-1.2651.689a.2203.2203 0 0 0-.0883.299l.0239.044c.0582.107.192.147.299.088Z" fill="url(#aK)"/><path d="m75.9279 159.266 1.3075-.638a.3973.3973 0 0 0 .1827-.531l-.446-.914a.396.396 0 0 0-.5305-.183l-1.3076.638a.3972.3972 0 0 0-.1826.531l.4459.915a.3966.3966 0 0 0 .5306.182Z" fill="url(#aL)"/><path d="m68.079 155.768 1.3076-.638a.3972.3972 0 0 0 .1826-.531l-.4459-.915a.3966.3966 0 0 0-.5306-.182l-1.3075.638a.3972.3972 0 0 0-.1827.531l.4459.915a.3966.3966 0 0 0 .5306.182Z" fill="url(#aM)"/><path d="m65.7402 159.482.5468-.267a.3972.3972 0 0 0 .1826-.531l-.1134-.233a.3957.3957 0 0 0-.5306-.182l-.5468.266a.3974.3974 0 0 0-.1826.531l.1134.233a.397.397 0 0 0 .5306.183Z" fill="url(#aN)"/><path d="m79.4545 161.86.5468-.267a.3971.3971 0 0 0 .1826-.531l-.1134-.233a.3966.3966 0 0 0-.5306-.182l-.5468.267a.3972.3972 0 0 0-.1826.531l.1134.232a.397.397 0 0 0 .5306.183Z" fill="url(#aO)"/><path d="m81.4679 155.454.5468-.267a.3973.3973 0 0 0 .1827-.531l-.1135-.233a.3956.3956 0 0 0-.5305-.182l-.5468.267a.3961.3961 0 0 0-.1827.53l.1135.233c.096.197.3336.279.5305.183Z" fill="url(#aP)"/><path d="m90.2494 165.565.5468-.267a.3973.3973 0 0 0 .1827-.531l-.1135-.233a.3965.3965 0 0 0-.5305-.182l-.5468.267a.3969.3969 0 0 0-.1826.531l.1134.232a.3969.3969 0 0 0 .5305.183Z" fill="url(#aQ)"/><path d="m70.1475 159.474.941-.009c.2852-.001.5464-.213.5881-.467l.1156-.733c.0388-.255-.1588-.463-.4412-.458l-.941.008c-.2852.002-.5463.213-.5881.468l-.1156.732c-.0388.255.1588.463.4412.459Z" fill="url(#aR)"/><path d="m82.5354 167.425.4196.843c.1259.253.4309.399.6768.323l.7082-.217c.246-.077.3439-.345.2181-.601l-.4196-.843c-.1259-.253-.4309-.399-.6769-.323l-.7082.217c-.2459.076-.3439.344-.218.601Z" fill="url(#aS)"/><path d="m72.2373 155.673 1.5115-.012c.2852-.002.5464-.213.5881-.467l.042-.264c.0388-.255-.1588-.463-.4412-.459l-1.5115.012c-.2852.002-.5463.213-.5881.468l-.0419.263c-.0388.255.1588.463.4411.459Z" fill="url(#aT)"/><path d="M42.8214 167.53s.3354-5.578 5.9684-7.659c3.1904-1.179 9.1549-1.728 9.7133 3.85 0 0-.7391-2.273-3.9525-2.278-3.0193-.002-5.4388.104-9.1381 3.034-1.5271 1.209-2.5911 3.053-2.5911 3.053Z" fill="url(#aU)"/><path d="m45.997 161.024-.0559-.002a.2477.2477 0 0 0-.253.241l-.0014.056a.2467.2467 0 0 0 .2405.253l.0558.002a.2478.2478 0 0 0 .2531-.241l.0014-.056a.2467.2467 0 0 0-.2405-.253Z" fill="url(#aV)"/><path d="m90.5783 162.242-.0559-.001a.2462.2462 0 0 0-.253.24l-.0014.056a.2467.2467 0 0 0 .2405.253l.0558.002a.2478.2478 0 0 0 .2531-.241l.0014-.056a.2467.2467 0 0 0-.2405-.253Z" fill="url(#aW)"/><path d="m62.4914 170.5-.0559-.002a.2477.2477 0 0 0-.253.241l-.0015.056a.2468.2468 0 0 0 .2406.253l.0558.002a.2478.2478 0 0 0 .2531-.241l.0014-.056a.2467.2467 0 0 0-.2405-.253Z" fill="url(#aX)"/><path d="m70.2406 163.224-.0558-.002a.2478.2478 0 0 0-.2531.241l-.0014.056a.2468.2468 0 0 0 .2406.253l.0558.002a.2478.2478 0 0 0 .2531-.241l.0014-.056a.2468.2468 0 0 0-.2406-.253Z" fill="url(#aY)"/><path d="m51.2418 158.709-.3937-.01a.247.247 0 0 0-.253.241l-.01.394a.2467.2467 0 0 0 .2405.253l.3937.01a.2472.2472 0 0 0 .2531-.241l.01-.394a.2474.2474 0 0 0-.2406-.253Z" fill="url(#aZ)"/><path d="m79.3239 169.667-.3937-.01a.2477.2477 0 0 0-.2531.241l-.01.394a.2467.2467 0 0 0 .2406.253l.3937.01a.2462.2462 0 0 0 .253-.24l.01-.394a.2475.2475 0 0 0-.2405-.254Z" fill="url(#ba)"/><path d="m42.0263 169.087-.3938-.01a.2464.2464 0 0 0-.253.241l-.01.393a.2475.2475 0 0 0 .2405.254l.3938.01a.2477.2477 0 0 0 .253-.241l.01-.394a.2467.2467 0 0 0-.2405-.253Z" fill="url(#bb)"/><path d="m84.4159 159.815-.3937-.01a.2463.2463 0 0 0-.2531.24l-.01.394a.2462.2462 0 0 0 .2406.253l.3937.01a.2463.2463 0 0 0 .2531-.24l.01-.394a.2462.2462 0 0 0-.2406-.253Z" fill="url(#bc)"/><path d="m73.965 167.89-.3937-.01a.2465.2465 0 0 0-.2531.241l-.01.394a.2474.2474 0 0 0 .2406.253l.3937.01a.2477.2477 0 0 0 .253-.241l.01-.394a.2467.2467 0 0 0-.2405-.253Z" fill="url(#bd)"/><path d="m56.0442 159.351-1.0072-.744a.3964.3964 0 0 0-.5549.084l-.1467.199a.397.397 0 0 0 .0835.555l1.0072.744c.1763.13.4248.093.5549-.084l.1467-.198a.3982.3982 0 0 0-.0835-.556Z" fill="url(#be)"/><path d="m47.7185 160.406 1.354-.491a.22.22 0 0 0 .1322-.282l-.017-.047a.2195.2195 0 0 0-.2824-.132l-1.354.491a.22.22 0 0 0-.1321.282l.017.047a.2195.2195 0 0 0 .2823.132Z" fill="url(#bf)"/><path d="m77.4536 164.543 1.354-.491a.22.22 0 0 0 .1322-.282l-.017-.047a.2195.2195 0 0 0-.2824-.132l-1.354.491a.22.22 0 0 0-.1321.282l.017.047a.2195.2195 0 0 0 .2823.132Z" fill="url(#bg)"/><path d="m59.5485 170.425 1.4155.265a.2197.2197 0 0 0 .2573-.176l.0092-.049a.2197.2197 0 0 0-.176-.257l-1.4155-.266a.2213.2213 0 0 0-.2573.176l-.0092.049a.2213.2213 0 0 0 .176.258Z" fill="url(#bh)"/><path d="M30.2918 188.612c-.0489-.043-.0979-.082-.1468-.125.0489.043.0979.082.1468.125Z" fill="url(#bi)"/><path d="M51.8435 192.397c-.3399-.623-.9641-1.054-1.6281-1.3-.6641-.247-1.3794-.33-2.0829-.412-2.2044-.256-3.6133-.583-5.8148-.839-.1973-.102-.2367-.056.0062-.011.9366.167 1.2758.008 2.0485-.552.7697-.557 1.2082-1.616.8779-2.507-.3439-.93-1.34-1.417-2.2502-1.811-1.4307-.624-2.8644-1.246-4.2951-1.871-1.1777-.512-2.3728-1.037-3.3604-1.859-.1612-.133-.3133-.281-.4594-.432-.2656-1.122-.3655-2.284-.2865-3.432.009-.12.0179-.241.0298-.361.3146-.115.6347-.219.9183-.388.7912-.478 1.7492-.577 2.6687-.662.9195-.086 1.8774-.182 2.6715-.656.7941-.475 1.3772-1.442 1.0997-2.326-.1985-.635-.7898-1.085-1.4257-1.284-.6329-.201-1.3122-.195-1.9769-.185-1.4206.02-2.841.037-4.2586.057-.4177.007-.8412.011-1.252.095-.1329.026-.2662.063-.3966.104-.0087-.006-.0145-.009-.0231-.015.7124-.27 1.4172-.585 1.9368-1.134.873-.919 1.0262-2.442.3537-3.515s-2.1115-1.601-3.318-1.214c-.5187.167-.9793.476-1.4309.779-.658.442-1.3161.884-1.9712 1.33-.5743.388-1.1576.779-1.6061 1.309-.3394.398-.5958.885-.6705 1.398-.6694.89-1.9332 1.222-3.0749 1.261-1.2741.041-2.5861-.163-3.8012.221-1.15.365-2.0801 1.219-2.8677 2.134-3.0473 3.535-4.534 8.37-4.0017 13.005 2.0584.564 4.2092-.197 6.2935-.653 3.1368-.685 6.4233-.667 9.5542.036-.0287-.024-.0604-.051-.0892-.075-.2008-.314-.4305-.761-.67-1.056.1175.121.2322.236.258.26 1.6103 1.194 1.7118 1.132 3.1117 2.158.4157.305 2.0038 1.328 2.4501 1.586.42.246 2.0368 1.302 2.391 1.014.4872.266.9868.505 1.5079.709 1.345.526 2.7698.803 4.1957 1.036.77.126 1.5697.24 2.3217.035.222-.059.4359-.147.6414-.248.3691-.182.7999-.009.9905.358a.9859.9859 0 0 0 .2681.324c.3603.286.9128.294 1.2814.021.2941.693 1.0381 1.147 1.7557 1.371.7175.227 2.182.096 2.9343.11-.301.395-.5723.891-.8826 1.301 1.2707-.374 1.9687-2.045 1.3338-3.211l-.0058-.003Z" fill="url(#bj)"/><path opacity=".45" d="M28.0469 186.704c.6993.595 1.3956 1.195 2.098 1.786a35.0491 35.0491 0 0 1-1.9109-1.745c-.0614-.014-.1258-.024-.1872-.038l.0001-.003Z" fill="url(#bk)"/><path d="M48.4582 194.197c-.7479-.075-1.4617-.678-1.7558-1.371-.3685.273-.9211.265-1.2813-.021-.1124-.088-.2008-.199-.2682-.325-.1906-.366-.6213-.539-.9905-.357-.2054.101-.4194.189-.6414.248-.7549.205-1.5517.091-2.3217-.035-1.423-.233-2.8507-.51-4.1957-1.036-.5211-.204-1.0207-.443-1.5079-.709-.3541.285-1.9709-.771-2.391-1.014-.4433-.258-2.0344-1.281-2.45-1.586-1.3999-1.026-1.5015-.964-3.1118-2.158-.0258-.025-.1376-.139-.258-.26.2395.294.4693.742.6701 1.056.0287.024.0604.051.0892.075.0614.014.1258.024.1872.037.6138.607 1.2547 1.188 1.9109 1.746.0489.043.0979.082.1468.125 2.0353 1.708 4.2677 3.182 6.6394 4.375 1.2455.626 2.5486 1.179 3.9283 1.379 1.9157.278 3.9196-.136 5.7786.408 1.2783.374 2.5539 1.198 3.8389.845.0118-.003.0208-.008.0326-.011.3793-.117 1.1307-.416 1.4218-1.576-.7989.433-2.0189.311-3.4735.165h.003Z" fill="url(#bl)"/><path d="M41.8978 185.764c-.4532-.1-.9477-.077-1.3476.157-.3999.234-.6736.71-.5851 1.162.073.367.3567.656.6599.876.6408.469 1.4309.73 2.2244.742-.094-.003-.0987-.859-.0936-.947.0173-.335.0905-.669.216-.98.1255-.312.2876-.443-.0605-.631-.3132-.17-.6656-.303-1.0135-.379ZM48.3942 192.189c-.4411.003-.9102.068-1.2524.348-.3423.279-.3099.742-.2061 1.171.1063.444.5762.812.8957.853l2.18.29c-.085-.011-.1472-1.269-.1536-1.363-.0153-.324.0482-.628.0711-.948.0232-.338-.2197-.265-.5364-.299-.3166-.035-.6658-.061-1.0011-.058l.0028.006ZM38.1053 173.106c-.1881.345-.1787.787.0215 1.124.2002.338.5828.556.9738.558a5.1303 5.1303 0 0 1-.1172-.948c-.0095-.318.087-.648.0503-.94-.0804-.655-.7619-.099-.9284.206ZM32.6672 166.114c-.5859.032-1.2395.301-1.6638.684-.4213.384-.5982.868-.4486 1.227.4355-.248.894-.471 1.3636-.671.4696-.2.9955-.304 1.4183-.511.9437-.462-.1513-.76-.6724-.732l.0029.003Z" fill="#CC9376"/><path d="M25.898 170.802c.0657.078-.0114-1.174 1.2692-2.05.353-.242 1.0715.065 1.3544.384 1.2347 1.396.9963 1.758 1.8641 2.201.4761.241 1.2239.316 1.7141.114.5645-.233.5924-.288 1.1485-.539.3063-.136.5957-.42.7785-.554.4553-.333.6787-.912.7107-1.476.0319-.564.5022-1.026.3662-1.574.384.742.7179 1.372.8248 2.139.0748.532-.1854 1.055-.665 1.301-.3218.166-.8239.491-2.8436 1.181-.6258.214-1.0837.532-1.87.7-.1891.04-.3919.035-.5661-.052-.5719-.285-.8338-.972-1.2897-1.43-.4673-.471-1.1702-.695-1.8227-.585-.6525.11-.9762.237-.9762.237l.0028.003Z" fill="url(#bm)"/><path opacity=".42" d="M38.5385 174.588c.6847.362 1.5427.377 2.2421.045.1292.468-.2621.944-.7162 1.115-.4542.17-.9529.128-1.4386.148-2.7222.105-5.1523 2.144-7.8709 1.99-1.2859-.074-2.4887-.64-3.6351-1.228.6808-.065 1.3044-.544 1.5412-1.185.0757-.204.1347-.444.3311-.536.2618-.122.544.111.7385.328l.9179 1.018c.1716.189.3461.382.5724.5.2264.117.5167.145.7261.003.2124-.141.296-.425.2612-.676-.0348-.251-.1612-.483-.2999-.696-.1557-.236-.3319-.476-.369-.753-.0371-.278.1272-.612.4072-.64.2948-.028.505.263.6663.508.2547.392.554.764.9444 1.021.3903.257.887.382 1.3345.243.4474-.139.8112-.571.7818-1.036-.0166-.274-.1573-.522-.2834-.767-.1261-.244-.2428-.512-.2065-.784.0363-.273.284-.534.5532-.484.1167.268.2391.545.4545.745.1608.151.3963.257.6205.227.2242-.03.4025-.337.6201-.223.1654.087.3201.479.4604.627.1861.199.4053.366.646.496l.0002-.006Z" fill="url(#bn)"/><path d="M29.7966 177.644c.7205.571 1.3645 1.261 2.0851 1.832 1.5563 1.234 3.1213 2.474 4.8455 3.465 1.7243.988 3.6255 1.725 5.6094 1.866l-6.2547-3.082c-.4065-.202-.8332-.419-1.0883-.796-.3146-.464-.2992-1.069-.2762-1.631.035-.799.1112-1.603.1492-2.405-1.6162.897-4.9724.612-5.0106.84l-.0566-.086-.0028-.003Z" fill="url(#bo)"/><path d="m42.8282 188.65-.095.006c.0519.058.1203.167.095-.006ZM42.7244 188.644c-.0228-.024-.0403-.03-.0414.014.0117 0 .0235.001.0353-.002l.0061-.012Z" fill="#8C4638"/><path opacity=".42" d="M28.0753 182.219c.3809.165.759.331 1.1399.496l.2682.322c.0404-.084.1585.128.1989.04.5856 1.142 1.1042 1.443 1.9954 2.125.8652.663 1.9357.996 2.9295 1.46 0 0 .2598.074.36.179.0522.028.1046.05.1539.078.0899.049.5626.423.6462.487.1685.078.3284.153.4823.227.6193.272 1.2414.552 1.8743.868.0464.025.0988.047.1482.072 1.5204.677 2.4976.984 4.4416 1.307.7609.022 1.3454-.187 1.8453-.771-.5587.003-1.3826-.203-1.7723-.601l-.0652.136s.0057.006.0085.012c.0324-.002.0618-.001.0942-.006.0251.171-.0427.063-.0942.006h-.0147l-.031.064a.2435.2435 0 0 1-.0044-.059c-1.0745.052-2.0661-.608-2.9498-1.24-.4216-.302-.8659-.637-1.021-1.129-.1251-.4-.0823-.929-.4476-1.132-.316-.176-.7126.047-.9402.326-.2276.28-.3835.629-.6798.836-.479.338-1.1483.183-1.6769-.075-.7433-.366-1.3598-.867-1.8395-1.547-.3434-.485-.6419-1.005-1.0514-1.436a3.7072 3.7072 0 0 0-1.5279-.965c-.1545-.051-.3123-.09-.4699-.133-.3856-.098-.7712-.199-1.1568-.297-.2658-.068-.5247-.06-.7902-.143-.105-.032-.5447-.199-.8699-.246.1412.23.3091.449.5009.654.1027.009.2135.044.3094.088l.006-.003Z" fill="url(#bp)"/><path opacity=".27" d="M41.5945 189.725c.4181.093.7871.146 1.125.158-1.944-.323-2.9212-.63-4.4417-1.307.9789.469 2.2905.92 3.3167 1.149Z" fill="url(#bq)"/><path d="M50.2682 191.098c-.7887-.32-4.6283-.788-5.8939-.964-.6299-.09-1.1718-.168-1.6577-.251-.3379-.009-.707-.062-1.125-.158-1.029-.232-2.3407-.68-3.3167-1.149-.5697-.256-1.2206-.561-2.0254-.94a40.9788 40.9788 0 0 0-.4823-.227c-.0836-.064-.5592-.438-.6462-.487a2.0074 2.0074 0 0 0-.1539-.077c-.1002-.106-.36-.18-.36-.18-.9937-.464-2.0613-.797-2.9295-1.46-.8911-.685-1.4098-.983-1.9953-2.125-.0404.085-.1585-.127-.1989-.04l-.2683-.322c-.3809-.165-.7589-.331-1.1399-.496-.096-.041-.2067-.079-.3094-.087a4.5895 4.5895 0 0 1-.5009-.655c-.3503-.561-.5313-1.193-.3877-1.869.1203-.573.3925-1.102.5507-1.663.2264-.809.2048-1.698-.1165-2.477-.3075-.746-.8653-1.354-1.283-2.044-.4176-.69-.6926-1.556-.374-2.296l-.2415.48c.0547-.184.1122-.365.1668-.549-.8491.79-2.0667 1.039-3.2264 1.089-1.1595.047-2.3296-.071-3.4722.118-1.3907.232-2.7383.972-3.4744 2.174-.1227.2-.2221.412-.307.628.0908-.101.1787-.205.2723-.302.2899-.302.597-.588.9241-.851.0691-.057.3946-.372.4847-.329.1307.063-.0226.544-.0401.655a16.057 16.057 0 0 0-.1755 2.979c.0363 1.119.1903 2.235.4568 3.321.2559 1.039.6238 2.067 1.2396 2.944.6158.875 1.5032 1.592 2.5403 1.85.412.102.8582.128 1.2447-.042.3866-.169.6908-.574.6456-.995.2971.457.8101.75 1.3493.819.233-.026.4684-.035.7037-.038.2605-.07.5048-.199.7707-.248.0679-.013.1328-.02.2004-.021.4474-.018.8952.175 1.2498.455.0605.049.6153 1.242.6698 1.297 1.6103 1.194.4015.398 1.8015 1.422.4156.305 2.2331 1.792 2.6793 2.051.4201.246 2.7439 2.055 3.0951 1.77.021-.017-2.475-1.76-2.4921-1.781-.6803-.768-1.5164-1.533-1.7398-1.883-2.138-3.343 1.6331-1.565 2.3502-1.206.7606.382 5.3785 2.623 7.0698 3.174 2.1724.709 4.4583.996 6.7316 1.204.8008.073 1.6047.137 2.3783.354.7736.217 1.9217.74 2.4382 1.356.1828-.831-.9-1.608-1.6916-1.928h.0118Z" fill="url(#br)"/><path d="M26.5061 184.977ZM26.3372 184.911c.0323.012.0646.022.094.035-.0323-.013-.0617-.026-.094-.035ZM25.7282 184.81c.0559-.002.1117 0 .1704.004-.0558-.001-.1116-.003-.1704-.004ZM26.6716 185.06c.0351.019.0702.041.1052.062-.035-.021-.0701-.043-.1052-.062ZM25.9807 184.825c.0325.004.0651.008.0975.015-.0324-.007-.065-.011-.0975-.015ZM26.1621 184.856c.0325.007.0619.017.0942.026-.0323-.009-.0618-.016-.0942-.026ZM26.8279 185.156c.052.033.1011.07.1472.106-.049-.036-.0981-.073-.1472-.106Z" fill="#8C4638"/><path d="M26.0774 184.839c.0295.007.0561.014.0857.02-.0296-.006-.0562-.013-.0857-.02Z" fill="url(#bs)"/><path d="M25.8958 184.814c.0267.001.0562.008.0829.011-.0267 0-.0563-.007-.0829-.011Z" fill="url(#bt)"/><path d="M26.2556 184.882c.0265.01.0561.016.0826.026a.865.865 0 0 0-.0826-.026Z" fill="url(#bu)"/><path d="M26.6018 185.023c.0236.013.0472.025.0677.038-.0235-.013-.0471-.025-.0677-.038Z" fill="url(#bv)"/><path d="M26.7729 185.125c.0175.012.0351.021.0526.034-.0175-.013-.0351-.022-.0526-.034Z" fill="url(#bw)"/><path d="M26.4304 184.945c.0265.01.05.023.0765.032a1.2171 1.2171 0 0 0-.0765-.032Z" fill="url(#bx)"/><path d="M27.1476 185.42c-.0575-.052-.112-.106-.1725-.155.0317.024.1751.169.3127.308a1.3727 1.3727 0 0 0-.1402-.153Z" fill="url(#by)"/><path d="M27.9579 186.629c-.2008-.314-.4306-.761-.6701-1.056-.1346-.139-.278-.283-.3126-.308-.0491-.036-.0981-.073-.1473-.106-.0173-.013-.0347-.022-.052-.034a1.9033 1.9033 0 0 0-.1043-.062.8502.8502 0 0 1-.0667-.037c-.032-.015-.0639-.031-.0958-.046a.8152.8152 0 0 0-.0757-.032c-.032-.012-.0611-.025-.0932-.034a.8486.8486 0 0 0-.0817-.026c-.0321-.009-.0613-.016-.0934-.026-.0292-.006-.0555-.013-.0848-.02-.0321-.006-.0644-.01-.0966-.014-.0265 0-.0557-.007-.0821-.011-.0558-.001-.1116-.003-.1704-.004-.0677.004-.1354.008-.2004.021-.2659.05-.5102.179-.7707.249.2117-.004.3056.004.1351.003-.3883.011-.5859.032-.8387.032-.5439.001-1.0492-.365-1.3493-.82.0452.422-.2591.826-.6456.996-.3865.169-.8357.143-1.2447.042-1.0402-.256-1.9246-.973-2.5403-1.85-.6159-.875-.9837-1.905-1.2396-2.944-.2694-1.087-.4205-2.203-.4568-3.321-.0336-.996.027-1.994.1754-2.979.0175-.111.1709-.593.0401-.655-.09-.044-.4156.275-.4846.329a9.3782 9.3782 0 0 0-.9241.85c-.0936.098-.1815.202-.2723.302-1.0261 1.163-1.7933 2.547-2.321 3.998-.8216 2.256-1.1034 4.673-1.2494 7.07-.0352.576-.0284 1.238.4119 1.614.2992.258.7244.301 1.1214.299 1.8525-.012 3.5981-.794 5.3943-1.249 3.098-.78 6.3954-.264 9.583-.054-.0255-.039-.0539-.081-.0822-.123l-.0148.006Z" fill="url(#bz)"/><path fill-rule="evenodd" clip-rule="evenodd" d="m91.6491 82.036-3.1597 7.8019c-3.1934-.335-5.5167-.4456-6.9698-.3317s-3.0861.5345-4.8989 1.262l2.8543-7.2337c.8503-.876 2.2195-1.4083 4.1078-1.597 1.8882-.1887 4.577-.1558 8.0663.0985Z" fill="url(#bA)"/><path fill-rule="evenodd" clip-rule="evenodd" d="m91.6491 82.036-.7413 2.3728-9.2137 1.9384-2.9907-1.3524.6926-1.7019c.903-.7149 2.2986-1.1667 4.1868-1.3554 1.8883-.1887 4.577-.1558 8.0663.0985Z" fill="#fff"/></g><defs><linearGradient id="c" x1="18.4143" y1="105.424" x2="52.5881" y2="106.29" gradientUnits="userSpaceOnUse"><stop stop-color="#7A3D1C"/><stop offset=".56" stop-color="#A76645"/><stop offset=".87" stop-color="#BB7957"/></linearGradient><linearGradient id="d" x1="45.9111" y1="102.699" x2="24.5949" y2="83.1294" gradientUnits="userSpaceOnUse"><stop offset=".14" stop-color="#723D24" stop-opacity=".2"/><stop offset=".76" stop-color="#4C1F18"/></linearGradient><linearGradient id="e" x1="46.5734" y1="90.0188" x2="23.2091" y2="89.4267" gradientUnits="userSpaceOnUse"><stop stop-color="#5E2D1E" stop-opacity=".57"/><stop offset="1" stop-color="#341518"/></linearGradient><linearGradient id="f" x1="49.2336" y1="52.0935" x2="75.8348" y2="80.1459" gradientUnits="userSpaceOnUse"><stop stop-color="#112C31"/><stop offset="1" stop-color="#1E4E56"/></linearGradient><linearGradient id="g" x1="42.8726" y1="158.2" x2=".5144" y2="166.265" gradientUnits="userSpaceOnUse"><stop stop-color="#FFDFD0"/><stop offset=".69" stop-color="#FFC8AE"/></linearGradient><linearGradient id="h" x1="24.1091" y1="187.58" x2="11.5543" y2="179.006" gradientUnits="userSpaceOnUse"><stop stop-color="#E5967E"/><stop offset="1" stop-color="#F6A27E"/></linearGradient><linearGradient id="i" x1="16.7981" y1="210.254" x2="-5.44" y2="199.137" gradientUnits="userSpaceOnUse"><stop stop-color="#E5967E" stop-opacity=".2"/><stop offset="1" stop-color="#F6A27E"/></linearGradient><linearGradient id="j" x1="29.616" y1="156.922" x2="-18.8108" y2="133.839" gradientUnits="userSpaceOnUse"><stop stop-color="#FFDFD0"/><stop offset="1" stop-color="#FFC8AE"/></linearGradient><linearGradient id="k" x1="4.2435" y1="107.274" x2="30.1111" y2="107.929" gradientUnits="userSpaceOnUse"><stop stop-color="#FFDFD0"/><stop offset="1" stop-color="#fff"/></linearGradient><linearGradient id="l" x1="26.3547" y1="163.68" x2="-22.0721" y2="140.596" gradientUnits="userSpaceOnUse"><stop stop-color="#E5967E"/><stop offset="1" stop-color="#F6A27E"/></linearGradient><linearGradient id="m" x1="13.4811" y1="170.723" x2="-7.5742" y2="132.048" gradientUnits="userSpaceOnUse"><stop stop-color="#E5967E" stop-opacity=".2"/><stop offset="1" stop-color="#F6A27E"/></linearGradient><linearGradient id="n" x1="20.8425" y1="82.2296" x2="50.5297" y2="82.982" gradientUnits="userSpaceOnUse"><stop stop-color="#7A3D1C"/><stop offset=".56" stop-color="#A76645"/><stop offset=".87" stop-color="#BB7957"/></linearGradient><linearGradient id="o" x1="52.9213" y1="86.8759" x2="35.4688" y2="70.8555" gradientUnits="userSpaceOnUse"><stop offset=".14" stop-color="#723D24" stop-opacity=".2"/><stop offset="1" stop-color="#683E2D"/></linearGradient><linearGradient id="p" x1="20.8539" y1="81.7798" x2="50.541" y2="82.5322" gradientUnits="userSpaceOnUse"><stop stop-color="#7A3D1C"/><stop offset=".56" stop-color="#A76645"/><stop offset=".87" stop-color="#BB7957"/></linearGradient><linearGradient id="q" x1="41.9306" y1="98.8502" x2="24.4781" y2="82.8299" gradientUnits="userSpaceOnUse"><stop offset=".14" stop-color="#723D24" stop-opacity=".2"/><stop offset="1" stop-color="#683E2D"/></linearGradient><linearGradient id="r" x1="-15.6586" y1="43.2722" x2="34.4104" y2="95.9155" gradientUnits="userSpaceOnUse"><stop stop-color="#112C31"/><stop offset="1" stop-color="#1E4E56"/></linearGradient><linearGradient id="s" x1="-15.5593" y1="43.1776" x2="34.5096" y2="95.821" gradientUnits="userSpaceOnUse"><stop stop-color="#112C31"/><stop offset="1" stop-color="#1E4E56"/></linearGradient><linearGradient id="t" x1="-14.9326" y1="42.5819" x2="35.1359" y2="95.2251" gradientUnits="userSpaceOnUse"><stop stop-color="#112C31"/><stop offset="1" stop-color="#1E4E56"/></linearGradient><linearGradient id="u" x1="17.8315" y1="80.2706" x2="53.3332" y2="81.1703" gradientUnits="userSpaceOnUse"><stop stop-color="#54261D"/><stop offset=".25" stop-color="#74402F"/><stop offset=".66" stop-color="#A7694B"/><stop offset=".87" stop-color="#BB7957"/></linearGradient><linearGradient id="v" x1="1.1129" y1="27.3197" x2="51.1849" y2="79.9603" gradientUnits="userSpaceOnUse"><stop stop-color="#112C31"/><stop offset="1" stop-color="#1E4E56"/></linearGradient><linearGradient id="w" x1="20.4559" y1="74.518" x2="43.8221" y2="62.6427" gradientUnits="userSpaceOnUse"><stop stop-color="#754130"/><stop offset=".58" stop-color="#A7694C"/><stop offset=".87" stop-color="#BB7957"/></linearGradient><linearGradient id="x" x1="32.9815" y1="65.6923" x2="25.2123" y2="67.4244" gradientUnits="userSpaceOnUse"><stop stop-color="#A56543"/><stop offset=".1" stop-color="#A76745"/><stop offset="1" stop-color="#BB7957"/></linearGradient><linearGradient id="y" x1="32.9783" y1="65.6807" x2="25.3115" y2="67.3878" gradientUnits="userSpaceOnUse"><stop stop-color="#A56543"/><stop offset=".1" stop-color="#A76745"/><stop offset="1" stop-color="#BB7957"/></linearGradient><linearGradient id="z" x1="32.9772" y1="65.6675" x2="25.2562" y2="67.3878" gradientUnits="userSpaceOnUse"><stop stop-color="#A56543"/><stop offset=".1" stop-color="#A76745"/><stop offset="1" stop-color="#BB7957"/></linearGradient><linearGradient id="A" x1="18.8978" y1="69.7569" x2="13.1154" y2="69.6103" gradientUnits="userSpaceOnUse"><stop stop-color="#7A3D1C"/><stop offset="1" stop-color="#562B14"/></linearGradient><linearGradient id="B" x1="52.9062" y1="68.5565" x2="55.2068" y2="68.6148" gradientUnits="userSpaceOnUse"><stop stop-color="#A66644"/><stop offset="1" stop-color="#B47250"/></linearGradient><linearGradient id="C" x1="32.0044" y1="68.7151" x2="44.0803" y2="69.0212" gradientUnits="userSpaceOnUse"><stop stop-color="#643326"/><stop offset=".13" stop-color="#703D2C"/><stop offset=".38" stop-color="#92573E"/><stop offset=".58" stop-color="#B2714F"/></linearGradient><linearGradient id="D" x1="29.0128" y1="77.151" x2="35.7512" y2="75.4985" gradientUnits="userSpaceOnUse"><stop stop-color="#D2A790"/><stop offset=".15" stop-color="#C59881"/><stop offset=".72" stop-color="#9A654E"/><stop offset="1" stop-color="#8A523B"/></linearGradient><linearGradient id="E" x1="30.2037" y1="81.296" x2="44.586" y2="81.6605" gradientUnits="userSpaceOnUse"><stop stop-color="#633326"/><stop offset=".02" stop-color="#663629"/><stop offset=".65" stop-color="#D2A798"/><stop offset="1" stop-color="#59281B"/></linearGradient><linearGradient id="F" x1="31.3836" y1="84.0443" x2="43.6739" y2="84.3558" gradientUnits="userSpaceOnUse"><stop stop-color="#633326"/><stop offset="1" stop-color="#59281B"/></linearGradient><linearGradient id="H" x1="52.6421" y1="69.8691" x2="45.3436" y2="71.6253" gradientUnits="userSpaceOnUse"><stop stop-color="#D2A790"/><stop offset="1" stop-color="#C79175"/></linearGradient><linearGradient id="I" x1="7.2581" y1="68.6517" x2="15.4711" y2="70.0566" gradientUnits="userSpaceOnUse"><stop stop-color="#D2A790"/><stop offset="1" stop-color="#C79175"/></linearGradient><linearGradient id="J" x1="20.0213" y1="54.4287" x2="20.3403" y2="41.8456" gradientUnits="userSpaceOnUse"><stop stop-color="#633326" stop-opacity="0"/><stop offset=".19" stop-color="#623225" stop-opacity=".05"/><stop offset=".42" stop-color="#603023" stop-opacity=".21"/><stop offset=".65" stop-color="#5E2D20" stop-opacity=".47"/><stop offset=".9" stop-color="#5A291C" stop-opacity=".83"/><stop offset="1" stop-color="#59281B"/></linearGradient><linearGradient id="K" x1="34.9706" y1="54.8076" x2="35.2895" y2="42.2245" gradientUnits="userSpaceOnUse"><stop stop-color="#633326" stop-opacity="0"/><stop offset=".19" stop-color="#623225" stop-opacity=".05"/><stop offset=".42" stop-color="#603023" stop-opacity=".21"/><stop offset=".65" stop-color="#5E2D20" stop-opacity=".47"/><stop offset=".9" stop-color="#5A291C" stop-opacity=".83"/><stop offset="1" stop-color="#59281B"/></linearGradient><linearGradient id="L" x1="51.4888" y1="49.4249" x2="16.4042" y2="48.5357" gradientUnits="userSpaceOnUse"><stop offset=".31" stop-color="#633326" stop-opacity="0"/><stop offset=".49" stop-color="#623225" stop-opacity=".03"/><stop offset=".61" stop-color="#613124" stop-opacity=".14"/><stop offset=".72" stop-color="#5F2F22" stop-opacity=".32"/><stop offset=".83" stop-color="#5D2C1F" stop-opacity=".57"/><stop offset=".92" stop-color="#5A291C" stop-opacity=".89"/><stop offset=".95" stop-color="#59281B"/></linearGradient><linearGradient id="M" x1="38.0485" y1="69.3244" x2="42.3208" y2="67.1519" gradientUnits="userSpaceOnUse"><stop stop-color="#D2A790"/><stop offset="1" stop-color="#C79175"/></linearGradient><linearGradient id="N" x1="26.7097" y1="68.1824" x2="32.7616" y2="67.0628" gradientUnits="userSpaceOnUse"><stop stop-color="#A56543"/><stop offset=".1" stop-color="#A76745"/><stop offset="1" stop-color="#BB7957"/></linearGradient><linearGradient id="O" x1="62.7454" y1="66.1221" x2="57.1718" y2="65.4063" gradientUnits="userSpaceOnUse"><stop stop-color="#D2A790"/><stop offset="1" stop-color="#C48B6E"/></linearGradient><linearGradient id="P" x1="42.894" y1="58.8227" x2="51.6977" y2="60.9929" gradientUnits="userSpaceOnUse"><stop stop-color="#112C31"/><stop offset=".98" stop-color="#15373D"/></linearGradient><linearGradient id="Q" x1="22.9583" y1="61.3852" x2="32.4886" y2="60.4249" gradientUnits="userSpaceOnUse"><stop stop-color="#112C31"/><stop offset=".98" stop-color="#15373D"/></linearGradient><linearGradient id="R" x1="-4.1399" y1="46.5265" x2="69.37" y2="48.3895" gradientUnits="userSpaceOnUse"><stop stop-color="#112C31"/><stop offset=".46" stop-color="#173C42"/></linearGradient><linearGradient id="S" x1="38.9638" y1="202.338" x2="48.74" y2="128.801" gradientUnits="userSpaceOnUse"><stop stop-color="#881C1B" stop-opacity=".3"/><stop offset=".88" stop-color="#323A45"/></linearGradient><linearGradient id="T" x1="90.7954" y1="125.03" x2="66.2919" y2="138.349" gradientUnits="userSpaceOnUse"><stop stop-color="#FFDFD0"/><stop offset=".53" stop-color="#FFC8AE"/></linearGradient><linearGradient id="U" x1="20.7599" y1="133.751" x2="84.486" y2="200.75" gradientUnits="userSpaceOnUse"><stop stop-color="#FFDFD0"/><stop offset=".69" stop-color="#FFC8AE"/></linearGradient><linearGradient id="V" x1="41.2628" y1="106.056" x2="62.8378" y2="106.602" gradientUnits="userSpaceOnUse"><stop stop-color="#FFDFD0"/><stop offset="1" stop-color="#fff"/></linearGradient><linearGradient id="W" x1="56.5266" y1="135.815" x2="74.4489" y2="135.703" gradientUnits="userSpaceOnUse"><stop stop-color="#FFE9DF"/><stop offset="1" stop-color="#fff"/></linearGradient><linearGradient id="X" x1="59.369" y1="149.913" x2="75.8205" y2="149.345" gradientUnits="userSpaceOnUse"><stop stop-color="#FFE9DF"/><stop offset="1" stop-color="#fff"/></linearGradient><linearGradient id="Y" x1="80.5705" y1="192" x2="83.8902" y2="191.348" gradientUnits="userSpaceOnUse"><stop stop-color="#834C30"/><stop offset="1" stop-color="#5C2E15"/></linearGradient><linearGradient id="Z" x1="85.1301" y1="189.741" x2="91.0296" y2="188.418" gradientUnits="userSpaceOnUse"><stop stop-color="#834C30"/><stop offset="1" stop-color="#5C2E15"/></linearGradient><linearGradient id="aa" x1="17.7825" y1="162.687" x2="91.4668" y2="163.551" gradientUnits="userSpaceOnUse"><stop stop-color="#623117"/><stop offset="1" stop-color="#4A2511"/></linearGradient><linearGradient id="ab" x1="72.904" y1="167.121" x2="101.759" y2="166.391" gradientUnits="userSpaceOnUse"><stop stop-color="#623117"/><stop offset="1" stop-color="#4A2511"/></linearGradient><linearGradient id="ac" x1="36.7717" y1="168.198" x2="47.1669" y2="168.461" gradientUnits="userSpaceOnUse"><stop stop-color="#7A3D1C"/><stop offset="1" stop-color="#4A2511"/></linearGradient><linearGradient id="ad" x1="52.0791" y1="167.788" x2="62.4714" y2="168.052" gradientUnits="userSpaceOnUse"><stop stop-color="#7A3D1C"/><stop offset="1" stop-color="#4A2511"/></linearGradient><linearGradient id="ae" x1="63.3377" y1="167.053" x2="78.4634" y2="167.436" gradientUnits="userSpaceOnUse"><stop stop-color="#7A3D1C"/><stop offset="1" stop-color="#4A2511"/></linearGradient><linearGradient id="af" x1="78.1947" y1="168.518" x2="93.6553" y2="168.91" gradientUnits="userSpaceOnUse"><stop stop-color="#7A3D1C"/><stop offset="1" stop-color="#4A2511"/></linearGradient><linearGradient id="ag" x1="74.3332" y1="171.571" x2="74.4495" y2="166.984" gradientUnits="userSpaceOnUse"><stop offset=".32" stop-color="#E07242"/><stop offset=".47" stop-color="#DB6F41"/><stop offset=".63" stop-color="#CE6841"/><stop offset=".79" stop-color="#B95C40"/><stop offset=".95" stop-color="#9B4B3F"/><stop offset="1" stop-color="#91463F"/></linearGradient><linearGradient id="ah" x1="56.3139" y1="162.283" x2="65.9834" y2="162.528" gradientUnits="userSpaceOnUse"><stop stop-color="#E07242"/><stop offset=".57" stop-color="#E17343"/><stop offset="1" stop-color="#FF9C6C"/></linearGradient><linearGradient id="ai" x1="56.1324" y1="169.794" x2="66.2661" y2="170.051" gradientUnits="userSpaceOnUse"><stop stop-color="#E07242"/><stop offset=".57" stop-color="#E17343"/><stop offset="1" stop-color="#FF9C6C"/></linearGradient><linearGradient id="aj" x1="48.0086" y1="170.974" x2="48.1196" y2="166.597" gradientUnits="userSpaceOnUse"><stop stop-color="#E07242"/><stop offset=".11" stop-color="#CA6541"/><stop offset=".27" stop-color="#B15740"/><stop offset=".44" stop-color="#9F4D3F"/><stop offset=".62" stop-color="#94473F"/><stop offset=".83" stop-color="#91463F"/></linearGradient><linearGradient id="ak" x1="74.0873" y1="164.271" x2="92.2128" y2="164.73" gradientUnits="userSpaceOnUse"><stop stop-color="#E07242"/><stop offset=".57" stop-color="#E17343"/><stop offset="1" stop-color="#FF9C6C"/></linearGradient><linearGradient id="al" x1="34.1346" y1="163.318" x2="46.5454" y2="163.632" gradientUnits="userSpaceOnUse"><stop stop-color="#FF814D"/><stop offset="1" stop-color="#FF9C6C"/></linearGradient><linearGradient id="am" x1="62.2392" y1="190.083" x2="64.0988" y2="168.396" gradientUnits="userSpaceOnUse"><stop offset=".09" stop-color="#D8E0D4"/><stop offset=".18" stop-color="#E3E8E0"/><stop offset=".34" stop-color="#F2F5F1"/><stop offset=".52" stop-color="#FCFCFB"/><stop offset=".73" stop-color="#fff"/></linearGradient><linearGradient id="an" x1="42.7448" y1="165.653" x2="58.3817" y2="166.049" gradientUnits="userSpaceOnUse"><stop offset=".32" stop-color="#E07242"/><stop offset=".51" stop-color="#DB6F41"/><stop offset=".7" stop-color="#CE6841"/><stop offset=".91" stop-color="#B95C40"/><stop offset="1" stop-color="#AD5540"/></linearGradient><linearGradient id="ao" x1="70.616" y1="162.788" x2="79.3566" y2="150.661" gradientUnits="userSpaceOnUse"><stop offset=".29" stop-color="#FF814D"/><stop offset="1" stop-color="#FF9C6C"/></linearGradient><linearGradient id="ap" x1="57.6301" y1="168.44" x2="71.084" y2="163.529" gradientUnits="userSpaceOnUse"><stop offset=".65" stop-color="#FF9665"/><stop offset="1" stop-color="#FFA87E"/></linearGradient><linearGradient id="aq" x1="59.0773" y1="163.8" x2="61.2133" y2="163.854" gradientUnits="userSpaceOnUse"><stop stop-color="#7A3D1C"/><stop offset="1" stop-color="#4A2511"/></linearGradient><linearGradient id="ar" x1="51.8024" y1="159.1" x2="53.4037" y2="159.14" gradientUnits="userSpaceOnUse"><stop stop-color="#7A3D1C"/><stop offset="1" stop-color="#4A2511"/></linearGradient><linearGradient id="as" x1="62.2677" y1="167.264" x2="64.1276" y2="167.311" gradientUnits="userSpaceOnUse"><stop stop-color="#7A3D1C"/><stop offset="1" stop-color="#4A2511"/></linearGradient><linearGradient id="at" x1="70.0226" y1="166.269" x2="71.1802" y2="166.298" gradientUnits="userSpaceOnUse"><stop stop-color="#7A3D1C"/><stop offset="1" stop-color="#4A2511"/></linearGradient><linearGradient id="au" x1="57.5016" y1="170.182" x2="58.6592" y2="170.211" gradientUnits="userSpaceOnUse"><stop stop-color="#623117"/><stop offset="1" stop-color="#4A2511"/></linearGradient><linearGradient id="av" x1="69.339" y1="170.264" x2="70.4995" y2="170.294" gradientUnits="userSpaceOnUse"><stop stop-color="#7A3D1C"/><stop offset="1" stop-color="#4A2511"/></linearGradient><linearGradient id="aw" x1="53.306" y1="169.835" x2="54.4636" y2="169.864" gradientUnits="userSpaceOnUse"><stop stop-color="#623117"/><stop offset="1" stop-color="#4A2511"/></linearGradient><linearGradient id="ax" x1="57.4854" y1="166.525" x2="58.6431" y2="166.554" gradientUnits="userSpaceOnUse"><stop stop-color="#7A3D1C"/><stop offset="1" stop-color="#4A2511"/></linearGradient><linearGradient id="ay" x1="73.561" y1="161.563" x2="74.7186" y2="161.593" gradientUnits="userSpaceOnUse"><stop stop-color="#7A3D1C"/><stop offset="1" stop-color="#4A2511"/></linearGradient><linearGradient id="az" x1="41.3879" y1="158.548" x2="42.5484" y2="158.577" gradientUnits="userSpaceOnUse"><stop stop-color="#7A3D1C"/><stop offset="1" stop-color="#4A2511"/></linearGradient><linearGradient id="aA" x1="87.2245" y1="162.563" x2="88.3822" y2="162.592" gradientUnits="userSpaceOnUse"><stop stop-color="#7A3D1C"/><stop offset="1" stop-color="#4A2511"/></linearGradient><linearGradient id="aB" x1="38.6379" y1="161.264" x2="39.5252" y2="161.286" gradientUnits="userSpaceOnUse"><stop stop-color="#7A3D1C"/><stop offset="1" stop-color="#4A2511"/></linearGradient><linearGradient id="aC" x1="68.319" y1="161.064" x2="69.8042" y2="160.257" gradientUnits="userSpaceOnUse"><stop stop-color="#7A3D1C"/><stop offset="1" stop-color="#4A2511"/></linearGradient><linearGradient id="aD" x1="87.7357" y1="161.502" x2="89.219" y2="160.696" gradientUnits="userSpaceOnUse"><stop stop-color="#7A3D1C"/><stop offset="1" stop-color="#4A2511"/></linearGradient><linearGradient id="aE" x1="75.99" y1="165.047" x2="77.4753" y2="164.239" gradientUnits="userSpaceOnUse"><stop stop-color="#7A3D1C"/><stop offset="1" stop-color="#4A2511"/></linearGradient><linearGradient id="aF" x1="70.006" y1="166.534" x2="71.921" y2="165.493" gradientUnits="userSpaceOnUse"><stop stop-color="#7A3D1C"/><stop offset="1" stop-color="#4A2511"/></linearGradient><linearGradient id="aG" x1="90.3877" y1="165.136" x2="92.3028" y2="164.095" gradientUnits="userSpaceOnUse"><stop stop-color="#7A3D1C"/><stop offset="1" stop-color="#4A2511"/></linearGradient><linearGradient id="aH" x1="81.4356" y1="151.806" x2="79.1113" y2="152.939" gradientUnits="userSpaceOnUse"><stop stop-color="#7A3D1C"/><stop offset="1" stop-color="#4A2511"/></linearGradient><linearGradient id="aI" x1="39.5549" y1="162.821" x2="38.3961" y2="165.133" gradientUnits="userSpaceOnUse"><stop stop-color="#7A3D1C"/><stop offset="1" stop-color="#4A2511"/></linearGradient><linearGradient id="aJ" x1="84.3256" y1="163.183" x2="83.1651" y2="165.498" gradientUnits="userSpaceOnUse"><stop stop-color="#7A3D1C"/><stop offset="1" stop-color="#4A2511"/></linearGradient><linearGradient id="aK" x1="61.8953" y1="188.717" x2="60.2409" y2="189.617" gradientUnits="userSpaceOnUse"><stop stop-color="#7A3D1C"/><stop offset="1" stop-color="#4A2511"/></linearGradient><linearGradient id="aL" x1="79.3541" y1="156.586" x2="77.3304" y2="157.572" gradientUnits="userSpaceOnUse"><stop stop-color="#7A3D1C"/><stop offset="1" stop-color="#4A2511"/></linearGradient><linearGradient id="aM" x1="71.4978" y1="153.088" x2="69.4741" y2="154.075" gradientUnits="userSpaceOnUse"><stop stop-color="#7A3D1C"/><stop offset="1" stop-color="#4A2511"/></linearGradient><linearGradient id="aN" x1="68.5618" y1="157.518" x2="67.299" y2="158.134" gradientUnits="userSpaceOnUse"><stop stop-color="#7A3D1C"/><stop offset="1" stop-color="#4A2511"/></linearGradient><linearGradient id="aO" x1="82.2873" y1="159.894" x2="81.0277" y2="160.509" gradientUnits="userSpaceOnUse"><stop stop-color="#7A3D1C"/><stop offset="1" stop-color="#4A2511"/></linearGradient><linearGradient id="aP" x1="84.3008" y1="153.482" x2="83.0412" y2="154.096" gradientUnits="userSpaceOnUse"><stop stop-color="#7A3D1C"/><stop offset="1" stop-color="#4A2511"/></linearGradient><linearGradient id="aQ" x1="93.0877" y1="163.593" x2="91.8281" y2="164.208" gradientUnits="userSpaceOnUse"><stop stop-color="#7A3D1C"/><stop offset="1" stop-color="#4A2511"/></linearGradient><linearGradient id="aR" x1="152.482" y1="155.262" x2="150.516" y2="155.278" gradientUnits="userSpaceOnUse"><stop stop-color="#7A3D1C"/><stop offset="1" stop-color="#4A2511"/></linearGradient><linearGradient id="aS" x1="-66.3239" y1="-109.982" x2="-67.2034" y2="-111.741" gradientUnits="userSpaceOnUse"><stop stop-color="#7A3D1C"/><stop offset="1" stop-color="#4A2511"/></linearGradient><linearGradient id="aT" x1="222.648" y1="152.686" x2="220.105" y2="152.707" gradientUnits="userSpaceOnUse"><stop stop-color="#7A3D1C"/><stop offset="1" stop-color="#4A2511"/></linearGradient><linearGradient id="aU" x1="42.9314" y1="163.188" x2="58.5066" y2="163.582" gradientUnits="userSpaceOnUse"><stop offset=".3" stop-color="#FF9665"/><stop offset="1" stop-color="#FFA87E"/></linearGradient><linearGradient id="aV" x1="45.6874" y1="161.29" x2="46.2368" y2="161.303" gradientUnits="userSpaceOnUse"><stop stop-color="#7A3D1C"/><stop offset="1" stop-color="#4A2511"/></linearGradient><linearGradient id="aW" x1="90.2687" y1="162.508" x2="90.8181" y2="162.522" gradientUnits="userSpaceOnUse"><stop stop-color="#7A3D1C"/><stop offset="1" stop-color="#4A2511"/></linearGradient><linearGradient id="aX" x1="62.1818" y1="170.766" x2="62.7312" y2="170.78" gradientUnits="userSpaceOnUse"><stop stop-color="#623117"/><stop offset="1" stop-color="#4A2511"/></linearGradient><linearGradient id="aY" x1="69.931" y1="163.493" x2="70.4804" y2="163.506" gradientUnits="userSpaceOnUse"><stop stop-color="#7A3D1C"/><stop offset="1" stop-color="#4A2511"/></linearGradient><linearGradient id="aZ" x1="50.5901" y1="159.137" x2="51.4774" y2="159.159" gradientUnits="userSpaceOnUse"><stop stop-color="#7A3D1C"/><stop offset="1" stop-color="#4A2511"/></linearGradient><linearGradient id="ba" x1="78.672" y1="170.098" x2="79.5593" y2="170.12" gradientUnits="userSpaceOnUse"><stop stop-color="#7A3D1C"/><stop offset="1" stop-color="#4A2511"/></linearGradient><linearGradient id="bb" x1="41.3745" y1="169.514" x2="42.2648" y2="169.537" gradientUnits="userSpaceOnUse"><stop stop-color="#623117"/><stop offset="1" stop-color="#4A2511"/></linearGradient><linearGradient id="bc" x1="83.7641" y1="160.242" x2="84.6515" y2="160.265" gradientUnits="userSpaceOnUse"><stop stop-color="#7A3D1C"/><stop offset="1" stop-color="#4A2511"/></linearGradient><linearGradient id="bd" x1="73.3132" y1="168.318" x2="74.2005" y2="168.34" gradientUnits="userSpaceOnUse"><stop stop-color="#7A3D1C"/><stop offset="1" stop-color="#4A2511"/></linearGradient><linearGradient id="be" x1="56.2139" y1="161.974" x2="57.8647" y2="163.192" gradientUnits="userSpaceOnUse"><stop stop-color="#7A3D1C"/><stop offset="1" stop-color="#4A2511"/></linearGradient><linearGradient id="bf" x1="60.8066" y1="191.864" x2="59.0385" y2="192.504" gradientUnits="userSpaceOnUse"><stop stop-color="#7A3D1C"/><stop offset="1" stop-color="#4A2511"/></linearGradient><linearGradient id="bg" x1="90.6326" y1="196.25" x2="88.8645" y2="196.89" gradientUnits="userSpaceOnUse"><stop stop-color="#7A3D1C"/><stop offset="1" stop-color="#4A2511"/></linearGradient><linearGradient id="bh" x1="57.425" y1="190.241" x2="55.5769" y2="189.894" gradientUnits="userSpaceOnUse"><stop stop-color="#623117"/><stop offset="1" stop-color="#4A2511"/></linearGradient><linearGradient id="bi" x1="12.0211" y1="188.09" x2="52.1912" y2="189.108" gradientUnits="userSpaceOnUse"><stop stop-color="#7A3D1C"/><stop offset=".56" stop-color="#A76645"/><stop offset=".87" stop-color="#BB7957"/></linearGradient><linearGradient id="bj" x1="12.2274" y1="179.943" x2="52.398" y2="180.961" gradientUnits="userSpaceOnUse"><stop stop-color="#7A3D1C"/><stop offset=".56" stop-color="#A76645"/><stop offset=".87" stop-color="#BB7957"/></linearGradient><linearGradient id="bk" x1="30.1669" y1="187.623" x2="28.025" y2="187.569" gradientUnits="userSpaceOnUse"><stop stop-color="#7A3D1C"/><stop offset="1" stop-color="#4A2511"/></linearGradient><linearGradient id="bl" x1="27.1668" y1="190.351" x2="52.0119" y2="190.98" gradientUnits="userSpaceOnUse"><stop stop-color="#854A2A"/><stop offset="1" stop-color="#BA7A5F"/></linearGradient><linearGradient id="bm" x1="35.9335" y1="170.062" x2="25.9232" y2="169.808" gradientUnits="userSpaceOnUse"><stop offset=".35" stop-color="#7A3D1C" stop-opacity=".2"/><stop offset=".5" stop-color="#773D1E" stop-opacity=".33"/><stop offset=".77" stop-color="#6F3D25" stop-opacity=".66"/><stop offset="1" stop-color="#683E2D"/></linearGradient><linearGradient id="bn" x1="27.1581" y1="175.144" x2="40.7883" y2="175.489" gradientUnits="userSpaceOnUse"><stop stop-color="#7A3D1C"/><stop offset="1" stop-color="#9D6648"/></linearGradient><linearGradient id="bo" x1="42.4316" y1="180.944" x2="29.7211" y2="180.622" gradientUnits="userSpaceOnUse"><stop offset=".35" stop-color="#7A3D1C" stop-opacity=".2"/><stop offset=".5" stop-color="#773D1E" stop-opacity=".33"/><stop offset=".77" stop-color="#6F3D25" stop-opacity=".66"/><stop offset="1" stop-color="#683E2D"/></linearGradient><linearGradient id="bp" x1="27.1664" y1="185.482" x2="44.6456" y2="185.925" gradientUnits="userSpaceOnUse"><stop stop-color="#7A3D1C"/><stop offset="1" stop-color="#9D6648"/></linearGradient><linearGradient id="bq" x1="42.7346" y1="189.286" x2="38.2598" y2="189.173" gradientUnits="userSpaceOnUse"><stop stop-color="#7A3D1C" stop-opacity="0"/><stop offset=".04" stop-color="#703819" stop-opacity=".2"/><stop offset=".13" stop-color="#623116" stop-opacity=".5"/><stop offset=".23" stop-color="#572B14" stop-opacity=".72"/><stop offset=".35" stop-color="#4F2712" stop-opacity=".88"/><stop offset=".52" stop-color="#4B2511" stop-opacity=".97"/><stop offset="1" stop-color="#4A2511"/></linearGradient><linearGradient id="br" x1="49.9528" y1="191.011" x2="16.9691" y2="175.286" gradientUnits="userSpaceOnUse"><stop stop-color="#763D20" stop-opacity=".34"/><stop offset=".41" stop-color="#723D24" stop-opacity=".47"/><stop offset=".55" stop-color="#7A3D1C" stop-opacity=".2"/><stop offset=".74" stop-color="#793D1C" stop-opacity=".22"/><stop offset=".81" stop-color="#783D1D" stop-opacity=".28"/><stop offset=".86" stop-color="#773D1E" stop-opacity=".38"/><stop offset=".9" stop-color="#743D21" stop-opacity=".54"/><stop offset=".94" stop-color="#723D24" stop-opacity=".71"/><stop offset="1" stop-color="#683E2D"/></linearGradient><linearGradient id="bs" x1="26.1634" y1="184.847" x2="26.0772" y2="184.845" gradientUnits="userSpaceOnUse"><stop stop-color="#7A3D1C"/><stop offset="1" stop-color="#4A2511"/></linearGradient><linearGradient id="bt" x1="25.9818" y1="184.819" x2="25.8957" y2="184.817" gradientUnits="userSpaceOnUse"><stop stop-color="#7A3D1C"/><stop offset="1" stop-color="#4A2511"/></linearGradient><linearGradient id="bu" x1="26.3385" y1="184.896" x2="26.2553" y2="184.894" gradientUnits="userSpaceOnUse"><stop stop-color="#7A3D1C"/><stop offset="1" stop-color="#4A2511"/></linearGradient><linearGradient id="bv" x1="26.673" y1="185.043" x2="26.6014" y2="185.041" gradientUnits="userSpaceOnUse"><stop stop-color="#7A3D1C"/><stop offset="1" stop-color="#4A2511"/></linearGradient><linearGradient id="bw" x1="26.8289" y1="185.141" x2="26.7726" y2="185.14" gradientUnits="userSpaceOnUse"><stop stop-color="#7A3D1C"/><stop offset="1" stop-color="#4A2511"/></linearGradient><linearGradient id="bx" x1="26.5073" y1="184.962" x2="26.43" y2="184.96" gradientUnits="userSpaceOnUse"><stop stop-color="#7A3D1C"/><stop offset="1" stop-color="#4A2511"/></linearGradient><linearGradient id="by" x1="27.2916" y1="185.423" x2="26.9713" y2="185.415" gradientUnits="userSpaceOnUse"><stop stop-color="#7A3D1C"/><stop offset="1" stop-color="#4A2511"/></linearGradient><linearGradient id="bz" x1="28.1818" y1="181.157" x2="11.6635" y2="180.738" gradientUnits="userSpaceOnUse"><stop stop-color="#7A3D1C"/><stop offset="1" stop-color="#4A2511"/></linearGradient><linearGradient id="bA" x1="84.8127" y1="93.266" x2="79.0681" y2="83.6198" gradientUnits="userSpaceOnUse"><stop stop-color="#FFE5DA"/><stop offset="1" stop-color="#fff"/></linearGradient><radialGradient id="G" cx="0" cy="0" r="1" gradientUnits="userSpaceOnUse" gradientTransform="rotate(-90.167 60.461 22.2366) scale(4.25845 12.6398)"><stop stop-color="#D48C8F"/><stop offset=".2" stop-color="#B77374"/><stop offset=".55" stop-color="#8B4D4B"/><stop offset=".73" stop-color="#7B3F3C"/><stop offset=".8" stop-color="#834442"/><stop offset=".9" stop-color="#995454"/><stop offset="1" stop-color="#B5686A"/></radialGradient><clipPath id="b"><path fill="#fff" transform="rotate(1.452 -433.2723 -470.3239)" d="M0 0h112.312v212.093H0z"/></clipPath></defs></svg>